<svg xmlns="http://www.w3.org/2000/svg" width="159" height="166" viewBox="0 0 159 166"><defs><clipPath id="u70wa"><path fill="#fff" d="M64.475 62.366c9.088-6.203 15.004 1.736 15.004 1.736s5.916-7.939 15.003-1.736c15.755 10.754-14.849 43.637-14.849 43.637S48.72 73.12 64.475 62.366zm14.9 7.821c-.6-.876-2.308-2.644-3.167-3.33-.852-.68-4.397-3.432-8.999-.292-1.388.948-2.056 2.065-2.234 3.737a9.034 9.034 0 0 0-.048.95c0 7.25 7.876 19.057 14.686 27.198 6.71-8.114 14.451-19.865 14.451-27.115 0-.339-.017-.667-.052-.986-.184-1.695-.862-2.826-2.264-3.784-4.601-3.14-7.154-1.197-8.694.03-2.054 1.636-2.995 2.716-3.68 3.592-.684.876 0 0 0 0z"/></clipPath></defs><g><g><path d="M64.475 62.366c9.088-6.203 15.004 1.736 15.004 1.736s5.916-7.939 15.003-1.736c15.755 10.754-14.849 43.637-14.849 43.637S48.72 73.12 64.475 62.366zm14.9 7.821c-.6-.876-2.308-2.644-3.167-3.33-.852-.68-4.397-3.432-8.999-.292-1.388.948-2.056 2.065-2.234 3.737a9.034 9.034 0 0 0-.048.95c0 7.25 7.876 19.057 14.686 27.198 6.71-8.114 14.451-19.865 14.451-27.115 0-.339-.017-.667-.052-.986-.184-1.695-.862-2.826-2.264-3.784-4.601-3.14-7.154-1.197-8.694.03-2.054 1.636-2.995 2.716-3.68 3.592-.684.876 0 0 0 0z"/><path fill="none" stroke="#fff" stroke-miterlimit="20" stroke-width="6" d="M64.475 62.366c9.088-6.203 15.004 1.736 15.004 1.736s5.916-7.939 15.003-1.736c15.755 10.754-14.849 43.637-14.849 43.637S48.72 73.12 64.475 62.366zm14.9 7.821c-.6-.876-2.308-2.644-3.167-3.33-.852-.68-4.397-3.432-8.999-.292-1.388.948-2.056 2.065-2.234 3.737a9.034 9.034 0 0 0-.048.95c0 7.25 7.876 19.057 14.686 27.198 6.71-8.114 14.451-19.865 14.451-27.115 0-.339-.017-.667-.052-.986-.184-1.695-.862-2.826-2.264-3.784-4.601-3.14-7.154-1.197-8.694.03-2.054 1.636-2.995 2.716-3.68 3.592-.684.876 0 0 0 0z" clip-path="url(&quot;#u70wa&quot;)"/></g></g></svg>