<svg xmlns="http://www.w3.org/2000/svg" width="158" height="161" viewBox="0 0 158 161"><defs><clipPath id="og3ua"><path fill="#fff" d="M61.63 99.905c-1.509-1.173-1.757-3.308-.548-4.763l10.922-13.174c.77-.933 1.95-1.36 3.095-1.24a12.11 12.11 0 0 1-3.324-7.041c-.378-3.276.584-6.488 2.703-9.044 2.12-2.558 5.147-4.16 8.528-4.51 3.382-.351 6.707.593 9.361 2.659 5.48 4.266 6.375 12.036 1.994 17.322-3.98 4.798-10.96 5.923-16.313 2.899a3.29 3.29 0 0 1-.578 3.208L66.548 99.399c-1.208 1.455-3.41 1.683-4.918.506zm23.772-18.989c2.358-.243 4.469-1.36 5.946-3.143 3.057-3.684 2.434-9.104-1.386-12.081-3.826-2.975-9.421-2.396-12.474 1.289-3.056 3.685-2.434 9.104 1.388 12.08a9.052 9.052 0 0 0 6.526 1.855z"/></clipPath></defs><g><g><path d="M61.63 99.905c-1.509-1.173-1.757-3.308-.548-4.763l10.922-13.174c.77-.933 1.95-1.36 3.095-1.24a12.11 12.11 0 0 1-3.324-7.041c-.378-3.276.584-6.488 2.703-9.044 2.12-2.558 5.147-4.16 8.528-4.51 3.382-.351 6.707.593 9.361 2.659 5.48 4.266 6.375 12.036 1.994 17.322-3.98 4.798-10.96 5.923-16.313 2.899a3.29 3.29 0 0 1-.578 3.208L66.548 99.399c-1.208 1.455-3.41 1.683-4.918.506zm23.772-18.989c2.358-.243 4.469-1.36 5.946-3.143 3.057-3.684 2.434-9.104-1.386-12.081-3.826-2.975-9.421-2.396-12.474 1.289-3.056 3.685-2.434 9.104 1.388 12.08a9.052 9.052 0 0 0 6.526 1.855z"/><path fill="none" stroke="#fff" stroke-miterlimit="20" stroke-width="6" d="M61.63 99.905c-1.509-1.173-1.757-3.308-.548-4.763l10.922-13.174c.77-.933 1.95-1.36 3.095-1.24a12.11 12.11 0 0 1-3.324-7.041c-.378-3.276.584-6.488 2.703-9.044 2.12-2.558 5.147-4.16 8.528-4.51 3.382-.351 6.707.593 9.361 2.659 5.48 4.266 6.375 12.036 1.994 17.322-3.98 4.798-10.96 5.923-16.313 2.899a3.29 3.29 0 0 1-.578 3.208L66.548 99.399c-1.208 1.455-3.41 1.683-4.918.506zm23.772-18.989c2.358-.243 4.469-1.36 5.946-3.143 3.057-3.684 2.434-9.104-1.386-12.081-3.826-2.975-9.421-2.396-12.474 1.289-3.056 3.685-2.434 9.104 1.388 12.08a9.052 9.052 0 0 0 6.526 1.855z" clip-path="url(&quot;#og3ua&quot;)"/></g></g></svg>