<svg width="342" height="219" viewBox="0 0 342 219" fill="none" xmlns="http://www.w3.org/2000/svg">
<g filter="url(#filter0_ddd)">
<g filter="url(#filter1_ddd)">
<rect x="4" width="334" height="211" rx="10" fill="#74B370"/>
</g>
<mask id="mask0" mask-type="alpha" maskUnits="userSpaceOnUse" x="4" y="0" width="334" height="211">
<rect x="4" width="334" height="211" rx="10" fill="#74B370"/>
</mask>
<g mask="url(#mask0)">
<circle cx="347" cy="133" r="197" fill="#EC6D5F"/>
</g>
<circle cx="300" cy="174" r="23" fill="white" fill-opacity="0.56"/>
<circle cx="277" cy="174" r="23" fill="white"/>
<circle cx="89.093" cy="122.093" r="4.09302" fill="white"/>
<circle cx="133.093" cy="122.093" r="4.09302" fill="white"/>
<circle cx="118.302" cy="122.093" r="4.09302" fill="white"/>
<circle cx="104.093" cy="122.093" r="4.09302" fill="white"/>
<circle cx="154.093" cy="122.093" r="4.09302" fill="white"/>
<circle cx="198.093" cy="122.093" r="4.09302" fill="white"/>
<circle cx="183.302" cy="122.093" r="4.09302" fill="white"/>
<circle cx="169.093" cy="122.093" r="4.09302" fill="white"/>
<g filter="url(#filter2_dd)">
<path d="M29.0645 121.047L29.9336 113.781H38.2441V116.34H32.6094L32.2871 119.162C32.5215 119.025 32.8275 118.905 33.2051 118.801C33.5892 118.697 33.9635 118.645 34.3281 118.645C35.7409 118.645 36.8249 119.064 37.5801 119.904C38.3418 120.738 38.7227 121.91 38.7227 123.42C38.7227 124.331 38.5176 125.158 38.1074 125.9C37.7038 126.636 37.1341 127.202 36.3984 127.6C35.6628 127.997 34.7936 128.195 33.791 128.195C32.8991 128.195 32.0625 128.013 31.2812 127.648C30.5 127.277 29.888 126.773 29.4453 126.135C29.0026 125.49 28.7845 124.764 28.791 123.957H32.0918C32.1243 124.478 32.2904 124.891 32.5898 125.197C32.8893 125.503 33.2832 125.656 33.7715 125.656C34.8783 125.656 35.4316 124.836 35.4316 123.195C35.4316 121.678 34.7546 120.92 33.4004 120.92C32.6322 120.92 32.0592 121.167 31.6816 121.662L29.0645 121.047ZM50.373 128H40.4512V125.852L45.0215 121.047C46.1478 119.764 46.7109 118.745 46.7109 117.99C46.7109 117.378 46.5775 116.913 46.3105 116.594C46.0436 116.275 45.6562 116.115 45.1484 116.115C44.6471 116.115 44.2402 116.33 43.9277 116.76C43.6152 117.183 43.459 117.714 43.459 118.352H40.1582C40.1582 117.479 40.3763 116.675 40.8125 115.939C41.2487 115.197 41.8542 114.618 42.6289 114.201C43.4036 113.785 44.2695 113.576 45.2266 113.576C46.763 113.576 47.9447 113.931 48.7715 114.641C49.6048 115.35 50.0215 116.369 50.0215 117.697C50.0215 118.257 49.9173 118.804 49.709 119.338C49.5007 119.865 49.1751 120.422 48.7324 121.008C48.2962 121.587 47.5898 122.365 46.6133 123.342L44.7773 125.461H50.373V128ZM58.5176 122.502C57.8079 123.14 57.0137 123.459 56.1348 123.459C54.8457 123.459 53.8236 123.023 53.0684 122.15C52.3132 121.278 51.9355 120.113 51.9355 118.654C51.9355 117.743 52.1471 116.896 52.5703 116.115C52.9935 115.334 53.5859 114.715 54.3477 114.26C55.1159 113.804 55.9622 113.576 56.8867 113.576C57.8242 113.576 58.6706 113.814 59.4258 114.289C60.1875 114.758 60.7799 115.425 61.2031 116.291C61.6263 117.15 61.8444 118.143 61.8574 119.27V120.529C61.8574 122.098 61.5482 123.459 60.9297 124.611C60.3177 125.764 59.4421 126.649 58.3027 127.268C57.1634 127.886 55.8353 128.195 54.3184 128.195H54.1133V125.559L54.7383 125.549C57.0039 125.438 58.2637 124.423 58.5176 122.502ZM57.0234 121.086C57.7396 121.086 58.2539 120.777 58.5664 120.158V118.791C58.5664 117.88 58.4134 117.206 58.1074 116.77C57.8014 116.333 57.388 116.115 56.8672 116.115C56.4049 116.115 56.0176 116.363 55.7051 116.857C55.3926 117.352 55.2363 117.951 55.2363 118.654C55.2363 119.396 55.3958 119.989 55.7148 120.432C56.0339 120.868 56.4701 121.086 57.0234 121.086ZM73.4883 122.189C73.4883 124.11 73.0553 125.591 72.1895 126.633C71.3301 127.674 70.1159 128.195 68.5469 128.195C66.9648 128.195 65.7409 127.671 64.875 126.623C64.0091 125.575 63.5762 124.097 63.5762 122.189V119.592C63.5762 117.671 64.0059 116.19 64.8652 115.148C65.7311 114.107 66.9518 113.586 68.5273 113.586C70.1029 113.586 71.3236 114.11 72.1895 115.158C73.0553 116.206 73.4883 117.688 73.4883 119.602V122.189ZM70.1973 119.172C70.1973 118.15 70.0638 117.388 69.7969 116.887C69.5299 116.379 69.1068 116.125 68.5273 116.125C67.9609 116.125 67.5475 116.359 67.2871 116.828C67.0332 117.297 66.8965 118.007 66.877 118.957V122.59C66.877 123.651 67.0104 124.429 67.2773 124.924C67.5443 125.412 67.9674 125.656 68.5469 125.656C69.1068 125.656 69.5202 125.419 69.7871 124.943C70.054 124.462 70.1908 123.71 70.1973 122.688V119.172Z" fill="white"/>
</g>
<g filter="url(#filter3_dd)">
<path d="M36.1094 76.4883C35.9336 77.9922 35.377 79.1543 34.4395 79.9746C33.5085 80.7884 32.2682 81.1953 30.7188 81.1953C29.0391 81.1953 27.6914 80.5931 26.6758 79.3887C25.6667 78.1842 25.1621 76.5729 25.1621 74.5547V73.1875C25.1621 71.8659 25.3965 70.7038 25.8652 69.7012C26.3405 68.6986 27.0111 67.9303 27.877 67.3965C28.7428 66.8561 29.7454 66.5859 30.8848 66.5859C32.3952 66.5859 33.6061 67.0091 34.5176 67.8555C35.429 68.6953 35.9596 69.8607 36.1094 71.3516H34.2246C34.0618 70.2188 33.707 69.3984 33.1602 68.8906C32.6198 68.3828 31.8613 68.1289 30.8848 68.1289C29.6868 68.1289 28.7461 68.5716 28.0625 69.457C27.3854 70.3424 27.0469 71.6022 27.0469 73.2363V74.6133C27.0469 76.1562 27.3691 77.3835 28.0137 78.2949C28.6582 79.2064 29.5599 79.6621 30.7188 79.6621C31.7604 79.6621 32.5579 79.4277 33.1113 78.959C33.6712 78.4837 34.0423 77.6602 34.2246 76.4883H36.1094ZM44.918 81C44.8138 80.7917 44.7292 80.4206 44.6641 79.8867C43.8242 80.7591 42.8216 81.1953 41.6562 81.1953C40.6146 81.1953 39.7585 80.9023 39.0879 80.3164C38.4238 79.724 38.0918 78.9753 38.0918 78.0703C38.0918 76.9701 38.5085 76.1172 39.3418 75.5117C40.1816 74.8997 41.36 74.5938 42.877 74.5938H44.6348V73.7637C44.6348 73.1322 44.446 72.6309 44.0684 72.2598C43.6908 71.8822 43.1341 71.6934 42.3984 71.6934C41.7539 71.6934 41.2135 71.8561 40.7773 72.1816C40.3411 72.5072 40.123 72.901 40.123 73.3633H38.3066C38.3066 72.8359 38.4922 72.3281 38.8633 71.8398C39.2409 71.3451 39.7487 70.9544 40.3867 70.668C41.0312 70.3815 41.7376 70.2383 42.5059 70.2383C43.7233 70.2383 44.6771 70.5443 45.3672 71.1562C46.0573 71.7617 46.4154 72.5983 46.4414 73.666V78.5293C46.4414 79.4993 46.5651 80.2708 46.8125 80.8438V81H44.918ZM41.9199 79.623C42.4863 79.623 43.0234 79.4766 43.5312 79.1836C44.0391 78.8906 44.4069 78.5098 44.6348 78.041V75.873H43.2188C41.0052 75.873 39.8984 76.5208 39.8984 77.8164C39.8984 78.3828 40.0872 78.8255 40.4648 79.1445C40.8424 79.4635 41.3275 79.623 41.9199 79.623ZM54.3809 72.0547C54.1074 72.0091 53.8112 71.9863 53.4922 71.9863C52.3073 71.9863 51.5033 72.4909 51.0801 73.5V81H49.2734V70.4336H51.0312L51.0605 71.6543C51.653 70.7103 52.4928 70.2383 53.5801 70.2383C53.9316 70.2383 54.1986 70.2839 54.3809 70.375V72.0547ZM55.416 75.6289C55.416 74.0078 55.8001 72.7057 56.5684 71.7227C57.3366 70.7331 58.3424 70.2383 59.5859 70.2383C60.8229 70.2383 61.8027 70.6615 62.5254 71.5078V66H64.332V81H62.6719L62.584 79.8672C61.8613 80.7526 60.8555 81.1953 59.5664 81.1953C58.3424 81.1953 57.3431 80.694 56.5684 79.6914C55.8001 78.6888 55.416 77.3802 55.416 75.7656V75.6289ZM57.2227 75.834C57.2227 77.0319 57.4701 77.9694 57.9648 78.6465C58.4596 79.3236 59.1432 79.6621 60.0156 79.6621C61.1615 79.6621 61.998 79.1478 62.5254 78.1191V73.2656C61.985 72.2695 61.1549 71.7715 60.0352 71.7715C59.1497 71.7715 58.4596 72.1133 57.9648 72.7969C57.4701 73.4805 57.2227 74.4928 57.2227 75.834ZM73.8145 70.4336L73.873 71.7617C74.6803 70.7461 75.735 70.2383 77.0371 70.2383C79.2702 70.2383 80.3965 71.498 80.416 74.0176V81H78.6094V74.0078C78.6029 73.2461 78.4271 72.6829 78.082 72.3184C77.7435 71.9538 77.2129 71.7715 76.4902 71.7715C75.9043 71.7715 75.39 71.9277 74.9473 72.2402C74.5046 72.5527 74.1595 72.9629 73.9121 73.4707V81H72.1055V70.4336H73.8145ZM89.6641 79.9551C88.9609 80.7819 87.929 81.1953 86.5684 81.1953C85.4421 81.1953 84.5827 80.8698 83.9902 80.2188C83.4043 79.5612 83.1081 78.5911 83.1016 77.3086V70.4336H84.9082V77.2598C84.9082 78.8613 85.5592 79.6621 86.8613 79.6621C88.2415 79.6621 89.1595 79.1478 89.6152 78.1191V70.4336H91.4219V81H89.7031L89.6641 79.9551ZM95.875 70.4336L95.9238 71.6055C96.6986 70.694 97.7435 70.2383 99.0586 70.2383C100.536 70.2383 101.542 70.8047 102.076 71.9375C102.428 71.4297 102.883 71.0195 103.443 70.707C104.01 70.3945 104.677 70.2383 105.445 70.2383C107.763 70.2383 108.941 71.4655 108.98 73.9199V81H107.174V74.0273C107.174 73.2721 107.001 72.709 106.656 72.3379C106.311 71.9603 105.732 71.7715 104.918 71.7715C104.247 71.7715 103.691 71.9733 103.248 72.377C102.805 72.7741 102.548 73.3112 102.477 73.9883V81H100.66V74.0762C100.66 72.5397 99.9082 71.7715 98.4043 71.7715C97.2194 71.7715 96.4089 72.276 95.9727 73.2852V81H94.166V70.4336H95.875ZM120.66 75.834C120.66 77.4486 120.289 78.7474 119.547 79.7305C118.805 80.707 117.809 81.1953 116.559 81.1953C115.224 81.1953 114.192 80.7233 113.463 79.7793L113.375 81H111.715V66H113.521V71.5957C114.251 70.6908 115.257 70.2383 116.539 70.2383C117.822 70.2383 118.827 70.7233 119.557 71.6934C120.292 72.6634 120.66 73.9915 120.66 75.6777V75.834ZM118.854 75.6289C118.854 74.3984 118.616 73.4479 118.141 72.7773C117.665 72.1068 116.982 71.7715 116.09 71.7715C114.898 71.7715 114.042 72.3249 113.521 73.4316V78.002C114.075 79.1087 114.938 79.6621 116.109 79.6621C116.975 79.6621 117.649 79.3268 118.131 78.6562C118.613 77.9857 118.854 76.9766 118.854 75.6289ZM127.33 81.1953C125.898 81.1953 124.732 80.7266 123.834 79.7891C122.936 78.8451 122.486 77.5853 122.486 76.0098V75.6777C122.486 74.6296 122.685 73.6953 123.082 72.875C123.486 72.0482 124.046 71.4036 124.762 70.9414C125.484 70.4727 126.266 70.2383 127.105 70.2383C128.479 70.2383 129.547 70.6908 130.309 71.5957C131.07 72.5007 131.451 73.7962 131.451 75.4824V76.2344H124.293C124.319 77.276 124.622 78.1191 125.201 78.7637C125.787 79.4017 126.529 79.7207 127.428 79.7207C128.066 79.7207 128.606 79.5905 129.049 79.3301C129.492 79.0697 129.879 78.7246 130.211 78.2949L131.314 79.1543C130.429 80.515 129.101 81.1953 127.33 81.1953ZM127.105 71.7227C126.376 71.7227 125.764 71.9896 125.27 72.5234C124.775 73.0508 124.469 73.793 124.352 74.75H129.645V74.6133C129.592 73.6953 129.345 72.9857 128.902 72.4844C128.46 71.9766 127.861 71.7227 127.105 71.7227ZM138.658 72.0547C138.385 72.0091 138.089 71.9863 137.77 71.9863C136.585 71.9863 135.781 72.4909 135.357 73.5V81H133.551V70.4336H135.309L135.338 71.6543C135.93 70.7103 136.77 70.2383 137.857 70.2383C138.209 70.2383 138.476 70.2839 138.658 70.375V72.0547Z" fill="white"/>
</g>
<g filter="url(#filter4_dd)">
<path d="M216.064 121.047L216.934 113.781H225.244V116.34H219.609L219.287 119.162C219.521 119.025 219.827 118.905 220.205 118.801C220.589 118.697 220.964 118.645 221.328 118.645C222.741 118.645 223.825 119.064 224.58 119.904C225.342 120.738 225.723 121.91 225.723 123.42C225.723 124.331 225.518 125.158 225.107 125.9C224.704 126.636 224.134 127.202 223.398 127.6C222.663 127.997 221.794 128.195 220.791 128.195C219.899 128.195 219.062 128.013 218.281 127.648C217.5 127.277 216.888 126.773 216.445 126.135C216.003 125.49 215.785 124.764 215.791 123.957H219.092C219.124 124.478 219.29 124.891 219.59 125.197C219.889 125.503 220.283 125.656 220.771 125.656C221.878 125.656 222.432 124.836 222.432 123.195C222.432 121.678 221.755 120.92 220.4 120.92C219.632 120.92 219.059 121.167 218.682 121.662L216.064 121.047ZM233.936 122.502C233.226 123.14 232.432 123.459 231.553 123.459C230.264 123.459 229.242 123.023 228.486 122.15C227.731 121.278 227.354 120.113 227.354 118.654C227.354 117.743 227.565 116.896 227.988 116.115C228.411 115.334 229.004 114.715 229.766 114.26C230.534 113.804 231.38 113.576 232.305 113.576C233.242 113.576 234.089 113.814 234.844 114.289C235.605 114.758 236.198 115.425 236.621 116.291C237.044 117.15 237.262 118.143 237.275 119.27V120.529C237.275 122.098 236.966 123.459 236.348 124.611C235.736 125.764 234.86 126.649 233.721 127.268C232.581 127.886 231.253 128.195 229.736 128.195H229.531V125.559L230.156 125.549C232.422 125.438 233.682 124.423 233.936 122.502ZM232.441 121.086C233.158 121.086 233.672 120.777 233.984 120.158V118.791C233.984 117.88 233.831 117.206 233.525 116.77C233.219 116.333 232.806 116.115 232.285 116.115C231.823 116.115 231.436 116.363 231.123 116.857C230.811 117.352 230.654 117.951 230.654 118.654C230.654 119.396 230.814 119.989 231.133 120.432C231.452 120.868 231.888 121.086 232.441 121.086ZM242.041 119.514H243.594C244.824 119.514 245.439 118.911 245.439 117.707C245.439 117.238 245.293 116.857 245 116.564C244.707 116.265 244.294 116.115 243.76 116.115C243.324 116.115 242.943 116.242 242.617 116.496C242.298 116.75 242.139 117.066 242.139 117.443H238.848C238.848 116.695 239.056 116.027 239.473 115.441C239.889 114.855 240.465 114.4 241.201 114.074C241.943 113.742 242.757 113.576 243.643 113.576C245.225 113.576 246.468 113.938 247.373 114.66C248.278 115.383 248.73 116.376 248.73 117.639C248.73 118.251 248.542 118.83 248.164 119.377C247.793 119.917 247.249 120.357 246.533 120.695C247.288 120.969 247.881 121.385 248.311 121.945C248.74 122.499 248.955 123.186 248.955 124.006C248.955 125.275 248.467 126.291 247.49 127.053C246.514 127.814 245.231 128.195 243.643 128.195C242.712 128.195 241.846 128.02 241.045 127.668C240.251 127.31 239.648 126.818 239.238 126.193C238.828 125.562 238.623 124.846 238.623 124.045H241.934C241.934 124.481 242.109 124.859 242.461 125.178C242.812 125.497 243.245 125.656 243.76 125.656C244.339 125.656 244.801 125.497 245.146 125.178C245.492 124.852 245.664 124.439 245.664 123.938C245.664 123.221 245.485 122.714 245.127 122.414C244.769 122.115 244.274 121.965 243.643 121.965H242.041V119.514ZM259.307 122.443H260.752V124.982H259.307V128H256.016V124.982H250.518L250.322 122.971L256.016 113.811V113.781H259.307V122.443ZM253.457 122.443H256.016V118.068L255.811 118.4L253.457 122.443Z" fill="white"/>
</g>
<path d="M33.6875 35.4277H27.5254V40.4668H34.6836V42H25.6504V27.7812H34.5859V29.3242H27.5254V33.8945H33.6875V35.4277ZM38.6973 42H36.8906V27H38.6973V42ZM43.5605 42H41.7539V31.4336H43.5605V42ZM41.6074 28.6309C41.6074 28.3379 41.6953 28.0905 41.8711 27.8887C42.0534 27.6868 42.3203 27.5859 42.6719 27.5859C43.0234 27.5859 43.2904 27.6868 43.4727 27.8887C43.6549 28.0905 43.7461 28.3379 43.7461 28.6309C43.7461 28.9238 43.6549 29.168 43.4727 29.3633C43.2904 29.5586 43.0234 29.6562 42.6719 29.6562C42.3203 29.6562 42.0534 29.5586 41.8711 29.3633C41.6953 29.168 41.6074 28.9238 41.6074 28.6309ZM49.918 39.3535L52.3789 31.4336H54.3125L50.0645 43.6309C49.4069 45.3887 48.362 46.2676 46.9297 46.2676L46.5879 46.2383L45.9141 46.1113V44.6465L46.4023 44.6855C47.0143 44.6855 47.4896 44.5618 47.8281 44.3145C48.1732 44.0671 48.4564 43.6146 48.6777 42.957L49.0781 41.8828L45.3086 31.4336H47.2812L49.918 39.3535ZM64.2441 37.5176L64.5176 39.3926L64.918 37.7031L67.7305 27.7812H69.3125L72.0566 37.7031L72.4473 39.4219L72.75 37.5078L74.957 27.7812H76.8418L73.3945 42H71.6855L68.7559 31.6387L68.5312 30.5547L68.3066 31.6387L65.2695 42H63.5605L60.123 27.7812H61.998L64.2441 37.5176ZM84.8398 42C84.7357 41.7917 84.651 41.4206 84.5859 40.8867C83.7461 41.7591 82.7435 42.1953 81.5781 42.1953C80.5365 42.1953 79.6803 41.9023 79.0098 41.3164C78.3457 40.724 78.0137 39.9753 78.0137 39.0703C78.0137 37.9701 78.4303 37.1172 79.2637 36.5117C80.1035 35.8997 81.2819 35.5938 82.7988 35.5938H84.5566V34.7637C84.5566 34.1322 84.3678 33.6309 83.9902 33.2598C83.6126 32.8822 83.056 32.6934 82.3203 32.6934C81.6758 32.6934 81.1354 32.8561 80.6992 33.1816C80.263 33.5072 80.0449 33.901 80.0449 34.3633H78.2285C78.2285 33.8359 78.4141 33.3281 78.7852 32.8398C79.1628 32.3451 79.6706 31.9544 80.3086 31.668C80.9531 31.3815 81.6595 31.2383 82.4277 31.2383C83.6452 31.2383 84.599 31.5443 85.2891 32.1562C85.9792 32.7617 86.3372 33.5983 86.3633 34.666V39.5293C86.3633 40.4993 86.487 41.2708 86.7344 41.8438V42H84.8398ZM81.8418 40.623C82.4082 40.623 82.9453 40.4766 83.4531 40.1836C83.9609 39.8906 84.3288 39.5098 84.5566 39.041V36.873H83.1406C80.9271 36.873 79.8203 37.5208 79.8203 38.8164C79.8203 39.3828 80.0091 39.8255 80.3867 40.1445C80.7643 40.4635 81.2493 40.623 81.8418 40.623ZM91.1582 42H89.3516V27H91.1582V42ZM97.0078 37.1074L95.875 38.2891V42H94.0684V27H95.875V36.0723L96.8418 34.9102L100.133 31.4336H102.33L98.2188 35.8477L102.809 42H100.689L97.0078 37.1074ZM108.385 42.1953C106.952 42.1953 105.787 41.7266 104.889 40.7891C103.99 39.8451 103.541 38.5853 103.541 37.0098V36.6777C103.541 35.6296 103.74 34.6953 104.137 33.875C104.54 33.0482 105.1 32.4036 105.816 31.9414C106.539 31.4727 107.32 31.2383 108.16 31.2383C109.534 31.2383 110.602 31.6908 111.363 32.5957C112.125 33.5007 112.506 34.7962 112.506 36.4824V37.2344H105.348C105.374 38.276 105.676 39.1191 106.256 39.7637C106.842 40.4017 107.584 40.7207 108.482 40.7207C109.12 40.7207 109.661 40.5905 110.104 40.3301C110.546 40.0697 110.934 39.7246 111.266 39.2949L112.369 40.1543C111.484 41.515 110.156 42.1953 108.385 42.1953ZM108.16 32.7227C107.431 32.7227 106.819 32.9896 106.324 33.5234C105.829 34.0508 105.523 34.793 105.406 35.75H110.699V35.6133C110.647 34.6953 110.4 33.9857 109.957 33.4844C109.514 32.9766 108.915 32.7227 108.16 32.7227ZM119.713 33.0547C119.439 33.0091 119.143 32.9863 118.824 32.9863C117.639 32.9863 116.835 33.4909 116.412 34.5V42H114.605V31.4336H116.363L116.393 32.6543C116.985 31.7103 117.825 31.2383 118.912 31.2383C119.264 31.2383 119.531 31.2839 119.713 31.375V33.0547Z" fill="white"/>
</g>
<defs>
<filter id="filter0_ddd" x="0" y="0" width="342" height="219" filterUnits="userSpaceOnUse" color-interpolation-filters="sRGB">
<feFlood flood-opacity="0" result="BackgroundImageFix"/>
<feColorMatrix in="SourceAlpha" type="matrix" values="0 0 0 0 0 0 0 0 0 0 0 0 0 0 0 0 0 0 127 0"/>
<feOffset dy="4"/>
<feGaussianBlur stdDeviation="2"/>
<feColorMatrix type="matrix" values="0 0 0 0 0 0 0 0 0 0 0 0 0 0 0 0 0 0 0.25 0"/>
<feBlend mode="normal" in2="BackgroundImageFix" result="effect1_dropShadow"/>
<feColorMatrix in="SourceAlpha" type="matrix" values="0 0 0 0 0 0 0 0 0 0 0 0 0 0 0 0 0 0 127 0"/>
<feOffset dy="4"/>
<feGaussianBlur stdDeviation="2"/>
<feColorMatrix type="matrix" values="0 0 0 0 0 0 0 0 0 0 0 0 0 0 0 0 0 0 0.25 0"/>
<feBlend mode="normal" in2="effect1_dropShadow" result="effect2_dropShadow"/>
<feColorMatrix in="SourceAlpha" type="matrix" values="0 0 0 0 0 0 0 0 0 0 0 0 0 0 0 0 0 0 127 0"/>
<feOffset dy="4"/>
<feGaussianBlur stdDeviation="2"/>
<feColorMatrix type="matrix" values="0 0 0 0 0 0 0 0 0 0 0 0 0 0 0 0 0 0 0.25 0"/>
<feBlend mode="normal" in2="effect2_dropShadow" result="effect3_dropShadow"/>
<feBlend mode="normal" in="SourceGraphic" in2="effect3_dropShadow" result="shape"/>
</filter>
<filter id="filter1_ddd" x="0" y="0" width="342" height="219" filterUnits="userSpaceOnUse" color-interpolation-filters="sRGB">
<feFlood flood-opacity="0" result="BackgroundImageFix"/>
<feColorMatrix in="SourceAlpha" type="matrix" values="0 0 0 0 0 0 0 0 0 0 0 0 0 0 0 0 0 0 127 0"/>
<feOffset dy="4"/>
<feGaussianBlur stdDeviation="2"/>
<feColorMatrix type="matrix" values="0 0 0 0 0 0 0 0 0 0 0 0 0 0 0 0 0 0 0.25 0"/>
<feBlend mode="normal" in2="BackgroundImageFix" result="effect1_dropShadow"/>
<feColorMatrix in="SourceAlpha" type="matrix" values="0 0 0 0 0 0 0 0 0 0 0 0 0 0 0 0 0 0 127 0"/>
<feOffset dy="4"/>
<feGaussianBlur stdDeviation="2"/>
<feColorMatrix type="matrix" values="0 0 0 0 0 0 0 0 0 0 0 0 0 0 0 0 0 0 0.25 0"/>
<feBlend mode="normal" in2="effect1_dropShadow" result="effect2_dropShadow"/>
<feColorMatrix in="SourceAlpha" type="matrix" values="0 0 0 0 0 0 0 0 0 0 0 0 0 0 0 0 0 0 127 0"/>
<feOffset dy="4"/>
<feGaussianBlur stdDeviation="2"/>
<feColorMatrix type="matrix" values="0 0 0 0 0 0 0 0 0 0 0 0 0 0 0 0 0 0 0.25 0"/>
<feBlend mode="normal" in2="effect2_dropShadow" result="effect3_dropShadow"/>
<feBlend mode="normal" in="SourceGraphic" in2="effect3_dropShadow" result="shape"/>
</filter>
<filter id="filter2_dd" x="24.7909" y="113.576" width="52.6974" height="22.6191" filterUnits="userSpaceOnUse" color-interpolation-filters="sRGB">
<feFlood flood-opacity="0" result="BackgroundImageFix"/>
<feColorMatrix in="SourceAlpha" type="matrix" values="0 0 0 0 0 0 0 0 0 0 0 0 0 0 0 0 0 0 127 0"/>
<feOffset dy="4"/>
<feGaussianBlur stdDeviation="2"/>
<feColorMatrix type="matrix" values="0 0 0 0 0 0 0 0 0 0 0 0 0 0 0 0 0 0 0.25 0"/>
<feBlend mode="normal" in2="BackgroundImageFix" result="effect1_dropShadow"/>
<feColorMatrix in="SourceAlpha" type="matrix" values="0 0 0 0 0 0 0 0 0 0 0 0 0 0 0 0 0 0 127 0"/>
<feOffset dy="4"/>
<feGaussianBlur stdDeviation="2"/>
<feColorMatrix type="matrix" values="0 0 0 0 0 0 0 0 0 0 0 0 0 0 0 0 0 0 0.25 0"/>
<feBlend mode="normal" in2="effect1_dropShadow" result="effect2_dropShadow"/>
<feBlend mode="normal" in="SourceGraphic" in2="effect2_dropShadow" result="shape"/>
</filter>
<filter id="filter3_dd" x="21.1621" y="66" width="121.496" height="23.1953" filterUnits="userSpaceOnUse" color-interpolation-filters="sRGB">
<feFlood flood-opacity="0" result="BackgroundImageFix"/>
<feColorMatrix in="SourceAlpha" type="matrix" values="0 0 0 0 0 0 0 0 0 0 0 0 0 0 0 0 0 0 127 0"/>
<feOffset dy="4"/>
<feGaussianBlur stdDeviation="2"/>
<feColorMatrix type="matrix" values="0 0 0 0 0 0 0 0 0 0 0 0 0 0 0 0 0 0 0.25 0"/>
<feBlend mode="normal" in2="BackgroundImageFix" result="effect1_dropShadow"/>
<feColorMatrix in="SourceAlpha" type="matrix" values="0 0 0 0 0 0 0 0 0 0 0 0 0 0 0 0 0 0 127 0"/>
<feOffset dy="4"/>
<feGaussianBlur stdDeviation="2"/>
<feColorMatrix type="matrix" values="0 0 0 0 0 0 0 0 0 0 0 0 0 0 0 0 0 0 0.25 0"/>
<feBlend mode="normal" in2="effect1_dropShadow" result="effect2_dropShadow"/>
<feBlend mode="normal" in="SourceGraphic" in2="effect2_dropShadow" result="shape"/>
</filter>
<filter id="filter4_dd" x="211.791" y="113.576" width="52.9611" height="22.6191" filterUnits="userSpaceOnUse" color-interpolation-filters="sRGB">
<feFlood flood-opacity="0" result="BackgroundImageFix"/>
<feColorMatrix in="SourceAlpha" type="matrix" values="0 0 0 0 0 0 0 0 0 0 0 0 0 0 0 0 0 0 127 0"/>
<feOffset dy="4"/>
<feGaussianBlur stdDeviation="2"/>
<feColorMatrix type="matrix" values="0 0 0 0 0 0 0 0 0 0 0 0 0 0 0 0 0 0 0.25 0"/>
<feBlend mode="normal" in2="BackgroundImageFix" result="effect1_dropShadow"/>
<feColorMatrix in="SourceAlpha" type="matrix" values="0 0 0 0 0 0 0 0 0 0 0 0 0 0 0 0 0 0 127 0"/>
<feOffset dy="4"/>
<feGaussianBlur stdDeviation="2"/>
<feColorMatrix type="matrix" values="0 0 0 0 0 0 0 0 0 0 0 0 0 0 0 0 0 0 0.25 0"/>
<feBlend mode="normal" in2="effect1_dropShadow" result="effect2_dropShadow"/>
<feBlend mode="normal" in="SourceGraphic" in2="effect2_dropShadow" result="shape"/>
</filter>
</defs>
</svg>
