<svg width="353" height="59" viewBox="0 0 353 59" fill="none" xmlns="http://www.w3.org/2000/svg">
<path d="M27.53 15.0002H326.47C326.607 14.9964 326.739 15.0469 326.838 15.1407C326.938 15.2344 326.996 15.3637 327 15.5002C326.996 15.6367 326.938 15.766 326.838 15.8597C326.739 15.9535 326.607 16.004 326.47 16.0002H27.53C27.3935 16.004 27.261 15.9535 27.1617 15.8597C27.0624 15.766 27.0042 15.6367 27 15.5002C27.0042 15.3637 27.0624 15.2344 27.1617 15.1407C27.261 15.0469 27.3935 14.9964 27.53 15.0002Z" fill="white"/>
<path d="M27.5301 15.0002H326.47C326.763 15.0002 327 15.224 327 15.5002C327 15.7763 326.763 16.0002 326.47 16.0002H27.5301C27.2373 16.0002 27 15.7763 27 15.5002C27 15.224 27.2373 15.0002 27.5301 15.0002Z" fill="#DDDDDD"/>
<path d="M169.5 15H27.5C27.2239 15 27 15.2239 27 15.5C27 15.7761 27.2239 16 27.5 16H169.5C169.776 16 170 15.7761 170 15.5C170 15.2239 169.776 15 169.5 15Z" fill="white"/>
<path d="M27.5 15.5H169.5H27.5Z" stroke="#DDDDDD"/>
<path opacity="0.5" d="M304.248 55.096C303.648 55.096 303.072 55.008 302.52 54.832C301.976 54.648 301.54 54.404 301.212 54.1C301.092 53.988 301.032 53.848 301.032 53.68C301.032 53.568 301.064 53.472 301.128 53.392C301.192 53.304 301.268 53.26 301.356 53.26C301.46 53.26 301.572 53.304 301.692 53.392C302.436 53.968 303.284 54.256 304.236 54.256C304.924 54.256 305.452 54.124 305.82 53.86C306.188 53.596 306.372 53.22 306.372 52.732C306.372 52.452 306.284 52.228 306.108 52.06C305.932 51.884 305.7 51.744 305.412 51.64C305.124 51.536 304.736 51.428 304.248 51.316C303.592 51.164 303.052 51.004 302.628 50.836C302.212 50.668 301.872 50.428 301.608 50.116C301.352 49.804 301.224 49.396 301.224 48.892C301.224 48.412 301.352 47.988 301.608 47.62C301.872 47.244 302.236 46.956 302.7 46.756C303.172 46.548 303.708 46.444 304.308 46.444C304.868 46.444 305.388 46.532 305.868 46.708C306.356 46.876 306.764 47.12 307.092 47.44C307.22 47.568 307.284 47.708 307.284 47.86C307.284 47.972 307.252 48.072 307.188 48.16C307.124 48.24 307.048 48.28 306.96 48.28C306.872 48.28 306.756 48.236 306.612 48.148C306.22 47.828 305.856 47.604 305.52 47.476C305.184 47.348 304.78 47.284 304.308 47.284C303.644 47.284 303.128 47.424 302.76 47.704C302.392 47.976 302.208 48.36 302.208 48.856C302.208 49.28 302.368 49.6 302.688 49.816C303.016 50.024 303.516 50.208 304.188 50.368C304.916 50.544 305.488 50.708 305.904 50.86C306.32 51.004 306.664 51.224 306.936 51.52C307.216 51.816 307.356 52.212 307.356 52.708C307.356 53.18 307.224 53.596 306.96 53.956C306.704 54.316 306.34 54.596 305.868 54.796C305.396 54.996 304.856 55.096 304.248 55.096ZM313.25 49.036C313.402 49.036 313.518 49.08 313.598 49.168C313.686 49.256 313.73 49.372 313.73 49.516V54.592C313.73 54.728 313.686 54.84 313.598 54.928C313.518 55.016 313.402 55.06 313.25 55.06C313.106 55.06 312.99 55.02 312.902 54.94C312.822 54.852 312.782 54.74 312.782 54.604V54.004C312.598 54.356 312.338 54.624 312.002 54.808C311.674 54.992 311.302 55.084 310.886 55.084C310.19 55.084 309.666 54.892 309.314 54.508C308.962 54.116 308.786 53.54 308.786 52.78V49.516C308.786 49.372 308.83 49.256 308.918 49.168C309.006 49.08 309.126 49.036 309.278 49.036C309.43 49.036 309.546 49.08 309.626 49.168C309.714 49.256 309.758 49.372 309.758 49.516V52.756C309.758 53.276 309.862 53.66 310.07 53.908C310.278 54.148 310.606 54.268 311.054 54.268C311.566 54.268 311.978 54.104 312.29 53.776C312.602 53.44 312.758 53 312.758 52.456V49.516C312.758 49.372 312.802 49.256 312.89 49.168C312.978 49.08 313.098 49.036 313.25 49.036ZM322.041 49.012C323.337 49.012 323.985 49.784 323.985 51.328V54.58C323.985 54.732 323.941 54.852 323.853 54.94C323.765 55.02 323.649 55.06 323.505 55.06C323.361 55.06 323.241 55.02 323.145 54.94C323.057 54.852 323.013 54.732 323.013 54.58V51.352C323.013 50.816 322.917 50.428 322.725 50.188C322.533 49.948 322.233 49.828 321.825 49.828C321.337 49.828 320.953 49.992 320.673 50.32C320.393 50.648 320.253 51.092 320.253 51.652V54.58C320.253 54.732 320.205 54.852 320.109 54.94C320.021 55.02 319.905 55.06 319.761 55.06C319.617 55.06 319.501 55.02 319.413 54.94C319.325 54.852 319.281 54.732 319.281 54.58V51.352C319.281 50.816 319.185 50.428 318.993 50.188C318.801 49.948 318.497 49.828 318.081 49.828C317.601 49.828 317.217 49.992 316.929 50.32C316.649 50.648 316.509 51.092 316.509 51.652V54.58C316.509 54.732 316.465 54.852 316.377 54.94C316.289 55.02 316.173 55.06 316.029 55.06C315.885 55.06 315.765 55.02 315.669 54.94C315.581 54.852 315.537 54.732 315.537 54.58V49.516C315.537 49.372 315.581 49.256 315.669 49.168C315.765 49.08 315.885 49.036 316.029 49.036C316.165 49.036 316.277 49.08 316.365 49.168C316.453 49.248 316.497 49.36 316.497 49.504V50.08C316.673 49.736 316.917 49.472 317.229 49.288C317.541 49.104 317.901 49.012 318.309 49.012C319.221 49.012 319.817 49.396 320.097 50.164C320.265 49.812 320.521 49.532 320.865 49.324C321.209 49.116 321.601 49.012 322.041 49.012ZM332.259 49.012C333.555 49.012 334.203 49.784 334.203 51.328V54.58C334.203 54.732 334.159 54.852 334.071 54.94C333.983 55.02 333.867 55.06 333.723 55.06C333.579 55.06 333.459 55.02 333.363 54.94C333.275 54.852 333.231 54.732 333.231 54.58V51.352C333.231 50.816 333.135 50.428 332.943 50.188C332.751 49.948 332.451 49.828 332.043 49.828C331.555 49.828 331.171 49.992 330.891 50.32C330.611 50.648 330.471 51.092 330.471 51.652V54.58C330.471 54.732 330.423 54.852 330.327 54.94C330.239 55.02 330.123 55.06 329.979 55.06C329.835 55.06 329.719 55.02 329.631 54.94C329.543 54.852 329.499 54.732 329.499 54.58V51.352C329.499 50.816 329.403 50.428 329.211 50.188C329.019 49.948 328.715 49.828 328.299 49.828C327.819 49.828 327.435 49.992 327.147 50.32C326.867 50.648 326.727 51.092 326.727 51.652V54.58C326.727 54.732 326.683 54.852 326.595 54.94C326.507 55.02 326.391 55.06 326.247 55.06C326.103 55.06 325.983 55.02 325.887 54.94C325.799 54.852 325.755 54.732 325.755 54.58V49.516C325.755 49.372 325.799 49.256 325.887 49.168C325.983 49.08 326.103 49.036 326.247 49.036C326.383 49.036 326.495 49.08 326.583 49.168C326.671 49.248 326.715 49.36 326.715 49.504V50.08C326.891 49.736 327.135 49.472 327.447 49.288C327.759 49.104 328.119 49.012 328.527 49.012C329.439 49.012 330.035 49.396 330.315 50.164C330.483 49.812 330.739 49.532 331.083 49.324C331.427 49.116 331.819 49.012 332.259 49.012ZM338.362 49.012C339.826 49.012 340.558 49.78 340.558 51.316V54.58C340.558 54.724 340.514 54.84 340.426 54.928C340.346 55.016 340.234 55.06 340.09 55.06C339.946 55.06 339.83 55.016 339.742 54.928C339.654 54.84 339.61 54.724 339.61 54.58V54.004C339.458 54.348 339.226 54.616 338.914 54.808C338.602 54.992 338.242 55.084 337.834 55.084C337.458 55.084 337.11 55.008 336.79 54.856C336.478 54.704 336.23 54.492 336.046 54.22C335.862 53.948 335.77 53.648 335.77 53.32C335.77 52.88 335.882 52.54 336.106 52.3C336.33 52.052 336.698 51.876 337.21 51.772C337.722 51.66 338.434 51.604 339.346 51.604H339.61V51.208C339.61 50.728 339.51 50.376 339.31 50.152C339.118 49.928 338.802 49.816 338.362 49.816C337.818 49.816 337.266 49.964 336.706 50.26C336.49 50.396 336.338 50.464 336.25 50.464C336.154 50.464 336.074 50.428 336.01 50.356C335.946 50.284 335.914 50.192 335.914 50.08C335.914 49.968 335.946 49.872 336.01 49.792C336.082 49.704 336.194 49.616 336.346 49.528C336.626 49.368 336.942 49.244 337.294 49.156C337.654 49.06 338.01 49.012 338.362 49.012ZM337.966 54.316C338.446 54.316 338.838 54.156 339.142 53.836C339.454 53.508 339.61 53.088 339.61 52.576V52.228H339.394C338.69 52.228 338.154 52.26 337.786 52.324C337.418 52.38 337.154 52.48 336.994 52.624C336.842 52.76 336.766 52.964 336.766 53.236C336.766 53.548 336.878 53.808 337.102 54.016C337.334 54.216 337.622 54.316 337.966 54.316ZM345.23 49.036C345.566 49.012 345.734 49.148 345.734 49.444C345.734 49.572 345.698 49.676 345.626 49.756C345.554 49.828 345.43 49.872 345.254 49.888L344.894 49.924C344.358 49.972 343.958 50.164 343.694 50.5C343.438 50.828 343.31 51.216 343.31 51.664V54.58C343.31 54.74 343.266 54.86 343.178 54.94C343.09 55.02 342.974 55.06 342.83 55.06C342.686 55.06 342.566 55.02 342.47 54.94C342.382 54.852 342.338 54.732 342.338 54.58V49.516C342.338 49.364 342.386 49.248 342.482 49.168C342.578 49.08 342.694 49.036 342.83 49.036C342.958 49.036 343.066 49.08 343.154 49.168C343.242 49.248 343.286 49.36 343.286 49.504V50.176C343.454 49.824 343.69 49.556 343.994 49.372C344.306 49.188 344.662 49.08 345.062 49.048L345.23 49.036ZM351.143 49.336C351.231 49.144 351.371 49.048 351.563 49.048C351.683 49.048 351.791 49.088 351.887 49.168C351.983 49.248 352.031 49.348 352.031 49.468C352.031 49.54 352.015 49.604 351.983 49.66L348.611 56.932C348.571 57.02 348.511 57.088 348.431 57.136C348.359 57.184 348.283 57.208 348.203 57.208C348.083 57.208 347.975 57.168 347.879 57.088C347.791 57.016 347.747 56.92 347.747 56.8C347.747 56.736 347.763 56.672 347.795 56.608L348.635 54.796L346.259 49.66C346.227 49.604 346.211 49.544 346.211 49.48C346.211 49.36 346.263 49.256 346.367 49.168C346.479 49.08 346.599 49.036 346.727 49.036C346.807 49.036 346.883 49.06 346.955 49.108C347.035 49.156 347.095 49.224 347.135 49.312L349.139 53.812L351.143 49.336Z" fill="black"/>
<path d="M334 32C342.837 32 350 24.8366 350 16C350 7.16344 342.837 0 334 0C325.163 0 318 7.16344 318 16C318 24.8366 325.163 32 334 32Z" fill="white"/>
<path d="M334 31.5C342.56 31.5 349.5 24.5604 349.5 16C349.5 7.43959 342.56 0.5 334 0.5C325.44 0.5 318.5 7.43959 318.5 16C318.5 24.5604 325.44 31.5 334 31.5Z" stroke="#DDDDDD"/>
<path opacity="0.5" d="M152.152 55.06C152 55.06 151.88 55.016 151.792 54.928C151.704 54.832 151.66 54.708 151.66 54.556V47.02C151.66 46.876 151.704 46.76 151.792 46.672C151.888 46.584 152.012 46.54 152.164 46.54H155.008C155.896 46.54 156.584 46.756 157.072 47.188C157.568 47.62 157.816 48.232 157.816 49.024C157.816 49.816 157.568 50.432 157.072 50.872C156.576 51.312 155.888 51.532 155.008 51.532H152.644V54.556C152.644 54.708 152.6 54.832 152.512 54.928C152.424 55.016 152.304 55.06 152.152 55.06ZM154.912 50.716C156.2 50.716 156.844 50.152 156.844 49.024C156.844 47.912 156.2 47.356 154.912 47.356H152.644V50.716H154.912ZM161.51 49.012C162.974 49.012 163.706 49.78 163.706 51.316V54.58C163.706 54.724 163.662 54.84 163.574 54.928C163.494 55.016 163.382 55.06 163.238 55.06C163.094 55.06 162.978 55.016 162.89 54.928C162.802 54.84 162.758 54.724 162.758 54.58V54.004C162.606 54.348 162.374 54.616 162.062 54.808C161.75 54.992 161.39 55.084 160.982 55.084C160.606 55.084 160.258 55.008 159.938 54.856C159.626 54.704 159.378 54.492 159.194 54.22C159.01 53.948 158.918 53.648 158.918 53.32C158.918 52.88 159.03 52.54 159.254 52.3C159.478 52.052 159.846 51.876 160.358 51.772C160.87 51.66 161.582 51.604 162.494 51.604H162.758V51.208C162.758 50.728 162.658 50.376 162.458 50.152C162.266 49.928 161.95 49.816 161.51 49.816C160.966 49.816 160.414 49.964 159.854 50.26C159.638 50.396 159.486 50.464 159.398 50.464C159.302 50.464 159.222 50.428 159.158 50.356C159.094 50.284 159.062 50.192 159.062 50.08C159.062 49.968 159.094 49.872 159.158 49.792C159.23 49.704 159.342 49.616 159.494 49.528C159.774 49.368 160.09 49.244 160.442 49.156C160.802 49.06 161.158 49.012 161.51 49.012ZM161.114 54.316C161.594 54.316 161.986 54.156 162.29 53.836C162.602 53.508 162.758 53.088 162.758 52.576V52.228H162.542C161.838 52.228 161.302 52.26 160.934 52.324C160.566 52.38 160.302 52.48 160.142 52.624C159.99 52.76 159.914 52.964 159.914 53.236C159.914 53.548 160.026 53.808 160.25 54.016C160.482 54.216 160.77 54.316 161.114 54.316ZM169.697 49.336C169.785 49.144 169.925 49.048 170.117 49.048C170.237 49.048 170.345 49.088 170.441 49.168C170.537 49.248 170.585 49.348 170.585 49.468C170.585 49.54 170.569 49.604 170.537 49.66L167.165 56.932C167.125 57.02 167.065 57.088 166.985 57.136C166.913 57.184 166.837 57.208 166.757 57.208C166.637 57.208 166.529 57.168 166.433 57.088C166.345 57.016 166.301 56.92 166.301 56.8C166.301 56.736 166.317 56.672 166.349 56.608L167.189 54.796L164.813 49.66C164.781 49.604 164.765 49.544 164.765 49.48C164.765 49.36 164.817 49.256 164.921 49.168C165.033 49.08 165.153 49.036 165.281 49.036C165.361 49.036 165.437 49.06 165.509 49.108C165.589 49.156 165.649 49.224 165.689 49.312L167.693 53.812L169.697 49.336ZM178.153 49.012C179.449 49.012 180.097 49.784 180.097 51.328V54.58C180.097 54.732 180.053 54.852 179.965 54.94C179.877 55.02 179.761 55.06 179.617 55.06C179.473 55.06 179.353 55.02 179.257 54.94C179.169 54.852 179.125 54.732 179.125 54.58V51.352C179.125 50.816 179.029 50.428 178.837 50.188C178.645 49.948 178.345 49.828 177.937 49.828C177.449 49.828 177.065 49.992 176.785 50.32C176.505 50.648 176.365 51.092 176.365 51.652V54.58C176.365 54.732 176.317 54.852 176.221 54.94C176.133 55.02 176.017 55.06 175.873 55.06C175.729 55.06 175.613 55.02 175.525 54.94C175.437 54.852 175.393 54.732 175.393 54.58V51.352C175.393 50.816 175.297 50.428 175.105 50.188C174.913 49.948 174.609 49.828 174.193 49.828C173.713 49.828 173.329 49.992 173.041 50.32C172.761 50.648 172.621 51.092 172.621 51.652V54.58C172.621 54.732 172.577 54.852 172.489 54.94C172.401 55.02 172.285 55.06 172.141 55.06C171.997 55.06 171.877 55.02 171.781 54.94C171.693 54.852 171.649 54.732 171.649 54.58V49.516C171.649 49.372 171.693 49.256 171.781 49.168C171.877 49.08 171.997 49.036 172.141 49.036C172.277 49.036 172.389 49.08 172.477 49.168C172.565 49.248 172.609 49.36 172.609 49.504V50.08C172.785 49.736 173.029 49.472 173.341 49.288C173.653 49.104 174.013 49.012 174.421 49.012C175.333 49.012 175.929 49.396 176.209 50.164C176.377 49.812 176.633 49.532 176.977 49.324C177.321 49.116 177.713 49.012 178.153 49.012ZM186.392 53.644C186.48 53.644 186.556 53.68 186.62 53.752C186.684 53.824 186.716 53.916 186.716 54.028C186.716 54.228 186.576 54.412 186.296 54.58C186.008 54.748 185.704 54.876 185.384 54.964C185.064 55.044 184.752 55.084 184.448 55.084C183.544 55.084 182.828 54.816 182.3 54.28C181.78 53.744 181.52 53.004 181.52 52.06C181.52 51.46 181.636 50.932 181.868 50.476C182.1 50.012 182.424 49.652 182.84 49.396C183.264 49.14 183.744 49.012 184.28 49.012C185.04 49.012 185.644 49.26 186.092 49.756C186.54 50.252 186.764 50.924 186.764 51.772C186.764 51.932 186.732 52.048 186.668 52.12C186.604 52.192 186.5 52.228 186.356 52.228H182.492C182.564 53.604 183.216 54.292 184.448 54.292C184.76 54.292 185.028 54.252 185.252 54.172C185.476 54.084 185.716 53.968 185.972 53.824C186.18 53.704 186.32 53.644 186.392 53.644ZM184.292 49.768C183.78 49.768 183.368 49.928 183.056 50.248C182.752 50.568 182.572 51.02 182.516 51.604H185.912C185.896 51.012 185.748 50.56 185.468 50.248C185.188 49.928 184.796 49.768 184.292 49.768ZM191.136 49.012C192.536 49.012 193.236 49.784 193.236 51.328V54.58C193.236 54.732 193.192 54.852 193.104 54.94C193.024 55.02 192.908 55.06 192.756 55.06C192.604 55.06 192.484 55.02 192.396 54.94C192.308 54.852 192.264 54.732 192.264 54.58V51.388C192.264 50.844 192.156 50.448 191.94 50.2C191.732 49.952 191.396 49.828 190.932 49.828C190.396 49.828 189.968 49.992 189.648 50.32C189.328 50.648 189.168 51.092 189.168 51.652V54.58C189.168 54.732 189.124 54.852 189.036 54.94C188.956 55.02 188.84 55.06 188.688 55.06C188.536 55.06 188.416 55.02 188.328 54.94C188.24 54.852 188.196 54.732 188.196 54.58V49.516C188.196 49.372 188.24 49.256 188.328 49.168C188.416 49.08 188.536 49.036 188.688 49.036C188.832 49.036 188.944 49.08 189.024 49.168C189.112 49.256 189.156 49.368 189.156 49.504V50.116C189.348 49.756 189.616 49.484 189.96 49.3C190.304 49.108 190.696 49.012 191.136 49.012ZM197.716 54.292C197.996 54.316 198.136 54.444 198.136 54.676C198.136 54.812 198.084 54.916 197.98 54.988C197.884 55.052 197.736 55.076 197.536 55.06L197.212 55.036C196.572 54.988 196.1 54.796 195.796 54.46C195.492 54.124 195.34 53.616 195.34 52.936V49.924H194.536C194.4 49.924 194.292 49.892 194.212 49.828C194.14 49.756 194.104 49.664 194.104 49.552C194.104 49.432 194.14 49.336 194.212 49.264C194.292 49.192 194.4 49.156 194.536 49.156H195.34V47.8C195.34 47.648 195.384 47.532 195.472 47.452C195.56 47.364 195.68 47.32 195.832 47.32C195.976 47.32 196.092 47.364 196.18 47.452C196.268 47.532 196.312 47.648 196.312 47.8V49.156H197.644C197.772 49.156 197.872 49.192 197.944 49.264C198.024 49.336 198.064 49.432 198.064 49.552C198.064 49.664 198.024 49.756 197.944 49.828C197.872 49.892 197.772 49.924 197.644 49.924H196.312V52.984C196.312 53.424 196.4 53.744 196.576 53.944C196.76 54.136 197.032 54.244 197.392 54.268L197.716 54.292ZM201.062 55.084C200.694 55.084 200.342 55.04 200.006 54.952C199.678 54.864 199.386 54.74 199.13 54.58C198.986 54.484 198.882 54.396 198.818 54.316C198.762 54.228 198.734 54.124 198.734 54.004C198.734 53.9 198.762 53.816 198.818 53.752C198.882 53.68 198.962 53.644 199.058 53.644C199.154 53.644 199.294 53.704 199.478 53.824C199.718 53.968 199.954 54.084 200.186 54.172C200.426 54.252 200.722 54.292 201.074 54.292C201.506 54.292 201.842 54.216 202.082 54.064C202.322 53.912 202.442 53.692 202.442 53.404C202.442 53.228 202.398 53.088 202.31 52.984C202.222 52.872 202.07 52.776 201.854 52.696C201.638 52.608 201.322 52.52 200.906 52.432C200.202 52.28 199.698 52.076 199.394 51.82C199.09 51.564 198.938 51.216 198.938 50.776C198.938 50.432 199.034 50.128 199.226 49.864C199.418 49.6 199.682 49.392 200.018 49.24C200.362 49.088 200.75 49.012 201.182 49.012C201.494 49.012 201.794 49.056 202.082 49.144C202.378 49.224 202.638 49.34 202.862 49.492C203.134 49.684 203.27 49.884 203.27 50.092C203.27 50.196 203.238 50.284 203.174 50.356C203.11 50.428 203.034 50.464 202.946 50.464C202.85 50.464 202.706 50.396 202.514 50.26C202.29 50.116 202.078 50.004 201.878 49.924C201.678 49.844 201.43 49.804 201.134 49.804C200.758 49.804 200.454 49.888 200.222 50.056C199.998 50.224 199.886 50.448 199.886 50.728C199.886 50.904 199.926 51.048 200.006 51.16C200.094 51.264 200.234 51.36 200.426 51.448C200.626 51.528 200.91 51.608 201.278 51.688C201.822 51.808 202.242 51.94 202.538 52.084C202.842 52.228 203.058 52.404 203.186 52.612C203.314 52.82 203.378 53.084 203.378 53.404C203.378 53.908 203.166 54.316 202.742 54.628C202.318 54.932 201.758 55.084 201.062 55.084Z" fill="black"/>
<path d="M180.5 32C189.06 32 196 24.8366 196 16C196 7.16344 189.06 0 180.5 0C171.94 0 165 7.16344 165 16C165 24.8366 171.94 32 180.5 32Z" fill="white"/>
<path d="M180.5 31.5C188.784 31.5 195.5 24.5604 195.5 16C195.5 7.43959 188.784 0.5 180.5 0.5C172.216 0.5 165.5 7.43959 165.5 16C165.5 24.5604 172.216 31.5 180.5 31.5Z" stroke="#DDDDDD"/>
<path d="M180.5 25C185.194 25 189 20.9706 189 16C189 11.0294 185.194 7 180.5 7C175.806 7 172 11.0294 172 16C172 20.9706 175.806 25 180.5 25Z" fill="white"/>
<path d="M8.328 54.436C8.36 54.5 8.376 54.568 8.376 54.64C8.376 54.76 8.328 54.86 8.232 54.94C8.144 55.02 8.036 55.06 7.908 55.06C7.708 55.06 7.568 54.964 7.488 54.772L6.636 52.828H2.112L1.248 54.772C1.168 54.964 1.028 55.06 0.828 55.06C0.7 55.06 0.588 55.02 0.492 54.94C0.396 54.852 0.348 54.748 0.348 54.628C0.348 54.564 0.364 54.5 0.396 54.436L3.828 46.804C3.876 46.692 3.948 46.608 4.044 46.552C4.14 46.496 4.244 46.468 4.356 46.468C4.476 46.468 4.584 46.5 4.68 46.564C4.776 46.62 4.848 46.7 4.896 46.804L8.328 54.436ZM2.472 52.012H6.276L4.368 47.704L2.472 52.012ZM14.3108 46.48C14.4628 46.48 14.5828 46.524 14.6708 46.612C14.7588 46.7 14.8028 46.812 14.8028 46.948V54.58C14.8028 54.724 14.7588 54.84 14.6708 54.928C14.5828 55.016 14.4628 55.06 14.3108 55.06C14.1588 55.06 14.0388 55.016 13.9508 54.928C13.8708 54.84 13.8308 54.724 13.8308 54.58V53.932C13.6548 54.3 13.3948 54.584 13.0508 54.784C12.7148 54.984 12.3188 55.084 11.8628 55.084C11.3508 55.084 10.8988 54.956 10.5068 54.7C10.1148 54.444 9.81075 54.088 9.59475 53.632C9.37875 53.168 9.27075 52.632 9.27075 52.024C9.27075 51.424 9.37875 50.896 9.59475 50.44C9.81075 49.984 10.1148 49.632 10.5068 49.384C10.8988 49.136 11.3508 49.012 11.8628 49.012C12.3188 49.012 12.7148 49.112 13.0508 49.312C13.3948 49.512 13.6548 49.796 13.8308 50.164V46.948C13.8308 46.804 13.8708 46.692 13.9508 46.612C14.0388 46.524 14.1588 46.48 14.3108 46.48ZM12.0548 54.28C12.6228 54.28 13.0588 54.088 13.3628 53.704C13.6748 53.312 13.8308 52.76 13.8308 52.048C13.8308 51.336 13.6748 50.788 13.3628 50.404C13.0588 50.02 12.6228 49.828 12.0548 49.828C11.4868 49.828 11.0428 50.02 10.7228 50.404C10.4108 50.788 10.2548 51.328 10.2548 52.024C10.2548 52.736 10.4108 53.292 10.7228 53.692C11.0428 54.084 11.4868 54.28 12.0548 54.28ZM21.2951 46.48C21.4471 46.48 21.5671 46.524 21.6551 46.612C21.7431 46.7 21.7871 46.812 21.7871 46.948V54.58C21.7871 54.724 21.7431 54.84 21.6551 54.928C21.5671 55.016 21.4471 55.06 21.2951 55.06C21.1431 55.06 21.0231 55.016 20.9351 54.928C20.8551 54.84 20.8151 54.724 20.8151 54.58V53.932C20.6391 54.3 20.3791 54.584 20.0351 54.784C19.6991 54.984 19.3031 55.084 18.8471 55.084C18.3351 55.084 17.8831 54.956 17.4911 54.7C17.0991 54.444 16.7951 54.088 16.5791 53.632C16.3631 53.168 16.2551 52.632 16.2551 52.024C16.2551 51.424 16.3631 50.896 16.5791 50.44C16.7951 49.984 17.0991 49.632 17.4911 49.384C17.8831 49.136 18.3351 49.012 18.8471 49.012C19.3031 49.012 19.6991 49.112 20.0351 49.312C20.3791 49.512 20.6391 49.796 20.8151 50.164V46.948C20.8151 46.804 20.8551 46.692 20.9351 46.612C21.0231 46.524 21.1431 46.48 21.2951 46.48ZM19.0391 54.28C19.6071 54.28 20.0431 54.088 20.3471 53.704C20.6591 53.312 20.8151 52.76 20.8151 52.048C20.8151 51.336 20.6591 50.788 20.3471 50.404C20.0431 50.02 19.6071 49.828 19.0391 49.828C18.4711 49.828 18.0271 50.02 17.7071 50.404C17.3951 50.788 17.2391 51.328 17.2391 52.024C17.2391 52.736 17.3951 53.292 17.7071 53.692C18.0271 54.084 18.4711 54.28 19.0391 54.28ZM26.4795 49.036C26.8155 49.012 26.9835 49.148 26.9835 49.444C26.9835 49.572 26.9475 49.676 26.8755 49.756C26.8035 49.828 26.6795 49.872 26.5035 49.888L26.1435 49.924C25.6075 49.972 25.2075 50.164 24.9435 50.5C24.6875 50.828 24.5595 51.216 24.5595 51.664V54.58C24.5595 54.74 24.5155 54.86 24.4275 54.94C24.3395 55.02 24.2235 55.06 24.0795 55.06C23.9355 55.06 23.8155 55.02 23.7195 54.94C23.6315 54.852 23.5875 54.732 23.5875 54.58V49.516C23.5875 49.364 23.6355 49.248 23.7315 49.168C23.8275 49.08 23.9435 49.036 24.0795 49.036C24.2075 49.036 24.3155 49.08 24.4035 49.168C24.4915 49.248 24.5355 49.36 24.5355 49.504V50.176C24.7035 49.824 24.9395 49.556 25.2435 49.372C25.5555 49.188 25.9115 49.08 26.3115 49.048L26.4795 49.036ZM32.2248 53.644C32.3128 53.644 32.3888 53.68 32.4528 53.752C32.5168 53.824 32.5488 53.916 32.5488 54.028C32.5488 54.228 32.4088 54.412 32.1288 54.58C31.8408 54.748 31.5368 54.876 31.2168 54.964C30.8968 55.044 30.5848 55.084 30.2808 55.084C29.3768 55.084 28.6608 54.816 28.1328 54.28C27.6128 53.744 27.3528 53.004 27.3528 52.06C27.3528 51.46 27.4688 50.932 27.7008 50.476C27.9328 50.012 28.2568 49.652 28.6728 49.396C29.0968 49.14 29.5768 49.012 30.1128 49.012C30.8728 49.012 31.4768 49.26 31.9248 49.756C32.3728 50.252 32.5968 50.924 32.5968 51.772C32.5968 51.932 32.5648 52.048 32.5008 52.12C32.4368 52.192 32.3328 52.228 32.1888 52.228H28.3248C28.3968 53.604 29.0488 54.292 30.2808 54.292C30.5928 54.292 30.8608 54.252 31.0848 54.172C31.3088 54.084 31.5488 53.968 31.8048 53.824C32.0128 53.704 32.1528 53.644 32.2248 53.644ZM30.1248 49.768C29.6128 49.768 29.2008 49.928 28.8888 50.248C28.5848 50.568 28.4048 51.02 28.3488 51.604H31.7448C31.7288 51.012 31.5808 50.56 31.3008 50.248C31.0208 49.928 30.6288 49.768 30.1248 49.768ZM35.9969 55.084C35.6289 55.084 35.2769 55.04 34.9409 54.952C34.6129 54.864 34.3209 54.74 34.0649 54.58C33.9209 54.484 33.8169 54.396 33.7529 54.316C33.6969 54.228 33.6689 54.124 33.6689 54.004C33.6689 53.9 33.6969 53.816 33.7529 53.752C33.8169 53.68 33.8969 53.644 33.9929 53.644C34.0889 53.644 34.2289 53.704 34.4129 53.824C34.6529 53.968 34.8889 54.084 35.1209 54.172C35.3609 54.252 35.6569 54.292 36.0089 54.292C36.4409 54.292 36.7769 54.216 37.0169 54.064C37.2569 53.912 37.3769 53.692 37.3769 53.404C37.3769 53.228 37.3329 53.088 37.2449 52.984C37.1569 52.872 37.0049 52.776 36.7889 52.696C36.5729 52.608 36.2569 52.52 35.8409 52.432C35.1369 52.28 34.6329 52.076 34.3289 51.82C34.0249 51.564 33.8729 51.216 33.8729 50.776C33.8729 50.432 33.9689 50.128 34.1609 49.864C34.3529 49.6 34.6169 49.392 34.9529 49.24C35.2969 49.088 35.6849 49.012 36.1169 49.012C36.4289 49.012 36.7289 49.056 37.0169 49.144C37.3129 49.224 37.5729 49.34 37.7969 49.492C38.0689 49.684 38.2049 49.884 38.2049 50.092C38.2049 50.196 38.1729 50.284 38.1089 50.356C38.0449 50.428 37.9689 50.464 37.8809 50.464C37.7849 50.464 37.6409 50.396 37.4489 50.26C37.2249 50.116 37.0129 50.004 36.8129 49.924C36.6129 49.844 36.3649 49.804 36.0689 49.804C35.6929 49.804 35.3889 49.888 35.1569 50.056C34.9329 50.224 34.8209 50.448 34.8209 50.728C34.8209 50.904 34.8609 51.048 34.9409 51.16C35.0289 51.264 35.1689 51.36 35.3609 51.448C35.5609 51.528 35.8449 51.608 36.2129 51.688C36.7569 51.808 37.1769 51.94 37.4729 52.084C37.7769 52.228 37.9929 52.404 38.1209 52.612C38.2489 52.82 38.3129 53.084 38.3129 53.404C38.3129 53.908 38.1009 54.316 37.6769 54.628C37.2529 54.932 36.6929 55.084 35.9969 55.084ZM41.7625 55.084C41.3945 55.084 41.0425 55.04 40.7065 54.952C40.3785 54.864 40.0865 54.74 39.8305 54.58C39.6865 54.484 39.5825 54.396 39.5185 54.316C39.4625 54.228 39.4345 54.124 39.4345 54.004C39.4345 53.9 39.4625 53.816 39.5185 53.752C39.5825 53.68 39.6625 53.644 39.7585 53.644C39.8545 53.644 39.9945 53.704 40.1785 53.824C40.4185 53.968 40.6545 54.084 40.8865 54.172C41.1265 54.252 41.4225 54.292 41.7745 54.292C42.2065 54.292 42.5425 54.216 42.7825 54.064C43.0225 53.912 43.1425 53.692 43.1425 53.404C43.1425 53.228 43.0985 53.088 43.0105 52.984C42.9225 52.872 42.7705 52.776 42.5545 52.696C42.3385 52.608 42.0225 52.52 41.6065 52.432C40.9025 52.28 40.3985 52.076 40.0945 51.82C39.7905 51.564 39.6385 51.216 39.6385 50.776C39.6385 50.432 39.7345 50.128 39.9265 49.864C40.1185 49.6 40.3825 49.392 40.7185 49.24C41.0625 49.088 41.4505 49.012 41.8825 49.012C42.1945 49.012 42.4945 49.056 42.7825 49.144C43.0785 49.224 43.3385 49.34 43.5625 49.492C43.8345 49.684 43.9705 49.884 43.9705 50.092C43.9705 50.196 43.9385 50.284 43.8745 50.356C43.8105 50.428 43.7345 50.464 43.6465 50.464C43.5505 50.464 43.4065 50.396 43.2145 50.26C42.9905 50.116 42.7785 50.004 42.5785 49.924C42.3785 49.844 42.1305 49.804 41.8345 49.804C41.4585 49.804 41.1545 49.888 40.9225 50.056C40.6985 50.224 40.5865 50.448 40.5865 50.728C40.5865 50.904 40.6265 51.048 40.7065 51.16C40.7945 51.264 40.9345 51.36 41.1265 51.448C41.3265 51.528 41.6105 51.608 41.9785 51.688C42.5225 51.808 42.9425 51.94 43.2385 52.084C43.5425 52.228 43.7585 52.404 43.8865 52.612C44.0145 52.82 44.0785 53.084 44.0785 53.404C44.0785 53.908 43.8665 54.316 43.4425 54.628C43.0185 54.932 42.4585 55.084 41.7625 55.084Z" fill="black"/>
<path d="M21 32C29.8366 32 37 24.8366 37 16C37 7.16344 29.8366 0 21 0C12.1634 0 5 7.16344 5 16C5 24.8366 12.1634 32 21 32Z" fill="white"/>
<path d="M21 31.5C29.5604 31.5 36.5 24.5604 36.5 16C36.5 7.43959 29.5604 0.5 21 0.5C12.4396 0.5 5.5 7.43959 5.5 16C5.5 24.5604 12.4396 31.5 21 31.5Z" stroke="#DDDDDD"/>
<path d="M21 25C25.9706 25 30 20.9706 30 16C30 11.0294 25.9706 7 21 7C16.0294 7 12 11.0294 12 16C12 20.9706 16.0294 25 21 25Z" fill="#74B370"/>
</svg>
