<svg width="143" height="143" viewBox="0 0 143 143" fill="none" xmlns="http://www.w3.org/2000/svg">
<path d="M84.0684 12.5684V130.432C84.0684 137.386 78.4548 143 71.5 143H12.5684C5.61359 143 0 137.386 0 130.432V12.5684C0 5.61359 5.61359 0 12.5684 0H71.5C78.4548 0 84.0684 5.61359 84.0684 12.5684Z" fill="#74B370"/>
<path d="M84.0684 12.5684V130.432C84.0684 137.386 78.4548 143 71.5 143H42.1738V0H71.5C78.4548 0 84.0684 5.61359 84.0684 12.5684Z" fill="#74B370" fill-opacity="0.93"/>
<path d="M75.6895 12.5684V130.432C75.6895 132.777 73.8464 134.621 71.5 134.621H12.5684C10.222 134.621 8.37891 132.777 8.37891 130.432V12.5684C8.37891 10.222 10.222 8.37891 12.5684 8.37891H71.5C73.8464 8.37891 75.6895 10.222 75.6895 12.5684Z" fill="#EDF5FF"/>
<path d="M75.6895 12.5684V130.432C75.6895 132.777 73.8464 134.621 71.5 134.621H42.1738V8.37891H71.5C73.8464 8.37891 75.6895 10.222 75.6895 12.5684Z" fill="#EDF5FF"/>
<path d="M42.1738 25.1367C44.4876 25.1367 46.3633 23.261 46.3633 20.9473C46.3633 18.6335 44.4876 16.7578 42.1738 16.7578C39.8601 16.7578 37.9844 18.6335 37.9844 20.9473C37.9844 23.261 39.8601 25.1367 42.1738 25.1367Z" fill="#EDF5FF"/>
<path d="M50.5527 122.053C50.5527 124.399 48.7097 126.242 46.3633 126.242H37.9844C35.638 126.242 33.7949 124.399 33.7949 122.053C33.7949 119.706 35.638 117.863 37.9844 117.863H46.3633C48.7097 117.863 50.5527 119.706 50.5527 122.053Z" fill="#EDF5FF"/>
<path d="M113.395 33.7949H79.8789C63.7076 33.7949 50.5527 46.9498 50.5527 63.1211C50.5527 70.6618 53.5691 77.9515 58.9316 83.4818V96.6367C58.9316 98.3125 59.9371 99.8207 61.5291 100.491C63.0373 101.161 64.8809 100.826 66.0534 99.569L73.9296 91.7767C76.0243 92.1956 77.9518 92.4473 79.8789 92.4473H113.395C129.566 92.4473 143 79.2924 143 63.1211C143 46.9498 129.566 33.7949 113.395 33.7949Z" fill="#EC6D5F"/>
<path d="M143 63.1211C143 79.2924 129.566 92.4473 113.395 92.4473H96.6367V33.7949H113.395C129.566 33.7949 143 46.9498 143 63.1211Z" fill="#EC6D5F"/>
<path d="M79.8789 67.3105C82.1927 67.3105 84.0684 65.4349 84.0684 63.1211C84.0684 60.8073 82.1927 58.9316 79.8789 58.9316C77.5651 58.9316 75.6895 60.8073 75.6895 63.1211C75.6895 65.4349 77.5651 67.3105 79.8789 67.3105Z" fill="white"/>
<path d="M96.6367 67.3105C98.9505 67.3105 100.826 65.4349 100.826 63.1211C100.826 60.8073 98.9505 58.9316 96.6367 58.9316C94.3229 58.9316 92.4473 60.8073 92.4473 63.1211C92.4473 65.4349 94.3229 67.3105 96.6367 67.3105Z" fill="white"/>
<path d="M113.395 67.3105C115.708 67.3105 117.584 65.4349 117.584 63.1211C117.584 60.8073 115.708 58.9316 113.395 58.9316C111.081 58.9316 109.205 60.8073 109.205 63.1211C109.205 65.4349 111.081 67.3105 113.395 67.3105Z" fill="white"/>
<path d="M100.826 63.1211C100.826 65.4669 98.9831 67.3105 96.6367 67.3105V58.9316C98.9831 58.9316 100.826 60.7747 100.826 63.1211Z" fill="white"/>
</svg>
