<svg width="307" height="60" viewBox="0 0 307 60" fill="none" xmlns="http://www.w3.org/2000/svg">
<rect x="0.5" y="0.5" width="306" height="59" rx="19.5" fill="#74B370" fill-opacity="0.25" stroke="#7EB87A"/>
<path d="M81.2791 38C80.7958 38 80.4124 37.8667 80.1291 37.6C79.8624 37.3333 79.7291 36.9583 79.7291 36.475V21.9C79.7291 21.4167 79.8624 21.0417 80.1291 20.775C80.4124 20.5083 80.7958 20.375 81.2791 20.375H86.2291C89.1124 20.375 91.3458 21.15 92.9291 22.7C94.5291 24.2333 95.3291 26.3917 95.3291 29.175C95.3291 31.975 94.5291 34.15 92.9291 35.7C91.3458 37.2333 89.1124 38 86.2291 38H81.2791ZM86.0291 35.375C90.0791 35.375 92.1041 33.3083 92.1041 29.175C92.1041 25.0583 90.0791 23 86.0291 23H82.9541V35.375H86.0291ZM103.877 38.2C102.627 38.2 101.527 37.9417 100.577 37.425C99.6434 36.9083 98.9184 36.1667 98.4018 35.2C97.8851 34.2333 97.6268 33.1083 97.6268 31.825C97.6268 30.5417 97.8851 29.425 98.4018 28.475C98.9184 27.5083 99.6434 26.7667 100.577 26.25C101.527 25.7333 102.627 25.475 103.877 25.475C105.127 25.475 106.218 25.7333 107.152 26.25C108.102 26.7667 108.827 27.5083 109.327 28.475C109.843 29.425 110.102 30.5417 110.102 31.825C110.102 33.1083 109.843 34.2333 109.327 35.2C108.827 36.1667 108.102 36.9083 107.152 37.425C106.218 37.9417 105.127 38.2 103.877 38.2ZM103.852 35.775C104.868 35.775 105.643 35.4417 106.177 34.775C106.71 34.1083 106.977 33.125 106.977 31.825C106.977 30.5417 106.71 29.5667 106.177 28.9C105.643 28.2167 104.877 27.875 103.877 27.875C102.877 27.875 102.102 28.2167 101.552 28.9C101.018 29.5667 100.752 30.5417 100.752 31.825C100.752 33.125 101.018 34.1083 101.552 34.775C102.085 35.4417 102.852 35.775 103.852 35.775ZM119.782 25.475C121.248 25.475 122.34 25.8917 123.057 26.725C123.773 27.5583 124.132 28.8167 124.132 30.5V36.65C124.132 37.1167 123.99 37.4833 123.707 37.75C123.44 38.0167 123.065 38.15 122.582 38.15C122.098 38.15 121.715 38.0167 121.432 37.75C121.148 37.4833 121.007 37.1167 121.007 36.65V30.675C121.007 29.725 120.823 29.0333 120.457 28.6C120.107 28.1667 119.548 27.95 118.782 27.95C117.882 27.95 117.157 28.2333 116.607 28.8C116.073 29.3667 115.807 30.125 115.807 31.075V36.65C115.807 37.1167 115.665 37.4833 115.382 37.75C115.098 38.0167 114.715 38.15 114.232 38.15C113.748 38.15 113.365 38.0167 113.082 37.75C112.815 37.4833 112.682 37.1167 112.682 36.65V26.975C112.682 26.5417 112.823 26.1917 113.107 25.925C113.39 25.6583 113.773 25.525 114.257 25.525C114.69 25.525 115.04 25.6583 115.307 25.925C115.59 26.175 115.732 26.5083 115.732 26.925V27.6C116.148 26.9167 116.707 26.3917 117.407 26.025C118.107 25.6583 118.898 25.475 119.782 25.475ZM132.606 25.475C134.306 25.475 135.564 25.9 136.381 26.75C137.214 27.5833 137.631 28.8583 137.631 30.575V36.675C137.631 37.125 137.497 37.4833 137.231 37.75C136.964 38 136.597 38.125 136.131 38.125C135.697 38.125 135.339 37.9917 135.056 37.725C134.789 37.4583 134.656 37.1083 134.656 36.675V36.125C134.372 36.775 133.922 37.2833 133.306 37.65C132.706 38.0167 132.006 38.2 131.206 38.2C130.389 38.2 129.647 38.0333 128.981 37.7C128.314 37.3667 127.789 36.9083 127.406 36.325C127.022 35.7417 126.831 35.0917 126.831 34.375C126.831 33.475 127.056 32.7667 127.506 32.25C127.972 31.7333 128.722 31.3583 129.756 31.125C130.789 30.8917 132.214 30.775 134.031 30.775H134.656V30.2C134.656 29.3833 134.481 28.7917 134.131 28.425C133.781 28.0417 133.214 27.85 132.431 27.85C131.947 27.85 131.456 27.925 130.956 28.075C130.456 28.2083 129.864 28.4083 129.181 28.675C128.747 28.8917 128.431 29 128.231 29C127.931 29 127.681 28.8917 127.481 28.675C127.297 28.4583 127.206 28.175 127.206 27.825C127.206 27.5417 127.272 27.3 127.406 27.1C127.556 26.8833 127.797 26.6833 128.131 26.5C128.714 26.1833 129.406 25.9333 130.206 25.75C131.022 25.5667 131.822 25.475 132.606 25.475ZM131.831 35.95C132.664 35.95 133.339 35.675 133.856 35.125C134.389 34.5583 134.656 33.8333 134.656 32.95V32.425H134.206C133.089 32.425 132.222 32.475 131.606 32.575C130.989 32.675 130.547 32.85 130.281 33.1C130.014 33.35 129.881 33.6917 129.881 34.125C129.881 34.6583 130.064 35.1 130.431 35.45C130.814 35.7833 131.281 35.95 131.831 35.95ZM147.157 35.825C147.99 35.875 148.407 36.25 148.407 36.95C148.407 37.35 148.24 37.6583 147.907 37.875C147.59 38.075 147.132 38.1583 146.532 38.125L145.857 38.075C143.057 37.875 141.657 36.375 141.657 33.575V28.125H140.407C139.957 28.125 139.607 28.025 139.357 27.825C139.123 27.625 139.007 27.3333 139.007 26.95C139.007 26.5667 139.123 26.275 139.357 26.075C139.607 25.875 139.957 25.775 140.407 25.775H141.657V23.475C141.657 23.025 141.798 22.6667 142.082 22.4C142.365 22.1333 142.748 22 143.232 22C143.698 22 144.073 22.1333 144.357 22.4C144.64 22.6667 144.782 23.025 144.782 23.475V25.775H146.907C147.357 25.775 147.698 25.875 147.932 26.075C148.182 26.275 148.307 26.5667 148.307 26.95C148.307 27.3333 148.182 27.625 147.932 27.825C147.698 28.025 147.357 28.125 146.907 28.125H144.782V33.8C144.782 35.0333 145.348 35.6917 146.482 35.775L147.157 35.825ZM159.71 34.65C159.993 34.65 160.218 34.7583 160.385 34.975C160.568 35.1917 160.66 35.4833 160.66 35.85C160.66 36.3667 160.352 36.8 159.735 37.15C159.168 37.4667 158.527 37.725 157.81 37.925C157.093 38.1083 156.41 38.2 155.76 38.2C153.793 38.2 152.235 37.6333 151.085 36.5C149.935 35.3667 149.36 33.8167 149.36 31.85C149.36 30.6 149.61 29.4917 150.11 28.525C150.61 27.5583 151.31 26.8083 152.21 26.275C153.127 25.7417 154.16 25.475 155.31 25.475C156.41 25.475 157.368 25.7167 158.185 26.2C159.002 26.6833 159.635 27.3667 160.085 28.25C160.535 29.1333 160.76 30.175 160.76 31.375C160.76 32.0917 160.443 32.45 159.81 32.45H152.435C152.535 33.6 152.86 34.45 153.41 35C153.96 35.5333 154.76 35.8 155.81 35.8C156.343 35.8 156.81 35.7333 157.21 35.6C157.627 35.4667 158.093 35.2833 158.61 35.05C159.11 34.7833 159.477 34.65 159.71 34.65ZM155.385 27.675C154.535 27.675 153.852 27.9417 153.335 28.475C152.835 29.0083 152.535 29.775 152.435 30.775H158.085C158.052 29.7583 157.802 28.9917 157.335 28.475C156.868 27.9417 156.218 27.675 155.385 27.675ZM175.529 38.2C174.312 38.2 173.237 37.9417 172.304 37.425C171.387 36.9083 170.679 36.175 170.179 35.225C169.679 34.275 169.429 33.1667 169.429 31.9C169.429 30.6333 169.687 29.5167 170.204 28.55C170.737 27.5667 171.479 26.8083 172.429 26.275C173.379 25.7417 174.47 25.475 175.704 25.475C176.354 25.475 177.004 25.5667 177.654 25.75C178.32 25.9333 178.904 26.1833 179.404 26.5C179.937 26.85 180.204 27.2917 180.204 27.825C180.204 28.1917 180.112 28.4917 179.929 28.725C179.762 28.9417 179.537 29.05 179.254 29.05C179.07 29.05 178.879 29.0083 178.679 28.925C178.479 28.8417 178.279 28.7417 178.079 28.625C177.712 28.4083 177.362 28.2417 177.029 28.125C176.695 27.9917 176.312 27.925 175.879 27.925C174.845 27.925 174.045 28.2667 173.479 28.95C172.929 29.6167 172.654 30.5833 172.654 31.85C172.654 33.1 172.929 34.0667 173.479 34.75C174.045 35.4167 174.845 35.75 175.879 35.75C176.295 35.75 176.662 35.6917 176.979 35.575C177.312 35.4417 177.679 35.2667 178.079 35.05C178.329 34.9 178.545 34.7917 178.729 34.725C178.912 34.6417 179.095 34.6 179.279 34.6C179.545 34.6 179.77 34.7167 179.954 34.95C180.137 35.1833 180.229 35.475 180.229 35.825C180.229 36.1083 180.162 36.3583 180.029 36.575C179.912 36.775 179.712 36.9583 179.429 37.125C178.912 37.4583 178.312 37.725 177.629 37.925C176.945 38.1083 176.245 38.2 175.529 38.2ZM187.886 38.2C186.636 38.2 185.536 37.9417 184.586 37.425C183.652 36.9083 182.927 36.1667 182.411 35.2C181.894 34.2333 181.636 33.1083 181.636 31.825C181.636 30.5417 181.894 29.425 182.411 28.475C182.927 27.5083 183.652 26.7667 184.586 26.25C185.536 25.7333 186.636 25.475 187.886 25.475C189.136 25.475 190.227 25.7333 191.161 26.25C192.111 26.7667 192.836 27.5083 193.336 28.475C193.852 29.425 194.111 30.5417 194.111 31.825C194.111 33.1083 193.852 34.2333 193.336 35.2C192.836 36.1667 192.111 36.9083 191.161 37.425C190.227 37.9417 189.136 38.2 187.886 38.2ZM187.861 35.775C188.877 35.775 189.652 35.4417 190.186 34.775C190.719 34.1083 190.986 33.125 190.986 31.825C190.986 30.5417 190.719 29.5667 190.186 28.9C189.652 28.2167 188.886 27.875 187.886 27.875C186.886 27.875 186.111 28.2167 185.561 28.9C185.027 29.5667 184.761 30.5417 184.761 31.825C184.761 33.125 185.027 34.1083 185.561 34.775C186.094 35.4417 186.861 35.775 187.861 35.775ZM198.24 38.15C197.79 38.15 197.415 38.025 197.115 37.775C196.832 37.5083 196.69 37.1333 196.69 36.65V27C196.69 26.5167 196.832 26.15 197.115 25.9C197.415 25.65 197.79 25.525 198.24 25.525C198.69 25.525 199.065 25.65 199.365 25.9C199.665 26.15 199.815 26.5167 199.815 27V36.65C199.815 37.1333 199.665 37.5083 199.365 37.775C199.065 38.025 198.69 38.15 198.24 38.15ZM198.24 23.3C197.674 23.3 197.224 23.15 196.89 22.85C196.557 22.5333 196.39 22.125 196.39 21.625C196.39 21.125 196.557 20.725 196.89 20.425C197.224 20.125 197.674 19.975 198.24 19.975C198.79 19.975 199.232 20.125 199.565 20.425C199.915 20.725 200.09 21.125 200.09 21.625C200.09 22.125 199.924 22.5333 199.59 22.85C199.257 23.15 198.807 23.3 198.24 23.3ZM210.138 25.475C211.605 25.475 212.696 25.8917 213.413 26.725C214.13 27.5583 214.488 28.8167 214.488 30.5V36.65C214.488 37.1167 214.346 37.4833 214.063 37.75C213.796 38.0167 213.421 38.15 212.938 38.15C212.455 38.15 212.071 38.0167 211.788 37.75C211.505 37.4833 211.363 37.1167 211.363 36.65V30.675C211.363 29.725 211.18 29.0333 210.813 28.6C210.463 28.1667 209.905 27.95 209.138 27.95C208.238 27.95 207.513 28.2333 206.963 28.8C206.43 29.3667 206.163 30.125 206.163 31.075V36.65C206.163 37.1167 206.021 37.4833 205.738 37.75C205.455 38.0167 205.071 38.15 204.588 38.15C204.105 38.15 203.721 38.0167 203.438 37.75C203.171 37.4833 203.038 37.1167 203.038 36.65V26.975C203.038 26.5417 203.18 26.1917 203.463 25.925C203.746 25.6583 204.13 25.525 204.613 25.525C205.046 25.525 205.396 25.6583 205.663 25.925C205.946 26.175 206.088 26.5083 206.088 26.925V27.6C206.505 26.9167 207.063 26.3917 207.763 26.025C208.463 25.6583 209.255 25.475 210.138 25.475ZM222.087 38.2C220.27 38.2 218.804 37.8417 217.687 37.125C217.154 36.8083 216.887 36.3583 216.887 35.775C216.887 35.4417 216.979 35.175 217.162 34.975C217.345 34.7583 217.57 34.65 217.837 34.65C218.12 34.65 218.512 34.7833 219.012 35.05C219.545 35.3 220.029 35.4917 220.462 35.625C220.912 35.7583 221.479 35.825 222.162 35.825C222.862 35.825 223.404 35.7083 223.787 35.475C224.187 35.2417 224.387 34.9167 224.387 34.5C224.387 34.2167 224.304 33.9917 224.137 33.825C223.987 33.6583 223.704 33.5083 223.287 33.375C222.887 33.225 222.27 33.0583 221.437 32.875C219.954 32.575 218.887 32.15 218.237 31.6C217.604 31.05 217.287 30.2917 217.287 29.325C217.287 28.5917 217.504 27.9333 217.937 27.35C218.37 26.75 218.962 26.2917 219.712 25.975C220.479 25.6417 221.345 25.475 222.312 25.475C223.012 25.475 223.687 25.5667 224.337 25.75C224.987 25.9167 225.57 26.1667 226.087 26.5C226.62 26.8333 226.887 27.275 226.887 27.825C226.887 28.1583 226.795 28.4417 226.612 28.675C226.429 28.8917 226.204 29 225.937 29C225.754 29 225.57 28.9667 225.387 28.9C225.22 28.8167 225.004 28.7 224.737 28.55C224.254 28.3 223.837 28.1167 223.487 28C223.137 27.8667 222.704 27.8 222.187 27.8C221.57 27.8 221.079 27.925 220.712 28.175C220.362 28.425 220.187 28.7667 220.187 29.2C220.187 29.6167 220.37 29.9333 220.737 30.15C221.104 30.3667 221.812 30.5833 222.862 30.8C223.979 31.0333 224.854 31.3 225.487 31.6C226.12 31.9 226.57 32.275 226.837 32.725C227.12 33.175 227.262 33.75 227.262 34.45C227.262 35.5833 226.787 36.4917 225.837 37.175C224.904 37.8583 223.654 38.2 222.087 38.2Z" fill="#74B370"/>
</svg>
