<svg width="119" height="119" viewBox="0 0 119 119" fill="none" xmlns="http://www.w3.org/2000/svg">
<path d="M40.8286 55.5177C18.3155 55.5177 0 73.8335 0 96.3463V108.045C0 114.007 4.82229 119 10.9547 119H70.7027C76.8343 119 81.6575 114.008 81.6575 108.045V96.3463C81.6575 73.8335 63.3417 55.5177 40.8286 55.5177Z" fill="#74B370" fill-opacity="0.25"/>
<path d="M49.3307 53.8249C60.6379 49.138 66.0047 36.1723 61.3178 24.8651C56.631 13.5579 43.6652 8.19102 32.358 12.8779C21.0508 17.5647 15.684 30.5305 20.3708 41.8377C25.0577 53.1449 38.0234 58.5118 49.3307 53.8249Z" fill="#E3806E"/>
<path d="M40.8289 55.5177V11.2028C53.0463 11.2028 62.9863 21.1427 62.9863 33.3602C62.9863 45.5777 53.0463 55.5177 40.8289 55.5177Z" fill="#C8645A"/>
<path d="M70.7027 119C76.8343 119 81.6575 114.008 81.6575 108.045V96.3463C81.6575 73.8335 63.3417 55.5177 40.8286 55.5177V119H70.7027Z" fill="#74B370"/>
<path d="M104.063 60.0787V14.6891C104.063 13.7643 103.696 12.8776 103.042 12.224L91.839 1.02126C91.1854 0.367227 90.2985 0 89.3739 0C88.4491 0 87.5627 0.367227 86.9086 1.02126L75.7059 12.224C74.3446 13.5853 74.3446 15.7928 75.7059 17.1544L78.8422 20.2904L75.7059 23.4267C74.3446 24.7883 74.3446 26.9956 75.7059 28.3571L78.8422 31.4932L75.7061 34.6292C74.3446 35.9905 74.3446 38.1978 75.7061 39.5596L78.8422 42.6959L75.7061 45.832C75.0523 46.4855 74.6849 47.3725 74.6849 48.297V60.0785C66.1875 61.7127 59.7478 69.2041 59.7478 78.1709V96.8423C59.7478 109.06 69.6876 119 81.9053 119H96.8423C109.06 119 119 109.06 119 96.8425V78.1712C119 69.2043 112.56 61.7129 104.063 60.0787ZM89.3739 100.825C85.119 100.825 81.6575 97.3629 81.6575 93.108C81.6575 88.853 85.1192 85.3916 89.3739 85.3916C93.6286 85.3916 97.0903 88.853 97.0903 93.108C97.0903 97.3629 93.6289 100.825 89.3739 100.825Z" fill="#C8645A"/>
<path d="M104.063 60.0787V14.6891C104.063 13.7643 103.696 12.8776 103.042 12.224L91.839 1.02126C91.1854 0.367227 90.2985 0 89.3739 0V85.3918C93.6288 85.3918 97.0903 88.8533 97.0903 93.1082C97.0903 97.3632 93.6286 100.825 89.3739 100.825V119H96.8423C109.06 119 119 109.06 119 96.8425V78.1712C119 69.2043 112.56 61.7129 104.063 60.0787Z" fill="#EC6D5F"/>
</svg>
