<?xml version="1.0" encoding="utf-8"?>
<svg id="master-artboard" viewBox="0 0 1016.5054321289062 216.1934051513672" version="1.1" x="0px" y="0px" style="enable-background:new 0 0 1400 980;" width="1016.5054321289062px" height="216.1934051513672px" xmlns="http://www.w3.org/2000/svg">
  <g transform="matrix(1.9600000381469727, 0, 0, 1.9600000381469727, 15.865859985351562, -377.12948911907915)">
    <rect id="ee-background" x="0" y="0" width="1016.5054321289062" height="216.1934051513672" style="fill: white; fill-opacity: 0; pointer-events: none;"/>
    <g transform="matrix(1.4164305949008498, 0, 0, 1.4164305949008498, -0.000005435188512592504, 207.5070821529745)">
      <path d="M199 0H154C137.431 0 124 13.4315 124 30C124 46.5685 137.431 60 154 60H199C215.569 60 229 46.5685 229 30C229 13.4315 215.569 0 199 0Z" fill="white" transform="matrix(0.9999999999999999, 0, 0, 0.9999999999999999, 121.36610988572927, 1.4210854715202004e-14)"/>
      <path d="M323 0.25H278C261.57 0.25 248.25 13.5695 248.25 30C248.25 46.4305 261.57 59.75 278 59.75H323C339.43 59.75 352.75 46.4305 352.75 30C352.75 13.5695 339.43 0.25 323 0.25Z" stroke-width="0.5" transform="matrix(0.9999999999999999, 0, 0, 0.9999999999999999, -126.24174290613462, 0)" style="fill: none; stroke: rgb(255, 255, 255);"/>
      <path d="M308.37 30.8702V29.0222C308.368 28.2386 308.056 27.4877 307.502 26.9336C306.947 26.3795 306.197 26.0673 305.413 26.0652H293.957C293.809 26.0638 293.662 26.0329 293.526 25.9744C293.39 25.9159 293.266 25.831 293.163 25.7244C293.06 25.6179 292.979 25.492 292.925 25.3539C292.871 25.2159 292.845 25.0684 292.848 24.9202C292.864 24.6286 292.993 24.3545 293.206 24.1549C293.419 23.9552 293.701 23.8454 293.993 23.8482H305.413C305.612 23.8468 305.808 23.9015 305.978 24.006C306.148 24.1105 306.285 24.2606 306.374 24.4392C306.453 24.5963 306.575 24.7281 306.725 24.8195C306.875 24.9109 307.048 24.9583 307.224 24.9562C307.385 24.9566 307.542 24.9151 307.682 24.8359C307.822 24.7567 307.938 24.6425 308.02 24.5045C308.102 24.3665 308.147 24.2096 308.15 24.0491C308.153 23.8886 308.114 23.7301 308.037 23.5892C307.791 23.106 307.415 22.7012 306.952 22.4204C306.488 22.1396 305.955 21.9941 305.413 22.0002H293.957C293.173 22.0023 292.423 22.3145 291.868 22.8686C291.314 23.4227 291.002 24.1736 291 24.9572V24.9572V36.0432C291.002 36.8268 291.314 37.5777 291.868 38.1318C292.423 38.6859 293.173 38.9981 293.957 39.0002H305.413C306.197 38.9981 306.947 38.6859 307.502 38.1318C308.056 37.5777 308.368 36.8268 308.37 36.0432V34.2002H306.522V36.0482C306.521 36.3421 306.404 36.6237 306.196 36.8315C305.989 37.0393 305.707 37.1564 305.413 37.1572H293.957C293.663 37.1564 293.381 37.0393 293.174 36.8315C292.966 36.6237 292.849 36.3421 292.848 36.0482V27.6912C293.198 27.8426 293.576 27.9183 293.957 27.9132H305.413C305.707 27.914 305.989 28.0311 306.196 28.2389C306.404 28.4467 306.521 28.7283 306.522 29.0222V30.8702H308.37Z" fill="white" style="fill: rgb(116, 179, 112); stroke: rgb(0, 0, 0); stroke-width: 0;"/>
      <path d="M183.509 24.816L182.3 22.549C182.03 22.0767 181.639 21.6846 181.168 21.4125C180.697 21.1403 180.162 20.998 179.618 21C179.114 20.9953 178.618 21.1258 178.182 21.378L171.911 24.778H170.022C169.221 24.7804 168.454 25.0995 167.888 25.6657C167.322 26.232 167.002 26.9992 167 27.8V34.978C167.002 35.7788 167.322 36.546 167.888 37.1123C168.454 37.6785 169.221 37.9976 170.022 38H182.867C183.668 37.9976 184.435 37.6785 185.001 37.1123C185.567 36.546 185.887 35.7788 185.889 34.978V27.8C185.892 27.1058 185.658 26.4314 185.225 25.8886C184.792 25.3459 184.187 24.9674 183.509 24.816ZM179.089 23.04C179.246 22.9383 179.431 22.8857 179.618 22.889C179.821 22.8873 180.021 22.9426 180.195 23.0487C180.368 23.1547 180.509 23.3073 180.6 23.489L181.28 24.773H175.88L179.089 23.04ZM184 34.978C183.999 35.2782 183.879 35.5657 183.667 35.778C183.455 35.9902 183.167 36.1099 182.867 36.111H170.022C169.722 36.1099 169.434 35.9902 169.222 35.778C169.01 35.5657 168.89 35.2782 168.889 34.978V27.8C168.89 27.4998 169.01 27.2123 169.222 27C169.434 26.7878 169.722 26.6681 170.022 26.667H182.867C183.167 26.6681 183.455 26.7878 183.667 27C183.879 27.2123 183.999 27.4998 184 27.8V34.978Z" fill="#74B370" style="fill: rgb(255, 255, 255);"/>
      <path d="M75 0.25H30C13.5695 0.25 0.25 13.5695 0.25 30C0.25 46.4305 13.5695 59.75 30 59.75H75C91.4305 59.75 104.75 46.4305 104.75 30C104.75 13.5695 91.4305 0.25 75 0.25Z" stroke-width="0.5" style="fill: none; stroke: rgb(255, 255, 255);"/>
      <path d="M46.992 22L44 35.699H47.961L48.931 31.16H51.757C53.067 31.1959 54.3465 30.762 55.3644 29.9367C56.3823 29.1113 57.0714 27.9491 57.307 26.66C57.4821 26.1091 57.5212 25.5239 57.4209 24.9546C57.3207 24.3853 57.084 23.8487 56.7312 23.3907C56.3784 22.9328 55.92 22.5671 55.395 22.3249C54.8701 22.0827 54.2944 21.9712 53.717 22H46.992ZM50.334 24.785H52.273C52.5001 24.7809 52.7248 24.8321 52.9277 24.9343C53.1306 25.0364 53.3056 25.1863 53.4376 25.3712C53.5696 25.556 53.6546 25.7702 53.6853 25.9953C53.7161 26.2203 53.6916 26.4495 53.614 26.663C53.4858 27.1771 53.1964 27.6368 52.7881 27.9745C52.3798 28.3123 51.8741 28.5104 51.345 28.54H49.488L50.334 24.785ZM58.751 25.585C58.7491 26.0357 58.7008 26.4851 58.607 26.926C58.3673 28.1211 57.8278 29.2357 57.039 30.165C56.8785 30.6313 56.5828 31.0392 56.1896 31.3368C55.7963 31.6344 55.3234 31.8082 54.831 31.836H54.79C53.837 32.2655 52.8023 32.4839 51.757 32.476H50.004L49.261 35.963L49.034 37.015H47.941L47.508 38.996H51.448L52.418 34.457H55.244C56.5561 34.4928 57.838 34.0593 58.859 33.2344C59.8801 32.4095 60.5733 31.2473 60.814 29.957C61.0894 29.1032 61.0294 28.1766 60.6462 27.3654C60.2631 26.5543 59.5854 25.9195 58.751 25.59V25.585Z" fill="white"/>
      <path d="M307.63 31.6092V33.4612H302.83V31.6092H307.63ZM307.889 29.7612H302.567C302.358 29.7596 302.151 29.7996 301.957 29.8789C301.764 29.9581 301.588 30.0751 301.44 30.223C301.292 30.3709 301.175 30.5467 301.096 30.7402C301.016 30.9337 300.976 31.141 300.978 31.3502V33.7152C300.976 33.9243 301.016 34.1316 301.096 34.3251C301.175 34.5186 301.292 34.6944 301.44 34.8423C301.588 34.9902 301.764 35.1072 301.957 35.1865C302.151 35.2657 302.358 35.3058 302.567 35.3042H307.889C308.098 35.3058 308.305 35.2657 308.499 35.1865C308.692 35.1072 308.868 34.9902 309.016 34.8423C309.164 34.6944 309.281 34.5186 309.36 34.3251C309.44 34.1316 309.48 33.9243 309.478 33.7152V31.3502C309.48 31.141 309.44 30.9337 309.36 30.7402C309.281 30.5467 309.164 30.3709 309.016 30.223C308.868 30.0751 308.692 29.9581 308.499 29.8789C308.305 29.7996 308.098 29.7596 307.889 29.7612Z" fill="white" style="fill: rgb(116, 179, 112); stroke: rgb(0, 0, 0); stroke-width: 0;"/>
    </g>
  </g>
</svg>