<svg width="212" height="52" viewBox="0 0 212 52" fill="none" xmlns="http://www.w3.org/2000/svg">
<rect width="212" height="52" rx="26" fill="#EC6D5F"/>
<path d="M91.6 30C91.328 29.544 91.024 29.056 90.688 28.536C90.352 28.008 90.004 27.48 89.644 26.952C89.284 26.416 88.916 25.9 88.54 25.404C88.172 24.9 87.82 24.448 87.484 24.048V30H85.996V21.684H87.232C87.552 22.02 87.896 22.42 88.264 22.884C88.632 23.34 89 23.816 89.368 24.312C89.744 24.808 90.104 25.308 90.448 25.812C90.8 26.308 91.112 26.772 91.384 27.204V21.684H92.884V30H91.6ZM94.8788 30V21.684H100.219V22.968H96.3908V25.02H99.7988V26.28H96.3908V28.716H100.507V30H94.8788ZM106.842 30C106.61 29.528 106.318 29.008 105.966 28.44C105.614 27.872 105.246 27.324 104.862 26.796C104.702 27.004 104.526 27.252 104.334 27.54C104.15 27.828 103.962 28.124 103.77 28.428C103.586 28.724 103.414 29.012 103.254 29.292C103.094 29.572 102.966 29.808 102.87 30H101.154C101.514 29.32 101.93 28.624 102.402 27.912C102.874 27.192 103.386 26.44 103.938 25.656L101.274 21.684H103.074L104.91 24.528L106.722 21.684H108.45L105.822 25.644C106.43 26.468 106.966 27.248 107.43 27.984C107.902 28.72 108.298 29.392 108.618 30H106.842ZM115.722 21.684V22.992H113.166V30H111.642V22.992H109.086V21.684H115.722Z" fill="white"/>
<path d="M203.797 25.399C203.797 17.4467 197.351 11 189.399 11C181.446 11 175 17.4467 175 25.399V26.221C175 34.1733 181.446 40.62 189.399 40.62C197.351 40.62 203.797 34.1733 203.797 26.221V25.399Z" fill="white"/>
<path d="M193.101 25.808C193.101 25.6974 193.079 25.5879 193.035 25.4862C192.992 25.3845 192.929 25.2925 192.849 25.216L187.912 20.279C187.75 20.1324 187.537 20.0561 187.32 20.0666C187.102 20.0772 186.897 20.1739 186.75 20.3355C186.604 20.497 186.528 20.7101 186.538 20.9279C186.549 21.1457 186.645 21.3504 186.807 21.497L191.119 25.808L186.749 30.175C186.605 30.3311 186.526 30.5371 186.53 30.7498C186.535 30.9624 186.621 31.1652 186.771 31.3155C186.922 31.4659 187.125 31.5523 187.337 31.5564C187.55 31.5606 187.756 31.4823 187.912 31.338L192.849 26.401C192.929 26.3244 192.992 26.2324 193.035 26.1307C193.079 26.029 193.101 25.9195 193.101 25.809V25.808Z" fill="#EC6D5F" stroke="#EC6D5F"/>
</svg>
