<svg width="315" height="447" viewBox="0 0 315 447" fill="none" xmlns="http://www.w3.org/2000/svg">
<path d="M157.5 315C244.485 315 315 244.485 315 157.5C315 70.5152 244.485 0 157.5 0C70.5152 0 0 70.5152 0 157.5C0 244.485 70.5152 315 157.5 315Z" fill="#7EB87A"/>
<path d="M196.89 262.798V273.207" stroke="white" stroke-width="4" stroke-linecap="round" stroke-linejoin="round"/>
<path d="M202.095 268.002H191.686" stroke="white" stroke-width="4" stroke-linecap="round" stroke-linejoin="round"/>
<path d="M80.8691 56.7739V67.1829" stroke="white" stroke-width="4" stroke-linecap="round" stroke-linejoin="round"/>
<path d="M86.0731 61.979H75.6641" stroke="white" stroke-width="4" stroke-linecap="round" stroke-linejoin="round"/>
<path d="M266.163 185.375C269.57 185.375 272.332 182.613 272.332 179.206C272.332 175.799 269.57 173.037 266.163 173.037C262.756 173.037 259.994 175.799 259.994 179.206C259.994 182.613 262.756 185.375 266.163 185.375Z" stroke="white" stroke-width="4" stroke-linecap="round" stroke-linejoin="round"/>
<path d="M173.095 62.943C176.502 62.943 179.264 60.181 179.264 56.774C179.264 53.3669 176.502 50.605 173.095 50.605C169.688 50.605 166.926 53.3669 166.926 56.774C166.926 60.181 169.688 62.943 173.095 62.943Z" stroke="white" stroke-width="4" stroke-linecap="round" stroke-linejoin="round"/>
<path d="M59.2764 190.822C62.6835 190.822 65.4454 188.06 65.4454 184.653C65.4454 181.246 62.6835 178.484 59.2764 178.484C55.8694 178.484 53.1074 181.246 53.1074 184.653C53.1074 188.06 55.8694 190.822 59.2764 190.822Z" stroke="white" stroke-width="4" stroke-linecap="round" stroke-linejoin="round"/>
<path d="M157.501 246.35L92.0176 218.338V122.955L157.501 150.967V246.35Z" fill="#EC6D5F" stroke="white" stroke-width="4" stroke-linecap="round" stroke-linejoin="round"/>
<path d="M222.983 218.339L157.5 246.351V150.967L222.983 122.955V218.339Z" fill="#EC6D5F" stroke="white" stroke-width="4" stroke-linecap="round" stroke-linejoin="round"/>
<path d="M222.984 122.955L157.501 94.943L92.0176 122.955L157.501 150.967L222.984 122.955Z" fill="white" stroke="#EC6D5F" stroke-width="4" stroke-linecap="round" stroke-linejoin="round"/>
<path d="M157.501 150.967L120.491 166.774L55.0078 138.762L92.0178 122.955L157.501 150.967Z" fill="#EC6D5F" stroke="white" stroke-width="4" stroke-linecap="round" stroke-linejoin="round"/>
<path d="M157.5 150.967L194.51 166.774L259.993 138.762L222.983 122.955L157.5 150.967Z" fill="#EC6D5F" stroke="white" stroke-width="4" stroke-linecap="round" stroke-linejoin="round"/>
<path d="M59.2754 108.949L92.0164 122.955L157.499 94.943L124.758 80.938L59.2754 108.949Z" fill="#EC6D5F" stroke="white" stroke-width="4" stroke-linecap="round" stroke-linejoin="round"/>
<path d="M255.724 108.949L222.983 122.955L157.5 94.943L190.239 80.938L255.724 108.949Z" fill="#EC6D5F" stroke="white" stroke-width="4" stroke-linecap="round" stroke-linejoin="round"/>
<path d="M157.499 132.945C170.525 132.945 181.084 122.386 181.084 109.36C181.084 96.3344 170.525 85.775 157.499 85.775C144.473 85.775 133.914 96.3344 133.914 109.36C133.914 122.386 144.473 132.945 157.499 132.945Z" fill="#7EB87A" stroke="white" stroke-width="4" stroke-linecap="round" stroke-linejoin="round"/>
<path d="M148.057 111.518L153.672 117.133L166.923 103.882" stroke="white" stroke-width="4" stroke-linecap="round" stroke-linejoin="round"/>
<path d="M191.685 213.073L167.973 223.216" stroke="white" stroke-width="4" stroke-linecap="round" stroke-linejoin="round"/>
<path d="M184.187 223.785L167.973 230.721" stroke="white" stroke-width="4" stroke-linecap="round" stroke-linejoin="round"/>
<g filter="url(#filter0_dd)">
<path d="M223 386H104C91.2975 386 81 396.297 81 409C81 421.703 91.2975 432 104 432H223C235.703 432 246 421.703 246 409C246 396.297 235.703 386 223 386Z" fill="white"/>
</g>
<path d="M115.279 414.108C114.663 414.108 114.079 414.028 113.527 413.868C112.983 413.7 112.539 413.476 112.195 413.196C112.011 413.06 111.919 412.868 111.919 412.62C111.919 412.452 111.967 412.308 112.063 412.188C112.167 412.06 112.287 411.996 112.423 411.996C112.567 411.996 112.731 412.052 112.915 412.164C113.259 412.412 113.619 412.592 113.995 412.704C114.371 412.816 114.787 412.872 115.243 412.872C115.827 412.872 116.275 412.772 116.587 412.572C116.899 412.364 117.055 412.064 117.055 411.672C117.055 411.368 116.907 411.136 116.611 410.976C116.323 410.808 115.839 410.648 115.159 410.496C114.455 410.344 113.883 410.168 113.443 409.968C113.003 409.768 112.671 409.512 112.447 409.2C112.223 408.888 112.111 408.492 112.111 408.012C112.111 407.516 112.251 407.072 112.531 406.68C112.811 406.288 113.199 405.984 113.695 405.768C114.199 405.544 114.763 405.432 115.387 405.432C116.531 405.432 117.463 405.736 118.183 406.344C118.287 406.432 118.359 406.52 118.399 406.608C118.447 406.688 118.471 406.792 118.471 406.92C118.471 407.088 118.419 407.236 118.315 407.364C118.219 407.484 118.103 407.544 117.967 407.544C117.887 407.544 117.811 407.532 117.739 407.508C117.675 407.484 117.587 407.44 117.475 407.376C117.147 407.136 116.827 406.96 116.515 406.848C116.211 406.728 115.835 406.668 115.387 406.668C114.843 406.668 114.411 406.78 114.091 407.004C113.779 407.22 113.623 407.524 113.623 407.916C113.623 408.244 113.763 408.496 114.043 408.672C114.323 408.848 114.799 409.012 115.471 409.164C116.183 409.324 116.759 409.504 117.199 409.704C117.647 409.896 117.987 410.144 118.219 410.448C118.459 410.752 118.579 411.132 118.579 411.588C118.579 412.084 118.439 412.524 118.159 412.908C117.887 413.284 117.499 413.58 116.995 413.796C116.499 414.004 115.927 414.108 115.279 414.108ZM120.747 414C120.515 414 120.331 413.936 120.195 413.808C120.067 413.68 120.003 413.5 120.003 413.268V406.272C120.003 406.04 120.067 405.86 120.195 405.732C120.331 405.604 120.515 405.54 120.747 405.54H125.079C125.311 405.54 125.491 405.592 125.619 405.696C125.747 405.8 125.811 405.948 125.811 406.14C125.811 406.34 125.747 406.496 125.619 406.608C125.491 406.712 125.311 406.764 125.079 406.764H121.515V409.092H124.839C125.071 409.092 125.251 409.144 125.379 409.248C125.507 409.352 125.571 409.504 125.571 409.704C125.571 409.896 125.507 410.044 125.379 410.148C125.251 410.252 125.071 410.304 124.839 410.304H121.515V412.776H125.079C125.311 412.776 125.491 412.832 125.619 412.944C125.747 413.048 125.811 413.2 125.811 413.4C125.811 413.592 125.747 413.74 125.619 413.844C125.491 413.948 125.311 414 125.079 414H120.747ZM127.814 414C127.582 414 127.398 413.936 127.262 413.808C127.134 413.68 127.07 413.5 127.07 413.268V406.272C127.07 406.04 127.134 405.86 127.262 405.732C127.398 405.604 127.582 405.54 127.814 405.54H132.146C132.378 405.54 132.558 405.592 132.686 405.696C132.814 405.8 132.878 405.948 132.878 406.14C132.878 406.34 132.814 406.496 132.686 406.608C132.558 406.712 132.378 406.764 132.146 406.764H128.582V409.092H131.906C132.138 409.092 132.318 409.144 132.446 409.248C132.574 409.352 132.638 409.504 132.638 409.704C132.638 409.896 132.574 410.044 132.446 410.148C132.318 410.252 132.138 410.304 131.906 410.304H128.582V412.776H132.146C132.378 412.776 132.558 412.832 132.686 412.944C132.814 413.048 132.878 413.2 132.878 413.4C132.878 413.592 132.814 413.74 132.686 413.844C132.558 413.948 132.378 414 132.146 414H127.814ZM134.88 414C134.648 414 134.464 413.936 134.328 413.808C134.2 413.68 134.136 413.5 134.136 413.268V406.272C134.136 406.04 134.2 405.86 134.328 405.732C134.464 405.604 134.648 405.54 134.88 405.54H139.212C139.444 405.54 139.624 405.592 139.752 405.696C139.88 405.8 139.944 405.948 139.944 406.14C139.944 406.34 139.88 406.496 139.752 406.608C139.624 406.712 139.444 406.764 139.212 406.764H135.648V409.092H138.972C139.204 409.092 139.384 409.144 139.512 409.248C139.64 409.352 139.704 409.504 139.704 409.704C139.704 409.896 139.64 410.044 139.512 410.148C139.384 410.252 139.204 410.304 138.972 410.304H135.648V412.776H139.212C139.444 412.776 139.624 412.832 139.752 412.944C139.88 413.048 139.944 413.2 139.944 413.4C139.944 413.592 139.88 413.74 139.752 413.844C139.624 413.948 139.444 414 139.212 414H134.88ZM148.228 414.108C147.404 414.108 146.688 413.932 146.08 413.58C145.48 413.228 145.016 412.724 144.688 412.068C144.36 411.412 144.196 410.644 144.196 409.764C144.196 408.884 144.356 408.12 144.676 407.472C145.004 406.816 145.472 406.312 146.08 405.96C146.688 405.608 147.404 405.432 148.228 405.432C149.052 405.432 149.764 405.608 150.364 405.96C150.972 406.312 151.436 406.816 151.756 407.472C152.084 408.12 152.248 408.884 152.248 409.764C152.248 410.644 152.084 411.412 151.756 412.068C151.428 412.724 150.96 413.228 150.352 413.58C149.752 413.932 149.044 414.108 148.228 414.108ZM148.228 412.872C149.004 412.872 149.608 412.604 150.04 412.068C150.48 411.532 150.7 410.764 150.7 409.764C150.7 408.764 150.48 408 150.04 407.472C149.608 406.936 149.004 406.668 148.228 406.668C147.444 406.668 146.832 406.936 146.392 407.472C145.96 408 145.744 408.764 145.744 409.764C145.744 410.764 145.96 411.532 146.392 412.068C146.832 412.604 147.444 412.872 148.228 412.872ZM160.58 413.028C160.676 413.172 160.724 413.312 160.724 413.448C160.724 413.632 160.648 413.784 160.496 413.904C160.352 414.024 160.18 414.084 159.98 414.084C159.852 414.084 159.728 414.056 159.608 414C159.496 413.936 159.4 413.844 159.32 413.724L157.724 411.3C157.564 411.044 157.392 410.864 157.208 410.76C157.032 410.656 156.8 410.604 156.512 410.604H155.336V413.292C155.336 413.532 155.268 413.724 155.132 413.868C154.996 414.004 154.812 414.072 154.58 414.072C154.348 414.072 154.16 414.004 154.016 413.868C153.88 413.724 153.812 413.532 153.812 413.292V406.272C153.812 406.04 153.876 405.86 154.004 405.732C154.14 405.604 154.324 405.54 154.556 405.54H157.556C158.516 405.54 159.244 405.756 159.74 406.188C160.244 406.612 160.496 407.228 160.496 408.036C160.496 408.692 160.308 409.232 159.932 409.656C159.564 410.072 159.04 410.34 158.36 410.46C158.592 410.516 158.796 410.616 158.972 410.76C159.148 410.904 159.32 411.104 159.488 411.36L160.58 413.028ZM157.34 409.416C157.924 409.416 158.352 409.308 158.624 409.092C158.896 408.868 159.032 408.528 159.032 408.072C159.032 407.608 158.896 407.272 158.624 407.064C158.352 406.848 157.924 406.74 157.34 406.74H155.324V409.416H157.34ZM162.9 414C162.668 414 162.484 413.936 162.348 413.808C162.22 413.68 162.156 413.5 162.156 413.268V406.272C162.156 406.04 162.22 405.86 162.348 405.732C162.484 405.604 162.668 405.54 162.9 405.54H165.276C166.66 405.54 167.732 405.912 168.492 406.656C169.26 407.392 169.644 408.428 169.644 409.764C169.644 411.108 169.26 412.152 168.492 412.896C167.732 413.632 166.66 414 165.276 414H162.9ZM165.18 412.74C167.124 412.74 168.096 411.748 168.096 409.764C168.096 407.788 167.124 406.8 165.18 406.8H163.704V412.74H165.18ZM171.947 414C171.715 414 171.531 413.936 171.395 413.808C171.267 413.68 171.203 413.5 171.203 413.268V406.272C171.203 406.04 171.267 405.86 171.395 405.732C171.531 405.604 171.715 405.54 171.947 405.54H176.279C176.511 405.54 176.691 405.592 176.819 405.696C176.947 405.8 177.011 405.948 177.011 406.14C177.011 406.34 176.947 406.496 176.819 406.608C176.691 406.712 176.511 406.764 176.279 406.764H172.715V409.092H176.039C176.271 409.092 176.451 409.144 176.579 409.248C176.707 409.352 176.771 409.504 176.771 409.704C176.771 409.896 176.707 410.044 176.579 410.148C176.451 410.252 176.271 410.304 176.039 410.304H172.715V412.776H176.279C176.511 412.776 176.691 412.832 176.819 412.944C176.947 413.048 177.011 413.2 177.011 413.4C177.011 413.592 176.947 413.74 176.819 413.844C176.691 413.948 176.511 414 176.279 414H171.947ZM185.037 413.028C185.133 413.172 185.181 413.312 185.181 413.448C185.181 413.632 185.105 413.784 184.953 413.904C184.809 414.024 184.637 414.084 184.437 414.084C184.309 414.084 184.185 414.056 184.065 414C183.953 413.936 183.857 413.844 183.777 413.724L182.181 411.3C182.021 411.044 181.849 410.864 181.665 410.76C181.489 410.656 181.257 410.604 180.969 410.604H179.793V413.292C179.793 413.532 179.725 413.724 179.589 413.868C179.453 414.004 179.269 414.072 179.037 414.072C178.805 414.072 178.617 414.004 178.473 413.868C178.337 413.724 178.269 413.532 178.269 413.292V406.272C178.269 406.04 178.333 405.86 178.461 405.732C178.597 405.604 178.781 405.54 179.013 405.54H182.013C182.973 405.54 183.701 405.756 184.197 406.188C184.701 406.612 184.953 407.228 184.953 408.036C184.953 408.692 184.765 409.232 184.389 409.656C184.021 410.072 183.497 410.34 182.817 410.46C183.049 410.516 183.253 410.616 183.429 410.76C183.605 410.904 183.777 411.104 183.945 411.36L185.037 413.028ZM181.797 409.416C182.381 409.416 182.809 409.308 183.081 409.092C183.353 408.868 183.489 408.528 183.489 408.072C183.489 407.608 183.353 407.272 183.081 407.064C182.809 406.848 182.381 406.74 181.797 406.74H179.781V409.416H181.797Z" fill="#EC6D5F"/>
<path d="M223.809 394.411C231.762 394.411 238.208 400.858 238.208 408.81C238.208 416.762 231.762 423.208 223.809 423.208H222.987C215.035 423.208 208.588 416.762 208.588 408.81C208.588 400.858 215.035 394.411 222.987 394.411H223.809Z" fill="#EC6D5F"/>
<path d="M217.158 409.428C217.158 409.237 217.234 409.054 217.37 408.919C217.505 408.783 217.688 408.707 217.88 408.706H227.657L224.915 405.628C224.85 405.557 224.799 405.474 224.767 405.383C224.734 405.293 224.72 405.197 224.725 405.101C224.73 405.005 224.754 404.911 224.795 404.825C224.837 404.738 224.895 404.661 224.967 404.597C225.039 404.533 225.122 404.484 225.213 404.453C225.304 404.422 225.4 404.409 225.496 404.415C225.592 404.422 225.686 404.447 225.771 404.49C225.857 404.533 225.934 404.593 225.997 404.666L229.689 408.815C229.8 408.943 229.863 409.105 229.867 409.274C229.872 409.443 229.817 409.609 229.713 409.742C229.65 409.872 229.549 409.981 229.424 410.055L225.973 413.655C225.907 413.723 225.828 413.778 225.741 413.817C225.654 413.855 225.561 413.876 225.466 413.878C225.371 413.88 225.276 413.863 225.188 413.829C225.099 413.795 225.018 413.743 224.95 413.677C224.881 413.612 224.826 413.533 224.787 413.446C224.749 413.359 224.728 413.266 224.726 413.171C224.724 413.076 224.741 412.981 224.775 412.893C224.809 412.804 224.861 412.723 224.927 412.655L227.332 410.155H217.88C217.784 410.154 217.69 410.135 217.603 410.099C217.515 410.062 217.435 410.008 217.368 409.941C217.301 409.874 217.248 409.794 217.212 409.706C217.176 409.618 217.157 409.524 217.158 409.428Z" fill="white" stroke="white" stroke-width="0.7"/>
<path d="M93.9289 364.18C92.5556 364.18 91.3622 363.887 90.3489 363.3C89.3489 362.713 88.5756 361.873 88.0289 360.78C87.4822 359.687 87.2089 358.407 87.2089 356.94C87.2089 355.473 87.4756 354.2 88.0089 353.12C88.5556 352.027 89.3356 351.187 90.3489 350.6C91.3622 350.013 92.5556 349.72 93.9289 349.72C95.3022 349.72 96.4889 350.013 97.4889 350.6C98.5022 351.187 99.2756 352.027 99.8089 353.12C100.356 354.2 100.629 355.473 100.629 356.94C100.629 358.407 100.356 359.687 99.8089 360.78C99.2622 361.873 98.4822 362.713 97.4689 363.3C96.4689 363.887 95.2889 364.18 93.9289 364.18ZM93.9289 362.12C95.2222 362.12 96.2289 361.673 96.9489 360.78C97.6822 359.887 98.0489 358.607 98.0489 356.94C98.0489 355.273 97.6822 354 96.9489 353.12C96.2289 352.227 95.2222 351.78 93.9289 351.78C92.6222 351.78 91.6022 352.227 90.8689 353.12C90.1489 354 89.7889 355.273 89.7889 356.94C89.7889 358.607 90.1489 359.887 90.8689 360.78C91.6022 361.673 92.6222 362.12 93.9289 362.12ZM108.475 354.02C108.822 353.993 109.095 354.067 109.295 354.24C109.495 354.413 109.595 354.673 109.595 355.02C109.595 355.38 109.508 355.647 109.335 355.82C109.162 355.993 108.848 356.107 108.395 356.16L107.795 356.22C107.008 356.3 106.428 356.567 106.055 357.02C105.695 357.473 105.515 358.04 105.515 358.72V362.92C105.515 363.307 105.395 363.607 105.155 363.82C104.915 364.02 104.615 364.12 104.255 364.12C103.895 364.12 103.595 364.02 103.355 363.82C103.128 363.607 103.015 363.307 103.015 362.92V355.18C103.015 354.807 103.128 354.52 103.355 354.32C103.595 354.12 103.888 354.02 104.235 354.02C104.582 354.02 104.862 354.12 105.075 354.32C105.288 354.507 105.395 354.78 105.395 355.14V355.94C105.648 355.353 106.022 354.9 106.515 354.58C107.022 354.26 107.582 354.08 108.195 354.04L108.475 354.02ZM118.636 349.8C119.009 349.8 119.316 349.907 119.556 350.12C119.796 350.333 119.916 350.613 119.916 350.96V362.92C119.916 363.28 119.802 363.567 119.576 363.78C119.349 363.993 119.049 364.1 118.676 364.1C118.302 364.1 118.002 363.993 117.776 363.78C117.549 363.567 117.436 363.28 117.436 362.92V362.42C117.142 362.967 116.716 363.393 116.156 363.7C115.609 364.007 114.982 364.16 114.276 364.16C113.436 364.16 112.682 363.947 112.016 363.52C111.362 363.093 110.849 362.493 110.476 361.72C110.116 360.933 109.936 360.033 109.936 359.02C109.936 358.007 110.116 357.12 110.476 356.36C110.849 355.6 111.362 355.013 112.016 354.6C112.669 354.187 113.422 353.98 114.276 353.98C114.982 353.98 115.609 354.127 116.156 354.42C116.702 354.713 117.122 355.127 117.416 355.66V350.92C117.416 350.587 117.522 350.32 117.736 350.12C117.962 349.907 118.262 349.8 118.636 349.8ZM114.936 362.22C115.736 362.22 116.349 361.947 116.776 361.4C117.216 360.853 117.436 360.073 117.436 359.06C117.436 358.047 117.216 357.273 116.776 356.74C116.349 356.193 115.742 355.92 114.956 355.92C114.156 355.92 113.536 356.187 113.096 356.72C112.656 357.253 112.436 358.02 112.436 359.02C112.436 360.033 112.656 360.82 113.096 361.38C113.536 361.94 114.149 362.22 114.936 362.22ZM130.228 361.32C130.454 361.32 130.634 361.407 130.768 361.58C130.914 361.753 130.988 361.987 130.988 362.28C130.988 362.693 130.741 363.04 130.248 363.32C129.794 363.573 129.281 363.78 128.708 363.94C128.134 364.087 127.588 364.16 127.067 364.16C125.494 364.16 124.248 363.707 123.328 362.8C122.408 361.893 121.948 360.653 121.948 359.08C121.948 358.08 122.148 357.193 122.548 356.42C122.948 355.647 123.508 355.047 124.228 354.62C124.961 354.193 125.788 353.98 126.708 353.98C127.588 353.98 128.354 354.173 129.008 354.56C129.661 354.947 130.168 355.493 130.528 356.2C130.888 356.907 131.068 357.74 131.068 358.7C131.068 359.273 130.814 359.56 130.308 359.56H124.408C124.488 360.48 124.748 361.16 125.188 361.6C125.628 362.027 126.268 362.24 127.108 362.24C127.534 362.24 127.908 362.187 128.228 362.08C128.561 361.973 128.934 361.827 129.348 361.64C129.748 361.427 130.041 361.32 130.228 361.32ZM126.768 355.74C126.088 355.74 125.541 355.953 125.128 356.38C124.728 356.807 124.488 357.42 124.408 358.22H128.928C128.901 357.407 128.701 356.793 128.328 356.38C127.954 355.953 127.434 355.74 126.768 355.74ZM138.573 354.02C138.919 353.993 139.193 354.067 139.393 354.24C139.593 354.413 139.693 354.673 139.693 355.02C139.693 355.38 139.606 355.647 139.433 355.82C139.259 355.993 138.946 356.107 138.493 356.16L137.893 356.22C137.106 356.3 136.526 356.567 136.153 357.02C135.793 357.473 135.613 358.04 135.613 358.72V362.92C135.613 363.307 135.493 363.607 135.253 363.82C135.013 364.02 134.713 364.12 134.353 364.12C133.993 364.12 133.693 364.02 133.453 363.82C133.226 363.607 133.113 363.307 133.113 362.92V355.18C133.113 354.807 133.226 354.52 133.453 354.32C133.693 354.12 133.986 354.02 134.333 354.02C134.679 354.02 134.959 354.12 135.173 354.32C135.386 354.507 135.493 354.78 135.493 355.14V355.94C135.746 355.353 136.119 354.9 136.613 354.58C137.119 354.26 137.679 354.08 138.293 354.04L138.573 354.02ZM159.198 362.46C159.278 362.633 159.318 362.807 159.318 362.98C159.318 363.287 159.192 363.547 158.938 363.76C158.698 363.973 158.418 364.08 158.098 364.08C157.885 364.08 157.685 364.027 157.498 363.92C157.312 363.8 157.165 363.62 157.058 363.38L155.858 360.7H148.818L147.618 363.38C147.512 363.62 147.365 363.8 147.178 363.92C146.992 364.027 146.785 364.08 146.558 364.08C146.252 364.08 145.972 363.973 145.718 363.76C145.465 363.547 145.338 363.287 145.338 362.98C145.338 362.807 145.378 362.633 145.458 362.46L150.978 350.6C151.098 350.333 151.278 350.133 151.518 350C151.772 349.853 152.038 349.78 152.318 349.78C152.598 349.78 152.858 349.853 153.098 350C153.352 350.133 153.538 350.333 153.658 350.6L159.198 362.46ZM149.698 358.7H154.978L152.338 352.76L149.698 358.7ZM165.382 364.16C164.409 364.16 163.549 363.953 162.802 363.54C162.069 363.127 161.502 362.54 161.102 361.78C160.702 361.02 160.502 360.133 160.502 359.12C160.502 358.107 160.709 357.213 161.122 356.44C161.549 355.653 162.142 355.047 162.902 354.62C163.662 354.193 164.536 353.98 165.522 353.98C166.042 353.98 166.562 354.053 167.082 354.2C167.616 354.347 168.082 354.547 168.482 354.8C168.909 355.08 169.122 355.433 169.122 355.86C169.122 356.153 169.049 356.393 168.902 356.58C168.769 356.753 168.589 356.84 168.362 356.84C168.216 356.84 168.062 356.807 167.902 356.74C167.742 356.673 167.582 356.593 167.422 356.5C167.129 356.327 166.849 356.193 166.582 356.1C166.316 355.993 166.009 355.94 165.662 355.94C164.836 355.94 164.196 356.213 163.742 356.76C163.302 357.293 163.082 358.067 163.082 359.08C163.082 360.08 163.302 360.853 163.742 361.4C164.196 361.933 164.836 362.2 165.662 362.2C165.996 362.2 166.289 362.153 166.542 362.06C166.809 361.953 167.102 361.813 167.422 361.64C167.622 361.52 167.796 361.433 167.942 361.38C168.089 361.313 168.236 361.28 168.382 361.28C168.596 361.28 168.776 361.373 168.922 361.56C169.069 361.747 169.142 361.98 169.142 362.26C169.142 362.487 169.089 362.687 168.982 362.86C168.889 363.02 168.729 363.167 168.502 363.3C168.089 363.567 167.609 363.78 167.062 363.94C166.516 364.087 165.956 364.16 165.382 364.16ZM175.148 364.16C174.174 364.16 173.314 363.953 172.568 363.54C171.834 363.127 171.268 362.54 170.868 361.78C170.468 361.02 170.268 360.133 170.268 359.12C170.268 358.107 170.474 357.213 170.888 356.44C171.314 355.653 171.908 355.047 172.668 354.62C173.428 354.193 174.301 353.98 175.288 353.98C175.808 353.98 176.328 354.053 176.848 354.2C177.381 354.347 177.848 354.547 178.248 354.8C178.674 355.08 178.888 355.433 178.888 355.86C178.888 356.153 178.814 356.393 178.668 356.58C178.534 356.753 178.354 356.84 178.128 356.84C177.981 356.84 177.828 356.807 177.668 356.74C177.508 356.673 177.348 356.593 177.188 356.5C176.894 356.327 176.614 356.193 176.348 356.1C176.081 355.993 175.774 355.94 175.428 355.94C174.601 355.94 173.961 356.213 173.508 356.76C173.068 357.293 172.848 358.067 172.848 359.08C172.848 360.08 173.068 360.853 173.508 361.4C173.961 361.933 174.601 362.2 175.428 362.2C175.761 362.2 176.054 362.153 176.308 362.06C176.574 361.953 176.868 361.813 177.188 361.64C177.388 361.52 177.561 361.433 177.708 361.38C177.854 361.313 178.001 361.28 178.148 361.28C178.361 361.28 178.541 361.373 178.688 361.56C178.834 361.747 178.908 361.98 178.908 362.26C178.908 362.487 178.854 362.687 178.748 362.86C178.654 363.02 178.494 363.167 178.268 363.3C177.854 363.567 177.374 363.78 176.828 363.94C176.281 364.087 175.721 364.16 175.148 364.16ZM188.313 361.32C188.54 361.32 188.72 361.407 188.853 361.58C189 361.753 189.073 361.987 189.073 362.28C189.073 362.693 188.827 363.04 188.333 363.32C187.88 363.573 187.367 363.78 186.793 363.94C186.22 364.087 185.673 364.16 185.153 364.16C183.58 364.16 182.333 363.707 181.413 362.8C180.493 361.893 180.033 360.653 180.033 359.08C180.033 358.08 180.233 357.193 180.633 356.42C181.033 355.647 181.593 355.047 182.313 354.62C183.047 354.193 183.873 353.98 184.793 353.98C185.673 353.98 186.44 354.173 187.093 354.56C187.747 354.947 188.253 355.493 188.613 356.2C188.973 356.907 189.153 357.74 189.153 358.7C189.153 359.273 188.9 359.56 188.393 359.56H182.493C182.573 360.48 182.833 361.16 183.273 361.6C183.713 362.027 184.353 362.24 185.193 362.24C185.62 362.24 185.993 362.187 186.313 362.08C186.647 361.973 187.02 361.827 187.433 361.64C187.833 361.427 188.127 361.32 188.313 361.32ZM184.853 355.74C184.173 355.74 183.627 355.953 183.213 356.38C182.813 356.807 182.573 357.42 182.493 358.22H187.013C186.987 357.407 186.787 356.793 186.413 356.38C186.04 355.953 185.52 355.74 184.853 355.74ZM196.818 353.98C197.658 353.98 198.405 354.193 199.058 354.62C199.725 355.047 200.238 355.653 200.598 356.44C200.972 357.213 201.158 358.107 201.158 359.12C201.158 360.133 200.972 361.02 200.598 361.78C200.238 362.54 199.732 363.127 199.078 363.54C198.425 363.953 197.672 364.16 196.818 364.16C196.125 364.16 195.505 364.013 194.958 363.72C194.412 363.427 193.992 363.02 193.698 362.5V366.58C193.698 366.927 193.585 367.2 193.358 367.4C193.132 367.6 192.832 367.7 192.458 367.7C192.085 367.7 191.778 367.593 191.538 367.38C191.312 367.167 191.198 366.887 191.198 366.54V355.2C191.198 354.84 191.305 354.553 191.518 354.34C191.745 354.127 192.045 354.02 192.418 354.02C192.792 354.02 193.092 354.127 193.318 354.34C193.545 354.553 193.658 354.84 193.658 355.2V355.7C193.952 355.153 194.372 354.733 194.918 354.44C195.478 354.133 196.112 353.98 196.818 353.98ZM196.158 362.22C196.945 362.22 197.558 361.953 197.998 361.42C198.438 360.873 198.658 360.107 198.658 359.12C198.658 358.107 198.438 357.32 197.998 356.76C197.558 356.2 196.945 355.92 196.158 355.92C195.358 355.92 194.738 356.193 194.298 356.74C193.872 357.287 193.658 358.067 193.658 359.08C193.658 360.08 193.872 360.853 194.298 361.4C194.738 361.947 195.358 362.22 196.158 362.22ZM208.232 362.26C208.898 362.3 209.232 362.6 209.232 363.16C209.232 363.48 209.098 363.727 208.832 363.9C208.578 364.06 208.212 364.127 207.732 364.1L207.192 364.06C204.952 363.9 203.832 362.7 203.832 360.46V356.1H202.832C202.472 356.1 202.192 356.02 201.992 355.86C201.805 355.7 201.712 355.467 201.712 355.16C201.712 354.853 201.805 354.62 201.992 354.46C202.192 354.3 202.472 354.22 202.832 354.22H203.832V352.38C203.832 352.02 203.945 351.733 204.172 351.52C204.398 351.307 204.705 351.2 205.092 351.2C205.465 351.2 205.765 351.307 205.992 351.52C206.218 351.733 206.332 352.02 206.332 352.38V354.22H208.032C208.392 354.22 208.665 354.3 208.852 354.46C209.052 354.62 209.152 354.853 209.152 355.16C209.152 355.467 209.052 355.7 208.852 355.86C208.665 356.02 208.392 356.1 208.032 356.1H206.332V360.64C206.332 361.627 206.785 362.153 207.692 362.22L208.232 362.26ZM218.274 361.32C218.501 361.32 218.681 361.407 218.814 361.58C218.961 361.753 219.034 361.987 219.034 362.28C219.034 362.693 218.788 363.04 218.294 363.32C217.841 363.573 217.328 363.78 216.754 363.94C216.181 364.087 215.634 364.16 215.114 364.16C213.541 364.16 212.294 363.707 211.374 362.8C210.454 361.893 209.994 360.653 209.994 359.08C209.994 358.08 210.194 357.193 210.594 356.42C210.994 355.647 211.554 355.047 212.274 354.62C213.008 354.193 213.834 353.98 214.754 353.98C215.634 353.98 216.401 354.173 217.054 354.56C217.708 354.947 218.214 355.493 218.574 356.2C218.934 356.907 219.114 357.74 219.114 358.7C219.114 359.273 218.861 359.56 218.354 359.56H212.454C212.534 360.48 212.794 361.16 213.234 361.6C213.674 362.027 214.314 362.24 215.154 362.24C215.581 362.24 215.954 362.187 216.274 362.08C216.608 361.973 216.981 361.827 217.394 361.64C217.794 361.427 218.088 361.32 218.274 361.32ZM214.814 355.74C214.134 355.74 213.588 355.953 213.174 356.38C212.774 356.807 212.534 357.42 212.454 358.22H216.974C216.948 357.407 216.748 356.793 216.374 356.38C216.001 355.953 215.481 355.74 214.814 355.74ZM229.319 349.8C229.693 349.8 229.999 349.907 230.239 350.12C230.479 350.333 230.599 350.613 230.599 350.96V362.92C230.599 363.28 230.486 363.567 230.259 363.78C230.033 363.993 229.733 364.1 229.359 364.1C228.986 364.1 228.686 363.993 228.459 363.78C228.233 363.567 228.119 363.28 228.119 362.92V362.42C227.826 362.967 227.399 363.393 226.839 363.7C226.293 364.007 225.666 364.16 224.959 364.16C224.119 364.16 223.366 363.947 222.699 363.52C222.046 363.093 221.533 362.493 221.159 361.72C220.799 360.933 220.619 360.033 220.619 359.02C220.619 358.007 220.799 357.12 221.159 356.36C221.533 355.6 222.046 355.013 222.699 354.6C223.353 354.187 224.106 353.98 224.959 353.98C225.666 353.98 226.293 354.127 226.839 354.42C227.386 354.713 227.806 355.127 228.099 355.66V350.92C228.099 350.587 228.206 350.32 228.419 350.12C228.646 349.907 228.946 349.8 229.319 349.8ZM225.619 362.22C226.419 362.22 227.033 361.947 227.459 361.4C227.899 360.853 228.119 360.073 228.119 359.06C228.119 358.047 227.899 357.273 227.459 356.74C227.033 356.193 226.426 355.92 225.639 355.92C224.839 355.92 224.219 356.187 223.779 356.72C223.339 357.253 223.119 358.02 223.119 359.02C223.119 360.033 223.339 360.82 223.779 361.38C224.219 361.94 224.833 362.22 225.619 362.22Z" fill="#7EB87A"/>
<defs>
<filter id="filter0_dd" x="71" y="381" width="185" height="66" filterUnits="userSpaceOnUse" color-interpolation-filters="sRGB">
<feFlood flood-opacity="0" result="BackgroundImageFix"/>
<feColorMatrix in="SourceAlpha" type="matrix" values="0 0 0 0 0 0 0 0 0 0 0 0 0 0 0 0 0 0 127 0"/>
<feOffset dy="5"/>
<feGaussianBlur stdDeviation="5"/>
<feColorMatrix type="matrix" values="0 0 0 0 0.447059 0 0 0 0 0.486275 0 0 0 0 0.556863 0 0 0 0.153 0"/>
<feBlend mode="normal" in2="BackgroundImageFix" result="effect1_dropShadow"/>
<feColorMatrix in="SourceAlpha" type="matrix" values="0 0 0 0 0 0 0 0 0 0 0 0 0 0 0 0 0 0 127 0"/>
<feOffset dy="4"/>
<feGaussianBlur stdDeviation="2"/>
<feColorMatrix type="matrix" values="0 0 0 0 0 0 0 0 0 0 0 0 0 0 0 0 0 0 0.25 0"/>
<feBlend mode="normal" in2="effect1_dropShadow" result="effect2_dropShadow"/>
<feBlend mode="normal" in="SourceGraphic" in2="effect2_dropShadow" result="shape"/>
</filter>
</defs>
</svg>
