<svg width="357" height="32" viewBox="0 0 357 32" fill="none" xmlns="http://www.w3.org/2000/svg">
<path d="M22.3 18.46C22.38 18.6333 22.42 18.8067 22.42 18.98C22.42 19.2867 22.2933 19.5467 22.04 19.76C21.8 19.9733 21.52 20.08 21.2 20.08C20.9867 20.08 20.7867 20.0267 20.6 19.92C20.4133 19.8 20.2667 19.62 20.16 19.38L18.96 16.7H11.92L10.72 19.38C10.6133 19.62 10.4667 19.8 10.28 19.92C10.0933 20.0267 9.88667 20.08 9.66 20.08C9.35333 20.08 9.07333 19.9733 8.82 19.76C8.56667 19.5467 8.44 19.2867 8.44 18.98C8.44 18.8067 8.48 18.6333 8.56 18.46L14.08 6.6C14.2 6.33333 14.38 6.13333 14.62 6C14.8733 5.85333 15.14 5.78 15.42 5.78C15.7 5.78 15.96 5.85333 16.2 6C16.4533 6.13333 16.64 6.33333 16.76 6.6L22.3 18.46ZM12.8 14.7H18.08L15.44 8.76L12.8 14.7ZM25.3838 20.12C25.0238 20.12 24.7238 20.02 24.4838 19.82C24.2571 19.6067 24.1438 19.3067 24.1438 18.92V6.98C24.1438 6.59333 24.2571 6.3 24.4838 6.1C24.7238 5.9 25.0238 5.8 25.3838 5.8C25.7438 5.8 26.0438 5.9 26.2838 6.1C26.5238 6.3 26.6438 6.59333 26.6438 6.98V18.92C26.6438 19.3067 26.5238 19.6067 26.2838 19.82C26.0438 20.02 25.7438 20.12 25.3838 20.12ZM30.4619 20.12C30.1019 20.12 29.8019 20.02 29.5619 19.82C29.3352 19.6067 29.2219 19.3067 29.2219 18.92V6.98C29.2219 6.59333 29.3352 6.3 29.5619 6.1C29.8019 5.9 30.1019 5.8 30.4619 5.8C30.8219 5.8 31.1219 5.9 31.3619 6.1C31.6019 6.3 31.7219 6.59333 31.7219 6.98V18.92C31.7219 19.3067 31.6019 19.6067 31.3619 19.82C31.1219 20.02 30.8219 20.12 30.4619 20.12Z" fill="#716B6B"/>
<path d="M70.56 20.1C70.3067 20.1 70.1067 20.0267 69.96 19.88C69.8133 19.72 69.74 19.5133 69.74 19.26V6.7C69.74 6.46 69.8133 6.26667 69.96 6.12C70.12 5.97333 70.3267 5.9 70.58 5.9H75.32C76.8 5.9 77.9467 6.26 78.76 6.98C79.5867 7.7 80 8.72 80 10.04C80 11.36 79.5867 12.3867 78.76 13.12C77.9333 13.8533 76.7867 14.22 75.32 14.22H71.38V19.26C71.38 19.5133 71.3067 19.72 71.16 19.88C71.0133 20.0267 70.8133 20.1 70.56 20.1ZM75.16 12.86C77.3067 12.86 78.38 11.92 78.38 10.04C78.38 8.18667 77.3067 7.26 75.16 7.26H71.38V12.86H75.16ZM83.2106 20.1C82.9706 20.1 82.7706 20.0333 82.6106 19.9C82.464 19.7533 82.3906 19.5533 82.3906 19.3V10.86C82.3906 10.6067 82.464 10.4133 82.6106 10.28C82.7706 10.1333 82.9706 10.06 83.2106 10.06C83.4506 10.06 83.644 10.1333 83.7906 10.28C83.9373 10.4133 84.0106 10.6067 84.0106 10.86V19.3C84.0106 19.5667 83.9373 19.7667 83.7906 19.9C83.644 20.0333 83.4506 20.1 83.2106 20.1ZM83.2106 7.96C82.8906 7.96 82.6306 7.86667 82.4306 7.68C82.2306 7.49333 82.1306 7.24667 82.1306 6.94C82.1306 6.64667 82.2306 6.40667 82.4306 6.22C82.6306 6.03333 82.8906 5.94 83.2106 5.94C83.5306 5.94 83.7906 6.03333 83.9906 6.22C84.1906 6.40667 84.2906 6.64667 84.2906 6.94C84.2906 7.24667 84.1906 7.49333 83.9906 7.68C83.7906 7.86667 83.5306 7.96 83.2106 7.96ZM87.8591 20.1C87.6191 20.1 87.4191 20.0333 87.2591 19.9C87.1124 19.7533 87.0391 19.5533 87.0391 19.3V6.6C87.0391 6.34667 87.1124 6.15333 87.2591 6.02C87.4191 5.87333 87.6191 5.8 87.8591 5.8C88.0857 5.8 88.2724 5.87333 88.4191 6.02C88.5791 6.15333 88.6591 6.34667 88.6591 6.6V19.3C88.6591 19.5533 88.5791 19.7533 88.4191 19.9C88.2724 20.0333 88.0857 20.1 87.8591 20.1ZM92.5075 20.1C92.2675 20.1 92.0675 20.0333 91.9075 19.9C91.7608 19.7533 91.6875 19.5533 91.6875 19.3V6.6C91.6875 6.34667 91.7608 6.15333 91.9075 6.02C92.0675 5.87333 92.2675 5.8 92.5075 5.8C92.7342 5.8 92.9208 5.87333 93.0675 6.02C93.2275 6.15333 93.3075 6.34667 93.3075 6.6V19.3C93.3075 19.5533 93.2275 19.7533 93.0675 19.9C92.9208 20.0333 92.7342 20.1 92.5075 20.1Z" fill="#716B6B"/>
<path d="M143.5 18.98C143.593 19.1267 143.64 19.28 143.64 19.44C143.64 19.64 143.56 19.8067 143.4 19.94C143.253 20.06 143.08 20.12 142.88 20.12C142.573 20.12 142.333 19.9867 142.16 19.72L139.48 15.48C139.133 14.9333 138.773 14.56 138.4 14.36C138.027 14.1467 137.52 14.04 136.88 14.04H134.36V19.26C134.36 19.5133 134.287 19.72 134.14 19.88C133.993 20.0267 133.8 20.1 133.56 20.1C133.307 20.1 133.107 20.0267 132.96 19.88C132.813 19.72 132.74 19.5133 132.74 19.26V6.7C132.74 6.46 132.813 6.26667 132.96 6.12C133.12 5.97333 133.327 5.9 133.58 5.9H138.54C140.073 5.9 141.24 6.24 142.04 6.92C142.853 7.6 143.26 8.6 143.26 9.92C143.26 11.04 142.933 11.94 142.28 12.62C141.64 13.3 140.72 13.7133 139.52 13.86C139.853 13.9667 140.153 14.14 140.42 14.38C140.687 14.62 140.953 14.9533 141.22 15.38L143.5 18.98ZM138.4 12.68C139.493 12.68 140.307 12.4533 140.84 12C141.387 11.5467 141.66 10.86 141.66 9.94C141.66 9.03333 141.393 8.36 140.86 7.92C140.327 7.48 139.507 7.26 138.4 7.26H134.36V12.68H138.4ZM147.031 20.1C146.791 20.1 146.591 20.0333 146.431 19.9C146.284 19.7533 146.211 19.5533 146.211 19.3V10.86C146.211 10.6067 146.284 10.4133 146.431 10.28C146.591 10.1333 146.791 10.06 147.031 10.06C147.271 10.06 147.464 10.1333 147.611 10.28C147.758 10.4133 147.831 10.6067 147.831 10.86V19.3C147.831 19.5667 147.758 19.7667 147.611 19.9C147.464 20.0333 147.271 20.1 147.031 20.1ZM147.031 7.96C146.711 7.96 146.451 7.86667 146.251 7.68C146.051 7.49333 145.951 7.24667 145.951 6.94C145.951 6.64667 146.051 6.40667 146.251 6.22C146.451 6.03333 146.711 5.94 147.031 5.94C147.351 5.94 147.611 6.03333 147.811 6.22C148.011 6.40667 148.111 6.64667 148.111 6.94C148.111 7.24667 148.011 7.49333 147.811 7.68C147.611 7.86667 147.351 7.96 147.031 7.96ZM155.759 10.02C158.093 10.02 159.259 11.3067 159.259 13.88V19.3C159.259 19.5533 159.186 19.7533 159.039 19.9C158.906 20.0333 158.713 20.1 158.459 20.1C158.206 20.1 158.006 20.0333 157.859 19.9C157.713 19.7533 157.639 19.5533 157.639 19.3V13.98C157.639 13.0733 157.459 12.4133 157.099 12C156.753 11.5867 156.193 11.38 155.419 11.38C154.526 11.38 153.813 11.6533 153.279 12.2C152.746 12.7467 152.479 13.4867 152.479 14.42V19.3C152.479 19.5533 152.406 19.7533 152.259 19.9C152.126 20.0333 151.933 20.1 151.679 20.1C151.426 20.1 151.226 20.0333 151.079 19.9C150.933 19.7533 150.859 19.5533 150.859 19.3V10.86C150.859 10.62 150.933 10.4267 151.079 10.28C151.226 10.1333 151.426 10.06 151.679 10.06C151.919 10.06 152.106 10.1333 152.239 10.28C152.386 10.4267 152.459 10.6133 152.459 10.84V11.86C152.779 11.26 153.226 10.8067 153.799 10.5C154.373 10.18 155.026 10.02 155.759 10.02ZM170.127 10.06C170.38 10.06 170.58 10.1333 170.727 10.28C170.873 10.4267 170.947 10.62 170.947 10.86V19.34C170.947 20.7933 170.573 21.8867 169.827 22.62C169.08 23.3667 167.973 23.74 166.507 23.74C165.08 23.74 163.893 23.46 162.947 22.9C162.467 22.6333 162.227 22.3267 162.227 21.98C162.227 21.7933 162.273 21.64 162.367 21.52C162.473 21.4 162.607 21.34 162.767 21.34C162.9 21.34 163.14 21.4333 163.487 21.62C163.953 21.86 164.413 22.0533 164.867 22.2C165.32 22.3467 165.86 22.42 166.487 22.42C167.433 22.42 168.147 22.1667 168.627 21.66C169.107 21.1667 169.347 20.44 169.347 19.48V17.76C169.067 18.3867 168.633 18.8667 168.047 19.2C167.473 19.5333 166.793 19.7 166.007 19.7C165.153 19.7 164.393 19.5 163.727 19.1C163.073 18.7 162.56 18.1333 162.187 17.4C161.827 16.6667 161.647 15.82 161.647 14.86C161.647 13.9 161.827 13.0533 162.187 12.32C162.56 11.5867 163.073 11.02 163.727 10.62C164.393 10.22 165.153 10.02 166.007 10.02C166.78 10.02 167.453 10.1867 168.027 10.52C168.6 10.8533 169.033 11.3267 169.327 11.94V10.86C169.327 10.62 169.393 10.4267 169.527 10.28C169.673 10.1333 169.873 10.06 170.127 10.06ZM166.327 18.36C167.26 18.36 167.993 18.0533 168.527 17.44C169.06 16.8133 169.327 15.9533 169.327 14.86C169.327 13.78 169.06 12.9333 168.527 12.32C168.007 11.6933 167.273 11.38 166.327 11.38C165.38 11.38 164.633 11.6933 164.087 12.32C163.553 12.9333 163.287 13.78 163.287 14.86C163.287 15.9533 163.553 16.8133 164.087 17.44C164.633 18.0533 165.38 18.36 166.327 18.36Z" fill="#716B6B"/>
<path d="M218.72 20.16C217.387 20.16 216.233 19.8733 215.26 19.3C214.287 18.7133 213.533 17.88 213 16.8C212.48 15.7067 212.22 14.42 212.22 12.94C212.22 11.4733 212.48 10.2 213 9.12C213.533 8.02667 214.287 7.19333 215.26 6.62C216.233 6.03333 217.387 5.74 218.72 5.74C219.613 5.74 220.453 5.88667 221.24 6.18C222.04 6.46 222.733 6.86667 223.32 7.4C223.533 7.6 223.64 7.83333 223.64 8.1C223.64 8.28667 223.587 8.45333 223.48 8.6C223.373 8.73333 223.247 8.8 223.1 8.8C222.94 8.8 222.747 8.72667 222.52 8.58C221.84 8.04667 221.22 7.67333 220.66 7.46C220.113 7.24667 219.48 7.14 218.76 7.14C217.213 7.14 216.02 7.64667 215.18 8.66C214.353 9.66 213.94 11.0867 213.94 12.94C213.94 14.8067 214.353 16.2467 215.18 17.26C216.02 18.26 217.213 18.76 218.76 18.76C219.467 18.76 220.1 18.6533 220.66 18.44C221.22 18.2267 221.84 17.8533 222.52 17.32C222.747 17.1733 222.94 17.1 223.1 17.1C223.247 17.1 223.373 17.1667 223.48 17.3C223.587 17.4333 223.64 17.6 223.64 17.8C223.64 18.0667 223.533 18.3 223.32 18.5C222.733 19.0333 222.04 19.4467 221.24 19.74C220.453 20.02 219.613 20.16 218.72 20.16ZM229.88 20.14C228.96 20.14 228.147 19.9333 227.44 19.52C226.747 19.1067 226.207 18.52 225.82 17.76C225.447 16.9867 225.26 16.0933 225.26 15.08C225.26 14.0667 225.447 13.18 225.82 12.42C226.207 11.6467 226.747 11.0533 227.44 10.64C228.147 10.2267 228.96 10.02 229.88 10.02C230.8 10.02 231.613 10.2267 232.32 10.64C233.027 11.0533 233.567 11.6467 233.94 12.42C234.327 13.18 234.52 14.0667 234.52 15.08C234.52 16.0933 234.327 16.9867 233.94 17.76C233.567 18.52 233.027 19.1067 232.32 19.52C231.613 19.9333 230.8 20.14 229.88 20.14ZM229.88 18.8C230.84 18.8 231.573 18.4867 232.08 17.86C232.6 17.22 232.86 16.2933 232.86 15.08C232.86 13.8933 232.6 12.98 232.08 12.34C231.56 11.6867 230.827 11.36 229.88 11.36C228.933 11.36 228.2 11.6867 227.68 12.34C227.16 12.98 226.9 13.8933 226.9 15.08C226.9 16.28 227.153 17.2 227.66 17.84C228.18 18.48 228.92 18.8 229.88 18.8ZM241.834 10.02C244.167 10.02 245.334 11.3067 245.334 13.88V19.3C245.334 19.5533 245.26 19.7533 245.114 19.9C244.98 20.0333 244.787 20.1 244.534 20.1C244.28 20.1 244.08 20.0333 243.934 19.9C243.787 19.7533 243.714 19.5533 243.714 19.3V13.98C243.714 13.0733 243.534 12.4133 243.174 12C242.827 11.5867 242.267 11.38 241.494 11.38C240.6 11.38 239.887 11.6533 239.354 12.2C238.82 12.7467 238.554 13.4867 238.554 14.42V19.3C238.554 19.5533 238.48 19.7533 238.334 19.9C238.2 20.0333 238.007 20.1 237.754 20.1C237.5 20.1 237.3 20.0333 237.154 19.9C237.007 19.7533 236.934 19.5533 236.934 19.3V10.86C236.934 10.62 237.007 10.4267 237.154 10.28C237.3 10.1333 237.5 10.06 237.754 10.06C237.994 10.06 238.18 10.1333 238.314 10.28C238.46 10.4267 238.534 10.6133 238.534 10.84V11.86C238.854 11.26 239.3 10.8067 239.874 10.5C240.447 10.18 241.1 10.02 241.834 10.02ZM256.121 5.8C256.374 5.8 256.574 5.87333 256.721 6.02C256.867 6.16667 256.941 6.35333 256.941 6.58V19.3C256.941 19.54 256.867 19.7333 256.721 19.88C256.574 20.0267 256.374 20.1 256.121 20.1C255.867 20.1 255.667 20.0267 255.521 19.88C255.387 19.7333 255.321 19.54 255.321 19.3V18.22C255.027 18.8333 254.594 19.3067 254.021 19.64C253.461 19.9733 252.801 20.14 252.041 20.14C251.187 20.14 250.434 19.9267 249.781 19.5C249.127 19.0733 248.621 18.48 248.261 17.72C247.901 16.9467 247.721 16.0533 247.721 15.04C247.721 14.04 247.901 13.16 248.261 12.4C248.621 11.64 249.127 11.0533 249.781 10.64C250.434 10.2267 251.187 10.02 252.041 10.02C252.801 10.02 253.461 10.1867 254.021 10.52C254.594 10.8533 255.027 11.3267 255.321 11.94V6.58C255.321 6.34 255.387 6.15333 255.521 6.02C255.667 5.87333 255.867 5.8 256.121 5.8ZM252.361 18.8C253.307 18.8 254.034 18.48 254.541 17.84C255.061 17.1867 255.321 16.2667 255.321 15.08C255.321 13.8933 255.061 12.98 254.541 12.34C254.034 11.7 253.307 11.38 252.361 11.38C251.414 11.38 250.674 11.7 250.141 12.34C249.621 12.98 249.361 13.88 249.361 15.04C249.361 16.2267 249.621 17.1533 250.141 17.82C250.674 18.4733 251.414 18.8 252.361 18.8ZM263.981 20.14C263.061 20.14 262.248 19.9333 261.541 19.52C260.848 19.1067 260.308 18.52 259.921 17.76C259.548 16.9867 259.361 16.0933 259.361 15.08C259.361 14.0667 259.548 13.18 259.921 12.42C260.308 11.6467 260.848 11.0533 261.541 10.64C262.248 10.2267 263.061 10.02 263.981 10.02C264.901 10.02 265.715 10.2267 266.421 10.64C267.128 11.0533 267.668 11.6467 268.041 12.42C268.428 13.18 268.621 14.0667 268.621 15.08C268.621 16.0933 268.428 16.9867 268.041 17.76C267.668 18.52 267.128 19.1067 266.421 19.52C265.715 19.9333 264.901 20.14 263.981 20.14ZM263.981 18.8C264.941 18.8 265.675 18.4867 266.181 17.86C266.701 17.22 266.961 16.2933 266.961 15.08C266.961 13.8933 266.701 12.98 266.181 12.34C265.661 11.6867 264.928 11.36 263.981 11.36C263.035 11.36 262.301 11.6867 261.781 12.34C261.261 12.98 261.001 13.8933 261.001 15.08C261.001 16.28 261.255 17.2 261.761 17.84C262.281 18.48 263.021 18.8 263.981 18.8ZM281.875 10.02C284.035 10.02 285.115 11.3067 285.115 13.88V19.3C285.115 19.5533 285.042 19.7533 284.895 19.9C284.748 20.0333 284.555 20.1 284.315 20.1C284.075 20.1 283.875 20.0333 283.715 19.9C283.568 19.7533 283.495 19.5533 283.495 19.3V13.92C283.495 13.0267 283.335 12.38 283.015 11.98C282.695 11.58 282.195 11.38 281.515 11.38C280.702 11.38 280.062 11.6533 279.595 12.2C279.128 12.7467 278.895 13.4867 278.895 14.42V19.3C278.895 19.5533 278.815 19.7533 278.655 19.9C278.508 20.0333 278.315 20.1 278.075 20.1C277.835 20.1 277.642 20.0333 277.495 19.9C277.348 19.7533 277.275 19.5533 277.275 19.3V13.92C277.275 13.0267 277.115 12.38 276.795 11.98C276.475 11.58 275.968 11.38 275.275 11.38C274.475 11.38 273.835 11.6533 273.355 12.2C272.888 12.7467 272.655 13.4867 272.655 14.42V19.3C272.655 19.5533 272.582 19.7533 272.435 19.9C272.288 20.0333 272.095 20.1 271.855 20.1C271.615 20.1 271.415 20.0333 271.255 19.9C271.108 19.7533 271.035 19.5533 271.035 19.3V10.86C271.035 10.62 271.108 10.4267 271.255 10.28C271.415 10.1333 271.615 10.06 271.855 10.06C272.082 10.06 272.268 10.1333 272.415 10.28C272.562 10.4133 272.635 10.6 272.635 10.84V11.8C272.928 11.2267 273.335 10.7867 273.855 10.48C274.375 10.1733 274.975 10.02 275.655 10.02C277.175 10.02 278.168 10.66 278.635 11.94C278.915 11.3533 279.342 10.8867 279.915 10.54C280.488 10.1933 281.142 10.02 281.875 10.02Z" fill="#716B6B"/>
<path d="M334.26 5.8C334.513 5.8 334.707 5.88 334.84 6.04C334.987 6.18667 335.06 6.38667 335.06 6.64V19.3C335.06 19.54 334.993 19.7333 334.86 19.88C334.727 20.0267 334.54 20.1 334.3 20.1C334.06 20.1 333.88 20.0267 333.76 19.88C333.64 19.7333 333.58 19.54 333.58 19.3V9.08L329.24 17.4C329.053 17.7867 328.78 17.98 328.42 17.98C328.073 17.98 327.8 17.7867 327.6 17.4L323.24 9.18V19.3C323.24 19.54 323.173 19.7333 323.04 19.88C322.92 20.0267 322.74 20.1 322.5 20.1C322.26 20.1 322.073 20.0267 321.94 19.88C321.807 19.7333 321.74 19.54 321.74 19.3V6.64C321.74 6.38667 321.813 6.18667 321.96 6.04C322.107 5.88 322.307 5.8 322.56 5.8C322.893 5.8 323.16 5.99333 323.36 6.38L328.44 16.12L333.46 6.38C333.567 6.16667 333.68 6.02 333.8 5.94C333.933 5.84667 334.087 5.8 334.26 5.8ZM345.856 17.74C346.003 17.74 346.13 17.8 346.236 17.92C346.343 18.04 346.396 18.1933 346.396 18.38C346.396 18.7133 346.163 19.02 345.696 19.3C345.216 19.58 344.71 19.7933 344.176 19.94C343.643 20.0733 343.123 20.14 342.616 20.14C341.11 20.14 339.916 19.6933 339.036 18.8C338.17 17.9067 337.736 16.6733 337.736 15.1C337.736 14.1 337.93 13.22 338.316 12.46C338.703 11.6867 339.243 11.0867 339.936 10.66C340.643 10.2333 341.443 10.02 342.336 10.02C343.603 10.02 344.61 10.4333 345.356 11.26C346.103 12.0867 346.476 13.2067 346.476 14.62C346.476 14.8867 346.423 15.08 346.316 15.2C346.21 15.32 346.036 15.38 345.796 15.38H339.356C339.476 17.6733 340.563 18.82 342.616 18.82C343.136 18.82 343.583 18.7533 343.956 18.62C344.33 18.4733 344.73 18.28 345.156 18.04C345.503 17.84 345.736 17.74 345.856 17.74ZM342.356 11.28C341.503 11.28 340.816 11.5467 340.296 12.08C339.79 12.6133 339.49 13.3667 339.396 14.34H345.056C345.03 13.3533 344.783 12.6 344.316 12.08C343.85 11.5467 343.196 11.28 342.356 11.28ZM356.683 5.8C356.937 5.8 357.137 5.87333 357.283 6.02C357.43 6.16667 357.503 6.35333 357.503 6.58V19.3C357.503 19.54 357.43 19.7333 357.283 19.88C357.137 20.0267 356.937 20.1 356.683 20.1C356.43 20.1 356.23 20.0267 356.083 19.88C355.95 19.7333 355.883 19.54 355.883 19.3V18.22C355.59 18.8333 355.157 19.3067 354.583 19.64C354.023 19.9733 353.363 20.14 352.603 20.14C351.75 20.14 350.997 19.9267 350.343 19.5C349.69 19.0733 349.183 18.48 348.823 17.72C348.463 16.9467 348.283 16.0533 348.283 15.04C348.283 14.04 348.463 13.16 348.823 12.4C349.183 11.64 349.69 11.0533 350.343 10.64C350.997 10.2267 351.75 10.02 352.603 10.02C353.363 10.02 354.023 10.1867 354.583 10.52C355.157 10.8533 355.59 11.3267 355.883 11.94V6.58C355.883 6.34 355.95 6.15333 356.083 6.02C356.23 5.87333 356.43 5.8 356.683 5.8ZM352.923 18.8C353.87 18.8 354.597 18.48 355.103 17.84C355.623 17.1867 355.883 16.2667 355.883 15.08C355.883 13.8933 355.623 12.98 355.103 12.34C354.597 11.7 353.87 11.38 352.923 11.38C351.977 11.38 351.237 11.7 350.703 12.34C350.183 12.98 349.923 13.88 349.923 15.04C349.923 16.2267 350.183 17.1533 350.703 17.82C351.237 18.4733 351.977 18.8 352.923 18.8ZM361.324 20.1C361.084 20.1 360.884 20.0333 360.724 19.9C360.577 19.7533 360.504 19.5533 360.504 19.3V10.86C360.504 10.6067 360.577 10.4133 360.724 10.28C360.884 10.1333 361.084 10.06 361.324 10.06C361.564 10.06 361.757 10.1333 361.904 10.28C362.051 10.4133 362.124 10.6067 362.124 10.86V19.3C362.124 19.5667 362.051 19.7667 361.904 19.9C361.757 20.0333 361.564 20.1 361.324 20.1ZM361.324 7.96C361.004 7.96 360.744 7.86667 360.544 7.68C360.344 7.49333 360.244 7.24667 360.244 6.94C360.244 6.64667 360.344 6.40667 360.544 6.22C360.744 6.03333 361.004 5.94 361.324 5.94C361.644 5.94 361.904 6.03333 362.104 6.22C362.304 6.40667 362.404 6.64667 362.404 6.94C362.404 7.24667 362.304 7.49333 362.104 7.68C361.904 7.86667 361.644 7.96 361.324 7.96ZM369.172 20.14C368.266 20.14 367.459 19.9333 366.752 19.52C366.059 19.1067 365.519 18.52 365.132 17.76C364.759 17 364.572 16.12 364.572 15.12C364.572 14.12 364.766 13.2333 365.152 12.46C365.552 11.6867 366.106 11.0867 366.812 10.66C367.519 10.2333 368.332 10.02 369.252 10.02C369.759 10.02 370.259 10.0933 370.752 10.24C371.259 10.3733 371.699 10.5733 372.072 10.84C372.312 11 372.479 11.16 372.572 11.32C372.679 11.4667 372.732 11.6333 372.732 11.82C372.732 12.0067 372.679 12.16 372.572 12.28C372.479 12.4 372.352 12.46 372.192 12.46C372.099 12.46 371.999 12.4333 371.892 12.38C371.786 12.3267 371.692 12.2733 371.612 12.22C371.546 12.1667 371.499 12.1333 371.472 12.12C371.126 11.8933 370.792 11.7133 370.472 11.58C370.166 11.4467 369.786 11.38 369.332 11.38C368.359 11.38 367.599 11.7133 367.052 12.38C366.519 13.0333 366.252 13.9467 366.252 15.12C366.252 16.2933 366.519 17.2 367.052 17.84C367.599 18.48 368.359 18.8 369.332 18.8C369.786 18.8 370.172 18.7333 370.492 18.6C370.826 18.4667 371.159 18.2867 371.492 18.06C371.639 17.9667 371.779 17.8867 371.912 17.82C372.046 17.7533 372.159 17.72 372.252 17.72C372.399 17.72 372.519 17.78 372.612 17.9C372.719 18.02 372.772 18.1733 372.772 18.36C372.772 18.5333 372.726 18.6933 372.632 18.84C372.539 18.9733 372.366 19.1267 372.112 19.3C371.739 19.5533 371.286 19.76 370.752 19.92C370.232 20.0667 369.706 20.14 369.172 20.14ZM378.703 10.02C381.143 10.02 382.363 11.3 382.363 13.86V19.3C382.363 19.54 382.289 19.7333 382.143 19.88C382.009 20.0267 381.823 20.1 381.583 20.1C381.343 20.1 381.149 20.0267 381.003 19.88C380.856 19.7333 380.783 19.54 380.783 19.3V18.34C380.529 18.9133 380.143 19.36 379.623 19.68C379.103 19.9867 378.503 20.14 377.823 20.14C377.196 20.14 376.616 20.0133 376.083 19.76C375.563 19.5067 375.149 19.1533 374.843 18.7C374.536 18.2467 374.383 17.7467 374.383 17.2C374.383 16.4667 374.569 15.9 374.943 15.5C375.316 15.0867 375.929 14.7933 376.783 14.62C377.636 14.4333 378.823 14.34 380.343 14.34H380.783V13.68C380.783 12.88 380.616 12.2933 380.283 11.92C379.963 11.5467 379.436 11.36 378.703 11.36C377.796 11.36 376.876 11.6067 375.943 12.1C375.583 12.3267 375.329 12.44 375.183 12.44C375.023 12.44 374.889 12.38 374.783 12.26C374.676 12.14 374.623 11.9867 374.623 11.8C374.623 11.6133 374.676 11.4533 374.783 11.32C374.903 11.1733 375.089 11.0267 375.343 10.88C375.809 10.6133 376.336 10.4067 376.923 10.26C377.523 10.1 378.116 10.02 378.703 10.02ZM378.043 18.86C378.843 18.86 379.496 18.5933 380.003 18.06C380.523 17.5133 380.783 16.8133 380.783 15.96V15.38H380.423C379.249 15.38 378.356 15.4333 377.743 15.54C377.129 15.6333 376.689 15.8 376.423 16.04C376.169 16.2667 376.043 16.6067 376.043 17.06C376.043 17.58 376.229 18.0133 376.603 18.36C376.989 18.6933 377.469 18.86 378.043 18.86ZM389.828 18.82C390.295 18.86 390.528 19.0733 390.528 19.46C390.528 19.6867 390.441 19.86 390.268 19.98C390.108 20.0867 389.861 20.1267 389.528 20.1L388.988 20.06C387.921 19.98 387.135 19.66 386.628 19.1C386.121 18.54 385.868 17.6933 385.868 16.56V11.54H384.528C384.301 11.54 384.121 11.4867 383.988 11.38C383.868 11.26 383.808 11.1067 383.808 10.92C383.808 10.72 383.868 10.56 383.988 10.44C384.121 10.32 384.301 10.26 384.528 10.26H385.868V8C385.868 7.74667 385.941 7.55333 386.088 7.42C386.235 7.27333 386.435 7.2 386.688 7.2C386.928 7.2 387.121 7.27333 387.268 7.42C387.415 7.55333 387.488 7.74667 387.488 8V10.26H389.708C389.921 10.26 390.088 10.32 390.208 10.44C390.341 10.56 390.408 10.72 390.408 10.92C390.408 11.1067 390.341 11.26 390.208 11.38C390.088 11.4867 389.921 11.54 389.708 11.54H387.488V16.64C387.488 17.3733 387.635 17.9067 387.928 18.24C388.235 18.56 388.688 18.74 389.288 18.78L389.828 18.82ZM392.945 20.1C392.705 20.1 392.505 20.0333 392.345 19.9C392.198 19.7533 392.125 19.5533 392.125 19.3V10.86C392.125 10.6067 392.198 10.4133 392.345 10.28C392.505 10.1333 392.705 10.06 392.945 10.06C393.185 10.06 393.378 10.1333 393.525 10.28C393.672 10.4133 393.745 10.6067 393.745 10.86V19.3C393.745 19.5667 393.672 19.7667 393.525 19.9C393.378 20.0333 393.185 20.1 392.945 20.1ZM392.945 7.96C392.625 7.96 392.365 7.86667 392.165 7.68C391.965 7.49333 391.865 7.24667 391.865 6.94C391.865 6.64667 391.965 6.40667 392.165 6.22C392.365 6.03333 392.625 5.94 392.945 5.94C393.265 5.94 393.525 6.03333 393.725 6.22C393.925 6.40667 394.025 6.64667 394.025 6.94C394.025 7.24667 393.925 7.49333 393.725 7.68C393.525 7.86667 393.265 7.96 392.945 7.96ZM400.813 20.14C399.893 20.14 399.08 19.9333 398.373 19.52C397.68 19.1067 397.14 18.52 396.753 17.76C396.38 16.9867 396.193 16.0933 396.193 15.08C396.193 14.0667 396.38 13.18 396.753 12.42C397.14 11.6467 397.68 11.0533 398.373 10.64C399.08 10.2267 399.893 10.02 400.813 10.02C401.733 10.02 402.547 10.2267 403.253 10.64C403.96 11.0533 404.5 11.6467 404.873 12.42C405.26 13.18 405.453 14.0667 405.453 15.08C405.453 16.0933 405.26 16.9867 404.873 17.76C404.5 18.52 403.96 19.1067 403.253 19.52C402.547 19.9333 401.733 20.14 400.813 20.14ZM400.813 18.8C401.773 18.8 402.507 18.4867 403.013 17.86C403.533 17.22 403.793 16.2933 403.793 15.08C403.793 13.8933 403.533 12.98 403.013 12.34C402.493 11.6867 401.76 11.36 400.813 11.36C399.867 11.36 399.133 11.6867 398.613 12.34C398.093 12.98 397.833 13.8933 397.833 15.08C397.833 16.28 398.087 17.2 398.593 17.84C399.113 18.48 399.853 18.8 400.813 18.8ZM412.767 10.02C415.101 10.02 416.267 11.3067 416.267 13.88V19.3C416.267 19.5533 416.194 19.7533 416.047 19.9C415.914 20.0333 415.721 20.1 415.467 20.1C415.214 20.1 415.014 20.0333 414.867 19.9C414.721 19.7533 414.647 19.5533 414.647 19.3V13.98C414.647 13.0733 414.467 12.4133 414.107 12C413.761 11.5867 413.201 11.38 412.427 11.38C411.534 11.38 410.821 11.6533 410.287 12.2C409.754 12.7467 409.487 13.4867 409.487 14.42V19.3C409.487 19.5533 409.414 19.7533 409.267 19.9C409.134 20.0333 408.941 20.1 408.687 20.1C408.434 20.1 408.234 20.0333 408.087 19.9C407.941 19.7533 407.867 19.5533 407.867 19.3V10.86C407.867 10.62 407.941 10.4267 408.087 10.28C408.234 10.1333 408.434 10.06 408.687 10.06C408.927 10.06 409.114 10.1333 409.247 10.28C409.394 10.4267 409.467 10.6133 409.467 10.84V11.86C409.787 11.26 410.234 10.8067 410.807 10.5C411.381 10.18 412.034 10.02 412.767 10.02Z" fill="#716B6B"/>
<line y1="31" x2="44" y2="31" stroke="black" stroke-width="2"/>
</svg>
