<svg width="179" height="40" viewBox="0 0 179 40" fill="none" xmlns="http://www.w3.org/2000/svg">
<path d="M49.458 17.034C50.8767 17.034 51.586 16.5487 51.586 15.578C51.586 15.2793 51.5207 15.0273 51.39 14.822C51.2687 14.6073 51.1007 14.4253 50.886 14.276C50.6713 14.1173 50.424 13.982 50.144 13.87C49.8733 13.758 49.584 13.646 49.276 13.534C48.9213 13.4127 48.5853 13.2773 48.268 13.128C47.9507 12.9693 47.6753 12.7873 47.442 12.582C47.2087 12.3673 47.022 12.1153 46.882 11.826C46.7513 11.5367 46.686 11.1867 46.686 10.776C46.686 9.92667 46.9753 9.264 47.554 8.788C48.1327 8.312 48.9307 8.074 49.948 8.074C50.536 8.074 51.068 8.13933 51.544 8.27C52.0293 8.39133 52.384 8.52667 52.608 8.676L52.174 9.782C51.978 9.66067 51.684 9.544 51.292 9.432C50.9093 9.31067 50.4613 9.25 49.948 9.25C49.6867 9.25 49.444 9.278 49.22 9.334C48.996 9.39 48.8 9.474 48.632 9.586C48.464 9.698 48.3287 9.84267 48.226 10.02C48.1327 10.188 48.086 10.3887 48.086 10.622C48.086 10.8833 48.1373 11.1027 48.24 11.28C48.3427 11.4573 48.4873 11.616 48.674 11.756C48.8607 11.8867 49.0753 12.008 49.318 12.12C49.57 12.232 49.8453 12.344 50.144 12.456C50.564 12.624 50.9467 12.792 51.292 12.96C51.6467 13.128 51.95 13.3287 52.202 13.562C52.4633 13.7953 52.664 14.0753 52.804 14.402C52.944 14.7193 53.014 15.1067 53.014 15.564C53.014 16.4133 52.7013 17.0667 52.076 17.524C51.46 17.9813 50.5873 18.21 49.458 18.21C49.0753 18.21 48.7207 18.182 48.394 18.126C48.0767 18.0793 47.792 18.0233 47.54 17.958C47.288 17.8833 47.0687 17.8087 46.882 17.734C46.7047 17.65 46.5647 17.58 46.462 17.524L46.868 16.404C47.0827 16.5253 47.4093 16.6607 47.848 16.81C48.2867 16.9593 48.8233 17.034 49.458 17.034ZM57.0352 17.062C57.3432 17.062 57.6138 17.0573 57.8472 17.048C58.0898 17.0293 58.2905 17.0013 58.4492 16.964V14.794C58.3558 14.7473 58.2018 14.71 57.9872 14.682C57.7818 14.6447 57.5298 14.626 57.2312 14.626C57.0352 14.626 56.8252 14.64 56.6012 14.668C56.3865 14.696 56.1858 14.7567 55.9992 14.85C55.8218 14.934 55.6725 15.0553 55.5512 15.214C55.4298 15.3633 55.3692 15.564 55.3692 15.816C55.3692 16.2827 55.5185 16.6093 55.8172 16.796C56.1158 16.9733 56.5218 17.062 57.0352 17.062ZM56.9232 10.538C57.4458 10.538 57.8845 10.608 58.2392 10.748C58.6032 10.8787 58.8925 11.07 59.1072 11.322C59.3312 11.5647 59.4898 11.8587 59.5832 12.204C59.6765 12.54 59.7232 12.9133 59.7232 13.324V17.874C59.6112 17.8927 59.4525 17.9207 59.2472 17.958C59.0512 17.986 58.8272 18.014 58.5752 18.042C58.3232 18.07 58.0478 18.0933 57.7492 18.112C57.4598 18.14 57.1705 18.154 56.8812 18.154C56.4705 18.154 56.0925 18.112 55.7472 18.028C55.4018 17.944 55.1032 17.8133 54.8512 17.636C54.5992 17.4493 54.4032 17.2067 54.2632 16.908C54.1232 16.6093 54.0532 16.25 54.0532 15.83C54.0532 15.4287 54.1325 15.0833 54.2912 14.794C54.4592 14.5047 54.6832 14.2713 54.9632 14.094C55.2432 13.9167 55.5698 13.786 55.9432 13.702C56.3165 13.618 56.7085 13.576 57.1192 13.576C57.2498 13.576 57.3852 13.5853 57.5252 13.604C57.6652 13.6133 57.7958 13.632 57.9172 13.66C58.0478 13.6787 58.1598 13.6973 58.2532 13.716C58.3465 13.7347 58.4118 13.7487 58.4492 13.758V13.394C58.4492 13.1793 58.4258 12.9693 58.3792 12.764C58.3325 12.5493 58.2485 12.3627 58.1272 12.204C58.0058 12.036 57.8378 11.9053 57.6232 11.812C57.4178 11.7093 57.1472 11.658 56.8112 11.658C56.3818 11.658 56.0038 11.6907 55.6772 11.756C55.3598 11.812 55.1218 11.8727 54.9632 11.938L54.8092 10.86C54.9772 10.7853 55.2572 10.7153 55.6492 10.65C56.0412 10.5753 56.4658 10.538 56.9232 10.538ZM67.3645 10.72C67.0005 12.0827 66.5712 13.3893 66.0765 14.64C65.5912 15.8907 65.1199 17.0107 64.6625 18H63.4865C63.0292 17.0107 62.5532 15.8907 62.0585 14.64C61.5732 13.3893 61.1485 12.0827 60.7845 10.72H62.1845C62.2965 11.1773 62.4272 11.6673 62.5765 12.19C62.7352 12.7033 62.8985 13.2167 63.0665 13.73C63.2439 14.234 63.4212 14.724 63.5985 15.2C63.7759 15.676 63.9439 16.1007 64.1025 16.474C64.2612 16.1007 64.4292 15.676 64.6065 15.2C64.7839 14.724 64.9565 14.234 65.1245 13.73C65.3019 13.2167 65.4652 12.7033 65.6145 12.19C65.7732 11.6673 65.9085 11.1773 66.0205 10.72H67.3645ZM68.1105 14.374C68.1105 13.73 68.2038 13.17 68.3905 12.694C68.5772 12.2087 68.8245 11.8073 69.1325 11.49C69.4405 11.1727 69.7952 10.9347 70.1965 10.776C70.5978 10.6173 71.0085 10.538 71.4285 10.538C72.4085 10.538 73.1598 10.846 73.6825 11.462C74.2052 12.0687 74.4665 12.9973 74.4665 14.248C74.4665 14.304 74.4665 14.3787 74.4665 14.472C74.4665 14.556 74.4618 14.6353 74.4525 14.71H69.4685C69.5245 15.466 69.7438 16.04 70.1265 16.432C70.5092 16.824 71.1065 17.02 71.9185 17.02C72.3758 17.02 72.7585 16.9827 73.0665 16.908C73.3838 16.824 73.6218 16.7447 73.7805 16.67L73.9625 17.762C73.8038 17.846 73.5238 17.9347 73.1225 18.028C72.7305 18.1213 72.2825 18.168 71.7785 18.168C71.1438 18.168 70.5932 18.0747 70.1265 17.888C69.6692 17.692 69.2912 17.426 68.9925 17.09C68.6938 16.754 68.4698 16.3573 68.3205 15.9C68.1805 15.4333 68.1105 14.9247 68.1105 14.374ZM73.1085 13.66C73.1178 13.072 72.9685 12.5913 72.6605 12.218C72.3618 11.8353 71.9465 11.644 71.4145 11.644C71.1158 11.644 70.8498 11.7047 70.6165 11.826C70.3925 11.938 70.2012 12.0873 70.0425 12.274C69.8838 12.4607 69.7578 12.6753 69.6645 12.918C69.5805 13.1607 69.5245 13.408 69.4965 13.66H73.1085ZM80.795 10.72H83.553V11.812H80.795V15.172C80.795 15.536 80.823 15.8393 80.879 16.082C80.935 16.3153 81.019 16.502 81.131 16.642C81.243 16.7727 81.383 16.866 81.551 16.922C81.719 16.978 81.915 17.006 82.139 17.006C82.531 17.006 82.8437 16.964 83.077 16.88C83.3197 16.7867 83.4877 16.7213 83.581 16.684L83.833 17.762C83.7024 17.8273 83.4737 17.9067 83.147 18C82.8204 18.1027 82.447 18.154 82.027 18.154C81.5324 18.154 81.1217 18.0933 80.795 17.972C80.4777 17.8413 80.221 17.65 80.025 17.398C79.829 17.146 79.689 16.838 79.605 16.474C79.5304 16.1007 79.493 15.6713 79.493 15.186V8.69L80.795 8.466V10.72ZM85.2098 18V7.36L86.5118 7.136V10.86C86.7545 10.7667 87.0112 10.6967 87.2818 10.65C87.5618 10.594 87.8372 10.566 88.1078 10.566C88.6865 10.566 89.1672 10.65 89.5498 10.818C89.9325 10.9767 90.2358 11.2053 90.4598 11.504C90.6932 11.7933 90.8565 12.1433 90.9498 12.554C91.0432 12.9647 91.0898 13.4173 91.0898 13.912V18H89.7878V14.192C89.7878 13.744 89.7552 13.3613 89.6898 13.044C89.6338 12.7267 89.5358 12.47 89.3958 12.274C89.2558 12.078 89.0692 11.938 88.8358 11.854C88.6025 11.7607 88.3132 11.714 87.9678 11.714C87.8278 11.714 87.6832 11.7233 87.5338 11.742C87.3845 11.7607 87.2398 11.784 87.0998 11.812C86.9692 11.8307 86.8478 11.854 86.7358 11.882C86.6332 11.91 86.5585 11.9333 86.5118 11.952V18H85.2098ZM94.5099 18H93.2079V10.72H94.5099V18ZM93.8519 9.404C93.6186 9.404 93.4179 9.32933 93.2499 9.18C93.0912 9.02133 93.0119 8.81133 93.0119 8.55C93.0119 8.28867 93.0912 8.08333 93.2499 7.934C93.4179 7.77533 93.6186 7.696 93.8519 7.696C94.0852 7.696 94.2812 7.77533 94.4399 7.934C94.6079 8.08333 94.6919 8.28867 94.6919 8.55C94.6919 8.81133 94.6079 9.02133 94.4399 9.18C94.2812 9.32933 94.0852 9.404 93.8519 9.404ZM98.4429 17.062C98.9749 17.062 99.3669 16.992 99.6189 16.852C99.8802 16.712 100.011 16.488 100.011 16.18C100.011 15.8627 99.8849 15.6107 99.6329 15.424C99.3809 15.2373 98.9656 15.0273 98.3869 14.794C98.1069 14.682 97.8362 14.57 97.5749 14.458C97.3229 14.3367 97.1036 14.1967 96.9169 14.038C96.7302 13.8793 96.5809 13.688 96.4689 13.464C96.3569 13.24 96.3009 12.9647 96.3009 12.638C96.3009 11.994 96.5389 11.4853 97.0149 11.112C97.4909 10.7293 98.1396 10.538 98.9609 10.538C99.1662 10.538 99.3716 10.552 99.5769 10.58C99.7822 10.5987 99.9736 10.6267 100.151 10.664C100.328 10.692 100.482 10.7247 100.613 10.762C100.753 10.7993 100.86 10.832 100.935 10.86L100.697 11.98C100.557 11.9053 100.338 11.8307 100.039 11.756C99.7402 11.672 99.3809 11.63 98.9609 11.63C98.5969 11.63 98.2796 11.7047 98.0089 11.854C97.7382 11.994 97.6029 12.218 97.6029 12.526C97.6029 12.6847 97.6309 12.8247 97.6869 12.946C97.7522 13.0673 97.8456 13.1793 97.9669 13.282C98.0976 13.3753 98.2562 13.464 98.4429 13.548C98.6296 13.632 98.8536 13.7207 99.1149 13.814C99.4602 13.9447 99.7682 14.0753 100.039 14.206C100.31 14.3273 100.538 14.472 100.725 14.64C100.921 14.808 101.07 15.0133 101.173 15.256C101.276 15.4893 101.327 15.7787 101.327 16.124C101.327 16.796 101.075 17.3047 100.571 17.65C100.076 17.9953 99.3669 18.168 98.4429 18.168C97.7989 18.168 97.2949 18.112 96.9309 18C96.5669 17.8973 96.3196 17.818 96.1889 17.762L96.4269 16.642C96.5762 16.698 96.8142 16.782 97.1409 16.894C97.4676 17.006 97.9016 17.062 98.4429 17.062ZM109.401 18.168C108.813 18.168 108.295 18.0747 107.847 17.888C107.409 17.7013 107.035 17.44 106.727 17.104C106.429 16.768 106.205 16.3713 106.055 15.914C105.906 15.4473 105.831 14.934 105.831 14.374C105.831 13.814 105.911 13.3007 106.069 12.834C106.237 12.3673 106.471 11.966 106.769 11.63C107.068 11.2847 107.432 11.0187 107.861 10.832C108.3 10.636 108.785 10.538 109.317 10.538C109.644 10.538 109.971 10.566 110.297 10.622C110.624 10.678 110.937 10.7667 111.235 10.888L110.941 11.994C110.745 11.9007 110.517 11.826 110.255 11.77C110.003 11.714 109.733 11.686 109.443 11.686C108.715 11.686 108.155 11.9147 107.763 12.372C107.381 12.8293 107.189 13.4967 107.189 14.374C107.189 14.766 107.231 15.1253 107.315 15.452C107.409 15.7787 107.549 16.0587 107.735 16.292C107.931 16.5253 108.179 16.7073 108.477 16.838C108.776 16.9593 109.14 17.02 109.569 17.02C109.915 17.02 110.227 16.9873 110.507 16.922C110.787 16.8567 111.007 16.7867 111.165 16.712L111.347 17.804C111.273 17.8507 111.165 17.8973 111.025 17.944C110.885 17.9813 110.727 18.014 110.549 18.042C110.372 18.0793 110.181 18.1073 109.975 18.126C109.779 18.154 109.588 18.168 109.401 18.168ZM115.209 17.062C115.517 17.062 115.788 17.0573 116.021 17.048C116.264 17.0293 116.464 17.0013 116.623 16.964V14.794C116.53 14.7473 116.376 14.71 116.161 14.682C115.956 14.6447 115.704 14.626 115.405 14.626C115.209 14.626 114.999 14.64 114.775 14.668C114.56 14.696 114.36 14.7567 114.173 14.85C113.996 14.934 113.846 15.0553 113.725 15.214C113.604 15.3633 113.543 15.564 113.543 15.816C113.543 16.2827 113.692 16.6093 113.991 16.796C114.29 16.9733 114.696 17.062 115.209 17.062ZM115.097 10.538C115.62 10.538 116.058 10.608 116.413 10.748C116.777 10.8787 117.066 11.07 117.281 11.322C117.505 11.5647 117.664 11.8587 117.757 12.204C117.85 12.54 117.897 12.9133 117.897 13.324V17.874C117.785 17.8927 117.626 17.9207 117.421 17.958C117.225 17.986 117.001 18.014 116.749 18.042C116.497 18.07 116.222 18.0933 115.923 18.112C115.634 18.14 115.344 18.154 115.055 18.154C114.644 18.154 114.266 18.112 113.921 18.028C113.576 17.944 113.277 17.8133 113.025 17.636C112.773 17.4493 112.577 17.2067 112.437 16.908C112.297 16.6093 112.227 16.25 112.227 15.83C112.227 15.4287 112.306 15.0833 112.465 14.794C112.633 14.5047 112.857 14.2713 113.137 14.094C113.417 13.9167 113.744 13.786 114.117 13.702C114.49 13.618 114.882 13.576 115.293 13.576C115.424 13.576 115.559 13.5853 115.699 13.604C115.839 13.6133 115.97 13.632 116.091 13.66C116.222 13.6787 116.334 13.6973 116.427 13.716C116.52 13.7347 116.586 13.7487 116.623 13.758V13.394C116.623 13.1793 116.6 12.9693 116.553 12.764C116.506 12.5493 116.422 12.3627 116.301 12.204C116.18 12.036 116.012 11.9053 115.797 11.812C115.592 11.7093 115.321 11.658 114.985 11.658C114.556 11.658 114.178 11.6907 113.851 11.756C113.534 11.812 113.296 11.8727 113.137 11.938L112.983 10.86C113.151 10.7853 113.431 10.7153 113.823 10.65C114.215 10.5753 114.64 10.538 115.097 10.538ZM122.747 10.566C122.859 10.566 122.985 10.5753 123.125 10.594C123.275 10.6033 123.419 10.622 123.559 10.65C123.699 10.6687 123.825 10.692 123.937 10.72C124.059 10.7387 124.147 10.7573 124.203 10.776L123.979 11.91C123.877 11.8727 123.704 11.8307 123.461 11.784C123.228 11.728 122.925 11.7 122.551 11.7C122.309 11.7 122.066 11.728 121.823 11.784C121.59 11.8307 121.436 11.8633 121.361 11.882V18H120.059V11.028C120.367 10.916 120.75 10.8133 121.207 10.72C121.665 10.6173 122.178 10.566 122.747 10.566ZM130.164 12.26C130.005 12.1293 129.777 12.0033 129.478 11.882C129.179 11.7607 128.853 11.7 128.498 11.7C128.125 11.7 127.803 11.77 127.532 11.91C127.271 12.0407 127.056 12.2273 126.888 12.47C126.72 12.7033 126.599 12.9833 126.524 13.31C126.449 13.6367 126.412 13.9867 126.412 14.36C126.412 15.2093 126.622 15.8673 127.042 16.334C127.462 16.7913 128.022 17.02 128.722 17.02C129.077 17.02 129.371 17.006 129.604 16.978C129.847 16.9407 130.033 16.9033 130.164 16.866V12.26ZM130.164 7.36L131.466 7.136V17.79C131.167 17.874 130.785 17.958 130.318 18.042C129.851 18.126 129.315 18.168 128.708 18.168C128.148 18.168 127.644 18.0793 127.196 17.902C126.748 17.7247 126.365 17.4727 126.048 17.146C125.731 16.8193 125.483 16.4227 125.306 15.956C125.138 15.48 125.054 14.948 125.054 14.36C125.054 13.8 125.124 13.2867 125.264 12.82C125.413 12.3533 125.628 11.952 125.908 11.616C126.188 11.28 126.529 11.0187 126.93 10.832C127.341 10.6453 127.807 10.552 128.33 10.552C128.75 10.552 129.119 10.608 129.436 10.72C129.763 10.832 130.005 10.9393 130.164 11.042V7.36ZM141.648 12.26C141.49 12.1293 141.261 12.0033 140.962 11.882C140.664 11.7607 140.337 11.7 139.982 11.7C139.609 11.7 139.287 11.77 139.016 11.91C138.755 12.0407 138.54 12.2273 138.372 12.47C138.204 12.7033 138.083 12.9833 138.008 13.31C137.934 13.6367 137.896 13.9867 137.896 14.36C137.896 15.2093 138.106 15.8673 138.526 16.334C138.946 16.7913 139.506 17.02 140.206 17.02C140.561 17.02 140.855 17.006 141.088 16.978C141.331 16.9407 141.518 16.9033 141.648 16.866V12.26ZM141.648 7.36L142.95 7.136V17.79C142.652 17.874 142.269 17.958 141.802 18.042C141.336 18.126 140.799 18.168 140.192 18.168C139.632 18.168 139.128 18.0793 138.68 17.902C138.232 17.7247 137.85 17.4727 137.532 17.146C137.215 16.8193 136.968 16.4227 136.79 15.956C136.622 15.48 136.538 14.948 136.538 14.36C136.538 13.8 136.608 13.2867 136.748 12.82C136.898 12.3533 137.112 11.952 137.392 11.616C137.672 11.28 138.013 11.0187 138.414 10.832C138.825 10.6453 139.292 10.552 139.814 10.552C140.234 10.552 140.603 10.608 140.92 10.72C141.247 10.832 141.49 10.9393 141.648 11.042V7.36ZM144.782 14.374C144.782 13.73 144.876 13.17 145.062 12.694C145.249 12.2087 145.496 11.8073 145.804 11.49C146.112 11.1727 146.467 10.9347 146.868 10.776C147.27 10.6173 147.68 10.538 148.1 10.538C149.08 10.538 149.832 10.846 150.354 11.462C150.877 12.0687 151.138 12.9973 151.138 14.248C151.138 14.304 151.138 14.3787 151.138 14.472C151.138 14.556 151.134 14.6353 151.124 14.71H146.14C146.196 15.466 146.416 16.04 146.798 16.432C147.181 16.824 147.778 17.02 148.59 17.02C149.048 17.02 149.43 16.9827 149.738 16.908C150.056 16.824 150.294 16.7447 150.452 16.67L150.634 17.762C150.476 17.846 150.196 17.9347 149.794 18.028C149.402 18.1213 148.954 18.168 148.45 18.168C147.816 18.168 147.265 18.0747 146.798 17.888C146.341 17.692 145.963 17.426 145.664 17.09C145.366 16.754 145.142 16.3573 144.992 15.9C144.852 15.4333 144.782 14.9247 144.782 14.374ZM149.78 13.66C149.79 13.072 149.64 12.5913 149.332 12.218C149.034 11.8353 148.618 11.644 148.086 11.644C147.788 11.644 147.522 11.7047 147.288 11.826C147.064 11.938 146.873 12.0873 146.714 12.274C146.556 12.4607 146.43 12.6753 146.336 12.918C146.252 13.1607 146.196 13.408 146.168 13.66H149.78ZM154.227 10.72H156.985V11.812H154.227V15.172C154.227 15.536 154.255 15.8393 154.311 16.082C154.367 16.3153 154.451 16.502 154.563 16.642C154.675 16.7727 154.815 16.866 154.983 16.922C155.151 16.978 155.347 17.006 155.571 17.006C155.963 17.006 156.275 16.964 156.509 16.88C156.751 16.7867 156.919 16.7213 157.013 16.684L157.265 17.762C157.134 17.8273 156.905 17.9067 156.579 18C156.252 18.1027 155.879 18.154 155.459 18.154C154.964 18.154 154.553 18.0933 154.227 17.972C153.909 17.8413 153.653 17.65 153.457 17.398C153.261 17.146 153.121 16.838 153.037 16.474C152.962 16.1007 152.925 15.6713 152.925 15.186V8.69L154.227 8.466V10.72ZM161.105 17.062C161.413 17.062 161.684 17.0573 161.917 17.048C162.16 17.0293 162.361 17.0013 162.519 16.964V14.794C162.426 14.7473 162.272 14.71 162.057 14.682C161.852 14.6447 161.6 14.626 161.301 14.626C161.105 14.626 160.895 14.64 160.671 14.668C160.457 14.696 160.256 14.7567 160.069 14.85C159.892 14.934 159.743 15.0553 159.621 15.214C159.5 15.3633 159.439 15.564 159.439 15.816C159.439 16.2827 159.589 16.6093 159.887 16.796C160.186 16.9733 160.592 17.062 161.105 17.062ZM160.993 10.538C161.516 10.538 161.955 10.608 162.309 10.748C162.673 10.8787 162.963 11.07 163.177 11.322C163.401 11.5647 163.56 11.8587 163.653 12.204C163.747 12.54 163.793 12.9133 163.793 13.324V17.874C163.681 17.8927 163.523 17.9207 163.317 17.958C163.121 17.986 162.897 18.014 162.645 18.042C162.393 18.07 162.118 18.0933 161.819 18.112C161.53 18.14 161.241 18.154 160.951 18.154C160.541 18.154 160.163 18.112 159.817 18.028C159.472 17.944 159.173 17.8133 158.921 17.636C158.669 17.4493 158.473 17.2067 158.333 16.908C158.193 16.6093 158.123 16.25 158.123 15.83C158.123 15.4287 158.203 15.0833 158.361 14.794C158.529 14.5047 158.753 14.2713 159.033 14.094C159.313 13.9167 159.64 13.786 160.013 13.702C160.387 13.618 160.779 13.576 161.189 13.576C161.32 13.576 161.455 13.5853 161.595 13.604C161.735 13.6133 161.866 13.632 161.987 13.66C162.118 13.6787 162.23 13.6973 162.323 13.716C162.417 13.7347 162.482 13.7487 162.519 13.758V13.394C162.519 13.1793 162.496 12.9693 162.449 12.764C162.403 12.5493 162.319 12.3627 162.197 12.204C162.076 12.036 161.908 11.9053 161.693 11.812C161.488 11.7093 161.217 11.658 160.881 11.658C160.452 11.658 160.074 11.6907 159.747 11.756C159.43 11.812 159.192 11.8727 159.033 11.938L158.879 10.86C159.047 10.7853 159.327 10.7153 159.719 10.65C160.111 10.5753 160.536 10.538 160.993 10.538ZM167.258 18H165.956V10.72H167.258V18ZM166.6 9.404C166.367 9.404 166.166 9.32933 165.998 9.18C165.839 9.02133 165.76 8.81133 165.76 8.55C165.76 8.28867 165.839 8.08333 165.998 7.934C166.166 7.77533 166.367 7.696 166.6 7.696C166.833 7.696 167.029 7.77533 167.188 7.934C167.356 8.08333 167.44 8.28867 167.44 8.55C167.44 8.81133 167.356 9.02133 167.188 9.18C167.029 9.32933 166.833 9.404 166.6 9.404ZM171.681 18.14C170.878 18.1213 170.309 17.9487 169.973 17.622C169.637 17.2953 169.469 16.7867 169.469 16.096V7.36L170.771 7.136V15.886C170.771 16.1007 170.79 16.278 170.827 16.418C170.864 16.558 170.925 16.67 171.009 16.754C171.093 16.838 171.205 16.9033 171.345 16.95C171.485 16.9873 171.658 17.02 171.863 17.048L171.681 18.14ZM175.019 17.062C175.551 17.062 175.943 16.992 176.195 16.852C176.456 16.712 176.587 16.488 176.587 16.18C176.587 15.8627 176.461 15.6107 176.209 15.424C175.957 15.2373 175.542 15.0273 174.963 14.794C174.683 14.682 174.412 14.57 174.151 14.458C173.899 14.3367 173.68 14.1967 173.493 14.038C173.306 13.8793 173.157 13.688 173.045 13.464C172.933 13.24 172.877 12.9647 172.877 12.638C172.877 11.994 173.115 11.4853 173.591 11.112C174.067 10.7293 174.716 10.538 175.537 10.538C175.742 10.538 175.948 10.552 176.153 10.58C176.358 10.5987 176.55 10.6267 176.727 10.664C176.904 10.692 177.058 10.7247 177.189 10.762C177.329 10.7993 177.436 10.832 177.511 10.86L177.273 11.98C177.133 11.9053 176.914 11.8307 176.615 11.756C176.316 11.672 175.957 11.63 175.537 11.63C175.173 11.63 174.856 11.7047 174.585 11.854C174.314 11.994 174.179 12.218 174.179 12.526C174.179 12.6847 174.207 12.8247 174.263 12.946C174.328 13.0673 174.422 13.1793 174.543 13.282C174.674 13.3753 174.832 13.464 175.019 13.548C175.206 13.632 175.43 13.7207 175.691 13.814C176.036 13.9447 176.344 14.0753 176.615 14.206C176.886 14.3273 177.114 14.472 177.301 14.64C177.497 14.808 177.646 15.0133 177.749 15.256C177.852 15.4893 177.903 15.7787 177.903 16.124C177.903 16.796 177.651 17.3047 177.147 17.65C176.652 17.9953 175.943 18.168 175.019 18.168C174.375 18.168 173.871 18.112 173.507 18C173.143 17.8973 172.896 17.818 172.765 17.762L173.003 16.642C173.152 16.698 173.39 16.782 173.717 16.894C174.044 17.006 174.478 17.062 175.019 17.062Z" fill="black"/>
<g filter="url(#filter0_d)">
<path d="M20 26C26.6274 26 32 20.6274 32 14C32 7.37258 26.6274 2 20 2C13.3726 2 8 7.37258 8 14C8 20.6274 13.3726 26 20 26Z" fill="#74B370"/>
<path d="M14.392 13.511C14.5004 13.4155 14.627 13.3429 14.7642 13.2977C14.9014 13.2524 15.0463 13.2355 15.1902 13.2478C15.3342 13.2602 15.4741 13.3015 15.6016 13.3695C15.7291 13.4374 15.8415 13.5305 15.932 13.643L18.265 16.019L25.174 9.28703C25.2793 9.18842 25.4035 9.11222 25.5391 9.06305C25.6747 9.01388 25.8189 8.99277 25.9629 9.001C26.1069 9.00923 26.2477 9.04663 26.3768 9.11092C26.5059 9.17522 26.6207 9.26507 26.714 9.37503C26.8129 9.48017 26.8893 9.60433 26.9386 9.73996C26.988 9.8756 27.0092 10.0199 27.0009 10.1639C26.9927 10.308 26.9552 10.4489 26.8908 10.5781C26.8263 10.7072 26.7362 10.8218 26.626 10.915L18.969 18.396C18.8568 18.5025 18.719 18.5783 18.569 18.616H18.529C18.5117 18.6327 18.4908 18.6453 18.468 18.6529C18.4451 18.6605 18.4209 18.663 18.397 18.66H17.997C17.953 18.66 17.865 18.616 17.821 18.616C17.6779 18.5438 17.5436 18.4553 17.421 18.352L14.305 15.095C14.2007 14.9884 14.1198 14.8612 14.0673 14.7215C14.0148 14.5819 13.9919 14.4329 14.0001 14.2839C14.0083 14.1349 14.0473 13.9893 14.1148 13.8563C14.1823 13.7232 14.2767 13.6057 14.392 13.511Z" fill="white"/>
</g>
<defs>
<filter id="filter0_d" x="0" y="0" width="40" height="40" filterUnits="userSpaceOnUse" color-interpolation-filters="sRGB">
<feFlood flood-opacity="0" result="BackgroundImageFix"/>
<feColorMatrix in="SourceAlpha" type="matrix" values="0 0 0 0 0 0 0 0 0 0 0 0 0 0 0 0 0 0 127 0"/>
<feOffset dy="6"/>
<feGaussianBlur stdDeviation="4"/>
<feColorMatrix type="matrix" values="0 0 0 0 0.847059 0 0 0 0 0.878431 0 0 0 0 0.929412 0 0 0 1 0"/>
<feBlend mode="multiply" in2="BackgroundImageFix" result="effect1_dropShadow"/>
<feBlend mode="normal" in="SourceGraphic" in2="effect1_dropShadow" result="shape"/>
</filter>
</defs>
</svg>
