<svg width="288" height="133" viewBox="0 0 288 133" fill="none" xmlns="http://www.w3.org/2000/svg">
<rect width="288" height="132.644" rx="15" fill="#74B370"/>
<path d="M61.76 113.162C60.836 113.162 59.96 113.042 59.132 112.802C58.316 112.55 57.65 112.214 57.134 111.794C56.858 111.59 56.72 111.302 56.72 110.93C56.72 110.678 56.792 110.462 56.936 110.282C57.092 110.09 57.272 109.994 57.476 109.994C57.692 109.994 57.938 110.078 58.214 110.246C58.73 110.618 59.27 110.888 59.834 111.056C60.398 111.224 61.022 111.308 61.706 111.308C62.582 111.308 63.254 111.158 63.722 110.858C64.19 110.546 64.424 110.096 64.424 109.508C64.424 109.052 64.202 108.704 63.758 108.464C63.326 108.212 62.6 107.972 61.58 107.744C60.524 107.516 59.666 107.252 59.006 106.952C58.346 106.652 57.848 106.268 57.512 105.8C57.176 105.332 57.008 104.738 57.008 104.018C57.008 103.274 57.218 102.608 57.638 102.02C58.058 101.432 58.64 100.976 59.384 100.652C60.14 100.316 60.986 100.148 61.922 100.148C63.638 100.148 65.036 100.604 66.116 101.516C66.272 101.648 66.38 101.78 66.44 101.912C66.512 102.032 66.548 102.188 66.548 102.38C66.548 102.632 66.47 102.854 66.314 103.046C66.17 103.226 65.996 103.316 65.792 103.316C65.672 103.316 65.558 103.298 65.45 103.262C65.354 103.226 65.222 103.16 65.054 103.064C64.562 102.704 64.082 102.44 63.614 102.272C63.158 102.092 62.594 102.002 61.922 102.002C61.106 102.002 60.458 102.17 59.978 102.506C59.51 102.83 59.276 103.286 59.276 103.874C59.276 104.366 59.486 104.744 59.906 105.008C60.326 105.272 61.04 105.518 62.048 105.746C63.116 105.986 63.98 106.256 64.64 106.556C65.312 106.844 65.822 107.216 66.17 107.672C66.53 108.128 66.71 108.698 66.71 109.382C66.71 110.126 66.5 110.786 66.08 111.362C65.672 111.926 65.09 112.37 64.334 112.694C63.59 113.006 62.732 113.162 61.76 113.162ZM72.5545 113.144C71.6785 113.144 70.9045 112.958 70.2325 112.586C69.5725 112.214 69.0625 111.686 68.7025 111.002C68.3425 110.318 68.1625 109.52 68.1625 108.608C68.1625 107.696 68.3485 106.892 68.7205 106.196C69.1045 105.488 69.6385 104.942 70.3225 104.558C71.0065 104.174 71.7925 103.982 72.6805 103.982C73.1485 103.982 73.6165 104.048 74.0845 104.18C74.5645 104.312 74.9845 104.492 75.3445 104.72C75.7285 104.972 75.9205 105.29 75.9205 105.674C75.9205 105.938 75.8545 106.154 75.7225 106.322C75.6025 106.478 75.4405 106.556 75.2365 106.556C75.1045 106.556 74.9665 106.526 74.8225 106.466C74.6785 106.406 74.5345 106.334 74.3905 106.25C74.1265 106.094 73.8745 105.974 73.6345 105.89C73.3945 105.794 73.1185 105.746 72.8065 105.746C72.0625 105.746 71.4865 105.992 71.0785 106.484C70.6825 106.964 70.4845 107.66 70.4845 108.572C70.4845 109.472 70.6825 110.168 71.0785 110.66C71.4865 111.14 72.0625 111.38 72.8065 111.38C73.1065 111.38 73.3705 111.338 73.5985 111.254C73.8385 111.158 74.1025 111.032 74.3905 110.876C74.5705 110.768 74.7265 110.69 74.8585 110.642C74.9905 110.582 75.1225 110.552 75.2545 110.552C75.4465 110.552 75.6085 110.636 75.7405 110.804C75.8725 110.972 75.9385 111.182 75.9385 111.434C75.9385 111.638 75.8905 111.818 75.7945 111.974C75.7105 112.118 75.5665 112.25 75.3625 112.37C74.9905 112.61 74.5585 112.802 74.0665 112.946C73.5745 113.078 73.0705 113.144 72.5545 113.144ZM82.5856 103.982C84.6496 103.982 85.6816 105.188 85.6816 107.6V112.028C85.6816 112.364 85.5796 112.628 85.3756 112.82C85.1836 113.012 84.9136 113.108 84.5656 113.108C84.2176 113.108 83.9416 113.012 83.7376 112.82C83.5336 112.628 83.4316 112.364 83.4316 112.028V107.6C83.4316 106.964 83.2996 106.502 83.0356 106.214C82.7836 105.914 82.3816 105.764 81.8296 105.764C81.1816 105.764 80.6596 105.968 80.2636 106.376C79.8796 106.784 79.6876 107.33 79.6876 108.014V112.028C79.6876 112.364 79.5856 112.628 79.3816 112.82C79.1776 113.012 78.9016 113.108 78.5536 113.108C78.2056 113.108 77.9296 113.012 77.7256 112.82C77.5336 112.628 77.4376 112.364 77.4376 112.028V101.264C77.4376 100.952 77.5396 100.7 77.7436 100.508C77.9596 100.316 78.2356 100.22 78.5716 100.22C78.9076 100.22 79.1776 100.31 79.3816 100.49C79.5856 100.67 79.6876 100.916 79.6876 101.228V105.422C79.9876 104.954 80.3836 104.6 80.8756 104.36C81.3796 104.108 81.9496 103.982 82.5856 103.982ZM94.9329 110.588C95.1369 110.588 95.2989 110.666 95.4189 110.822C95.5509 110.978 95.6169 111.188 95.6169 111.452C95.6169 111.824 95.3949 112.136 94.9509 112.388C94.5429 112.616 94.0809 112.802 93.5649 112.946C93.0489 113.078 92.5569 113.144 92.0889 113.144C90.6729 113.144 89.5509 112.736 88.7229 111.92C87.8949 111.104 87.4809 109.988 87.4809 108.572C87.4809 107.672 87.6609 106.874 88.0209 106.178C88.3809 105.482 88.8849 104.942 89.5329 104.558C90.1929 104.174 90.9369 103.982 91.7649 103.982C92.5569 103.982 93.2469 104.156 93.8349 104.504C94.4229 104.852 94.8789 105.344 95.2029 105.98C95.5269 106.616 95.6889 107.366 95.6889 108.23C95.6889 108.746 95.4609 109.004 95.0049 109.004H89.6949C89.7669 109.832 90.0009 110.444 90.3969 110.84C90.7929 111.224 91.3689 111.416 92.1249 111.416C92.5089 111.416 92.8449 111.368 93.1329 111.272C93.4329 111.176 93.7689 111.044 94.1409 110.876C94.5009 110.684 94.7649 110.588 94.9329 110.588ZM91.8189 105.566C91.2069 105.566 90.7149 105.758 90.3429 106.142C89.9829 106.526 89.7669 107.078 89.6949 107.798H93.7629C93.7389 107.066 93.5589 106.514 93.2229 106.142C92.8869 105.758 92.4189 105.566 91.8189 105.566ZM104.873 100.22C105.209 100.22 105.485 100.316 105.701 100.508C105.917 100.7 106.025 100.952 106.025 101.264V112.028C106.025 112.352 105.923 112.61 105.719 112.802C105.515 112.994 105.245 113.09 104.909 113.09C104.573 113.09 104.303 112.994 104.099 112.802C103.895 112.61 103.793 112.352 103.793 112.028V111.578C103.529 112.07 103.145 112.454 102.641 112.73C102.149 113.006 101.585 113.144 100.949 113.144C100.193 113.144 99.5154 112.952 98.9154 112.568C98.3274 112.184 97.8654 111.644 97.5294 110.948C97.2054 110.24 97.0434 109.43 97.0434 108.518C97.0434 107.606 97.2054 106.808 97.5294 106.124C97.8654 105.44 98.3274 104.912 98.9154 104.54C99.5034 104.168 100.181 103.982 100.949 103.982C101.585 103.982 102.149 104.114 102.641 104.378C103.133 104.642 103.511 105.014 103.775 105.494V101.228C103.775 100.928 103.871 100.688 104.063 100.508C104.267 100.316 104.537 100.22 104.873 100.22ZM101.543 111.398C102.263 111.398 102.815 111.152 103.199 110.66C103.595 110.168 103.793 109.466 103.793 108.554C103.793 107.642 103.595 106.946 103.199 106.466C102.815 105.974 102.269 105.728 101.561 105.728C100.841 105.728 100.283 105.968 99.8874 106.448C99.4914 106.928 99.2934 107.618 99.2934 108.518C99.2934 109.43 99.4914 110.138 99.8874 110.642C100.283 111.146 100.835 111.398 101.543 111.398ZM115.288 104.018C115.636 104.018 115.912 104.114 116.116 104.306C116.32 104.498 116.422 104.756 116.422 105.08V112.064C116.422 112.376 116.314 112.628 116.098 112.82C115.894 113.012 115.624 113.108 115.288 113.108C114.964 113.108 114.706 113.018 114.514 112.838C114.322 112.658 114.226 112.412 114.226 112.1V111.65C113.95 112.13 113.578 112.502 113.11 112.766C112.642 113.018 112.114 113.144 111.526 113.144C109.366 113.144 108.286 111.932 108.286 109.508V105.08C108.286 104.756 108.388 104.498 108.592 104.306C108.796 104.114 109.066 104.018 109.402 104.018C109.75 104.018 110.026 104.114 110.23 104.306C110.434 104.498 110.536 104.756 110.536 105.08V109.526C110.536 110.15 110.662 110.612 110.914 110.912C111.166 111.212 111.562 111.362 112.102 111.362C112.726 111.362 113.224 111.158 113.596 110.75C113.98 110.33 114.172 109.778 114.172 109.094V105.08C114.172 104.756 114.274 104.498 114.478 104.306C114.682 104.114 114.952 104.018 115.288 104.018ZM119.88 113.108C119.556 113.108 119.286 113.018 119.07 112.838C118.866 112.646 118.764 112.376 118.764 112.028V101.282C118.764 100.934 118.866 100.67 119.07 100.49C119.286 100.31 119.556 100.22 119.88 100.22C120.204 100.22 120.474 100.31 120.69 100.49C120.906 100.67 121.014 100.934 121.014 101.282V112.028C121.014 112.376 120.906 112.646 120.69 112.838C120.474 113.018 120.204 113.108 119.88 113.108ZM130.3 110.588C130.504 110.588 130.666 110.666 130.786 110.822C130.918 110.978 130.984 111.188 130.984 111.452C130.984 111.824 130.762 112.136 130.318 112.388C129.91 112.616 129.448 112.802 128.932 112.946C128.416 113.078 127.924 113.144 127.456 113.144C126.04 113.144 124.918 112.736 124.09 111.92C123.262 111.104 122.848 109.988 122.848 108.572C122.848 107.672 123.028 106.874 123.388 106.178C123.748 105.482 124.252 104.942 124.9 104.558C125.56 104.174 126.304 103.982 127.132 103.982C127.924 103.982 128.614 104.156 129.202 104.504C129.79 104.852 130.246 105.344 130.57 105.98C130.894 106.616 131.056 107.366 131.056 108.23C131.056 108.746 130.828 109.004 130.372 109.004H125.062C125.134 109.832 125.368 110.444 125.764 110.84C126.16 111.224 126.736 111.416 127.492 111.416C127.876 111.416 128.212 111.368 128.5 111.272C128.8 111.176 129.136 111.044 129.508 110.876C129.868 110.684 130.132 110.588 130.3 110.588ZM127.186 105.566C126.574 105.566 126.082 105.758 125.71 106.142C125.35 106.526 125.134 107.078 125.062 107.798H129.13C129.106 107.066 128.926 106.514 128.59 106.142C128.254 105.758 127.786 105.566 127.186 105.566ZM141.599 103.982C142.823 103.982 143.729 104.288 144.317 104.9C144.917 105.5 145.217 106.418 145.217 107.654V112.046C145.217 112.37 145.121 112.628 144.929 112.82C144.737 113 144.473 113.09 144.137 113.09C143.825 113.09 143.567 112.994 143.363 112.802C143.171 112.61 143.075 112.358 143.075 112.046V111.65C142.871 112.118 142.547 112.484 142.103 112.748C141.671 113.012 141.167 113.144 140.591 113.144C140.003 113.144 139.469 113.024 138.989 112.784C138.509 112.544 138.131 112.214 137.855 111.794C137.579 111.374 137.441 110.906 137.441 110.39C137.441 109.742 137.603 109.232 137.927 108.86C138.263 108.488 138.803 108.218 139.547 108.05C140.291 107.882 141.317 107.798 142.625 107.798H143.075V107.384C143.075 106.796 142.949 106.37 142.697 106.106C142.445 105.83 142.037 105.692 141.473 105.692C141.125 105.692 140.771 105.746 140.411 105.854C140.051 105.95 139.625 106.094 139.133 106.286C138.821 106.442 138.593 106.52 138.449 106.52C138.233 106.52 138.053 106.442 137.909 106.286C137.777 106.13 137.711 105.926 137.711 105.674C137.711 105.47 137.759 105.296 137.855 105.152C137.963 104.996 138.137 104.852 138.377 104.72C138.797 104.492 139.295 104.312 139.871 104.18C140.459 104.048 141.035 103.982 141.599 103.982ZM141.041 111.524C141.641 111.524 142.127 111.326 142.499 110.93C142.883 110.522 143.075 110 143.075 109.364V108.986H142.751C141.947 108.986 141.323 109.022 140.879 109.094C140.435 109.166 140.117 109.292 139.925 109.472C139.733 109.652 139.637 109.898 139.637 110.21C139.637 110.594 139.769 110.912 140.033 111.164C140.309 111.404 140.645 111.524 141.041 111.524ZM158.529 104.666C158.625 104.45 158.751 104.288 158.907 104.18C159.075 104.072 159.255 104.018 159.447 104.018C159.723 104.018 159.969 104.114 160.185 104.306C160.413 104.486 160.527 104.714 160.527 104.99C160.527 105.134 160.491 105.278 160.419 105.422L157.089 112.388C156.981 112.616 156.825 112.79 156.621 112.91C156.429 113.03 156.213 113.09 155.973 113.09C155.745 113.09 155.523 113.03 155.307 112.91C155.103 112.79 154.947 112.616 154.839 112.388L151.491 105.422C151.431 105.302 151.401 105.164 151.401 105.008C151.401 104.732 151.515 104.498 151.743 104.306C151.983 104.114 152.253 104.018 152.553 104.018C152.985 104.018 153.303 104.228 153.507 104.648L156.027 110.21L158.529 104.666ZM163.28 113.108C162.956 113.108 162.686 113.018 162.47 112.838C162.266 112.646 162.164 112.376 162.164 112.028V105.08C162.164 104.732 162.266 104.468 162.47 104.288C162.686 104.108 162.956 104.018 163.28 104.018C163.604 104.018 163.874 104.108 164.09 104.288C164.306 104.468 164.414 104.732 164.414 105.08V112.028C164.414 112.376 164.306 112.646 164.09 112.838C163.874 113.018 163.604 113.108 163.28 113.108ZM163.28 102.416C162.872 102.416 162.548 102.308 162.308 102.092C162.068 101.864 161.948 101.57 161.948 101.21C161.948 100.85 162.068 100.562 162.308 100.346C162.548 100.13 162.872 100.022 163.28 100.022C163.676 100.022 163.994 100.13 164.234 100.346C164.486 100.562 164.612 100.85 164.612 101.21C164.612 101.57 164.492 101.864 164.252 102.092C164.012 102.308 163.688 102.416 163.28 102.416ZM174.078 100.22C174.414 100.22 174.69 100.316 174.906 100.508C175.122 100.7 175.23 100.952 175.23 101.264V112.028C175.23 112.352 175.128 112.61 174.924 112.802C174.72 112.994 174.45 113.09 174.114 113.09C173.778 113.09 173.508 112.994 173.304 112.802C173.1 112.61 172.998 112.352 172.998 112.028V111.578C172.734 112.07 172.35 112.454 171.846 112.73C171.354 113.006 170.79 113.144 170.154 113.144C169.398 113.144 168.72 112.952 168.12 112.568C167.532 112.184 167.07 111.644 166.734 110.948C166.41 110.24 166.248 109.43 166.248 108.518C166.248 107.606 166.41 106.808 166.734 106.124C167.07 105.44 167.532 104.912 168.12 104.54C168.708 104.168 169.386 103.982 170.154 103.982C170.79 103.982 171.354 104.114 171.846 104.378C172.338 104.642 172.716 105.014 172.98 105.494V101.228C172.98 100.928 173.076 100.688 173.268 100.508C173.472 100.316 173.742 100.22 174.078 100.22ZM170.748 111.398C171.468 111.398 172.02 111.152 172.404 110.66C172.8 110.168 172.998 109.466 172.998 108.554C172.998 107.642 172.8 106.946 172.404 106.466C172.02 105.974 171.474 105.728 170.766 105.728C170.046 105.728 169.488 105.968 169.092 106.448C168.696 106.928 168.498 107.618 168.498 108.518C168.498 109.43 168.696 110.138 169.092 110.642C169.488 111.146 170.04 111.398 170.748 111.398ZM184.511 110.588C184.715 110.588 184.877 110.666 184.997 110.822C185.129 110.978 185.195 111.188 185.195 111.452C185.195 111.824 184.973 112.136 184.529 112.388C184.121 112.616 183.659 112.802 183.143 112.946C182.627 113.078 182.135 113.144 181.667 113.144C180.251 113.144 179.129 112.736 178.301 111.92C177.473 111.104 177.059 109.988 177.059 108.572C177.059 107.672 177.239 106.874 177.599 106.178C177.959 105.482 178.463 104.942 179.111 104.558C179.771 104.174 180.515 103.982 181.343 103.982C182.135 103.982 182.825 104.156 183.413 104.504C184.001 104.852 184.457 105.344 184.781 105.98C185.105 106.616 185.267 107.366 185.267 108.23C185.267 108.746 185.039 109.004 184.583 109.004H179.273C179.345 109.832 179.579 110.444 179.975 110.84C180.371 111.224 180.947 111.416 181.703 111.416C182.087 111.416 182.423 111.368 182.711 111.272C183.011 111.176 183.347 111.044 183.719 110.876C184.079 110.684 184.343 110.588 184.511 110.588ZM181.397 105.566C180.785 105.566 180.293 105.758 179.921 106.142C179.561 106.526 179.345 107.078 179.273 107.798H183.341C183.317 107.066 183.137 106.514 182.801 106.142C182.465 105.758 181.997 105.566 181.397 105.566ZM191.122 113.144C190.222 113.144 189.43 112.958 188.746 112.586C188.074 112.214 187.552 111.68 187.18 110.984C186.808 110.288 186.622 109.478 186.622 108.554C186.622 107.63 186.808 106.826 187.18 106.142C187.552 105.446 188.074 104.912 188.746 104.54C189.43 104.168 190.222 103.982 191.122 103.982C192.022 103.982 192.808 104.168 193.48 104.54C194.164 104.912 194.686 105.446 195.046 106.142C195.418 106.826 195.604 107.63 195.604 108.554C195.604 109.478 195.418 110.288 195.046 110.984C194.686 111.68 194.164 112.214 193.48 112.586C192.808 112.958 192.022 113.144 191.122 113.144ZM191.104 111.398C191.836 111.398 192.394 111.158 192.778 110.678C193.162 110.198 193.354 109.49 193.354 108.554C193.354 107.63 193.162 106.928 192.778 106.448C192.394 105.956 191.842 105.71 191.122 105.71C190.402 105.71 189.844 105.956 189.448 106.448C189.064 106.928 188.872 107.63 188.872 108.554C188.872 109.49 189.064 110.198 189.448 110.678C189.832 111.158 190.384 111.398 191.104 111.398ZM206.254 113.144C205.378 113.144 204.604 112.958 203.932 112.586C203.272 112.214 202.762 111.686 202.402 111.002C202.042 110.318 201.862 109.52 201.862 108.608C201.862 107.696 202.048 106.892 202.42 106.196C202.804 105.488 203.338 104.942 204.022 104.558C204.706 104.174 205.492 103.982 206.38 103.982C206.848 103.982 207.316 104.048 207.784 104.18C208.264 104.312 208.684 104.492 209.044 104.72C209.428 104.972 209.62 105.29 209.62 105.674C209.62 105.938 209.554 106.154 209.422 106.322C209.302 106.478 209.14 106.556 208.936 106.556C208.804 106.556 208.666 106.526 208.522 106.466C208.378 106.406 208.234 106.334 208.09 106.25C207.826 106.094 207.574 105.974 207.334 105.89C207.094 105.794 206.818 105.746 206.506 105.746C205.762 105.746 205.186 105.992 204.778 106.484C204.382 106.964 204.184 107.66 204.184 108.572C204.184 109.472 204.382 110.168 204.778 110.66C205.186 111.14 205.762 111.38 206.506 111.38C206.806 111.38 207.07 111.338 207.298 111.254C207.538 111.158 207.802 111.032 208.09 110.876C208.27 110.768 208.426 110.69 208.558 110.642C208.69 110.582 208.822 110.552 208.954 110.552C209.146 110.552 209.308 110.636 209.44 110.804C209.572 110.972 209.638 111.182 209.638 111.434C209.638 111.638 209.59 111.818 209.494 111.974C209.41 112.118 209.266 112.25 209.062 112.37C208.69 112.61 208.258 112.802 207.766 112.946C207.274 113.078 206.77 113.144 206.254 113.144ZM214.953 103.982C216.177 103.982 217.083 104.288 217.671 104.9C218.271 105.5 218.571 106.418 218.571 107.654V112.046C218.571 112.37 218.475 112.628 218.283 112.82C218.091 113 217.827 113.09 217.491 113.09C217.179 113.09 216.921 112.994 216.717 112.802C216.525 112.61 216.429 112.358 216.429 112.046V111.65C216.225 112.118 215.901 112.484 215.457 112.748C215.025 113.012 214.521 113.144 213.945 113.144C213.357 113.144 212.823 113.024 212.343 112.784C211.863 112.544 211.485 112.214 211.209 111.794C210.933 111.374 210.795 110.906 210.795 110.39C210.795 109.742 210.957 109.232 211.281 108.86C211.617 108.488 212.157 108.218 212.901 108.05C213.645 107.882 214.671 107.798 215.979 107.798H216.429V107.384C216.429 106.796 216.303 106.37 216.051 106.106C215.799 105.83 215.391 105.692 214.827 105.692C214.479 105.692 214.125 105.746 213.765 105.854C213.405 105.95 212.979 106.094 212.487 106.286C212.175 106.442 211.947 106.52 211.803 106.52C211.587 106.52 211.407 106.442 211.263 106.286C211.131 106.13 211.065 105.926 211.065 105.674C211.065 105.47 211.113 105.296 211.209 105.152C211.317 104.996 211.491 104.852 211.731 104.72C212.151 104.492 212.649 104.312 213.225 104.18C213.813 104.048 214.389 103.982 214.953 103.982ZM214.395 111.524C214.995 111.524 215.481 111.326 215.853 110.93C216.237 110.522 216.429 110 216.429 109.364V108.986H216.105C215.301 108.986 214.677 109.022 214.233 109.094C213.789 109.166 213.471 109.292 213.279 109.472C213.087 109.652 212.991 109.898 212.991 110.21C212.991 110.594 213.123 110.912 213.387 111.164C213.663 111.404 213.999 111.524 214.395 111.524ZM221.974 113.108C221.65 113.108 221.38 113.018 221.164 112.838C220.96 112.646 220.858 112.376 220.858 112.028V101.282C220.858 100.934 220.96 100.67 221.164 100.49C221.38 100.31 221.65 100.22 221.974 100.22C222.298 100.22 222.568 100.31 222.784 100.49C223 100.67 223.108 100.934 223.108 101.282V112.028C223.108 112.376 223 112.646 222.784 112.838C222.568 113.018 222.298 113.108 221.974 113.108ZM226.544 113.108C226.22 113.108 225.95 113.018 225.734 112.838C225.53 112.646 225.428 112.376 225.428 112.028V101.282C225.428 100.934 225.53 100.67 225.734 100.49C225.95 100.31 226.22 100.22 226.544 100.22C226.868 100.22 227.138 100.31 227.354 100.49C227.57 100.67 227.678 100.934 227.678 101.282V112.028C227.678 112.376 227.57 112.646 227.354 112.838C227.138 113.018 226.868 113.108 226.544 113.108Z" fill="white"/>
<circle cx="144.344" cy="58.3438" r="31.3438" fill="white"/>
<path fill-rule="evenodd" clip-rule="evenodd" d="M159.999 67.7016V73.2716C160.003 74.3172 159.636 75.3161 158.989 76.0229C158.342 76.7298 157.475 77.079 156.601 76.9849C151.805 76.3641 147.198 74.4118 143.15 71.285C139.384 68.4344 136.191 64.631 133.798 60.145C131.164 55.3013 129.524 49.7866 129.013 44.0477C128.934 43.0096 129.225 41.9799 129.815 41.21C130.405 40.4402 131.239 40.0012 132.114 40.0002H136.79C138.355 39.9818 139.689 41.3481 139.908 43.1936C140.105 44.9762 140.471 46.7264 140.999 48.4109C141.427 49.7679 141.153 51.2976 140.297 52.3284L138.318 54.6864C140.537 59.3346 143.768 63.1833 147.67 65.8264L149.649 63.4684C150.515 62.4491 151.799 62.1228 152.938 62.6329C154.352 63.2615 155.822 63.6975 157.318 63.9326C158.885 64.196 160.038 65.8167 159.999 67.7016Z" stroke="#74B370" stroke-width="3" stroke-linecap="round" stroke-linejoin="round"/>
</svg>
