<svg width="121" height="142" viewBox="0 0 121 142" fill="none" xmlns="http://www.w3.org/2000/svg">
<path d="M114.536 94.8265C110.72 105.171 104.947 114.165 97.3778 121.557C88.7618 129.97 77.4795 136.655 63.8442 141.424C63.3968 141.58 62.9298 141.708 62.4607 141.803C61.841 141.925 61.2105 141.991 60.5854 142H60.463C59.7967 142 59.1272 141.933 58.4631 141.803C57.994 141.708 57.5336 141.58 57.0883 141.428C43.4367 136.666 32.1404 129.984 23.5156 121.571C15.9429 114.179 10.1717 105.19 6.36044 94.846C-0.569893 76.0386 -0.175546 55.3202 0.141883 38.6709L0.147299 38.4152C0.211218 37.0404 0.252386 35.5963 0.275137 34.0016C0.391058 26.172 6.61612 19.6946 14.4467 19.258C30.7732 18.3468 43.4031 13.0221 54.1946 2.5036L54.2889 2.41693C56.0808 0.773452 58.3385 -0.0325771 60.5854 0.00100756C62.7522 0.0291753 64.9102 0.834121 66.6382 2.41693L66.7303 2.5036C77.5239 13.0221 90.1539 18.3468 106.48 19.258C114.311 19.6946 120.536 26.172 120.652 34.0016C120.675 35.6071 120.716 37.0491 120.78 38.4152L120.783 38.5236C121.099 55.2043 121.492 75.9639 114.536 94.8265Z" fill="#DCECDB"/>
<path d="M114.536 94.8264C110.719 105.17 104.947 114.165 97.3775 121.556C88.7614 129.97 77.4792 136.655 63.8439 141.424C63.3964 141.58 62.9295 141.708 62.4604 141.803C61.8407 141.925 61.2102 141.991 60.5851 142V0.000976562C62.7518 0.0291443 64.9099 0.83409 66.6379 2.4169L66.73 2.50357C77.5236 13.022 90.1536 18.3468 106.48 19.2579C114.311 19.6945 120.536 26.172 120.652 34.0015C120.674 35.6071 120.716 37.0491 120.779 38.4152L120.783 38.5235C121.099 55.2042 121.491 75.9638 114.536 94.8264Z" fill="#74B370"/>
<path d="M95.8501 70.9998C95.8501 90.4713 80.0404 106.321 60.5852 106.39H60.4606C40.948 106.39 25.0701 90.5135 25.0701 70.9998C25.0701 51.4872 40.948 35.6104 60.4606 35.6104H60.5852C80.0404 35.6797 95.8501 51.5294 95.8501 70.9998Z" fill="white"/>
<path d="M95.8499 70.9998C95.8499 90.4713 80.0403 106.321 60.5851 106.39V35.6104C80.0403 35.6797 95.8499 51.5294 95.8499 70.9998Z" fill="#E1EBF0"/>
<path d="M76.5237 65.9036L60.5852 81.8444L57.1411 85.2884C56.3275 86.102 55.2604 86.5083 54.1943 86.5083C53.1272 86.5083 52.0612 86.102 51.2465 85.2884L43.8416 77.8803C42.2144 76.2531 42.2144 73.6172 43.8416 71.9889C45.4667 70.3617 48.1058 70.3617 49.733 71.9889L54.1943 76.4503L70.6324 60.0122C72.2596 58.3839 74.8987 58.3839 76.5237 60.0122C78.151 61.6395 78.151 64.2786 76.5237 65.9036Z" fill="#E3806E"/>
<path d="M76.5237 65.9036L60.5851 81.8444V70.0584L70.6323 60.0122C72.2595 58.3839 74.8986 58.3839 76.5237 60.0122C78.1509 61.6395 78.1509 64.2786 76.5237 65.9036Z" fill="#EC6D5F"/>
</svg>
