<?xml version="1.0" encoding="utf-8"?>
<svg id="master-artboard" viewBox="0 0 1401.2667236328125 358.0562744140625" version="1.1" xmlns="http://www.w3.org/2000/svg" x="0px" y="0px" style="enable-background:new 0 0 1400 980;" width="1401.2667236328125px" height="358.0562744140625px"><g transform="matrix(0.9977319836616516, 0, 0, 0.9977319836616516, -0.0000073082819653791375, 6.07415771484375)"><rect id="ee-background" x="0" y="0" width="1401.2667236328125" height="358.0562744140625" style="fill: white; fill-opacity: 0; pointer-events: none;"/><g transform="matrix(6.603773593902587, 0, 0, 6.603773593902588, 1.2695605292512369, 1.335912570133587)"><path d="M 26 0 L 186 0 C 200.35940349560062 8.792598764276312e-16 212 11.640596504399372 212 26 L 212 26 C 212 40.35940349560063 200.35940349560062 52 186 52 L 26 52 C 11.640596504399369 52 1.7585197528552624e-15 40.35940349560063 0 26 L 0 26 C -1.7585197528552624e-15 11.640596504399369 11.640596504399372 2.6377796292828932e-15 26 0 Z" fill="#EC6D5F" style="fill: rgb(0, 0, 0);"/><path d="M203.797 25.399C203.797 17.4467 197.351 11 189.399 11C181.446 11 175 17.4467 175 25.399V26.221C175 34.1733 181.446 40.62 189.399 40.62C197.351 40.62 203.797 34.1733 203.797 26.221V25.399Z" fill="white"/><path d="M193.101 25.808C193.101 25.6974 193.079 25.5879 193.035 25.4862C192.992 25.3845 192.929 25.2925 192.849 25.216L187.912 20.279C187.75 20.1324 187.537 20.0561 187.319 20.0666C187.102 20.0772 186.897 20.1739 186.75 20.3355C186.604 20.497 186.528 20.7101 186.538 20.9279C186.549 21.1457 186.645 21.3504 186.807 21.497L191.119 25.808L186.749 30.175C186.605 30.3311 186.526 30.5371 186.53 30.7498C186.535 30.9624 186.621 31.1652 186.771 31.3155C186.922 31.4659 187.124 31.5523 187.337 31.5564C187.55 31.5606 187.756 31.4823 187.912 31.338L192.849 26.401C192.929 26.3244 192.992 26.2324 193.035 26.1307C193.079 26.029 193.101 25.9195 193.101 25.809V25.808Z" fill="#EC6D5F" stroke="#EC6D5F"/><path d="M 36.439697265625 38 L 36.439697265625 20.8700008392334 L 38.42969512939453 20.8700008392334 L 38.42969512939453 36.20000076293945 L 45.98969650268555 36.20000076293945 L 45.98969650268555 38 L 36.439697265625 38 ZM 59.686729431152344 31.56999969482422 C 59.686729431152344 33.663333892822266 59.16006088256836 35.29666519165039 58.106727600097656 36.470001220703125 C 57.046730041503906 37.643333435058594 55.59006118774414 38.22999954223633 53.73672866821289 38.22999954223633 C 52.58339309692383 38.22999954223633 51.563392639160156 37.96333312988281 50.676727294921875 37.43000030517578 C 49.78339385986328 36.88999938964844 49.0933952331543 36.11666488647461 48.606727600097656 35.11000061035156 C 48.12672805786133 34.0966682434082 47.88672637939453 32.91666793823242 47.88672637939453 31.56999969482422 C 47.88672637939453 29.476665496826172 48.41006088256836 27.843334197998047 49.45672607421875 26.670000076293945 C 50.503395080566406 25.503334045410156 51.95672607421875 24.920000076293945 53.81672668457031 24.920000076293945 C 55.61006164550781 24.920000076293945 57.03672790527344 25.516666412353516 58.09672927856445 26.709999084472656 C 59.1567268371582 27.90999984741211 59.686729431152344 29.529998779296875 59.686729431152344 31.56999969482422 M 49.896728515625 31.56999969482422 C 49.896728515625 33.209999084472656 50.22672653198242 34.459999084472656 50.88672637939453 35.31999969482422 C 51.540061950683594 36.18000030517578 52.503395080566406 36.61000061035156 53.77672576904297 36.61000061035156 C 55.0500602722168 36.61000061035156 56.016727447509766 36.18000030517578 56.676727294921875 35.31999969482422 C 57.336727142333984 34.46666717529297 57.66672897338867 33.21666717529297 57.66672897338867 31.56999969482422 C 57.66672897338867 29.93666648864746 57.336727142333984 28.696666717529297 56.676727294921875 27.850000381469727 C 56.016727447509766 26.996665954589844 55.04339599609375 26.56999969482422 53.75672912597656 26.56999969482422 C 52.483394622802734 26.56999969482422 51.52339553833008 26.989999771118164 50.87672805786133 27.829999923706055 C 50.22339630126953 28.663333892822266 49.896728515625 29.90999984741211 49.896728515625 31.56999969482422 ZM 67.2428207397461 36.630001068115234 C 67.58948516845703 36.630001068115234 67.92282104492188 36.60333251953125 68.2428207397461 36.54999923706055 C 68.56282043457031 36.503334045410156 68.81615447998047 36.45000076293945 69.00282287597656 36.38999938964844 L 69.00282287597656 37.880001068115234 C 68.78948974609375 37.98666763305664 68.4794921875 38.06999969482422 68.07282257080078 38.130001068115234 C 67.65948486328125 38.1966667175293 67.28948974609375 38.22999954223633 66.96282196044922 38.22999954223633 C 64.47615814208984 38.22999954223633 63.23282241821289 36.92333221435547 63.23282241821289 34.310001373291016 L 63.23282241821289 26.670000076293945 L 61.392822265625 26.670000076293945 L 61.392822265625 25.729999542236328 L 63.23282241821289 24.920000076293945 L 64.05281829833984 22.18000030517578 L 65.18282318115234 22.18000030517578 L 65.18282318115234 25.15999984741211 L 68.9128189086914 25.15999984741211 L 68.9128189086914 26.670000076293945 L 65.18282318115234 26.670000076293945 L 65.18282318115234 34.22999954223633 C 65.18282318115234 35.003334045410156 65.36615753173828 35.5966682434082 65.73281860351562 36.0099983215332 C 66.0994873046875 36.42333221435547 66.60282135009766 36.630001068115234 67.2428207397461 36.630001068115234 ZM 75.7154769897461 36.630001068115234 C 76.06214141845703 36.630001068115234 76.39547729492188 36.60333251953125 76.7154769897461 36.54999923706055 C 77.03547668457031 36.503334045410156 77.28881072998047 36.45000076293945 77.47547912597656 36.38999938964844 L 77.47547912597656 37.880001068115234 C 77.26214599609375 37.98666763305664 76.9521484375 38.06999969482422 76.54547882080078 38.130001068115234 C 76.13214111328125 38.1966667175293 75.76214599609375 38.22999954223633 75.43547821044922 38.22999954223633 C 72.94881439208984 38.22999954223633 71.70547485351562 36.92333221435547 71.70547485351562 34.310001373291016 L 71.70547485351562 26.670000076293945 L 69.865478515625 26.670000076293945 L 69.865478515625 25.729999542236328 L 71.70547485351562 24.920000076293945 L 72.52547454833984 22.18000030517578 L 73.65547943115234 22.18000030517578 L 73.65547943115234 25.15999984741211 L 77.3854751586914 25.15999984741211 L 77.3854751586914 26.670000076293945 L 73.65547943115234 26.670000076293945 L 73.65547943115234 34.22999954223633 C 73.65547943115234 35.003334045410156 73.83881378173828 35.5966682434082 74.20547485351562 36.0099983215332 C 74.5721435546875 36.42333221435547 75.07547760009766 36.630001068115234 75.7154769897461 36.630001068115234 ZM 85.46813201904297 38.22999954223633 C 83.56813049316406 38.22999954223633 82.06813049316406 37.6533317565918 80.96813201904297 36.5 C 79.87480163574219 35.3466682434082 79.32813262939453 33.73999786376953 79.32813262939453 31.68000030517578 C 79.32813262939453 29.61333465576172 79.838134765625 27.970001220703125 80.8581314086914 26.75 C 81.87813568115234 25.529998779296875 83.24480438232422 24.920000076293945 84.95813751220703 24.920000076293945 C 86.57146453857422 24.920000076293945 87.84480285644531 25.450000762939453 88.77813720703125 26.510000228881836 C 89.71813201904297 27.56999969482422 90.1881332397461 28.96666717529297 90.1881332397461 30.700000762939453 L 90.1881332397461 31.93000030517578 L 81.338134765625 31.93000030517578 C 81.37813568115234 33.436668395996094 81.76146697998047 34.58000183105469 82.4881362915039 35.36000061035156 C 83.20813751220703 36.14666748046875 84.22480010986328 36.540000915527344 85.53813171386719 36.540000915527344 C 86.91813659667969 36.540000915527344 88.28479766845703 36.25 89.63813781738281 35.66999816894531 L 89.63813781738281 37.400001525878906 C 88.95146942138672 37.70000076293945 88.30146789550781 37.913333892822266 87.6881332397461 38.040000915527344 C 87.07479858398438 38.16666793823242 86.33480072021484 38.22999954223633 85.46813201904297 38.22999954223633 M 84.9381332397461 26.549999237060547 C 83.90480041503906 26.549999237060547 83.08146667480469 26.88666534423828 82.46813201904297 27.560001373291016 C 81.85479736328125 28.233333587646484 81.49480438232422 29.163333892822266 81.38813781738281 30.350000381469727 L 88.1081314086914 30.350000381469727 C 88.1081314086914 29.123332977294922 87.83146667480469 28.183334350585938 87.27813720703125 27.529998779296875 C 86.7314682006836 26.876667022705078 85.95146942138672 26.549999237060547 84.9381332397461 26.549999237060547 ZM 99.36297607421875 24.920000076293945 C 99.93630981445312 24.920000076293945 100.44964599609375 24.96666717529297 100.9029769897461 25.060001373291016 L 100.63298034667969 26.869998931884766 C 100.09964752197266 26.75 99.62964630126953 26.689998626708984 99.22297668457031 26.689998626708984 C 98.18297576904297 26.689998626708984 97.29631042480469 27.11333465576172 96.56298065185547 27.959999084472656 C 95.8229751586914 28.799999237060547 95.4529800415039 29.850000381469727 95.4529800415039 31.110000610351562 L 95.4529800415039 38 L 93.50297546386719 38 L 93.50297546386719 25.15999984741211 L 95.11297607421875 25.15999984741211 L 95.33297729492188 27.540000915527344 L 95.42298126220703 27.540000915527344 C 95.9029769897461 26.700000762939453 96.47964477539062 26.053333282470703 97.1529769897461 25.600000381469727 C 97.81964111328125 25.14666748046875 98.55631256103516 24.920000076293945 99.36297607421875 24.920000076293945 ZM 101.25984954833984 25.15999984741211 L 103.349853515625 25.15999984741211 L 106.15985107421875 32.47999954223633 C 106.77985382080078 34.1533317565918 107.1631851196289 35.36000061035156 107.30985260009766 36.099998474121094 L 107.39985656738281 36.099998474121094 C 107.50652313232422 35.70000076293945 107.71985626220703 35.02000045776367 108.03985595703125 34.060001373291016 C 108.36651611328125 33.09333419799805 109.42652130126953 30.126667022705078 111.2198486328125 25.15999984741211 L 113.30985260009766 25.15999984741211 L 107.78985595703125 39.779998779296875 C 107.2431869506836 41.22666549682617 106.60318756103516 42.253334045410156 105.8698501586914 42.86000061035156 C 105.1431884765625 43.46666717529297 104.2498550415039 43.77000045776367 103.18984985351562 43.77000045776367 C 102.58985137939453 43.77000045776367 102.00318908691406 43.70333480834961 101.42985534667969 43.56999969482422 L 101.42985534667969 42.01000213623047 C 101.85652160644531 42.10333251953125 102.33651733398438 42.150001525878906 102.8698501586914 42.150001525878906 C 104.20318603515625 42.150001525878906 105.1565170288086 41.400001525878906 105.72985076904297 39.900001525878906 L 106.43984985351562 38.06999969482422 L 101.25984954833984 25.15999984741211 Z" transform="matrix(1, 0, 0, 1, 24.096277236938477, -3.614441394805908)" style="fill: rgb(255, 255, 255); white-space: pre; color: rgb(255, 255, 255);"/></g></g><g transform="matrix(1.5709700584411623, 0, 0, 1.5709700584411623, -599.6928455654656, 31.389647674309856)"><g id="Layer_2" transform="matrix(1, 0, 0, 1, 0, 0)">
	<g id="Layer_1-2">
		<path class="st0" d="M652,46c27.6,0,50,22.4,50,50s-22.4,50-50,50s-50-22.4-50-50S624.4,46,652,46z" style="fill: rgb(0, 0, 0); stroke: rgb(0, 0, 0); stroke-width: 37;"/>
	</g>
</g></g><g transform="matrix(1.570969794242143, 0, 0, 1.570969794242143, 396.7723442417697, 35.55842215977171)"><g id="Layer_2_4_" transform="matrix(1, 0, 0, 1, 0, 0)">
	<g id="Layer_1-2_4_">
		<path class="st0" d="M58,49h100v100H58V49z" style="fill: rgb(0, 0, 0);"/>
	</g>
</g></g><g transform="matrix(1.570969820022583, 0, 0, 1.570969820022583, 525.3865797089295, 29.064189360038142)"><g id="g-1" transform="matrix(1, 0, 0, 1, 0, 0)">
	<g id="g-2">
		<path class="st0" d="M58,49h100v100H58V49z" style="fill: rgb(0, 0, 0);"/>
	</g>
</g></g><g transform="matrix(1.570969820022583, 0, 0, 1.570969820022583, 652.6871357353713, 41.09773259016288)"><g id="g-3" transform="matrix(1, 0, 0, 1, 0, 0)">
	<g id="g-4">
		<path class="st0" d="M58,49h100v100H58V49z" style="fill: rgb(0, 0, 0);"/>
	</g>
</g></g><g transform="matrix(1.570969820022583, 0, 0, 1.570969820022583, 736.2874855645251, 47.431168670503865)"><g id="g-5" transform="matrix(1, 0, 0, 1, 0, 0)">
	<g id="g-6">
		<path class="st0" d="M58,49h100v100H58V49z" style="fill: rgb(0, 0, 0);"/>
	</g>
</g></g><g transform="matrix(1.570969820022583, 0, 0, 1.570969820022583, 698.2873397783285, 58.831360717653126)"><g id="g-7" transform="matrix(1, 0, 0, 1, 0, 0)">
	<g id="g-8">
		<path class="st0" d="M58,49h100v100H58V49z" style="fill: rgb(0, 0, 0);"/>
	</g>
</g></g></svg>