<svg width="212" height="52" viewBox="0 0 212 52" fill="none" xmlns="http://www.w3.org/2000/svg">
<rect width="212" height="52" rx="26" fill="#EC6D5F"/>
<path d="M72.78 32.096C72.172 32.096 71.592 32.012 71.04 31.844C70.496 31.676 70.06 31.444 69.732 31.148C69.58 31.02 69.504 30.856 69.504 30.656C69.504 30.512 69.544 30.392 69.624 30.296C69.704 30.192 69.8 30.14 69.912 30.14C70.024 30.14 70.16 30.192 70.32 30.296C71.032 30.824 71.844 31.088 72.756 31.088C73.396 31.088 73.888 30.968 74.232 30.728C74.576 30.488 74.748 30.144 74.748 29.696C74.748 29.344 74.588 29.08 74.268 28.904C73.948 28.728 73.436 28.56 72.732 28.4C72.06 28.256 71.508 28.092 71.076 27.908C70.644 27.724 70.304 27.476 70.056 27.164C69.816 26.844 69.696 26.44 69.696 25.952C69.696 25.464 69.828 25.032 70.092 24.656C70.364 24.272 70.74 23.976 71.22 23.768C71.7 23.552 72.248 23.444 72.864 23.444C73.432 23.444 73.956 23.524 74.436 23.684C74.916 23.844 75.324 24.08 75.66 24.392C75.82 24.528 75.9 24.692 75.9 24.884C75.9 25.02 75.856 25.14 75.768 25.244C75.688 25.348 75.592 25.4 75.48 25.4C75.376 25.4 75.244 25.348 75.084 25.244C74.716 24.964 74.368 24.764 74.04 24.644C73.72 24.516 73.332 24.452 72.876 24.452C72.26 24.452 71.78 24.58 71.436 24.836C71.092 25.084 70.92 25.432 70.92 25.88C70.92 26.264 71.072 26.556 71.376 26.756C71.68 26.948 72.168 27.124 72.84 27.284C73.544 27.444 74.112 27.612 74.544 27.788C74.984 27.956 75.332 28.192 75.588 28.496C75.852 28.792 75.984 29.176 75.984 29.648C75.984 30.128 75.848 30.556 75.576 30.932C75.312 31.3 74.936 31.588 74.448 31.796C73.968 31.996 73.412 32.096 72.78 32.096ZM78.1194 32C77.9274 32 77.7754 31.948 77.6634 31.844C77.5594 31.732 77.5074 31.584 77.5074 31.4V24.14C77.5074 23.956 77.5594 23.812 77.6634 23.708C77.7754 23.596 77.9274 23.54 78.1194 23.54H82.5354C82.7194 23.54 82.8594 23.584 82.9554 23.672C83.0594 23.76 83.1114 23.884 83.1114 24.044C83.1114 24.204 83.0594 24.328 82.9554 24.416C82.8594 24.496 82.7194 24.536 82.5354 24.536H78.7194V27.2H82.2954C82.4794 27.2 82.6194 27.244 82.7154 27.332C82.8194 27.42 82.8714 27.544 82.8714 27.704C82.8714 27.864 82.8194 27.988 82.7154 28.076C82.6194 28.164 82.4794 28.208 82.2954 28.208H78.7194V31.004H82.5354C82.9194 31.004 83.1114 31.168 83.1114 31.496C83.1114 31.656 83.0594 31.78 82.9554 31.868C82.8594 31.956 82.7194 32 82.5354 32H78.1194ZM85.139 32C84.947 32 84.795 31.948 84.683 31.844C84.579 31.732 84.527 31.584 84.527 31.4V24.14C84.527 23.956 84.579 23.812 84.683 23.708C84.795 23.596 84.947 23.54 85.139 23.54H89.555C89.739 23.54 89.879 23.584 89.975 23.672C90.079 23.76 90.131 23.884 90.131 24.044C90.131 24.204 90.079 24.328 89.975 24.416C89.879 24.496 89.739 24.536 89.555 24.536H85.739V27.2H89.315C89.499 27.2 89.639 27.244 89.735 27.332C89.839 27.42 89.891 27.544 89.891 27.704C89.891 27.864 89.839 27.988 89.735 28.076C89.639 28.164 89.499 28.208 89.315 28.208H85.739V31.004H89.555C89.939 31.004 90.131 31.168 90.131 31.496C90.131 31.656 90.079 31.78 89.975 31.868C89.879 31.956 89.739 32 89.555 32H85.139ZM97.5066 32.096C96.8986 32.096 96.3186 32.012 95.7666 31.844C95.2226 31.676 94.7866 31.444 94.4586 31.148C94.3066 31.02 94.2306 30.856 94.2306 30.656C94.2306 30.512 94.2706 30.392 94.3506 30.296C94.4306 30.192 94.5266 30.14 94.6386 30.14C94.7506 30.14 94.8866 30.192 95.0466 30.296C95.7586 30.824 96.5706 31.088 97.4826 31.088C98.1226 31.088 98.6146 30.968 98.9586 30.728C99.3026 30.488 99.4746 30.144 99.4746 29.696C99.4746 29.344 99.3146 29.08 98.9946 28.904C98.6746 28.728 98.1626 28.56 97.4586 28.4C96.7866 28.256 96.2346 28.092 95.8026 27.908C95.3706 27.724 95.0306 27.476 94.7826 27.164C94.5426 26.844 94.4226 26.44 94.4226 25.952C94.4226 25.464 94.5546 25.032 94.8186 24.656C95.0906 24.272 95.4666 23.976 95.9466 23.768C96.4266 23.552 96.9746 23.444 97.5906 23.444C98.1586 23.444 98.6826 23.524 99.1626 23.684C99.6426 23.844 100.051 24.08 100.387 24.392C100.547 24.528 100.627 24.692 100.627 24.884C100.627 25.02 100.583 25.14 100.495 25.244C100.415 25.348 100.319 25.4 100.207 25.4C100.103 25.4 99.9706 25.348 99.8106 25.244C99.4426 24.964 99.0946 24.764 98.7666 24.644C98.4466 24.516 98.0586 24.452 97.6026 24.452C96.9866 24.452 96.5066 24.58 96.1626 24.836C95.8186 25.084 95.6466 25.432 95.6466 25.88C95.6466 26.264 95.7986 26.556 96.1026 26.756C96.4066 26.948 96.8946 27.124 97.5666 27.284C98.2706 27.444 98.8386 27.612 99.2706 27.788C99.7106 27.956 100.059 28.192 100.315 28.496C100.579 28.792 100.711 29.176 100.711 29.648C100.711 30.128 100.575 30.556 100.303 30.932C100.039 31.3 99.6626 31.588 99.1746 31.796C98.6946 31.996 98.1386 32.096 97.5066 32.096ZM104.698 32.06C104.514 32.06 104.362 32.004 104.242 31.892C104.13 31.772 104.074 31.62 104.074 31.436V24.572H101.674C101.29 24.572 101.098 24.4 101.098 24.056C101.098 23.888 101.146 23.76 101.242 23.672C101.346 23.584 101.49 23.54 101.674 23.54H107.722C107.906 23.54 108.046 23.584 108.142 23.672C108.246 23.76 108.298 23.888 108.298 24.056C108.298 24.4 108.106 24.572 107.722 24.572H105.322V31.436C105.322 31.62 105.266 31.772 105.154 31.892C105.042 32.004 104.89 32.06 104.698 32.06ZM112.444 32.096C111.644 32.096 110.948 31.92 110.356 31.568C109.772 31.216 109.32 30.716 109 30.068C108.68 29.42 108.52 28.656 108.52 27.776C108.52 26.888 108.676 26.12 108.988 25.472C109.308 24.816 109.764 24.316 110.356 23.972C110.948 23.62 111.644 23.444 112.444 23.444C113.252 23.444 113.952 23.62 114.544 23.972C115.136 24.316 115.588 24.816 115.9 25.472C116.22 26.12 116.38 26.884 116.38 27.764C116.38 28.644 116.22 29.412 115.9 30.068C115.588 30.716 115.136 31.216 114.544 31.568C113.952 31.92 113.252 32.096 112.444 32.096ZM112.444 31.088C113.292 31.088 113.952 30.8 114.424 30.224C114.896 29.648 115.132 28.828 115.132 27.764C115.132 26.7 114.896 25.884 114.424 25.316C113.96 24.74 113.3 24.452 112.444 24.452C111.604 24.452 110.948 24.74 110.476 25.316C110.012 25.884 109.78 26.7 109.78 27.764C109.78 28.828 110.012 29.648 110.476 30.224C110.948 30.8 111.604 31.088 112.444 31.088ZM124.666 31.232C124.738 31.336 124.774 31.448 124.774 31.568C124.774 31.712 124.714 31.836 124.594 31.94C124.482 32.036 124.35 32.084 124.198 32.084C123.974 32.084 123.794 31.984 123.658 31.784L122.05 29.288C121.866 29 121.67 28.8 121.462 28.688C121.254 28.568 120.982 28.508 120.646 28.508H119.29V31.436C119.29 31.628 119.234 31.78 119.122 31.892C119.018 32.004 118.87 32.06 118.678 32.06C118.494 32.06 118.346 32.004 118.234 31.892C118.122 31.78 118.066 31.628 118.066 31.436V24.14C118.066 23.956 118.118 23.812 118.222 23.708C118.334 23.596 118.486 23.54 118.678 23.54H121.666C122.602 23.54 123.314 23.748 123.802 24.164C124.298 24.58 124.546 25.188 124.546 25.988C124.546 26.652 124.358 27.192 123.982 27.608C123.606 28.016 123.07 28.276 122.374 28.388C122.582 28.444 122.77 28.544 122.938 28.688C123.106 28.832 123.27 29.032 123.43 29.288L124.666 31.232ZM121.522 27.512C122.146 27.512 122.606 27.392 122.902 27.152C123.206 26.904 123.358 26.524 123.358 26.012C123.358 25.5 123.21 25.128 122.914 24.896C122.618 24.656 122.154 24.536 121.522 24.536H119.278V27.512H121.522ZM126.963 32.06C126.779 32.06 126.631 32.004 126.519 31.892C126.407 31.78 126.351 31.628 126.351 31.436V24.104C126.351 23.92 126.407 23.772 126.519 23.66C126.631 23.54 126.779 23.48 126.963 23.48C127.155 23.48 127.307 23.536 127.419 23.648C127.531 23.76 127.587 23.912 127.587 24.104V31.436C127.587 31.628 127.531 31.78 127.419 31.892C127.315 32.004 127.163 32.06 126.963 32.06ZM130.162 32C129.97 32 129.818 31.948 129.706 31.844C129.602 31.732 129.55 31.584 129.55 31.4V24.14C129.55 23.956 129.602 23.812 129.706 23.708C129.818 23.596 129.97 23.54 130.162 23.54H134.578C134.762 23.54 134.902 23.584 134.998 23.672C135.102 23.76 135.154 23.884 135.154 24.044C135.154 24.204 135.102 24.328 134.998 24.416C134.902 24.496 134.762 24.536 134.578 24.536H130.762V27.2H134.338C134.522 27.2 134.662 27.244 134.758 27.332C134.862 27.42 134.914 27.544 134.914 27.704C134.914 27.864 134.862 27.988 134.758 28.076C134.662 28.164 134.522 28.208 134.338 28.208H130.762V31.004H134.578C134.962 31.004 135.154 31.168 135.154 31.496C135.154 31.656 135.102 31.78 134.998 31.868C134.902 31.956 134.762 32 134.578 32H130.162ZM139.249 32.096C138.641 32.096 138.061 32.012 137.509 31.844C136.965 31.676 136.529 31.444 136.201 31.148C136.049 31.02 135.973 30.856 135.973 30.656C135.973 30.512 136.013 30.392 136.093 30.296C136.173 30.192 136.269 30.14 136.381 30.14C136.493 30.14 136.629 30.192 136.789 30.296C137.501 30.824 138.313 31.088 139.225 31.088C139.865 31.088 140.357 30.968 140.701 30.728C141.045 30.488 141.217 30.144 141.217 29.696C141.217 29.344 141.057 29.08 140.737 28.904C140.417 28.728 139.905 28.56 139.201 28.4C138.529 28.256 137.977 28.092 137.545 27.908C137.113 27.724 136.773 27.476 136.525 27.164C136.285 26.844 136.165 26.44 136.165 25.952C136.165 25.464 136.297 25.032 136.561 24.656C136.833 24.272 137.209 23.976 137.689 23.768C138.169 23.552 138.717 23.444 139.333 23.444C139.901 23.444 140.425 23.524 140.905 23.684C141.385 23.844 141.793 24.08 142.129 24.392C142.289 24.528 142.369 24.692 142.369 24.884C142.369 25.02 142.325 25.14 142.237 25.244C142.157 25.348 142.061 25.4 141.949 25.4C141.845 25.4 141.713 25.348 141.553 25.244C141.185 24.964 140.837 24.764 140.509 24.644C140.189 24.516 139.801 24.452 139.345 24.452C138.729 24.452 138.249 24.58 137.905 24.836C137.561 25.084 137.389 25.432 137.389 25.88C137.389 26.264 137.541 26.556 137.845 26.756C138.149 26.948 138.637 27.124 139.309 27.284C140.013 27.444 140.581 27.612 141.013 27.788C141.453 27.956 141.801 28.192 142.057 28.496C142.321 28.792 142.453 29.176 142.453 29.648C142.453 30.128 142.317 30.556 142.045 30.932C141.781 31.3 141.405 31.588 140.917 31.796C140.437 31.996 139.881 32.096 139.249 32.096Z" fill="white"/>
<path d="M203.797 25.399C203.797 17.4467 197.351 11 189.399 11C181.446 11 175 17.4467 175 25.399V26.221C175 34.1733 181.446 40.62 189.399 40.62C197.351 40.62 203.797 34.1733 203.797 26.221V25.399Z" fill="white"/>
<path d="M193.101 25.808C193.101 25.6974 193.079 25.5879 193.035 25.4862C192.992 25.3845 192.929 25.2925 192.849 25.216L187.912 20.279C187.75 20.1324 187.537 20.0561 187.319 20.0666C187.102 20.0772 186.897 20.1739 186.75 20.3355C186.604 20.497 186.528 20.7101 186.538 20.9279C186.549 21.1457 186.645 21.3504 186.807 21.497L191.119 25.808L186.749 30.175C186.605 30.3311 186.526 30.5371 186.53 30.7498C186.535 30.9624 186.621 31.1652 186.771 31.3155C186.922 31.4659 187.124 31.5523 187.337 31.5564C187.55 31.5606 187.756 31.4823 187.912 31.338L192.849 26.401C192.929 26.3244 192.992 26.2324 193.035 26.1307C193.079 26.029 193.101 25.9195 193.101 25.809V25.808Z" fill="#EC6D5F" stroke="#EC6D5F"/>
</svg>
