<svg width="52" height="52" viewBox="0 0 52 52" fill="none" xmlns="http://www.w3.org/2000/svg">
<path d="M16.7539 33.6176H16.7562C16.7582 33.6176 16.7602 33.6172 16.7622 33.6172H44.3828C45.0628 33.6172 45.6607 33.1661 45.8475 32.5123L51.9413 11.1842C52.0726 10.7244 51.9806 10.23 51.6929 9.84839C51.4049 9.46674 50.9546 9.24219 50.4766 9.24219H13.2404L12.1514 4.3414C11.9963 3.64435 11.3782 3.14844 10.6641 3.14844H1.52345C0.681984 3.14844 7.62939e-06 3.83041 7.62939e-06 4.67188C7.62939e-06 5.51334 0.681984 6.19531 1.52345 6.19531H9.44215C9.63496 7.06375 14.6536 29.6479 14.9424 30.9472C13.3233 31.651 12.1875 33.2653 12.1875 35.1406C12.1875 37.6606 14.2378 39.7109 16.7578 39.7109H44.3828C45.2243 39.7109 45.9063 39.029 45.9063 38.1875C45.9063 37.346 45.2243 36.6641 44.3828 36.6641H16.7578C15.9179 36.6641 15.2344 35.9805 15.2344 35.1406C15.2344 34.3019 15.9156 33.6196 16.7539 33.6176ZM48.4568 12.2891L43.2335 30.5703H17.9797L13.9172 12.2891H48.4568Z" fill="#7EB87A"/>
<path d="M15.2344 44.2812C15.2344 46.8013 17.2847 48.8516 19.8047 48.8516C22.3247 48.8516 24.375 46.8013 24.375 44.2812C24.375 41.7612 22.3247 39.7109 19.8047 39.7109C17.2847 39.7109 15.2344 41.7612 15.2344 44.2812ZM19.8047 42.7578C20.6446 42.7578 21.3281 43.4414 21.3281 44.2812C21.3281 45.1211 20.6446 45.8047 19.8047 45.8047C18.9648 45.8047 18.2812 45.1211 18.2812 44.2812C18.2812 43.4414 18.9648 42.7578 19.8047 42.7578Z" fill="#7EB87A"/>
<path d="M36.7656 44.2812C36.7656 46.8013 38.8159 48.8516 41.3359 48.8516C43.8559 48.8516 45.9062 46.8013 45.9062 44.2812C45.9062 41.7612 43.8559 39.7109 41.3359 39.7109C38.8159 39.7109 36.7656 41.7612 36.7656 44.2812ZM41.3359 42.7578C42.1758 42.7578 42.8593 43.4414 42.8593 44.2812C42.8593 45.1211 42.1758 45.8047 41.3359 45.8047C40.496 45.8047 39.8125 45.1211 39.8125 44.2812C39.8125 43.4414 40.496 42.7578 41.3359 42.7578Z" fill="#7EB87A"/>
</svg>
