<svg width="375" height="105" viewBox="0 0 375 105" fill="none" xmlns="http://www.w3.org/2000/svg">
<rect x="-1" y="21" width="376" height="133" rx="40" fill="#EC6D5F"/>
<path d="M375 62C375 96.2417 347.242 124 313 124C278.758 124 251 96.2417 251 62C251 27.7583 278.758 0 313 0C347.242 0 375 27.7583 375 62Z" fill="#EC6D5F"/>
<path d="M208.414 39.2472C205.977 36.5083 202.599 35 198.901 35C194.775 35 191.198 36.9512 188.557 40.6426C188.359 40.9193 188.174 41.1961 188 41.4701C187.827 41.196 187.641 40.9193 187.443 40.6426C184.802 36.9512 181.225 35 177.099 35C173.401 35 170.023 36.5083 167.586 39.2471C165.274 41.8462 164 45.3208 164 49.0309C164 53.0628 165.565 56.7831 168.923 60.7395C171.854 64.1913 176.058 67.7394 180.925 71.8479C182.724 73.3662 184.584 74.936 186.561 76.6492C186.974 77.007 187.487 77.186 188 77.186C188.513 77.186 189.026 77.007 189.439 76.6492C191.415 74.9365 193.275 73.3666 195.074 71.8486C198.2 69.2099 200.9 66.9312 203.242 64.721C207.791 60.4294 212 55.5583 212 49.0311C212 45.3208 210.726 41.8463 208.414 39.2472ZM200.227 61.5245C197.973 63.6514 195.316 65.8938 192.239 68.4903C190.871 69.6452 189.467 70.8299 188 72.0881C186.532 70.83 185.128 69.6451 183.76 68.4898C174.178 60.4026 168.394 55.5211 168.394 49.0311C168.394 43.5374 172.136 39.3946 177.098 39.3946C179.75 39.3946 182.004 40.6426 183.8 43.1038C185.273 45.1236 185.878 47.2176 185.882 47.2316C186.146 48.1835 187.012 48.8425 188 48.8425C188.987 48.8425 189.854 48.1835 190.117 47.2316C190.139 47.1533 192.363 39.3946 198.901 39.3946C203.864 39.3946 207.606 43.5375 207.606 49.0311C207.606 53.0116 205.537 56.5144 200.227 61.5245Z" fill="white"/>
<mask id="path-4-inside-1" fill="white">
<path d="M98.8184 52.1379L98.815 52.1345L80.8647 34.1867C80.0996 33.4213 79.0823 33 78.0003 33C76.9182 33 75.9009 33.4213 75.1355 34.1867L57.1946 52.1255C57.1885 52.1315 57.1821 52.1379 57.1764 52.1439C55.6052 53.724 55.6079 56.2877 57.1842 57.8638C57.9043 58.5842 58.8551 59.0011 59.872 59.0451C59.9136 59.0491 59.9552 59.0511 59.9972 59.0511H60.7123V72.2593C60.7123 74.8734 62.8395 77 65.4538 77H72.4765C73.1886 77 73.7657 76.4226 73.7657 75.7109V65.3555C73.7657 64.1628 74.7363 63.1926 75.9292 63.1926H80.0714C81.2642 63.1926 82.2344 64.1628 82.2344 65.3555V75.7109C82.2344 76.4226 82.8116 77 83.5236 77H90.5464C93.161 77 95.2879 74.8734 95.2879 72.2593V59.0511H95.9513C97.033 59.0511 98.0502 58.6299 98.816 57.8641C100.394 56.2857 100.395 53.7173 98.8184 52.1379ZM96.9927 56.0413C96.7144 56.3196 96.3444 56.473 95.9513 56.473H93.9987C93.2866 56.473 92.7095 57.0501 92.7095 57.7621V72.2593C92.7095 73.4517 91.7392 74.4219 90.5464 74.4219H84.8128V65.3555C84.8128 62.7414 82.686 60.6145 80.0714 60.6145H75.9292C73.3145 60.6145 71.1873 62.7414 71.1873 65.3555V74.4219H65.4538C64.2613 74.4219 63.2907 73.4517 63.2907 72.2593V57.7621C63.2907 57.0501 62.7136 56.473 62.0015 56.473H60.0825C60.0623 56.4717 60.0425 56.4707 60.0221 56.4703C59.638 56.4636 59.2778 56.3112 59.0078 56.041C58.4337 55.4669 58.4337 54.5327 59.0078 53.9583L59.0095 53.9567L76.9592 36.0095C77.2371 35.7312 77.6068 35.5781 78.0003 35.5781C78.3934 35.5781 78.763 35.7312 79.0413 36.0095L96.987 53.953C96.9897 53.9557 96.9927 53.9583 96.9954 53.961C97.5664 54.5361 97.5654 55.4683 96.9927 56.0413Z"/>
</mask>
<path d="M98.8184 52.1379L98.815 52.1345L80.8647 34.1867C80.0996 33.4213 79.0823 33 78.0003 33C76.9182 33 75.9009 33.4213 75.1355 34.1867L57.1946 52.1255C57.1885 52.1315 57.1821 52.1379 57.1764 52.1439C55.6052 53.724 55.6079 56.2877 57.1842 57.8638C57.9043 58.5842 58.8551 59.0011 59.872 59.0451C59.9136 59.0491 59.9552 59.0511 59.9972 59.0511H60.7123V72.2593C60.7123 74.8734 62.8395 77 65.4538 77H72.4765C73.1886 77 73.7657 76.4226 73.7657 75.7109V65.3555C73.7657 64.1628 74.7363 63.1926 75.9292 63.1926H80.0714C81.2642 63.1926 82.2344 64.1628 82.2344 65.3555V75.7109C82.2344 76.4226 82.8116 77 83.5236 77H90.5464C93.161 77 95.2879 74.8734 95.2879 72.2593V59.0511H95.9513C97.033 59.0511 98.0502 58.6299 98.816 57.8641C100.394 56.2857 100.395 53.7173 98.8184 52.1379ZM96.9927 56.0413C96.7144 56.3196 96.3444 56.473 95.9513 56.473H93.9987C93.2866 56.473 92.7095 57.0501 92.7095 57.7621V72.2593C92.7095 73.4517 91.7392 74.4219 90.5464 74.4219H84.8128V65.3555C84.8128 62.7414 82.686 60.6145 80.0714 60.6145H75.9292C73.3145 60.6145 71.1873 62.7414 71.1873 65.3555V74.4219H65.4538C64.2613 74.4219 63.2907 73.4517 63.2907 72.2593V57.7621C63.2907 57.0501 62.7136 56.473 62.0015 56.473H60.0825C60.0623 56.4717 60.0425 56.4707 60.0221 56.4703C59.638 56.4636 59.2778 56.3112 59.0078 56.041C58.4337 55.4669 58.4337 54.5327 59.0078 53.9583L59.0095 53.9567L76.9592 36.0095C77.2371 35.7312 77.6068 35.5781 78.0003 35.5781C78.3934 35.5781 78.763 35.7312 79.0413 36.0095L96.987 53.953C96.9897 53.9557 96.9927 53.9583 96.9954 53.961C97.5664 54.5361 97.5654 55.4683 96.9927 56.0413Z" fill="white"/>
<path d="M98.8184 52.1379L105.897 45.074L105.889 45.0668L98.8184 52.1379ZM98.815 52.1345L105.886 45.0635L105.886 45.063L98.815 52.1345ZM80.8647 34.1867L73.7924 41.2565L73.7941 41.2582L80.8647 34.1867ZM75.1355 34.1867L82.2061 41.2582L82.2062 41.2581L75.1355 34.1867ZM57.1946 52.1255L50.1239 45.054L50.1239 45.054L57.1946 52.1255ZM57.1764 52.1439L64.2675 59.195L64.358 59.1039L64.4463 59.0105L57.1764 52.1439ZM57.1842 57.8638L64.2565 50.794L64.2549 50.7924L57.1842 57.8638ZM59.872 59.0451L60.8352 49.0916L60.5701 49.0659L60.304 49.0544L59.872 59.0451ZM60.7123 59.0511H70.7123V49.0511H60.7123V59.0511ZM95.2879 59.0511V49.0511H85.2879V59.0511H95.2879ZM98.816 57.8641L105.887 64.9356L105.888 64.9341L98.816 57.8641ZM96.9927 56.0413L104.063 63.1127L104.065 63.1107L96.9927 56.0413ZM84.8128 74.4219H74.8128V84.4219H84.8128V74.4219ZM71.1873 74.4219V84.4219H81.1873V74.4219H71.1873ZM60.0825 56.473L59.4174 66.4509L59.7496 66.473H60.0825V56.473ZM60.0221 56.4703L59.8473 66.4688L59.8582 66.469L60.0221 56.4703ZM59.0078 56.041L66.0829 48.974L66.0785 48.9696L59.0078 56.041ZM59.0078 53.9583L51.9373 46.8868L51.935 46.889L59.0078 53.9583ZM59.0095 53.9567L66.0801 61.0282L66.0801 61.0282L59.0095 53.9567ZM76.9592 36.0095L84.0297 43.081L84.0341 43.0766L76.9592 36.0095ZM79.0413 36.0095L71.9706 43.0809L71.9707 43.081L79.0413 36.0095ZM96.987 53.953L104.058 46.8815L104.058 46.8815L96.987 53.953ZM96.9954 53.961L104.091 46.9145L104.079 46.902L104.066 46.8896L96.9954 53.961ZM105.889 45.0668L105.886 45.0635L91.7439 59.2056L91.7473 59.2089L105.889 45.0668ZM105.886 45.063L87.9353 27.1151L73.7941 41.2582L91.7444 59.2061L105.886 45.063ZM87.9369 27.1168C85.2958 24.4748 81.7342 23 78.0003 23V43C76.4304 43 74.9033 42.3678 73.7924 41.2565L87.9369 27.1168ZM78.0003 23C74.2659 23 70.7053 24.475 68.0648 27.1153L82.2062 41.2581C81.0966 42.3676 79.5705 43 78.0003 43V23ZM68.0648 27.1152L50.1239 45.054L64.2652 59.1969L82.2061 41.2582L68.0648 27.1152ZM50.1239 45.054C50.1233 45.0546 50.1158 45.0621 50.1073 45.0706C50.0982 45.0798 50.0839 45.0941 50.0668 45.1115C50.0348 45.1439 49.977 45.2028 49.9066 45.2774L64.4463 59.0105C64.3816 59.079 64.3298 59.1317 64.304 59.1579C64.2792 59.183 64.2582 59.2039 64.2653 59.1969L50.1239 45.054ZM50.0854 45.0929C44.6301 50.5791 44.637 59.4593 50.1134 64.9352L64.2549 50.7924C66.5788 53.1161 66.5804 56.8689 64.2675 59.195L50.0854 45.0929ZM50.1118 64.9336C52.6071 67.4298 55.9295 68.884 59.44 69.0358L60.304 49.0544C61.7806 49.1183 63.2015 49.7386 64.2565 50.794L50.1118 64.9336ZM58.9088 68.9986C59.2704 69.0336 59.6334 69.0511 59.9972 69.0511V49.0511C60.277 49.0511 60.5568 49.0647 60.8352 49.0916L58.9088 68.9986ZM59.9972 69.0511H60.7123V49.0511H59.9972V69.0511ZM50.7123 59.0511V72.2593H70.7123V59.0511H50.7123ZM50.7123 72.2593C50.7123 80.3981 57.3185 87 65.4538 87V67C68.3605 67 70.7123 69.3487 70.7123 72.2593H50.7123ZM65.4538 87H72.4765V67H65.4538V87ZM72.4765 87C78.7122 87 83.7657 81.9447 83.7657 75.7109H63.7657C63.7657 70.9005 67.665 67 72.4765 67V87ZM83.7657 75.7109V65.3555H63.7657V75.7109H83.7657ZM83.7657 65.3555C83.7657 69.6886 80.2562 73.1926 75.9292 73.1926V53.1926C69.2164 53.1926 63.7657 58.6369 63.7657 65.3555H83.7657ZM75.9292 73.1926H80.0714V53.1926H75.9292V73.1926ZM80.0714 73.1926C75.7423 73.1926 72.2344 69.6866 72.2344 65.3555H92.2344C92.2344 58.639 86.7861 53.1926 80.0714 53.1926V73.1926ZM72.2344 65.3555V75.7109H92.2344V65.3555H72.2344ZM72.2344 75.7109C72.2344 81.9447 77.288 87 83.5236 87V67C88.3351 67 92.2344 70.9005 92.2344 75.7109H72.2344ZM83.5236 87H90.5464V67H83.5236V87ZM90.5464 87C98.6825 87 105.288 80.3976 105.288 72.2593H85.2879C85.2879 69.3491 87.6396 67 90.5464 67V87ZM105.288 72.2593V59.0511H85.2879V72.2593H105.288ZM95.2879 69.0511H95.9513V49.0511H95.2879V69.0511ZM95.9513 69.0511C99.6864 69.0511 103.247 67.5754 105.887 64.9356L91.7453 50.7927C92.8539 49.6843 94.3796 49.0511 95.9513 49.0511V69.0511ZM105.888 64.9341C111.368 59.4522 111.37 50.5585 105.897 45.074L91.7401 59.2018C89.4192 56.8761 89.4195 53.1192 91.7438 50.7942L105.888 64.9341ZM89.922 48.9699C91.5157 47.3764 93.6877 46.473 95.9513 46.473V66.473C99.0011 66.473 101.913 65.2629 104.063 63.1127L89.922 48.9699ZM95.9513 46.473H93.9987V66.473H95.9513V46.473ZM93.9987 46.473C87.7647 46.473 82.7095 51.5263 82.7095 57.7621H102.709C102.709 62.5739 98.8085 66.473 93.9987 66.473V46.473ZM82.7095 57.7621V72.2593H102.709V57.7621H82.7095ZM82.7095 72.2593C82.7095 67.9269 86.2183 64.4219 90.5464 64.4219V84.4219C97.2601 84.4219 102.709 78.9765 102.709 72.2593H82.7095ZM90.5464 64.4219H84.8128V84.4219H90.5464V64.4219ZM94.8128 74.4219V65.3555H74.8128V74.4219H94.8128ZM94.8128 65.3555C94.8128 57.2181 88.2084 50.6145 80.0714 50.6145V70.6145C77.1636 70.6145 74.8128 68.2648 74.8128 65.3555H94.8128ZM80.0714 50.6145H75.9292V70.6145H80.0714V50.6145ZM75.9292 50.6145C67.7931 50.6145 61.1873 57.2172 61.1873 65.3555H81.1873C81.1873 68.2657 78.8359 70.6145 75.9292 70.6145V50.6145ZM61.1873 65.3555V74.4219H81.1873V65.3555H61.1873ZM71.1873 64.4219H65.4538V84.4219H71.1873V64.4219ZM65.4538 64.4219C69.7812 64.4219 73.2907 67.9259 73.2907 72.2593H53.2907C53.2907 78.9775 58.7414 84.4219 65.4538 84.4219V64.4219ZM73.2907 72.2593V57.7621H53.2907V72.2593H73.2907ZM73.2907 57.7621C73.2907 51.5263 68.2355 46.473 62.0015 46.473V66.473C57.1917 66.473 53.2907 62.5739 53.2907 57.7621H73.2907ZM62.0015 46.473H60.0825V66.473H62.0015V46.473ZM60.7476 46.4952C60.626 46.4871 60.4284 46.4757 60.1859 46.4717L59.8582 66.469C59.6567 66.4657 59.4986 66.4563 59.4174 66.4509L60.7476 46.4952ZM60.1968 46.4719C62.3869 46.5101 64.5065 47.3957 66.0829 48.974L51.9327 63.108C54.049 65.2268 56.8891 66.4171 59.8473 66.4688L60.1968 46.4719ZM66.0785 48.9696C69.4113 52.302 69.4083 57.6984 66.0806 61.0277L51.935 46.889C47.4591 51.3671 47.4562 58.6319 51.9371 63.1124L66.0785 48.9696ZM66.0784 61.0299L66.0801 61.0282L51.939 46.8851L51.9373 46.8868L66.0784 61.0299ZM66.0801 61.0282L84.0297 43.081L69.8886 28.9379L51.9389 46.8851L66.0801 61.0282ZM84.0341 43.0766C82.4342 44.6783 80.2577 45.5781 78.0003 45.5781V25.5781C74.9558 25.5781 72.0401 26.7841 69.8842 28.9423L84.0341 43.0766ZM78.0003 45.5781C75.7402 45.5781 73.5668 44.6769 71.9706 43.0809L86.1121 28.9381C83.9593 26.7855 81.0466 25.5781 78.0003 25.5781V45.5781ZM71.9707 43.081L89.9163 61.0245L104.058 46.8815L86.112 28.938L71.9707 43.081ZM89.9163 61.0244C89.9535 61.0616 89.9866 61.0941 90.0142 61.121C90.0417 61.1478 90.0654 61.1705 90.0836 61.1878C90.1016 61.2051 90.1163 61.219 90.1253 61.2275C90.1299 61.2318 90.1336 61.2353 90.1359 61.2375C90.1371 61.2386 90.1381 61.2395 90.1387 61.2401C90.1393 61.2407 90.1398 61.2412 90.1398 61.2412C90.1403 61.2416 90.1388 61.2402 90.137 61.2385C90.135 61.2367 90.1316 61.2335 90.1274 61.2295C90.1192 61.2217 90.1052 61.2084 90.0878 61.1919C90.0703 61.1752 90.0474 61.1531 90.0205 61.127C89.9936 61.1009 89.9612 61.069 89.9247 61.0325L104.066 46.8896C104.029 46.8524 103.996 46.8199 103.968 46.793C103.941 46.7663 103.917 46.7435 103.899 46.7262C103.881 46.7089 103.866 46.695 103.857 46.6865C103.852 46.6822 103.849 46.6787 103.846 46.6765C103.845 46.6754 103.844 46.6745 103.844 46.6739C103.843 46.6733 103.843 46.6728 103.843 46.6728C103.842 46.6724 103.844 46.6738 103.845 46.6755C103.847 46.6774 103.851 46.6805 103.855 46.6845C103.863 46.6923 103.877 46.7056 103.895 46.7221C103.912 46.7388 103.935 46.7609 103.962 46.787C103.989 46.8131 104.021 46.845 104.058 46.8815L89.9163 61.0244ZM89.8998 61.0076C86.5945 57.6792 86.5935 52.3 89.9199 48.972L104.065 63.1107C108.537 58.6366 108.538 51.3929 104.091 46.9145L89.8998 61.0076Z" fill="url(#paint0_linear)" mask="url(#path-4-inside-1)"/>
<path d="M316.968 9C303.532 9 294.77 23.2819 300.918 35.2481L289.624 46.5434C287.459 48.7089 287.458 52.2141 289.624 54.3795C291.784 56.54 295.299 56.5403 297.46 54.3795C297.956 53.884 308.256 43.5826 308.754 43.0846C320.702 49.2246 335 40.4892 335 27.0334C335 17.0896 326.911 9 316.968 9V9ZM295.513 52.4324C294.426 53.5189 292.658 53.5189 291.571 52.4324C290.482 51.3431 290.482 49.5799 291.571 48.4905L296.853 43.209L300.794 47.1505L295.513 52.4324ZM302.741 45.2031L298.8 41.2616L302.406 37.6553C303.509 39.1631 304.839 40.4942 306.347 41.5968L302.741 45.2031ZM316.968 42.3125C308.543 42.3125 301.69 35.4583 301.69 27.0334C301.69 18.6082 308.544 11.7539 316.968 11.7539C325.392 11.7539 332.246 18.6082 332.246 27.0334C332.246 35.4583 325.393 42.3125 316.968 42.3125Z" fill="white"/>
<path d="M164.935 94C164.745 94 164.59 93.945 164.47 93.835C164.36 93.725 164.305 93.58 164.305 93.4V84.025C164.305 83.845 164.36 83.7 164.47 83.59C164.59 83.48 164.745 83.425 164.935 83.425H167.86C169.55 83.425 170.855 83.885 171.775 84.805C172.705 85.715 173.17 87.015 173.17 88.705C173.17 90.395 172.705 91.7 171.775 92.62C170.845 93.54 169.54 94 167.86 94H164.935ZM167.785 92.95C170.525 92.95 171.895 91.535 171.895 88.705C171.895 85.885 170.525 84.475 167.785 84.475H165.535V92.95H167.785ZM178.244 94.105C177.554 94.105 176.944 93.95 176.414 93.64C175.894 93.33 175.489 92.89 175.199 92.32C174.919 91.74 174.779 91.07 174.779 90.31C174.779 89.55 174.919 88.885 175.199 88.315C175.489 87.735 175.894 87.29 176.414 86.98C176.944 86.67 177.554 86.515 178.244 86.515C178.934 86.515 179.544 86.67 180.074 86.98C180.604 87.29 181.009 87.735 181.289 88.315C181.579 88.885 181.724 89.55 181.724 90.31C181.724 91.07 181.579 91.74 181.289 92.32C181.009 92.89 180.604 93.33 180.074 93.64C179.544 93.95 178.934 94.105 178.244 94.105ZM178.244 93.1C178.964 93.1 179.514 92.865 179.894 92.395C180.284 91.915 180.479 91.22 180.479 90.31C180.479 89.42 180.284 88.735 179.894 88.255C179.504 87.765 178.954 87.52 178.244 87.52C177.534 87.52 176.984 87.765 176.594 88.255C176.204 88.735 176.009 89.42 176.009 90.31C176.009 91.21 176.199 91.9 176.579 92.38C176.969 92.86 177.524 93.1 178.244 93.1ZM187.209 86.515C188.959 86.515 189.834 87.48 189.834 89.41V93.475C189.834 93.665 189.779 93.815 189.669 93.925C189.569 94.025 189.424 94.075 189.234 94.075C189.044 94.075 188.894 94.025 188.784 93.925C188.674 93.815 188.619 93.665 188.619 93.475V89.485C188.619 88.805 188.484 88.31 188.214 88C187.954 87.69 187.534 87.535 186.954 87.535C186.284 87.535 185.749 87.74 185.349 88.15C184.949 88.56 184.749 89.115 184.749 89.815V93.475C184.749 93.665 184.694 93.815 184.584 93.925C184.484 94.025 184.339 94.075 184.149 94.075C183.959 94.075 183.809 94.025 183.699 93.925C183.589 93.815 183.534 93.665 183.534 93.475V87.145C183.534 86.965 183.589 86.82 183.699 86.71C183.809 86.6 183.959 86.545 184.149 86.545C184.329 86.545 184.469 86.6 184.569 86.71C184.679 86.82 184.734 86.96 184.734 87.13V87.895C184.974 87.445 185.309 87.105 185.739 86.875C186.169 86.635 186.659 86.515 187.209 86.515ZM195.045 86.515C196.875 86.515 197.79 87.475 197.79 89.395V93.475C197.79 93.655 197.735 93.8 197.625 93.91C197.525 94.02 197.385 94.075 197.205 94.075C197.025 94.075 196.88 94.02 196.77 93.91C196.66 93.8 196.605 93.655 196.605 93.475V92.755C196.415 93.185 196.125 93.52 195.735 93.76C195.345 93.99 194.895 94.105 194.385 94.105C193.915 94.105 193.48 94.01 193.08 93.82C192.69 93.63 192.38 93.365 192.15 93.025C191.92 92.685 191.805 92.31 191.805 91.9C191.805 91.35 191.945 90.925 192.225 90.625C192.505 90.315 192.965 90.095 193.605 89.965C194.245 89.825 195.135 89.755 196.275 89.755H196.605V89.26C196.605 88.66 196.48 88.22 196.23 87.94C195.99 87.66 195.595 87.52 195.045 87.52C194.365 87.52 193.675 87.705 192.975 88.075C192.705 88.245 192.515 88.33 192.405 88.33C192.285 88.33 192.185 88.285 192.105 88.195C192.025 88.105 191.985 87.99 191.985 87.85C191.985 87.71 192.025 87.59 192.105 87.49C192.195 87.38 192.335 87.27 192.525 87.16C192.875 86.96 193.27 86.805 193.71 86.695C194.16 86.575 194.605 86.515 195.045 86.515ZM194.55 93.145C195.15 93.145 195.64 92.945 196.02 92.545C196.41 92.135 196.605 91.61 196.605 90.97V90.535H196.335C195.455 90.535 194.785 90.575 194.325 90.655C193.865 90.725 193.535 90.85 193.335 91.03C193.145 91.2 193.05 91.455 193.05 91.795C193.05 92.185 193.19 92.51 193.47 92.77C193.76 93.02 194.12 93.145 194.55 93.145ZM203.389 93.115C203.739 93.145 203.914 93.305 203.914 93.595C203.914 93.765 203.849 93.895 203.719 93.985C203.599 94.065 203.414 94.095 203.164 94.075L202.759 94.045C201.959 93.985 201.369 93.745 200.989 93.325C200.609 92.905 200.419 92.27 200.419 91.42V87.655H199.414C199.244 87.655 199.109 87.615 199.009 87.535C198.919 87.445 198.874 87.33 198.874 87.19C198.874 87.04 198.919 86.92 199.009 86.83C199.109 86.74 199.244 86.695 199.414 86.695H200.419V85C200.419 84.81 200.474 84.665 200.584 84.565C200.694 84.455 200.844 84.4 201.034 84.4C201.214 84.4 201.359 84.455 201.469 84.565C201.579 84.665 201.634 84.81 201.634 85V86.695H203.299C203.459 86.695 203.584 86.74 203.674 86.83C203.774 86.92 203.824 87.04 203.824 87.19C203.824 87.33 203.774 87.445 203.674 87.535C203.584 87.615 203.459 87.655 203.299 87.655H201.634V91.48C201.634 92.03 201.744 92.43 201.964 92.68C202.194 92.92 202.534 93.055 202.984 93.085L203.389 93.115ZM210.766 92.305C210.876 92.305 210.971 92.35 211.051 92.44C211.131 92.53 211.171 92.645 211.171 92.785C211.171 93.035 210.996 93.265 210.646 93.475C210.286 93.685 209.906 93.845 209.506 93.955C209.106 94.055 208.716 94.105 208.336 94.105C207.206 94.105 206.311 93.77 205.651 93.1C205.001 92.43 204.676 91.505 204.676 90.325C204.676 89.575 204.821 88.915 205.111 88.345C205.401 87.765 205.806 87.315 206.326 86.995C206.856 86.675 207.456 86.515 208.126 86.515C209.076 86.515 209.831 86.825 210.391 87.445C210.951 88.065 211.231 88.905 211.231 89.965C211.231 90.165 211.191 90.31 211.111 90.4C211.031 90.49 210.901 90.535 210.721 90.535H205.891C205.981 92.255 206.796 93.115 208.336 93.115C208.726 93.115 209.061 93.065 209.341 92.965C209.621 92.855 209.921 92.71 210.241 92.53C210.501 92.38 210.676 92.305 210.766 92.305ZM208.141 87.46C207.501 87.46 206.986 87.66 206.596 88.06C206.216 88.46 205.991 89.025 205.921 89.755H210.166C210.146 89.015 209.961 88.45 209.611 88.06C209.261 87.66 208.771 87.46 208.141 87.46Z" fill="white"/>
<path d="M67.465 84.35C67.655 84.35 67.8 84.41 67.9 84.53C68.01 84.64 68.065 84.79 68.065 84.98V94.445C68.065 94.635 68.01 94.79 67.9 94.91C67.8 95.02 67.655 95.075 67.465 95.075C67.275 95.075 67.125 95.02 67.015 94.91C66.905 94.79 66.85 94.635 66.85 94.445V90.155H60.52V94.445C60.52 94.635 60.465 94.79 60.355 94.91C60.245 95.02 60.095 95.075 59.905 95.075C59.715 95.075 59.565 95.02 59.455 94.91C59.355 94.79 59.305 94.635 59.305 94.445V84.98C59.305 84.79 59.355 84.64 59.455 84.53C59.565 84.41 59.715 84.35 59.905 84.35C60.095 84.35 60.245 84.41 60.355 84.53C60.465 84.64 60.52 84.79 60.52 84.98V89.105H66.85V84.98C66.85 84.79 66.905 84.64 67.015 84.53C67.125 84.41 67.275 84.35 67.465 84.35ZM73.5222 95.105C72.8322 95.105 72.2222 94.95 71.6922 94.64C71.1722 94.33 70.7672 93.89 70.4772 93.32C70.1972 92.74 70.0572 92.07 70.0572 91.31C70.0572 90.55 70.1972 89.885 70.4772 89.315C70.7672 88.735 71.1722 88.29 71.6922 87.98C72.2222 87.67 72.8322 87.515 73.5222 87.515C74.2122 87.515 74.8222 87.67 75.3522 87.98C75.8822 88.29 76.2872 88.735 76.5672 89.315C76.8572 89.885 77.0022 90.55 77.0022 91.31C77.0022 92.07 76.8572 92.74 76.5672 93.32C76.2872 93.89 75.8822 94.33 75.3522 94.64C74.8222 94.95 74.2122 95.105 73.5222 95.105ZM73.5222 94.1C74.2422 94.1 74.7922 93.865 75.1722 93.395C75.5622 92.915 75.7572 92.22 75.7572 91.31C75.7572 90.42 75.5622 89.735 75.1722 89.255C74.7822 88.765 74.2322 88.52 73.5222 88.52C72.8122 88.52 72.2622 88.765 71.8722 89.255C71.4822 89.735 71.2872 90.42 71.2872 91.31C71.2872 92.21 71.4772 92.9 71.8572 93.38C72.2472 93.86 72.8022 94.1 73.5222 94.1ZM86.9425 87.515C88.5625 87.515 89.3725 88.48 89.3725 90.41V94.475C89.3725 94.665 89.3175 94.815 89.2075 94.925C89.0975 95.025 88.9525 95.075 88.7725 95.075C88.5925 95.075 88.4425 95.025 88.3225 94.925C88.2125 94.815 88.1575 94.665 88.1575 94.475V90.44C88.1575 89.77 88.0375 89.285 87.7975 88.985C87.5575 88.685 87.1825 88.535 86.6725 88.535C86.0625 88.535 85.5825 88.74 85.2325 89.15C84.8825 89.56 84.7075 90.115 84.7075 90.815V94.475C84.7075 94.665 84.6475 94.815 84.5275 94.925C84.4175 95.025 84.2725 95.075 84.0925 95.075C83.9125 95.075 83.7675 95.025 83.6575 94.925C83.5475 94.815 83.4925 94.665 83.4925 94.475V90.44C83.4925 89.77 83.3725 89.285 83.1325 88.985C82.8925 88.685 82.5125 88.535 81.9925 88.535C81.3925 88.535 80.9125 88.74 80.5525 89.15C80.2025 89.56 80.0275 90.115 80.0275 90.815V94.475C80.0275 94.665 79.9725 94.815 79.8625 94.925C79.7525 95.025 79.6075 95.075 79.4275 95.075C79.2475 95.075 79.0975 95.025 78.9775 94.925C78.8675 94.815 78.8125 94.665 78.8125 94.475V88.145C78.8125 87.965 78.8675 87.82 78.9775 87.71C79.0975 87.6 79.2475 87.545 79.4275 87.545C79.5975 87.545 79.7375 87.6 79.8475 87.71C79.9575 87.81 80.0125 87.95 80.0125 88.13V88.85C80.2325 88.42 80.5375 88.09 80.9275 87.86C81.3175 87.63 81.7675 87.515 82.2775 87.515C83.4175 87.515 84.1625 87.995 84.5125 88.955C84.7225 88.515 85.0425 88.165 85.4725 87.905C85.9025 87.645 86.3925 87.515 86.9425 87.515ZM97.2409 93.305C97.3509 93.305 97.4459 93.35 97.5259 93.44C97.6059 93.53 97.6459 93.645 97.6459 93.785C97.6459 94.035 97.4709 94.265 97.1209 94.475C96.7609 94.685 96.3809 94.845 95.9809 94.955C95.5809 95.055 95.1909 95.105 94.8109 95.105C93.6809 95.105 92.7859 94.77 92.1259 94.1C91.4759 93.43 91.1509 92.505 91.1509 91.325C91.1509 90.575 91.2959 89.915 91.5859 89.345C91.8759 88.765 92.2809 88.315 92.8009 87.995C93.3309 87.675 93.9309 87.515 94.6009 87.515C95.5509 87.515 96.3059 87.825 96.8659 88.445C97.4259 89.065 97.7059 89.905 97.7059 90.965C97.7059 91.165 97.6659 91.31 97.5859 91.4C97.5059 91.49 97.3759 91.535 97.1959 91.535H92.3659C92.4559 93.255 93.2709 94.115 94.8109 94.115C95.2009 94.115 95.5359 94.065 95.8159 93.965C96.0959 93.855 96.3959 93.71 96.7159 93.53C96.9759 93.38 97.1509 93.305 97.2409 93.305ZM94.6159 88.46C93.9759 88.46 93.4609 88.66 93.0709 89.06C92.6909 89.46 92.4659 90.025 92.3959 90.755H96.6409C96.6209 90.015 96.4359 89.45 96.0859 89.06C95.7359 88.66 95.2459 88.46 94.6159 88.46Z" fill="white"/>
<path d="M289.92 72.075C289.73 72.075 289.58 72.02 289.47 71.91C289.36 71.79 289.305 71.635 289.305 71.445V61.98C289.305 61.79 289.36 61.64 289.47 61.53C289.58 61.41 289.73 61.35 289.92 61.35C290.11 61.35 290.26 61.41 290.37 61.53C290.48 61.64 290.535 61.79 290.535 61.98V71.445C290.535 71.635 290.48 71.79 290.37 71.91C290.26 72.02 290.11 72.075 289.92 72.075ZM296.638 64.515C298.388 64.515 299.263 65.48 299.263 67.41V71.475C299.263 71.665 299.208 71.815 299.098 71.925C298.998 72.025 298.853 72.075 298.663 72.075C298.473 72.075 298.323 72.025 298.213 71.925C298.103 71.815 298.048 71.665 298.048 71.475V67.485C298.048 66.805 297.913 66.31 297.643 66C297.383 65.69 296.963 65.535 296.383 65.535C295.713 65.535 295.178 65.74 294.778 66.15C294.378 66.56 294.178 67.115 294.178 67.815V71.475C294.178 71.665 294.123 71.815 294.013 71.925C293.913 72.025 293.768 72.075 293.578 72.075C293.388 72.075 293.238 72.025 293.128 71.925C293.018 71.815 292.963 71.665 292.963 71.475V65.145C292.963 64.965 293.018 64.82 293.128 64.71C293.238 64.6 293.388 64.545 293.578 64.545C293.758 64.545 293.898 64.6 293.998 64.71C294.108 64.82 294.163 64.96 294.163 65.13V65.895C294.403 65.445 294.738 65.105 295.168 64.875C295.598 64.635 296.088 64.515 296.638 64.515ZM303.948 72.105C303.488 72.105 303.048 72.05 302.628 71.94C302.218 71.83 301.853 71.675 301.533 71.475C301.353 71.355 301.223 71.245 301.143 71.145C301.073 71.035 301.038 70.905 301.038 70.755C301.038 70.625 301.073 70.52 301.143 70.44C301.223 70.35 301.323 70.305 301.443 70.305C301.563 70.305 301.738 70.38 301.968 70.53C302.268 70.71 302.563 70.855 302.853 70.965C303.153 71.065 303.523 71.115 303.963 71.115C304.503 71.115 304.923 71.02 305.223 70.83C305.523 70.64 305.673 70.365 305.673 70.005C305.673 69.785 305.618 69.61 305.508 69.48C305.398 69.34 305.208 69.22 304.938 69.12C304.668 69.01 304.273 68.9 303.753 68.79C302.873 68.6 302.243 68.345 301.863 68.025C301.483 67.705 301.293 67.27 301.293 66.72C301.293 66.29 301.413 65.91 301.653 65.58C301.893 65.25 302.223 64.99 302.643 64.8C303.073 64.61 303.558 64.515 304.098 64.515C304.488 64.515 304.863 64.57 305.223 64.68C305.593 64.78 305.918 64.925 306.198 65.115C306.538 65.355 306.708 65.605 306.708 65.865C306.708 65.995 306.668 66.105 306.588 66.195C306.508 66.285 306.413 66.33 306.303 66.33C306.183 66.33 306.003 66.245 305.763 66.075C305.483 65.895 305.218 65.755 304.968 65.655C304.718 65.555 304.408 65.505 304.038 65.505C303.568 65.505 303.188 65.61 302.898 65.82C302.618 66.03 302.478 66.31 302.478 66.66C302.478 66.88 302.528 67.06 302.628 67.2C302.738 67.33 302.913 67.45 303.153 67.56C303.403 67.66 303.758 67.76 304.218 67.86C304.898 68.01 305.423 68.175 305.793 68.355C306.173 68.535 306.443 68.755 306.603 69.015C306.763 69.275 306.843 69.605 306.843 70.005C306.843 70.635 306.578 71.145 306.048 71.535C305.518 71.915 304.818 72.105 303.948 72.105ZM309.31 72.075C309.13 72.075 308.98 72.025 308.86 71.925C308.75 71.815 308.695 71.665 308.695 71.475V65.145C308.695 64.955 308.75 64.81 308.86 64.71C308.98 64.6 309.13 64.545 309.31 64.545C309.49 64.545 309.635 64.6 309.745 64.71C309.855 64.81 309.91 64.955 309.91 65.145V71.475C309.91 71.675 309.855 71.825 309.745 71.925C309.635 72.025 309.49 72.075 309.31 72.075ZM309.31 62.97C309.07 62.97 308.875 62.9 308.725 62.76C308.575 62.62 308.5 62.435 308.5 62.205C308.5 61.985 308.575 61.805 308.725 61.665C308.875 61.525 309.07 61.455 309.31 61.455C309.55 61.455 309.745 61.525 309.895 61.665C310.045 61.805 310.12 61.985 310.12 62.205C310.12 62.435 310.045 62.62 309.895 62.76C309.745 62.9 309.55 62.97 309.31 62.97ZM318.107 64.545C318.297 64.545 318.447 64.6 318.557 64.71C318.667 64.82 318.722 64.965 318.722 65.145V71.505C318.722 72.595 318.442 73.415 317.882 73.965C317.322 74.525 316.492 74.805 315.392 74.805C314.322 74.805 313.432 74.595 312.722 74.175C312.362 73.975 312.182 73.745 312.182 73.485C312.182 73.345 312.217 73.23 312.287 73.14C312.367 73.05 312.467 73.005 312.587 73.005C312.687 73.005 312.867 73.075 313.127 73.215C313.477 73.395 313.822 73.54 314.162 73.65C314.502 73.76 314.907 73.815 315.377 73.815C316.087 73.815 316.622 73.625 316.982 73.245C317.342 72.875 317.522 72.33 317.522 71.61V70.32C317.312 70.79 316.987 71.15 316.547 71.4C316.117 71.65 315.607 71.775 315.017 71.775C314.377 71.775 313.807 71.625 313.307 71.325C312.817 71.025 312.432 70.6 312.152 70.05C311.882 69.5 311.747 68.865 311.747 68.145C311.747 67.425 311.882 66.79 312.152 66.24C312.432 65.69 312.817 65.265 313.307 64.965C313.807 64.665 314.377 64.515 315.017 64.515C315.597 64.515 316.102 64.64 316.532 64.89C316.962 65.14 317.287 65.495 317.507 65.955V65.145C317.507 64.965 317.557 64.82 317.657 64.71C317.767 64.6 317.917 64.545 318.107 64.545ZM315.257 70.77C315.957 70.77 316.507 70.54 316.907 70.08C317.307 69.61 317.507 68.965 317.507 68.145C317.507 67.335 317.307 66.7 316.907 66.24C316.517 65.77 315.967 65.535 315.257 65.535C314.547 65.535 313.987 65.77 313.577 66.24C313.177 66.7 312.977 67.335 312.977 68.145C312.977 68.965 313.177 69.61 313.577 70.08C313.987 70.54 314.547 70.77 315.257 70.77ZM324.661 64.515C325.521 64.515 326.171 64.76 326.611 65.25C327.051 65.73 327.271 66.45 327.271 67.41V71.475C327.271 71.665 327.216 71.815 327.106 71.925C326.996 72.025 326.851 72.075 326.671 72.075C326.481 72.075 326.331 72.025 326.221 71.925C326.111 71.815 326.056 71.665 326.056 71.475V67.44C326.056 66.79 325.921 66.31 325.651 66C325.391 65.69 324.971 65.535 324.391 65.535C323.721 65.535 323.186 65.74 322.786 66.15C322.386 66.56 322.186 67.115 322.186 67.815V71.475C322.186 71.665 322.131 71.815 322.021 71.925C321.921 72.025 321.776 72.075 321.586 72.075C321.396 72.075 321.246 72.025 321.136 71.925C321.026 71.815 320.971 71.665 320.971 71.475V61.935C320.971 61.765 321.026 61.625 321.136 61.515C321.256 61.405 321.406 61.35 321.586 61.35C321.776 61.35 321.921 61.405 322.021 61.515C322.131 61.615 322.186 61.755 322.186 61.935V65.865C322.426 65.425 322.761 65.09 323.191 64.86C323.621 64.63 324.111 64.515 324.661 64.515ZM332.871 71.115C333.221 71.145 333.396 71.305 333.396 71.595C333.396 71.765 333.331 71.895 333.201 71.985C333.081 72.065 332.896 72.095 332.646 72.075L332.241 72.045C331.441 71.985 330.851 71.745 330.471 71.325C330.091 70.905 329.901 70.27 329.901 69.42V65.655H328.896C328.726 65.655 328.591 65.615 328.491 65.535C328.401 65.445 328.356 65.33 328.356 65.19C328.356 65.04 328.401 64.92 328.491 64.83C328.591 64.74 328.726 64.695 328.896 64.695H329.901V63C329.901 62.81 329.956 62.665 330.066 62.565C330.176 62.455 330.326 62.4 330.516 62.4C330.696 62.4 330.841 62.455 330.951 62.565C331.061 62.665 331.116 62.81 331.116 63V64.695H332.781C332.941 64.695 333.066 64.74 333.156 64.83C333.256 64.92 333.306 65.04 333.306 65.19C333.306 65.33 333.256 65.445 333.156 65.535C333.066 65.615 332.941 65.655 332.781 65.655H331.116V69.48C331.116 70.03 331.226 70.43 331.446 70.68C331.676 70.92 332.016 71.055 332.466 71.085L332.871 71.115Z" fill="white"/>
<defs>
<linearGradient id="paint0_linear" x1="78" y1="33" x2="78" y2="77" gradientUnits="userSpaceOnUse">
<stop stop-color="white"/>
<stop offset="1" stop-color="white" stop-opacity="0"/>
</linearGradient>
</defs>
</svg>
