<svg width="375" height="105" viewBox="0 0 375 105" fill="none" xmlns="http://www.w3.org/2000/svg">
<rect x="-1" y="21" width="376" height="133" rx="40" fill="#EC6D5F"/>
<circle cx="188" cy="62" r="62" fill="#EC6D5F"/>
<path d="M208.414 17.2472C205.977 14.5083 202.599 13 198.901 13C194.775 13 191.198 14.9512 188.557 18.6426C188.359 18.9193 188.174 19.1961 188 19.4701C187.827 19.196 187.641 18.9193 187.443 18.6426C184.802 14.9512 181.225 13 177.099 13C173.401 13 170.023 14.5083 167.586 17.2471C165.274 19.8462 164 23.3208 164 27.0309C164 31.0628 165.565 34.7831 168.923 38.7395C171.854 42.1913 176.058 45.7394 180.925 49.8479C182.724 51.3662 184.584 52.936 186.561 54.6492C186.974 55.007 187.487 55.186 188 55.186C188.513 55.186 189.026 55.007 189.439 54.6492C191.415 52.9365 193.275 51.3666 195.074 49.8486C198.2 47.2099 200.9 44.9312 203.242 42.721C207.791 38.4294 212 33.5583 212 27.0311C212 23.3208 210.726 19.8463 208.414 17.2472ZM200.227 39.5245C197.973 41.6514 195.316 43.8938 192.239 46.4903C190.871 47.6452 189.467 48.8299 188 50.0881C186.532 48.83 185.128 47.6451 183.76 46.4898C174.178 38.4026 168.394 33.5211 168.394 27.0311C168.394 21.5374 172.136 17.3946 177.098 17.3946C179.75 17.3946 182.004 18.6426 183.8 21.1038C185.273 23.1236 185.878 25.2176 185.882 25.2316C186.146 26.1835 187.012 26.8425 188 26.8425C188.987 26.8425 189.854 26.1835 190.117 25.2316C190.139 25.1533 192.363 17.3946 198.901 17.3946C203.864 17.3946 207.606 21.5375 207.606 27.0311C207.606 31.0116 205.537 34.5144 200.227 39.5245Z" fill="white"/>
<mask id="path-4-inside-1" fill="white">
<path d="M98.8184 52.1379L98.815 52.1345L80.8647 34.1867C80.0996 33.4213 79.0823 33 78.0003 33C76.9182 33 75.9009 33.4213 75.1355 34.1867L57.1946 52.1255C57.1885 52.1315 57.1821 52.1379 57.1764 52.1439C55.6052 53.724 55.6079 56.2877 57.1842 57.8638C57.9043 58.5842 58.8551 59.0011 59.872 59.0451C59.9136 59.0491 59.9552 59.0511 59.9972 59.0511H60.7123V72.2593C60.7123 74.8734 62.8395 77 65.4538 77H72.4765C73.1886 77 73.7657 76.4226 73.7657 75.7109V65.3555C73.7657 64.1628 74.7363 63.1926 75.9292 63.1926H80.0714C81.2642 63.1926 82.2344 64.1628 82.2344 65.3555V75.7109C82.2344 76.4226 82.8116 77 83.5236 77H90.5464C93.161 77 95.2879 74.8734 95.2879 72.2593V59.0511H95.9513C97.033 59.0511 98.0502 58.6299 98.816 57.8641C100.394 56.2857 100.395 53.7173 98.8184 52.1379ZM96.9927 56.0413C96.7144 56.3196 96.3444 56.473 95.9513 56.473H93.9987C93.2866 56.473 92.7095 57.0501 92.7095 57.7621V72.2593C92.7095 73.4517 91.7392 74.4219 90.5464 74.4219H84.8128V65.3555C84.8128 62.7414 82.686 60.6145 80.0714 60.6145H75.9292C73.3145 60.6145 71.1873 62.7414 71.1873 65.3555V74.4219H65.4538C64.2613 74.4219 63.2907 73.4517 63.2907 72.2593V57.7621C63.2907 57.0501 62.7136 56.473 62.0015 56.473H60.0825C60.0623 56.4717 60.0425 56.4707 60.0221 56.4703C59.638 56.4636 59.2778 56.3112 59.0078 56.041C58.4337 55.4669 58.4337 54.5327 59.0078 53.9583L59.0095 53.9567L76.9592 36.0095C77.2371 35.7312 77.6068 35.5781 78.0003 35.5781C78.3934 35.5781 78.763 35.7312 79.0413 36.0095L96.987 53.953C96.9897 53.9557 96.9927 53.9583 96.9954 53.961C97.5664 54.5361 97.5654 55.4683 96.9927 56.0413Z"/>
</mask>
<path d="M98.8184 52.1379L98.815 52.1345L80.8647 34.1867C80.0996 33.4213 79.0823 33 78.0003 33C76.9182 33 75.9009 33.4213 75.1355 34.1867L57.1946 52.1255C57.1885 52.1315 57.1821 52.1379 57.1764 52.1439C55.6052 53.724 55.6079 56.2877 57.1842 57.8638C57.9043 58.5842 58.8551 59.0011 59.872 59.0451C59.9136 59.0491 59.9552 59.0511 59.9972 59.0511H60.7123V72.2593C60.7123 74.8734 62.8395 77 65.4538 77H72.4765C73.1886 77 73.7657 76.4226 73.7657 75.7109V65.3555C73.7657 64.1628 74.7363 63.1926 75.9292 63.1926H80.0714C81.2642 63.1926 82.2344 64.1628 82.2344 65.3555V75.7109C82.2344 76.4226 82.8116 77 83.5236 77H90.5464C93.161 77 95.2879 74.8734 95.2879 72.2593V59.0511H95.9513C97.033 59.0511 98.0502 58.6299 98.816 57.8641C100.394 56.2857 100.395 53.7173 98.8184 52.1379ZM96.9927 56.0413C96.7144 56.3196 96.3444 56.473 95.9513 56.473H93.9987C93.2866 56.473 92.7095 57.0501 92.7095 57.7621V72.2593C92.7095 73.4517 91.7392 74.4219 90.5464 74.4219H84.8128V65.3555C84.8128 62.7414 82.686 60.6145 80.0714 60.6145H75.9292C73.3145 60.6145 71.1873 62.7414 71.1873 65.3555V74.4219H65.4538C64.2613 74.4219 63.2907 73.4517 63.2907 72.2593V57.7621C63.2907 57.0501 62.7136 56.473 62.0015 56.473H60.0825C60.0623 56.4717 60.0425 56.4707 60.0221 56.4703C59.638 56.4636 59.2778 56.3112 59.0078 56.041C58.4337 55.4669 58.4337 54.5327 59.0078 53.9583L59.0095 53.9567L76.9592 36.0095C77.2371 35.7312 77.6068 35.5781 78.0003 35.5781C78.3934 35.5781 78.763 35.7312 79.0413 36.0095L96.987 53.953C96.9897 53.9557 96.9927 53.9583 96.9954 53.961C97.5664 54.5361 97.5654 55.4683 96.9927 56.0413Z" fill="white"/>
<path d="M98.8184 52.1379L105.897 45.074L105.889 45.0668L98.8184 52.1379ZM98.815 52.1345L105.886 45.0635L105.886 45.063L98.815 52.1345ZM80.8647 34.1867L73.7924 41.2565L73.7941 41.2582L80.8647 34.1867ZM75.1355 34.1867L82.2061 41.2582L82.2062 41.2581L75.1355 34.1867ZM57.1946 52.1255L50.1239 45.054L50.1239 45.054L57.1946 52.1255ZM57.1764 52.1439L64.2675 59.195L64.358 59.1039L64.4463 59.0105L57.1764 52.1439ZM57.1842 57.8638L64.2565 50.794L64.2549 50.7924L57.1842 57.8638ZM59.872 59.0451L60.8352 49.0916L60.5701 49.0659L60.304 49.0544L59.872 59.0451ZM60.7123 59.0511H70.7123V49.0511H60.7123V59.0511ZM95.2879 59.0511V49.0511H85.2879V59.0511H95.2879ZM98.816 57.8641L105.887 64.9356L105.888 64.9341L98.816 57.8641ZM96.9927 56.0413L104.063 63.1127L104.065 63.1107L96.9927 56.0413ZM84.8128 74.4219H74.8128V84.4219H84.8128V74.4219ZM71.1873 74.4219V84.4219H81.1873V74.4219H71.1873ZM60.0825 56.473L59.4174 66.4509L59.7496 66.473H60.0825V56.473ZM60.0221 56.4703L59.8473 66.4688L59.8582 66.469L60.0221 56.4703ZM59.0078 56.041L66.0829 48.974L66.0785 48.9696L59.0078 56.041ZM59.0078 53.9583L51.9373 46.8868L51.935 46.889L59.0078 53.9583ZM59.0095 53.9567L66.0801 61.0282L66.0801 61.0282L59.0095 53.9567ZM76.9592 36.0095L84.0297 43.081L84.0341 43.0766L76.9592 36.0095ZM79.0413 36.0095L71.9706 43.0809L71.9707 43.081L79.0413 36.0095ZM96.987 53.953L104.058 46.8815L104.058 46.8815L96.987 53.953ZM96.9954 53.961L104.091 46.9145L104.079 46.902L104.066 46.8896L96.9954 53.961ZM105.889 45.0668L105.886 45.0635L91.7439 59.2056L91.7473 59.2089L105.889 45.0668ZM105.886 45.063L87.9353 27.1151L73.7941 41.2582L91.7444 59.2061L105.886 45.063ZM87.9369 27.1168C85.2958 24.4748 81.7342 23 78.0003 23V43C76.4304 43 74.9033 42.3678 73.7924 41.2565L87.9369 27.1168ZM78.0003 23C74.2659 23 70.7053 24.475 68.0648 27.1153L82.2062 41.2581C81.0966 42.3676 79.5705 43 78.0003 43V23ZM68.0648 27.1152L50.1239 45.054L64.2652 59.1969L82.2061 41.2582L68.0648 27.1152ZM50.1239 45.054C50.1233 45.0546 50.1158 45.0621 50.1073 45.0706C50.0982 45.0798 50.0839 45.0941 50.0668 45.1115C50.0348 45.1439 49.977 45.2028 49.9066 45.2774L64.4463 59.0105C64.3816 59.079 64.3298 59.1317 64.304 59.1579C64.2792 59.183 64.2582 59.2039 64.2653 59.1969L50.1239 45.054ZM50.0854 45.0929C44.6301 50.5791 44.637 59.4593 50.1134 64.9352L64.2549 50.7924C66.5788 53.1161 66.5804 56.8689 64.2675 59.195L50.0854 45.0929ZM50.1118 64.9336C52.6071 67.4298 55.9295 68.884 59.44 69.0358L60.304 49.0544C61.7806 49.1183 63.2015 49.7386 64.2565 50.794L50.1118 64.9336ZM58.9088 68.9986C59.2704 69.0336 59.6334 69.0511 59.9972 69.0511V49.0511C60.277 49.0511 60.5568 49.0647 60.8352 49.0916L58.9088 68.9986ZM59.9972 69.0511H60.7123V49.0511H59.9972V69.0511ZM50.7123 59.0511V72.2593H70.7123V59.0511H50.7123ZM50.7123 72.2593C50.7123 80.3981 57.3185 87 65.4538 87V67C68.3605 67 70.7123 69.3487 70.7123 72.2593H50.7123ZM65.4538 87H72.4765V67H65.4538V87ZM72.4765 87C78.7122 87 83.7657 81.9447 83.7657 75.7109H63.7657C63.7657 70.9005 67.665 67 72.4765 67V87ZM83.7657 75.7109V65.3555H63.7657V75.7109H83.7657ZM83.7657 65.3555C83.7657 69.6886 80.2562 73.1926 75.9292 73.1926V53.1926C69.2164 53.1926 63.7657 58.6369 63.7657 65.3555H83.7657ZM75.9292 73.1926H80.0714V53.1926H75.9292V73.1926ZM80.0714 73.1926C75.7423 73.1926 72.2344 69.6866 72.2344 65.3555H92.2344C92.2344 58.639 86.7861 53.1926 80.0714 53.1926V73.1926ZM72.2344 65.3555V75.7109H92.2344V65.3555H72.2344ZM72.2344 75.7109C72.2344 81.9447 77.288 87 83.5236 87V67C88.3351 67 92.2344 70.9005 92.2344 75.7109H72.2344ZM83.5236 87H90.5464V67H83.5236V87ZM90.5464 87C98.6825 87 105.288 80.3976 105.288 72.2593H85.2879C85.2879 69.3491 87.6396 67 90.5464 67V87ZM105.288 72.2593V59.0511H85.2879V72.2593H105.288ZM95.2879 69.0511H95.9513V49.0511H95.2879V69.0511ZM95.9513 69.0511C99.6864 69.0511 103.247 67.5754 105.887 64.9356L91.7453 50.7927C92.8539 49.6843 94.3796 49.0511 95.9513 49.0511V69.0511ZM105.888 64.9341C111.368 59.4522 111.37 50.5585 105.897 45.074L91.7401 59.2018C89.4192 56.8761 89.4195 53.1192 91.7438 50.7942L105.888 64.9341ZM89.922 48.9699C91.5157 47.3764 93.6877 46.473 95.9513 46.473V66.473C99.0011 66.473 101.913 65.2629 104.063 63.1127L89.922 48.9699ZM95.9513 46.473H93.9987V66.473H95.9513V46.473ZM93.9987 46.473C87.7647 46.473 82.7095 51.5263 82.7095 57.7621H102.709C102.709 62.5739 98.8085 66.473 93.9987 66.473V46.473ZM82.7095 57.7621V72.2593H102.709V57.7621H82.7095ZM82.7095 72.2593C82.7095 67.9269 86.2183 64.4219 90.5464 64.4219V84.4219C97.2601 84.4219 102.709 78.9765 102.709 72.2593H82.7095ZM90.5464 64.4219H84.8128V84.4219H90.5464V64.4219ZM94.8128 74.4219V65.3555H74.8128V74.4219H94.8128ZM94.8128 65.3555C94.8128 57.2181 88.2084 50.6145 80.0714 50.6145V70.6145C77.1636 70.6145 74.8128 68.2648 74.8128 65.3555H94.8128ZM80.0714 50.6145H75.9292V70.6145H80.0714V50.6145ZM75.9292 50.6145C67.7931 50.6145 61.1873 57.2172 61.1873 65.3555H81.1873C81.1873 68.2657 78.8359 70.6145 75.9292 70.6145V50.6145ZM61.1873 65.3555V74.4219H81.1873V65.3555H61.1873ZM71.1873 64.4219H65.4538V84.4219H71.1873V64.4219ZM65.4538 64.4219C69.7812 64.4219 73.2907 67.9259 73.2907 72.2593H53.2907C53.2907 78.9775 58.7414 84.4219 65.4538 84.4219V64.4219ZM73.2907 72.2593V57.7621H53.2907V72.2593H73.2907ZM73.2907 57.7621C73.2907 51.5263 68.2355 46.473 62.0015 46.473V66.473C57.1917 66.473 53.2907 62.5739 53.2907 57.7621H73.2907ZM62.0015 46.473H60.0825V66.473H62.0015V46.473ZM60.7476 46.4952C60.626 46.4871 60.4284 46.4757 60.1859 46.4717L59.8582 66.469C59.6567 66.4657 59.4986 66.4563 59.4174 66.4509L60.7476 46.4952ZM60.1968 46.4719C62.3869 46.5101 64.5065 47.3957 66.0829 48.974L51.9327 63.108C54.049 65.2268 56.8891 66.4171 59.8473 66.4688L60.1968 46.4719ZM66.0785 48.9696C69.4113 52.302 69.4083 57.6984 66.0806 61.0277L51.935 46.889C47.4591 51.3671 47.4562 58.6319 51.9371 63.1124L66.0785 48.9696ZM66.0784 61.0299L66.0801 61.0282L51.939 46.8851L51.9373 46.8868L66.0784 61.0299ZM66.0801 61.0282L84.0297 43.081L69.8886 28.9379L51.9389 46.8851L66.0801 61.0282ZM84.0341 43.0766C82.4342 44.6783 80.2577 45.5781 78.0003 45.5781V25.5781C74.9558 25.5781 72.0401 26.7841 69.8842 28.9423L84.0341 43.0766ZM78.0003 45.5781C75.7402 45.5781 73.5668 44.6769 71.9706 43.0809L86.1121 28.9381C83.9593 26.7855 81.0466 25.5781 78.0003 25.5781V45.5781ZM71.9707 43.081L89.9163 61.0245L104.058 46.8815L86.112 28.938L71.9707 43.081ZM89.9163 61.0244C89.9535 61.0616 89.9866 61.0941 90.0142 61.121C90.0417 61.1478 90.0654 61.1705 90.0836 61.1878C90.1016 61.2051 90.1163 61.219 90.1253 61.2275C90.1299 61.2318 90.1336 61.2353 90.1359 61.2375C90.1371 61.2386 90.1381 61.2395 90.1387 61.2401C90.1393 61.2407 90.1398 61.2412 90.1398 61.2412C90.1403 61.2416 90.1388 61.2402 90.137 61.2385C90.135 61.2367 90.1316 61.2335 90.1274 61.2295C90.1192 61.2217 90.1052 61.2084 90.0878 61.1919C90.0703 61.1752 90.0474 61.1531 90.0205 61.127C89.9936 61.1009 89.9612 61.069 89.9247 61.0325L104.066 46.8896C104.029 46.8524 103.996 46.8199 103.968 46.793C103.941 46.7663 103.917 46.7435 103.899 46.7262C103.881 46.7089 103.866 46.695 103.857 46.6865C103.852 46.6822 103.849 46.6787 103.846 46.6765C103.845 46.6754 103.844 46.6745 103.844 46.6739C103.843 46.6733 103.843 46.6728 103.843 46.6728C103.842 46.6724 103.844 46.6738 103.845 46.6755C103.847 46.6774 103.851 46.6805 103.855 46.6845C103.863 46.6923 103.877 46.7056 103.895 46.7221C103.912 46.7388 103.935 46.7609 103.962 46.787C103.989 46.8131 104.021 46.845 104.058 46.8815L89.9163 61.0244ZM89.8998 61.0076C86.5945 57.6792 86.5935 52.3 89.9199 48.972L104.065 63.1107C108.537 58.6366 108.538 51.3929 104.091 46.9145L89.8998 61.0076Z" fill="url(#paint0_linear)" mask="url(#path-4-inside-1)"/>
<path d="M316.968 33C303.532 33 294.77 47.2819 300.918 59.2481L289.624 70.5434C287.459 72.7089 287.458 76.2141 289.624 78.3795C291.784 80.54 295.299 80.5403 297.46 78.3795C297.956 77.884 308.256 67.5826 308.754 67.0846C320.702 73.2246 335 64.4892 335 51.0334C335 41.0896 326.911 33 316.968 33V33ZM295.513 76.4324C294.426 77.5189 292.658 77.5189 291.571 76.4324C290.482 75.3431 290.482 73.5799 291.571 72.4905L296.853 67.209L300.794 71.1505L295.513 76.4324ZM302.741 69.2031L298.8 65.2616L302.406 61.6553C303.509 63.1631 304.839 64.4942 306.347 65.5968L302.741 69.2031ZM316.968 66.3125C308.543 66.3125 301.69 59.4583 301.69 51.0334C301.69 42.6082 308.544 35.7539 316.968 35.7539C325.392 35.7539 332.246 42.6082 332.246 51.0334C332.246 59.4583 325.393 66.3125 316.968 66.3125Z" fill="white"/>
<path d="M164.935 72C164.745 72 164.59 71.945 164.47 71.835C164.36 71.725 164.305 71.58 164.305 71.4V62.025C164.305 61.845 164.36 61.7 164.47 61.59C164.59 61.48 164.745 61.425 164.935 61.425H167.86C169.55 61.425 170.855 61.885 171.775 62.805C172.705 63.715 173.17 65.015 173.17 66.705C173.17 68.395 172.705 69.7 171.775 70.62C170.845 71.54 169.54 72 167.86 72H164.935ZM167.785 70.95C170.525 70.95 171.895 69.535 171.895 66.705C171.895 63.885 170.525 62.475 167.785 62.475H165.535V70.95H167.785ZM178.244 72.105C177.554 72.105 176.944 71.95 176.414 71.64C175.894 71.33 175.489 70.89 175.199 70.32C174.919 69.74 174.779 69.07 174.779 68.31C174.779 67.55 174.919 66.885 175.199 66.315C175.489 65.735 175.894 65.29 176.414 64.98C176.944 64.67 177.554 64.515 178.244 64.515C178.934 64.515 179.544 64.67 180.074 64.98C180.604 65.29 181.009 65.735 181.289 66.315C181.579 66.885 181.724 67.55 181.724 68.31C181.724 69.07 181.579 69.74 181.289 70.32C181.009 70.89 180.604 71.33 180.074 71.64C179.544 71.95 178.934 72.105 178.244 72.105ZM178.244 71.1C178.964 71.1 179.514 70.865 179.894 70.395C180.284 69.915 180.479 69.22 180.479 68.31C180.479 67.42 180.284 66.735 179.894 66.255C179.504 65.765 178.954 65.52 178.244 65.52C177.534 65.52 176.984 65.765 176.594 66.255C176.204 66.735 176.009 67.42 176.009 68.31C176.009 69.21 176.199 69.9 176.579 70.38C176.969 70.86 177.524 71.1 178.244 71.1ZM187.209 64.515C188.959 64.515 189.834 65.48 189.834 67.41V71.475C189.834 71.665 189.779 71.815 189.669 71.925C189.569 72.025 189.424 72.075 189.234 72.075C189.044 72.075 188.894 72.025 188.784 71.925C188.674 71.815 188.619 71.665 188.619 71.475V67.485C188.619 66.805 188.484 66.31 188.214 66C187.954 65.69 187.534 65.535 186.954 65.535C186.284 65.535 185.749 65.74 185.349 66.15C184.949 66.56 184.749 67.115 184.749 67.815V71.475C184.749 71.665 184.694 71.815 184.584 71.925C184.484 72.025 184.339 72.075 184.149 72.075C183.959 72.075 183.809 72.025 183.699 71.925C183.589 71.815 183.534 71.665 183.534 71.475V65.145C183.534 64.965 183.589 64.82 183.699 64.71C183.809 64.6 183.959 64.545 184.149 64.545C184.329 64.545 184.469 64.6 184.569 64.71C184.679 64.82 184.734 64.96 184.734 65.13V65.895C184.974 65.445 185.309 65.105 185.739 64.875C186.169 64.635 186.659 64.515 187.209 64.515ZM195.045 64.515C196.875 64.515 197.79 65.475 197.79 67.395V71.475C197.79 71.655 197.735 71.8 197.625 71.91C197.525 72.02 197.385 72.075 197.205 72.075C197.025 72.075 196.88 72.02 196.77 71.91C196.66 71.8 196.605 71.655 196.605 71.475V70.755C196.415 71.185 196.125 71.52 195.735 71.76C195.345 71.99 194.895 72.105 194.385 72.105C193.915 72.105 193.48 72.01 193.08 71.82C192.69 71.63 192.38 71.365 192.15 71.025C191.92 70.685 191.805 70.31 191.805 69.9C191.805 69.35 191.945 68.925 192.225 68.625C192.505 68.315 192.965 68.095 193.605 67.965C194.245 67.825 195.135 67.755 196.275 67.755H196.605V67.26C196.605 66.66 196.48 66.22 196.23 65.94C195.99 65.66 195.595 65.52 195.045 65.52C194.365 65.52 193.675 65.705 192.975 66.075C192.705 66.245 192.515 66.33 192.405 66.33C192.285 66.33 192.185 66.285 192.105 66.195C192.025 66.105 191.985 65.99 191.985 65.85C191.985 65.71 192.025 65.59 192.105 65.49C192.195 65.38 192.335 65.27 192.525 65.16C192.875 64.96 193.27 64.805 193.71 64.695C194.16 64.575 194.605 64.515 195.045 64.515ZM194.55 71.145C195.15 71.145 195.64 70.945 196.02 70.545C196.41 70.135 196.605 69.61 196.605 68.97V68.535H196.335C195.455 68.535 194.785 68.575 194.325 68.655C193.865 68.725 193.535 68.85 193.335 69.03C193.145 69.2 193.05 69.455 193.05 69.795C193.05 70.185 193.19 70.51 193.47 70.77C193.76 71.02 194.12 71.145 194.55 71.145ZM203.389 71.115C203.739 71.145 203.914 71.305 203.914 71.595C203.914 71.765 203.849 71.895 203.719 71.985C203.599 72.065 203.414 72.095 203.164 72.075L202.759 72.045C201.959 71.985 201.369 71.745 200.989 71.325C200.609 70.905 200.419 70.27 200.419 69.42V65.655H199.414C199.244 65.655 199.109 65.615 199.009 65.535C198.919 65.445 198.874 65.33 198.874 65.19C198.874 65.04 198.919 64.92 199.009 64.83C199.109 64.74 199.244 64.695 199.414 64.695H200.419V63C200.419 62.81 200.474 62.665 200.584 62.565C200.694 62.455 200.844 62.4 201.034 62.4C201.214 62.4 201.359 62.455 201.469 62.565C201.579 62.665 201.634 62.81 201.634 63V64.695H203.299C203.459 64.695 203.584 64.74 203.674 64.83C203.774 64.92 203.824 65.04 203.824 65.19C203.824 65.33 203.774 65.445 203.674 65.535C203.584 65.615 203.459 65.655 203.299 65.655H201.634V69.48C201.634 70.03 201.744 70.43 201.964 70.68C202.194 70.92 202.534 71.055 202.984 71.085L203.389 71.115ZM210.766 70.305C210.876 70.305 210.971 70.35 211.051 70.44C211.131 70.53 211.171 70.645 211.171 70.785C211.171 71.035 210.996 71.265 210.646 71.475C210.286 71.685 209.906 71.845 209.506 71.955C209.106 72.055 208.716 72.105 208.336 72.105C207.206 72.105 206.311 71.77 205.651 71.1C205.001 70.43 204.676 69.505 204.676 68.325C204.676 67.575 204.821 66.915 205.111 66.345C205.401 65.765 205.806 65.315 206.326 64.995C206.856 64.675 207.456 64.515 208.126 64.515C209.076 64.515 209.831 64.825 210.391 65.445C210.951 66.065 211.231 66.905 211.231 67.965C211.231 68.165 211.191 68.31 211.111 68.4C211.031 68.49 210.901 68.535 210.721 68.535H205.891C205.981 70.255 206.796 71.115 208.336 71.115C208.726 71.115 209.061 71.065 209.341 70.965C209.621 70.855 209.921 70.71 210.241 70.53C210.501 70.38 210.676 70.305 210.766 70.305ZM208.141 65.46C207.501 65.46 206.986 65.66 206.596 66.06C206.216 66.46 205.991 67.025 205.921 67.755H210.166C210.146 67.015 209.961 66.45 209.611 66.06C209.261 65.66 208.771 65.46 208.141 65.46Z" fill="white"/>
<path d="M67.465 84.35C67.655 84.35 67.8 84.41 67.9 84.53C68.01 84.64 68.065 84.79 68.065 84.98V94.445C68.065 94.635 68.01 94.79 67.9 94.91C67.8 95.02 67.655 95.075 67.465 95.075C67.275 95.075 67.125 95.02 67.015 94.91C66.905 94.79 66.85 94.635 66.85 94.445V90.155H60.52V94.445C60.52 94.635 60.465 94.79 60.355 94.91C60.245 95.02 60.095 95.075 59.905 95.075C59.715 95.075 59.565 95.02 59.455 94.91C59.355 94.79 59.305 94.635 59.305 94.445V84.98C59.305 84.79 59.355 84.64 59.455 84.53C59.565 84.41 59.715 84.35 59.905 84.35C60.095 84.35 60.245 84.41 60.355 84.53C60.465 84.64 60.52 84.79 60.52 84.98V89.105H66.85V84.98C66.85 84.79 66.905 84.64 67.015 84.53C67.125 84.41 67.275 84.35 67.465 84.35ZM73.5222 95.105C72.8322 95.105 72.2222 94.95 71.6922 94.64C71.1722 94.33 70.7672 93.89 70.4772 93.32C70.1972 92.74 70.0572 92.07 70.0572 91.31C70.0572 90.55 70.1972 89.885 70.4772 89.315C70.7672 88.735 71.1722 88.29 71.6922 87.98C72.2222 87.67 72.8322 87.515 73.5222 87.515C74.2122 87.515 74.8222 87.67 75.3522 87.98C75.8822 88.29 76.2872 88.735 76.5672 89.315C76.8572 89.885 77.0022 90.55 77.0022 91.31C77.0022 92.07 76.8572 92.74 76.5672 93.32C76.2872 93.89 75.8822 94.33 75.3522 94.64C74.8222 94.95 74.2122 95.105 73.5222 95.105ZM73.5222 94.1C74.2422 94.1 74.7922 93.865 75.1722 93.395C75.5622 92.915 75.7572 92.22 75.7572 91.31C75.7572 90.42 75.5622 89.735 75.1722 89.255C74.7822 88.765 74.2322 88.52 73.5222 88.52C72.8122 88.52 72.2622 88.765 71.8722 89.255C71.4822 89.735 71.2872 90.42 71.2872 91.31C71.2872 92.21 71.4772 92.9 71.8572 93.38C72.2472 93.86 72.8022 94.1 73.5222 94.1ZM86.9425 87.515C88.5625 87.515 89.3725 88.48 89.3725 90.41V94.475C89.3725 94.665 89.3175 94.815 89.2075 94.925C89.0975 95.025 88.9525 95.075 88.7725 95.075C88.5925 95.075 88.4425 95.025 88.3225 94.925C88.2125 94.815 88.1575 94.665 88.1575 94.475V90.44C88.1575 89.77 88.0375 89.285 87.7975 88.985C87.5575 88.685 87.1825 88.535 86.6725 88.535C86.0625 88.535 85.5825 88.74 85.2325 89.15C84.8825 89.56 84.7075 90.115 84.7075 90.815V94.475C84.7075 94.665 84.6475 94.815 84.5275 94.925C84.4175 95.025 84.2725 95.075 84.0925 95.075C83.9125 95.075 83.7675 95.025 83.6575 94.925C83.5475 94.815 83.4925 94.665 83.4925 94.475V90.44C83.4925 89.77 83.3725 89.285 83.1325 88.985C82.8925 88.685 82.5125 88.535 81.9925 88.535C81.3925 88.535 80.9125 88.74 80.5525 89.15C80.2025 89.56 80.0275 90.115 80.0275 90.815V94.475C80.0275 94.665 79.9725 94.815 79.8625 94.925C79.7525 95.025 79.6075 95.075 79.4275 95.075C79.2475 95.075 79.0975 95.025 78.9775 94.925C78.8675 94.815 78.8125 94.665 78.8125 94.475V88.145C78.8125 87.965 78.8675 87.82 78.9775 87.71C79.0975 87.6 79.2475 87.545 79.4275 87.545C79.5975 87.545 79.7375 87.6 79.8475 87.71C79.9575 87.81 80.0125 87.95 80.0125 88.13V88.85C80.2325 88.42 80.5375 88.09 80.9275 87.86C81.3175 87.63 81.7675 87.515 82.2775 87.515C83.4175 87.515 84.1625 87.995 84.5125 88.955C84.7225 88.515 85.0425 88.165 85.4725 87.905C85.9025 87.645 86.3925 87.515 86.9425 87.515ZM97.2409 93.305C97.3509 93.305 97.4459 93.35 97.5259 93.44C97.6059 93.53 97.6459 93.645 97.6459 93.785C97.6459 94.035 97.4709 94.265 97.1209 94.475C96.7609 94.685 96.3809 94.845 95.9809 94.955C95.5809 95.055 95.1909 95.105 94.8109 95.105C93.6809 95.105 92.7859 94.77 92.1259 94.1C91.4759 93.43 91.1509 92.505 91.1509 91.325C91.1509 90.575 91.2959 89.915 91.5859 89.345C91.8759 88.765 92.2809 88.315 92.8009 87.995C93.3309 87.675 93.9309 87.515 94.6009 87.515C95.5509 87.515 96.3059 87.825 96.8659 88.445C97.4259 89.065 97.7059 89.905 97.7059 90.965C97.7059 91.165 97.6659 91.31 97.5859 91.4C97.5059 91.49 97.3759 91.535 97.1959 91.535H92.3659C92.4559 93.255 93.2709 94.115 94.8109 94.115C95.2009 94.115 95.5359 94.065 95.8159 93.965C96.0959 93.855 96.3959 93.71 96.7159 93.53C96.9759 93.38 97.1509 93.305 97.2409 93.305ZM94.6159 88.46C93.9759 88.46 93.4609 88.66 93.0709 89.06C92.6909 89.46 92.4659 90.025 92.3959 90.755H96.6409C96.6209 90.015 96.4359 89.45 96.0859 89.06C95.7359 88.66 95.2459 88.46 94.6159 88.46Z" fill="white"/>
<path d="M289.92 96.075C289.73 96.075 289.58 96.02 289.47 95.91C289.36 95.79 289.305 95.635 289.305 95.445V85.98C289.305 85.79 289.36 85.64 289.47 85.53C289.58 85.41 289.73 85.35 289.92 85.35C290.11 85.35 290.26 85.41 290.37 85.53C290.48 85.64 290.535 85.79 290.535 85.98V95.445C290.535 95.635 290.48 95.79 290.37 95.91C290.26 96.02 290.11 96.075 289.92 96.075ZM296.638 88.515C298.388 88.515 299.263 89.48 299.263 91.41V95.475C299.263 95.665 299.208 95.815 299.098 95.925C298.998 96.025 298.853 96.075 298.663 96.075C298.473 96.075 298.323 96.025 298.213 95.925C298.103 95.815 298.048 95.665 298.048 95.475V91.485C298.048 90.805 297.913 90.31 297.643 90C297.383 89.69 296.963 89.535 296.383 89.535C295.713 89.535 295.178 89.74 294.778 90.15C294.378 90.56 294.178 91.115 294.178 91.815V95.475C294.178 95.665 294.123 95.815 294.013 95.925C293.913 96.025 293.768 96.075 293.578 96.075C293.388 96.075 293.238 96.025 293.128 95.925C293.018 95.815 292.963 95.665 292.963 95.475V89.145C292.963 88.965 293.018 88.82 293.128 88.71C293.238 88.6 293.388 88.545 293.578 88.545C293.758 88.545 293.898 88.6 293.998 88.71C294.108 88.82 294.163 88.96 294.163 89.13V89.895C294.403 89.445 294.738 89.105 295.168 88.875C295.598 88.635 296.088 88.515 296.638 88.515ZM303.948 96.105C303.488 96.105 303.048 96.05 302.628 95.94C302.218 95.83 301.853 95.675 301.533 95.475C301.353 95.355 301.223 95.245 301.143 95.145C301.073 95.035 301.038 94.905 301.038 94.755C301.038 94.625 301.073 94.52 301.143 94.44C301.223 94.35 301.323 94.305 301.443 94.305C301.563 94.305 301.738 94.38 301.968 94.53C302.268 94.71 302.563 94.855 302.853 94.965C303.153 95.065 303.523 95.115 303.963 95.115C304.503 95.115 304.923 95.02 305.223 94.83C305.523 94.64 305.673 94.365 305.673 94.005C305.673 93.785 305.618 93.61 305.508 93.48C305.398 93.34 305.208 93.22 304.938 93.12C304.668 93.01 304.273 92.9 303.753 92.79C302.873 92.6 302.243 92.345 301.863 92.025C301.483 91.705 301.293 91.27 301.293 90.72C301.293 90.29 301.413 89.91 301.653 89.58C301.893 89.25 302.223 88.99 302.643 88.8C303.073 88.61 303.558 88.515 304.098 88.515C304.488 88.515 304.863 88.57 305.223 88.68C305.593 88.78 305.918 88.925 306.198 89.115C306.538 89.355 306.708 89.605 306.708 89.865C306.708 89.995 306.668 90.105 306.588 90.195C306.508 90.285 306.413 90.33 306.303 90.33C306.183 90.33 306.003 90.245 305.763 90.075C305.483 89.895 305.218 89.755 304.968 89.655C304.718 89.555 304.408 89.505 304.038 89.505C303.568 89.505 303.188 89.61 302.898 89.82C302.618 90.03 302.478 90.31 302.478 90.66C302.478 90.88 302.528 91.06 302.628 91.2C302.738 91.33 302.913 91.45 303.153 91.56C303.403 91.66 303.758 91.76 304.218 91.86C304.898 92.01 305.423 92.175 305.793 92.355C306.173 92.535 306.443 92.755 306.603 93.015C306.763 93.275 306.843 93.605 306.843 94.005C306.843 94.635 306.578 95.145 306.048 95.535C305.518 95.915 304.818 96.105 303.948 96.105ZM309.31 96.075C309.13 96.075 308.98 96.025 308.86 95.925C308.75 95.815 308.695 95.665 308.695 95.475V89.145C308.695 88.955 308.75 88.81 308.86 88.71C308.98 88.6 309.13 88.545 309.31 88.545C309.49 88.545 309.635 88.6 309.745 88.71C309.855 88.81 309.91 88.955 309.91 89.145V95.475C309.91 95.675 309.855 95.825 309.745 95.925C309.635 96.025 309.49 96.075 309.31 96.075ZM309.31 86.97C309.07 86.97 308.875 86.9 308.725 86.76C308.575 86.62 308.5 86.435 308.5 86.205C308.5 85.985 308.575 85.805 308.725 85.665C308.875 85.525 309.07 85.455 309.31 85.455C309.55 85.455 309.745 85.525 309.895 85.665C310.045 85.805 310.12 85.985 310.12 86.205C310.12 86.435 310.045 86.62 309.895 86.76C309.745 86.9 309.55 86.97 309.31 86.97ZM318.107 88.545C318.297 88.545 318.447 88.6 318.557 88.71C318.667 88.82 318.722 88.965 318.722 89.145V95.505C318.722 96.595 318.442 97.415 317.882 97.965C317.322 98.525 316.492 98.805 315.392 98.805C314.322 98.805 313.432 98.595 312.722 98.175C312.362 97.975 312.182 97.745 312.182 97.485C312.182 97.345 312.217 97.23 312.287 97.14C312.367 97.05 312.467 97.005 312.587 97.005C312.687 97.005 312.867 97.075 313.127 97.215C313.477 97.395 313.822 97.54 314.162 97.65C314.502 97.76 314.907 97.815 315.377 97.815C316.087 97.815 316.622 97.625 316.982 97.245C317.342 96.875 317.522 96.33 317.522 95.61V94.32C317.312 94.79 316.987 95.15 316.547 95.4C316.117 95.65 315.607 95.775 315.017 95.775C314.377 95.775 313.807 95.625 313.307 95.325C312.817 95.025 312.432 94.6 312.152 94.05C311.882 93.5 311.747 92.865 311.747 92.145C311.747 91.425 311.882 90.79 312.152 90.24C312.432 89.69 312.817 89.265 313.307 88.965C313.807 88.665 314.377 88.515 315.017 88.515C315.597 88.515 316.102 88.64 316.532 88.89C316.962 89.14 317.287 89.495 317.507 89.955V89.145C317.507 88.965 317.557 88.82 317.657 88.71C317.767 88.6 317.917 88.545 318.107 88.545ZM315.257 94.77C315.957 94.77 316.507 94.54 316.907 94.08C317.307 93.61 317.507 92.965 317.507 92.145C317.507 91.335 317.307 90.7 316.907 90.24C316.517 89.77 315.967 89.535 315.257 89.535C314.547 89.535 313.987 89.77 313.577 90.24C313.177 90.7 312.977 91.335 312.977 92.145C312.977 92.965 313.177 93.61 313.577 94.08C313.987 94.54 314.547 94.77 315.257 94.77ZM324.661 88.515C325.521 88.515 326.171 88.76 326.611 89.25C327.051 89.73 327.271 90.45 327.271 91.41V95.475C327.271 95.665 327.216 95.815 327.106 95.925C326.996 96.025 326.851 96.075 326.671 96.075C326.481 96.075 326.331 96.025 326.221 95.925C326.111 95.815 326.056 95.665 326.056 95.475V91.44C326.056 90.79 325.921 90.31 325.651 90C325.391 89.69 324.971 89.535 324.391 89.535C323.721 89.535 323.186 89.74 322.786 90.15C322.386 90.56 322.186 91.115 322.186 91.815V95.475C322.186 95.665 322.131 95.815 322.021 95.925C321.921 96.025 321.776 96.075 321.586 96.075C321.396 96.075 321.246 96.025 321.136 95.925C321.026 95.815 320.971 95.665 320.971 95.475V85.935C320.971 85.765 321.026 85.625 321.136 85.515C321.256 85.405 321.406 85.35 321.586 85.35C321.776 85.35 321.921 85.405 322.021 85.515C322.131 85.615 322.186 85.755 322.186 85.935V89.865C322.426 89.425 322.761 89.09 323.191 88.86C323.621 88.63 324.111 88.515 324.661 88.515ZM332.871 95.115C333.221 95.145 333.396 95.305 333.396 95.595C333.396 95.765 333.331 95.895 333.201 95.985C333.081 96.065 332.896 96.095 332.646 96.075L332.241 96.045C331.441 95.985 330.851 95.745 330.471 95.325C330.091 94.905 329.901 94.27 329.901 93.42V89.655H328.896C328.726 89.655 328.591 89.615 328.491 89.535C328.401 89.445 328.356 89.33 328.356 89.19C328.356 89.04 328.401 88.92 328.491 88.83C328.591 88.74 328.726 88.695 328.896 88.695H329.901V87C329.901 86.81 329.956 86.665 330.066 86.565C330.176 86.455 330.326 86.4 330.516 86.4C330.696 86.4 330.841 86.455 330.951 86.565C331.061 86.665 331.116 86.81 331.116 87V88.695H332.781C332.941 88.695 333.066 88.74 333.156 88.83C333.256 88.92 333.306 89.04 333.306 89.19C333.306 89.33 333.256 89.445 333.156 89.535C333.066 89.615 332.941 89.655 332.781 89.655H331.116V93.48C331.116 94.03 331.226 94.43 331.446 94.68C331.676 94.92 332.016 95.055 332.466 95.085L332.871 95.115Z" fill="white"/>
<defs>
<linearGradient id="paint0_linear" x1="78" y1="33" x2="78" y2="77" gradientUnits="userSpaceOnUse">
<stop stop-color="white"/>
<stop offset="1" stop-color="white" stop-opacity="0"/>
</linearGradient>
</defs>
</svg>
