<svg width="309" height="223" viewBox="0 0 309 223" fill="none" xmlns="http://www.w3.org/2000/svg">
<path d="M39.52 13.6C39.6267 13.2533 39.8133 13 40.08 12.84C40.3467 12.6533 40.64 12.56 40.96 12.56C41.3867 12.56 41.7467 12.6933 42.04 12.96C42.36 13.2 42.52 13.5333 42.52 13.96C42.52 14.1467 42.48 14.36 42.4 14.6L33.36 40.08C33.2267 40.4533 33 40.7467 32.68 40.96C32.36 41.1467 32 41.24 31.6 41.24C31.2267 41.24 30.88 41.1467 30.56 40.96C30.24 40.7467 30.0133 40.4533 29.88 40.08L22.04 17.92L14.12 40.08C13.9867 40.4533 13.76 40.7467 13.44 40.96C13.12 41.1467 12.7733 41.24 12.4 41.24C12.0267 41.24 11.68 41.1467 11.36 40.96C11.04 40.7467 10.8133 40.4533 10.68 40.08L1.6 14.6C1.52 14.3867 1.48 14.1867 1.48 14C1.48 13.5733 1.64 13.2267 1.96 12.96C2.30667 12.6933 2.69333 12.56 3.12 12.56C3.44 12.56 3.73333 12.6533 4 12.84C4.29333 13 4.49333 13.2533 4.6 13.6L12.48 36.32L20.48 13.84C20.6133 13.44 20.8267 13.1467 21.12 12.96C21.4133 12.7467 21.7333 12.64 22.08 12.64C22.4267 12.64 22.7467 12.7467 23.04 12.96C23.3333 13.1733 23.5467 13.48 23.68 13.88L31.56 36.4L39.52 13.6ZM59.8769 36.48C60.1702 36.48 60.4235 36.6 60.6369 36.84C60.8502 37.08 60.9569 37.3867 60.9569 37.76C60.9569 38.4267 60.4902 39.04 59.5569 39.6C58.5969 40.16 57.5835 40.5867 56.5169 40.88C55.4502 41.1467 54.4102 41.28 53.3969 41.28C50.3835 41.28 47.9969 40.3867 46.2369 38.6C44.5035 36.8133 43.6369 34.3467 43.6369 31.2C43.6369 29.2 44.0235 27.44 44.7969 25.92C45.5702 24.3733 46.6502 23.1733 48.0369 22.32C49.4502 21.4667 51.0502 21.04 52.8369 21.04C55.3702 21.04 57.3835 21.8667 58.8769 23.52C60.3702 25.1733 61.1169 27.4133 61.1169 30.24C61.1169 30.7733 61.0102 31.16 60.7969 31.4C60.5835 31.64 60.2369 31.76 59.7569 31.76H46.8769C47.1169 36.3467 49.2902 38.64 53.3969 38.64C54.4369 38.64 55.3302 38.5067 56.0769 38.24C56.8235 37.9467 57.6235 37.56 58.4769 37.08C59.1702 36.68 59.6369 36.48 59.8769 36.48ZM52.8769 23.56C51.1702 23.56 49.7969 24.0933 48.7569 25.16C47.7435 26.2267 47.1435 27.7333 46.9569 29.68H58.2769C58.2235 27.7067 57.7302 26.2 56.7969 25.16C55.8635 24.0933 54.5569 23.56 52.8769 23.56ZM86.0431 21.04C88.3365 21.04 90.0698 21.6933 91.2431 23C92.4165 24.28 93.0031 26.2 93.0031 28.76V39.6C93.0031 40.1067 92.8565 40.5067 92.5631 40.8C92.2698 41.0667 91.8831 41.2 91.4031 41.2C90.8965 41.2 90.4965 41.0667 90.2031 40.8C89.9098 40.5067 89.7631 40.1067 89.7631 39.6V28.84C89.7631 27.1067 89.4031 25.8267 88.6831 25C87.9898 24.1733 86.8698 23.76 85.3231 23.76C83.5365 23.76 82.1098 24.3067 81.0431 25.4C79.9765 26.4933 79.4431 27.9733 79.4431 29.84V39.6C79.4431 40.1067 79.2965 40.5067 79.0031 40.8C78.7365 41.0667 78.3498 41.2 77.8431 41.2C77.3365 41.2 76.9365 41.0667 76.6431 40.8C76.3498 40.5067 76.2031 40.1067 76.2031 39.6V14.16C76.2031 13.7067 76.3498 13.3333 76.6431 13.04C76.9631 12.7467 77.3631 12.6 77.8431 12.6C78.3498 12.6 78.7365 12.7467 79.0031 13.04C79.2965 13.3067 79.4431 13.68 79.4431 14.16V24.64C80.0831 23.4667 80.9765 22.5733 82.1231 21.96C83.2698 21.3467 84.5765 21.04 86.0431 21.04ZM114.018 36.48C114.311 36.48 114.564 36.6 114.778 36.84C114.991 37.08 115.098 37.3867 115.098 37.76C115.098 38.4267 114.631 39.04 113.698 39.6C112.738 40.16 111.724 40.5867 110.658 40.88C109.591 41.1467 108.551 41.28 107.538 41.28C104.524 41.28 102.138 40.3867 100.378 38.6C98.6442 36.8133 97.7775 34.3467 97.7775 31.2C97.7775 29.2 98.1642 27.44 98.9375 25.92C99.7108 24.3733 100.791 23.1733 102.178 22.32C103.591 21.4667 105.191 21.04 106.978 21.04C109.511 21.04 111.524 21.8667 113.018 23.52C114.511 25.1733 115.258 27.4133 115.258 30.24C115.258 30.7733 115.151 31.16 114.938 31.4C114.724 31.64 114.378 31.76 113.898 31.76H101.018C101.258 36.3467 103.431 38.64 107.538 38.64C108.578 38.64 109.471 38.5067 110.218 38.24C110.964 37.9467 111.764 37.56 112.618 37.08C113.311 36.68 113.778 36.48 114.018 36.48ZM107.018 23.56C105.311 23.56 103.938 24.0933 102.898 25.16C101.884 26.2267 101.284 27.7333 101.098 29.68H112.418C112.364 27.7067 111.871 26.2 110.938 25.16C110.004 24.0933 108.698 23.56 107.018 23.56ZM121.671 41.2C121.191 41.2 120.791 41.0667 120.471 40.8C120.178 40.5067 120.031 40.1067 120.031 39.6V14.2C120.031 13.6933 120.178 13.3067 120.471 13.04C120.791 12.7467 121.191 12.6 121.671 12.6C122.125 12.6 122.498 12.7467 122.791 13.04C123.111 13.3067 123.271 13.6933 123.271 14.2V39.6C123.271 40.1067 123.111 40.5067 122.791 40.8C122.498 41.0667 122.125 41.2 121.671 41.2ZM139.128 21.04C140.835 21.04 142.341 21.4667 143.648 22.32C144.955 23.1733 145.968 24.3733 146.688 25.92C147.408 27.44 147.768 29.2133 147.768 31.24C147.768 33.2667 147.408 35.04 146.688 36.56C145.968 38.0533 144.955 39.2133 143.648 40.04C142.368 40.8667 140.861 41.28 139.128 41.28C137.608 41.28 136.275 40.9467 135.128 40.28C134.008 39.6133 133.155 38.6667 132.568 37.44V46.84C132.568 47.32 132.421 47.6933 132.128 47.96C131.861 48.2533 131.475 48.4 130.968 48.4C130.461 48.4 130.061 48.2533 129.768 47.96C129.475 47.6667 129.328 47.2933 129.328 46.84V22.72C129.328 22.24 129.475 21.8533 129.768 21.56C130.061 21.2667 130.461 21.12 130.968 21.12C131.475 21.12 131.861 21.2667 132.128 21.56C132.421 21.8533 132.568 22.24 132.568 22.72V24.88C133.155 23.6533 134.008 22.7067 135.128 22.04C136.275 21.3733 137.608 21.04 139.128 21.04ZM138.488 38.6C140.381 38.6 141.848 37.96 142.888 36.68C143.928 35.4 144.448 33.5867 144.448 31.24C144.448 28.8933 143.928 27.0667 142.888 25.76C141.848 24.4267 140.381 23.76 138.488 23.76C136.595 23.76 135.128 24.4 134.088 25.68C133.075 26.96 132.568 28.7867 132.568 31.16C132.568 33.5333 133.075 35.3733 134.088 36.68C135.128 37.96 136.595 38.6 138.488 38.6ZM167.689 36.48C167.983 36.48 168.236 36.6 168.449 36.84C168.663 37.08 168.769 37.3867 168.769 37.76C168.769 38.4267 168.303 39.04 167.369 39.6C166.409 40.16 165.396 40.5867 164.329 40.88C163.263 41.1467 162.223 41.28 161.209 41.28C158.196 41.28 155.809 40.3867 154.049 38.6C152.316 36.8133 151.449 34.3467 151.449 31.2C151.449 29.2 151.836 27.44 152.609 25.92C153.383 24.3733 154.463 23.1733 155.849 22.32C157.263 21.4667 158.863 21.04 160.649 21.04C163.183 21.04 165.196 21.8667 166.689 23.52C168.183 25.1733 168.929 27.4133 168.929 30.24C168.929 30.7733 168.823 31.16 168.609 31.4C168.396 31.64 168.049 31.76 167.569 31.76H154.689C154.929 36.3467 157.103 38.64 161.209 38.64C162.249 38.64 163.143 38.5067 163.889 38.24C164.636 37.9467 165.436 37.56 166.289 37.08C166.983 36.68 167.449 36.48 167.689 36.48ZM160.689 23.56C158.983 23.56 157.609 24.0933 156.569 25.16C155.556 26.2267 154.956 27.7333 154.769 29.68H166.089C166.036 27.7067 165.543 26.2 164.609 25.16C163.676 24.0933 162.369 23.56 160.689 23.56ZM189.343 12.6C189.85 12.6 190.25 12.7467 190.543 13.04C190.836 13.3333 190.983 13.7067 190.983 14.16V39.6C190.983 40.08 190.836 40.4667 190.543 40.76C190.25 41.0533 189.85 41.2 189.343 41.2C188.836 41.2 188.436 41.0533 188.143 40.76C187.876 40.4667 187.743 40.08 187.743 39.6V37.44C187.156 38.6667 186.29 39.6133 185.143 40.28C184.023 40.9467 182.703 41.28 181.183 41.28C179.476 41.28 177.97 40.8533 176.663 40C175.356 39.1467 174.343 37.96 173.623 36.44C172.903 34.8933 172.543 33.1067 172.543 31.08C172.543 29.08 172.903 27.32 173.623 25.8C174.343 24.28 175.356 23.1067 176.663 22.28C177.97 21.4533 179.476 21.04 181.183 21.04C182.703 21.04 184.023 21.3733 185.143 22.04C186.29 22.7067 187.156 23.6533 187.743 24.88V14.16C187.743 13.68 187.876 13.3067 188.143 13.04C188.436 12.7467 188.836 12.6 189.343 12.6ZM181.823 38.6C183.716 38.6 185.17 37.96 186.183 36.68C187.223 35.3733 187.743 33.5333 187.743 31.16C187.743 28.7867 187.223 26.96 186.183 25.68C185.17 24.4 183.716 23.76 181.823 23.76C179.93 23.76 178.45 24.4 177.383 25.68C176.343 26.96 175.823 28.76 175.823 31.08C175.823 33.4533 176.343 35.3067 177.383 36.64C178.45 37.9467 179.93 38.6 181.823 38.6ZM10.96 76.04C15.84 76.04 18.28 78.6 18.28 83.72V94.6C18.28 95.08 18.1333 95.4667 17.84 95.76C17.5733 96.0533 17.2 96.2 16.72 96.2C16.24 96.2 15.8533 96.0533 15.56 95.76C15.2667 95.4667 15.12 95.08 15.12 94.6V92.68C14.6133 93.8267 13.84 94.72 12.8 95.36C11.76 95.9733 10.56 96.28 9.2 96.28C7.94667 96.28 6.78667 96.0267 5.72 95.52C4.68 95.0133 3.85333 94.3067 3.24 93.4C2.62667 92.4933 2.32 91.4933 2.32 90.4C2.32 88.9333 2.69333 87.8 3.44 87C4.18667 86.1733 5.41333 85.5867 7.12 85.24C8.82667 84.8667 11.2 84.68 14.24 84.68H15.12V83.36C15.12 81.76 14.7867 80.5867 14.12 79.84C13.48 79.0933 12.4267 78.72 10.96 78.72C9.14667 78.72 7.30667 79.2133 5.44 80.2C4.72 80.6533 4.21333 80.88 3.92 80.88C3.6 80.88 3.33333 80.76 3.12 80.52C2.90667 80.28 2.8 79.9733 2.8 79.6C2.8 79.2267 2.90667 78.9067 3.12 78.64C3.36 78.3467 3.73333 78.0533 4.24 77.76C5.17333 77.2267 6.22667 76.8133 7.4 76.52C8.6 76.2 9.78667 76.04 10.96 76.04ZM9.64 93.72C11.24 93.72 12.5467 93.1867 13.56 92.12C14.6 91.0267 15.12 89.6267 15.12 87.92V86.76H14.4C12.0533 86.76 10.2667 86.8667 9.04 87.08C7.81333 87.2667 6.93333 87.6 6.4 88.08C5.89333 88.5333 5.64 89.2133 5.64 90.12C5.64 91.16 6.01333 92.0267 6.76 92.72C7.53333 93.3867 8.49333 93.72 9.64 93.72ZM25.8509 96.2C25.3709 96.2 24.9709 96.0667 24.6509 95.8C24.3576 95.5067 24.2109 95.1067 24.2109 94.6V69.2C24.2109 68.6933 24.3576 68.3067 24.6509 68.04C24.9709 67.7467 25.3709 67.6 25.8509 67.6C26.3043 67.6 26.6776 67.7467 26.9709 68.04C27.2909 68.3067 27.4509 68.6933 27.4509 69.2V94.6C27.4509 95.1067 27.2909 95.5067 26.9709 95.8C26.6776 96.0667 26.3043 96.2 25.8509 96.2ZM43.1478 76.12C44.2678 76.04 44.8278 76.4933 44.8278 77.48C44.8278 77.9067 44.7078 78.2533 44.4678 78.52C44.2278 78.76 43.8145 78.9067 43.2278 78.96L42.0278 79.08C40.2411 79.24 38.9078 79.88 38.0278 81C37.1745 82.0933 36.7478 83.3867 36.7478 84.88V94.6C36.7478 95.1333 36.6011 95.5333 36.3078 95.8C36.0145 96.0667 35.6278 96.2 35.1478 96.2C34.6678 96.2 34.2678 96.0667 33.9478 95.8C33.6545 95.5067 33.5078 95.1067 33.5078 94.6V77.72C33.5078 77.2133 33.6678 76.8267 33.9878 76.56C34.3078 76.2667 34.6945 76.12 35.1478 76.12C35.5745 76.12 35.9345 76.2667 36.2278 76.56C36.5211 76.8267 36.6678 77.2 36.6678 77.68V79.92C37.2278 78.7467 38.0145 77.8533 39.0278 77.24C40.0678 76.6267 41.2545 76.2667 42.5878 76.16L43.1478 76.12ZM62.2988 91.48C62.5921 91.48 62.8454 91.6 63.0588 91.84C63.2721 92.08 63.3788 92.3867 63.3788 92.76C63.3788 93.4267 62.9121 94.04 61.9788 94.6C61.0188 95.16 60.0054 95.5867 58.9388 95.88C57.8721 96.1467 56.8321 96.28 55.8188 96.28C52.8054 96.28 50.4188 95.3867 48.6588 93.6C46.9254 91.8133 46.0588 89.3467 46.0588 86.2C46.0588 84.2 46.4454 82.44 47.2188 80.92C47.9921 79.3733 49.0721 78.1733 50.4588 77.32C51.8721 76.4667 53.4721 76.04 55.2588 76.04C57.7921 76.04 59.8054 76.8667 61.2988 78.52C62.7921 80.1733 63.5388 82.4133 63.5388 85.24C63.5388 85.7733 63.4321 86.16 63.2188 86.4C63.0054 86.64 62.6588 86.76 62.1788 86.76H49.2988C49.5388 91.3467 51.7121 93.64 55.8188 93.64C56.8588 93.64 57.7521 93.5067 58.4988 93.24C59.2454 92.9467 60.0454 92.56 60.8988 92.08C61.5921 91.68 62.0588 91.48 62.2988 91.48ZM55.2988 78.56C53.5921 78.56 52.2188 79.0933 51.1788 80.16C50.1654 81.2267 49.5654 82.7333 49.3788 84.68H60.6988C60.6454 82.7067 60.1521 81.2 59.2188 80.16C58.2854 79.0933 56.9788 78.56 55.2988 78.56ZM76.2725 76.04C81.1525 76.04 83.5925 78.6 83.5925 83.72V94.6C83.5925 95.08 83.4458 95.4667 83.1525 95.76C82.8858 96.0533 82.5125 96.2 82.0325 96.2C81.5525 96.2 81.1658 96.0533 80.8725 95.76C80.5792 95.4667 80.4325 95.08 80.4325 94.6V92.68C79.9258 93.8267 79.1525 94.72 78.1125 95.36C77.0725 95.9733 75.8725 96.28 74.5125 96.28C73.2592 96.28 72.0992 96.0267 71.0325 95.52C69.9925 95.0133 69.1658 94.3067 68.5525 93.4C67.9392 92.4933 67.6325 91.4933 67.6325 90.4C67.6325 88.9333 68.0058 87.8 68.7525 87C69.4992 86.1733 70.7258 85.5867 72.4325 85.24C74.1392 84.8667 76.5125 84.68 79.5525 84.68H80.4325V83.36C80.4325 81.76 80.0992 80.5867 79.4325 79.84C78.7925 79.0933 77.7392 78.72 76.2725 78.72C74.4592 78.72 72.6192 79.2133 70.7525 80.2C70.0325 80.6533 69.5258 80.88 69.2325 80.88C68.9125 80.88 68.6458 80.76 68.4325 80.52C68.2192 80.28 68.1125 79.9733 68.1125 79.6C68.1125 79.2267 68.2192 78.9067 68.4325 78.64C68.6725 78.3467 69.0458 78.0533 69.5525 77.76C70.4858 77.2267 71.5392 76.8133 72.7125 76.52C73.9125 76.2 75.0992 76.04 76.2725 76.04ZM74.9525 93.72C76.5525 93.72 77.8592 93.1867 78.8725 92.12C79.9125 91.0267 80.4325 89.6267 80.4325 87.92V86.76H79.7125C77.3658 86.76 75.5792 86.8667 74.3525 87.08C73.1258 87.2667 72.2458 87.6 71.7125 88.08C71.2058 88.5333 70.9525 89.2133 70.9525 90.12C70.9525 91.16 71.3258 92.0267 72.0725 92.72C72.8458 93.3867 73.8058 93.72 74.9525 93.72ZM105.163 67.6C105.67 67.6 106.07 67.7467 106.363 68.04C106.657 68.3333 106.803 68.7067 106.803 69.16V94.6C106.803 95.08 106.657 95.4667 106.363 95.76C106.07 96.0533 105.67 96.2 105.163 96.2C104.657 96.2 104.257 96.0533 103.963 95.76C103.697 95.4667 103.563 95.08 103.563 94.6V92.44C102.977 93.6667 102.11 94.6133 100.963 95.28C99.8434 95.9467 98.5234 96.28 97.0034 96.28C95.2968 96.28 93.7901 95.8533 92.4834 95C91.1768 94.1467 90.1634 92.96 89.4434 91.44C88.7234 89.8933 88.3634 88.1067 88.3634 86.08C88.3634 84.08 88.7234 82.32 89.4434 80.8C90.1634 79.28 91.1768 78.1067 92.4834 77.28C93.7901 76.4533 95.2968 76.04 97.0034 76.04C98.5234 76.04 99.8434 76.3733 100.963 77.04C102.11 77.7067 102.977 78.6533 103.563 79.88V69.16C103.563 68.68 103.697 68.3067 103.963 68.04C104.257 67.7467 104.657 67.6 105.163 67.6ZM97.6434 93.6C99.5368 93.6 100.99 92.96 102.003 91.68C103.043 90.3733 103.563 88.5333 103.563 86.16C103.563 83.7867 103.043 81.96 102.003 80.68C100.99 79.4 99.5368 78.76 97.6434 78.76C95.7501 78.76 94.2701 79.4 93.2034 80.68C92.1634 81.96 91.6434 83.76 91.6434 86.08C91.6434 88.4533 92.1634 90.3067 93.2034 91.64C94.2701 92.9467 95.7501 93.6 97.6434 93.6ZM126.845 77.12C127.138 76.48 127.605 76.16 128.245 76.16C128.645 76.16 129.005 76.2933 129.325 76.56C129.645 76.8267 129.805 77.16 129.805 77.56C129.805 77.8 129.751 78.0133 129.645 78.2L118.405 102.44C118.271 102.733 118.071 102.96 117.805 103.12C117.565 103.28 117.311 103.36 117.045 103.36C116.645 103.36 116.285 103.227 115.965 102.96C115.671 102.72 115.525 102.4 115.525 102C115.525 101.787 115.578 101.573 115.685 101.36L118.485 95.32L110.565 78.2C110.458 78.0133 110.405 77.8133 110.405 77.6C110.405 77.2 110.578 76.8533 110.925 76.56C111.298 76.2667 111.698 76.12 112.125 76.12C112.391 76.12 112.645 76.2 112.885 76.36C113.151 76.52 113.351 76.7467 113.485 77.04L120.165 92.04L126.845 77.12Z" fill="#EC6D5F"/>
<path d="M40.4182 181.6C40.5249 181.253 40.7115 181 40.9782 180.84C41.2449 180.653 41.5382 180.56 41.8582 180.56C42.2849 180.56 42.6449 180.693 42.9382 180.96C43.2582 181.2 43.4182 181.533 43.4182 181.96C43.4182 182.147 43.3782 182.36 43.2982 182.6L34.2582 208.08C34.1249 208.453 33.8982 208.747 33.5782 208.96C33.2582 209.147 32.8982 209.24 32.4982 209.24C32.1249 209.24 31.7782 209.147 31.4582 208.96C31.1382 208.747 30.9115 208.453 30.7782 208.08L22.9382 185.92L15.0182 208.08C14.8849 208.453 14.6582 208.747 14.3382 208.96C14.0182 209.147 13.6715 209.24 13.2982 209.24C12.9249 209.24 12.5782 209.147 12.2582 208.96C11.9382 208.747 11.7115 208.453 11.5782 208.08L2.49819 182.6C2.41819 182.387 2.37819 182.187 2.37819 182C2.37819 181.573 2.53819 181.227 2.85819 180.96C3.20486 180.693 3.59153 180.56 4.01819 180.56C4.33819 180.56 4.63153 180.653 4.89819 180.84C5.19153 181 5.39153 181.253 5.49819 181.6L13.3782 204.32L21.3782 181.84C21.5115 181.44 21.7249 181.147 22.0182 180.96C22.3115 180.747 22.6315 180.64 22.9782 180.64C23.3249 180.64 23.6449 180.747 23.9382 180.96C24.2315 181.173 24.4449 181.48 24.5782 181.88L32.4582 204.4L40.4182 181.6ZM53.7751 209.28C51.9351 209.28 50.3084 208.867 48.8951 208.04C47.5084 207.213 46.4284 206.04 45.6551 204.52C44.9084 202.973 44.5351 201.187 44.5351 199.16C44.5351 197.133 44.9084 195.36 45.6551 193.84C46.4284 192.293 47.5084 191.107 48.8951 190.28C50.3084 189.453 51.9351 189.04 53.7751 189.04C55.6151 189.04 57.2417 189.453 58.6551 190.28C60.0684 191.107 61.1484 192.293 61.8951 193.84C62.6684 195.36 63.0551 197.133 63.0551 199.16C63.0551 201.187 62.6684 202.973 61.8951 204.52C61.1484 206.04 60.0684 207.213 58.6551 208.04C57.2417 208.867 55.6151 209.28 53.7751 209.28ZM53.7751 206.6C55.6951 206.6 57.1617 205.973 58.1751 204.72C59.2151 203.44 59.7351 201.587 59.7351 199.16C59.7351 196.787 59.2151 194.96 58.1751 193.68C57.1351 192.373 55.6684 191.72 53.7751 191.72C51.8817 191.72 50.4151 192.373 49.3751 193.68C48.3351 194.96 47.8151 196.787 47.8151 199.16C47.8151 201.56 48.3217 203.4 49.3351 204.68C50.3751 205.96 51.8551 206.6 53.7751 206.6ZM89.5626 189.04C93.8826 189.04 96.0426 191.613 96.0426 196.76V207.6C96.0426 208.107 95.8959 208.507 95.6026 208.8C95.3092 209.067 94.9226 209.2 94.4426 209.2C93.9626 209.2 93.5626 209.067 93.2426 208.8C92.9492 208.507 92.8026 208.107 92.8026 207.6V196.84C92.8026 195.053 92.4826 193.76 91.8426 192.96C91.2026 192.16 90.2026 191.76 88.8426 191.76C87.2159 191.76 85.9359 192.307 85.0026 193.4C84.0692 194.493 83.6026 195.973 83.6026 197.84V207.6C83.6026 208.107 83.4426 208.507 83.1226 208.8C82.8292 209.067 82.4426 209.2 81.9626 209.2C81.4826 209.2 81.0959 209.067 80.8026 208.8C80.5092 208.507 80.3626 208.107 80.3626 207.6V196.84C80.3626 195.053 80.0426 193.76 79.4026 192.96C78.7626 192.16 77.7492 191.76 76.3626 191.76C74.7626 191.76 73.4826 192.307 72.5226 193.4C71.5892 194.493 71.1226 195.973 71.1226 197.84V207.6C71.1226 208.107 70.9759 208.507 70.6826 208.8C70.3892 209.067 70.0026 209.2 69.5226 209.2C69.0426 209.2 68.6426 209.067 68.3226 208.8C68.0292 208.507 67.8826 208.107 67.8826 207.6V190.72C67.8826 190.24 68.0292 189.853 68.3226 189.56C68.6426 189.267 69.0426 189.12 69.5226 189.12C69.9759 189.12 70.3492 189.267 70.6426 189.56C70.9359 189.827 71.0826 190.2 71.0826 190.68V192.6C71.6692 191.453 72.4826 190.573 73.5226 189.96C74.5626 189.347 75.7626 189.04 77.1226 189.04C80.1626 189.04 82.1492 190.32 83.0826 192.88C83.6426 191.707 84.4959 190.773 85.6426 190.08C86.7892 189.387 88.0959 189.04 89.5626 189.04ZM117.025 204.48C117.318 204.48 117.572 204.6 117.785 204.84C117.998 205.08 118.105 205.387 118.105 205.76C118.105 206.427 117.638 207.04 116.705 207.6C115.745 208.16 114.732 208.587 113.665 208.88C112.598 209.147 111.558 209.28 110.545 209.28C107.532 209.28 105.145 208.387 103.385 206.6C101.652 204.813 100.785 202.347 100.785 199.2C100.785 197.2 101.172 195.44 101.945 193.92C102.718 192.373 103.798 191.173 105.185 190.32C106.598 189.467 108.198 189.04 109.985 189.04C112.518 189.04 114.532 189.867 116.025 191.52C117.518 193.173 118.265 195.413 118.265 198.24C118.265 198.773 118.158 199.16 117.945 199.4C117.732 199.64 117.385 199.76 116.905 199.76H104.025C104.265 204.347 106.438 206.64 110.545 206.64C111.585 206.64 112.478 206.507 113.225 206.24C113.972 205.947 114.772 205.56 115.625 205.08C116.318 204.68 116.785 204.48 117.025 204.48ZM110.025 191.56C108.318 191.56 106.945 192.093 105.905 193.16C104.892 194.227 104.292 195.733 104.105 197.68H115.425C115.372 195.707 114.878 194.2 113.945 193.16C113.012 192.093 111.705 191.56 110.025 191.56ZM132.839 189.04C137.505 189.04 139.839 191.613 139.839 196.76V207.6C139.839 208.107 139.692 208.507 139.399 208.8C139.132 209.067 138.745 209.2 138.239 209.2C137.732 209.2 137.332 209.067 137.039 208.8C136.745 208.507 136.599 208.107 136.599 207.6V196.96C136.599 195.147 136.239 193.827 135.519 193C134.825 192.173 133.705 191.76 132.159 191.76C130.372 191.76 128.945 192.307 127.879 193.4C126.812 194.493 126.279 195.973 126.279 197.84V207.6C126.279 208.107 126.132 208.507 125.839 208.8C125.572 209.067 125.185 209.2 124.679 209.2C124.172 209.2 123.772 209.067 123.479 208.8C123.185 208.507 123.039 208.107 123.039 207.6V190.72C123.039 190.24 123.185 189.853 123.479 189.56C123.772 189.267 124.172 189.12 124.679 189.12C125.159 189.12 125.532 189.267 125.799 189.56C126.092 189.853 126.239 190.227 126.239 190.68V192.72C126.879 191.52 127.772 190.613 128.919 190C130.065 189.36 131.372 189.04 132.839 189.04Z" fill="#EC6D5F"/>
<path d="M20.04 150.84C21.64 150.84 22.44 151.52 22.44 152.88C22.44 154.293 21.64 155 20.04 155H6.52C4.89333 155 4.08 154.293 4.08 152.88C4.08 151.52 4.89333 150.84 6.52 150.84H10.68V132.6L6.84 134.96C6.46667 135.173 6.13333 135.28 5.84 135.28C5.28 135.28 4.8 135.04 4.4 134.56C4.02667 134.08 3.84 133.547 3.84 132.96C3.84 132.187 4.18667 131.587 4.88 131.16L11.08 127.32C11.88 126.84 12.64 126.6 13.36 126.6C14.1067 126.6 14.7067 126.827 15.16 127.28C15.6133 127.733 15.84 128.36 15.84 129.16V150.84H20.04ZM28.9444 155.24C28.091 155.24 27.3844 154.96 26.8244 154.4C26.2644 153.813 25.9844 153.093 25.9844 152.24C25.9844 151.387 26.2644 150.68 26.8244 150.12C27.3844 149.533 28.091 149.24 28.9444 149.24C29.7977 149.24 30.5044 149.533 31.0644 150.12C31.6244 150.68 31.9044 151.387 31.9044 152.24C31.9044 153.093 31.6244 153.813 31.0644 154.4C30.5044 154.96 29.7977 155.24 28.9444 155.24ZM53.8263 150.84C55.4263 150.84 56.2263 151.52 56.2263 152.88C56.2263 154.293 55.4263 155 53.8263 155H38.6263C37.9329 155 37.3863 154.8 36.9863 154.4C36.5863 153.973 36.3863 153.453 36.3863 152.84C36.3863 152.04 36.6929 151.32 37.3063 150.68L46.4263 140.88C47.5463 139.653 48.3596 138.533 48.8663 137.52C49.3996 136.48 49.6663 135.453 49.6663 134.44C49.6663 133.187 49.3063 132.227 48.5863 131.56C47.8663 130.893 46.8396 130.56 45.5063 130.56C44.4129 130.56 43.3463 130.773 42.3063 131.2C41.2929 131.6 40.2663 132.16 39.2263 132.88C38.9596 133.067 38.6929 133.227 38.4263 133.36C38.1596 133.467 37.8929 133.52 37.6263 133.52C37.1729 133.52 36.7729 133.307 36.4263 132.88C36.1063 132.453 35.9463 131.947 35.9463 131.36C35.9463 130.96 36.0129 130.613 36.1463 130.32C36.3063 130.027 36.5463 129.747 36.8663 129.48C38.0396 128.547 39.4129 127.813 40.9863 127.28C42.5596 126.72 44.1329 126.44 45.7063 126.44C48.4529 126.44 50.6396 127.133 52.2663 128.52C53.9196 129.907 54.7463 131.773 54.7463 134.12C54.7463 135.747 54.3996 137.28 53.7063 138.72C53.0129 140.133 51.8396 141.72 50.1863 143.48L43.2663 150.84H53.8263ZM75.3297 140.52C76.983 140.973 78.2497 141.8 79.1297 143C80.0364 144.2 80.4897 145.667 80.4897 147.4C80.4897 149.88 79.5564 151.827 77.6897 153.24C75.823 154.627 73.2364 155.32 69.9297 155.32C66.623 155.32 64.0364 154.627 62.1697 153.24C60.303 151.827 59.3697 149.88 59.3697 147.4C59.3697 145.667 59.823 144.2 60.7297 143C61.6364 141.773 62.9164 140.947 64.5697 140.52C63.1564 139.987 62.0497 139.16 61.2497 138.04C60.4497 136.893 60.0497 135.56 60.0497 134.04C60.0497 131.693 60.9297 129.84 62.6897 128.48C64.4497 127.12 66.863 126.44 69.9297 126.44C72.9964 126.44 75.4097 127.12 77.1697 128.48C78.9297 129.84 79.8097 131.693 79.8097 134.04C79.8097 135.587 79.4097 136.933 78.6097 138.08C77.8097 139.227 76.7164 140.04 75.3297 140.52ZM69.9297 130.48C66.5964 130.48 64.9297 131.84 64.9297 134.56C64.9297 135.92 65.343 136.96 66.1697 137.68C67.023 138.373 68.2764 138.72 69.9297 138.72C71.583 138.72 72.823 138.373 73.6497 137.68C74.503 136.96 74.9297 135.92 74.9297 134.56C74.9297 131.84 73.263 130.48 69.9297 130.48ZM69.9297 151.28C73.743 151.28 75.6497 149.853 75.6497 147C75.6497 144.147 73.743 142.72 69.9297 142.72C66.1164 142.72 64.2097 144.147 64.2097 147C64.2097 149.853 66.1164 151.28 69.9297 151.28ZM93.9141 155.36C90.5807 155.36 88.0341 154.133 86.2741 151.68C84.5141 149.2 83.6341 145.6 83.6341 140.88C83.6341 136.187 84.5141 132.613 86.2741 130.16C88.0341 127.68 90.5807 126.44 93.9141 126.44C97.2474 126.44 99.7941 127.68 101.554 130.16C103.314 132.613 104.194 136.187 104.194 140.88C104.194 145.573 103.314 149.16 101.554 151.64C99.7941 154.12 97.2474 155.36 93.9141 155.36ZM93.9141 151.32C95.7274 151.32 97.0474 150.493 97.8741 148.84C98.7007 147.16 99.1141 144.507 99.1141 140.88C99.1141 137.227 98.7007 134.587 97.8741 132.96C97.0474 131.307 95.7274 130.48 93.9141 130.48C92.1007 130.48 90.7807 131.307 89.9541 132.96C89.1274 134.613 88.7141 137.253 88.7141 140.88C88.7141 144.507 89.1274 147.16 89.9541 148.84C90.7807 150.493 92.1007 151.32 93.9141 151.32ZM110.858 155.24C110.005 155.24 109.298 154.96 108.738 154.4C108.178 153.813 107.898 153.093 107.898 152.24C107.898 151.387 108.178 150.68 108.738 150.12C109.298 149.533 110.005 149.24 110.858 149.24C111.712 149.24 112.418 149.533 112.978 150.12C113.538 150.68 113.818 151.387 113.818 152.24C113.818 153.093 113.538 153.813 112.978 154.4C112.418 154.96 111.712 155.24 110.858 155.24ZM135.94 126.8C136.634 126.8 137.167 127 137.54 127.4C137.914 127.773 138.1 128.267 138.1 128.88C138.1 129.493 137.914 130.133 137.54 130.8L124.78 153.96C124.247 154.867 123.514 155.32 122.58 155.32C121.94 155.32 121.367 155.107 120.86 154.68C120.38 154.227 120.14 153.68 120.14 153.04C120.14 152.587 120.274 152.133 120.54 151.68L132.02 130.96H119.94C118.34 130.96 117.54 130.28 117.54 128.92C117.54 127.507 118.34 126.8 119.94 126.8H135.94ZM151.805 155.36C148.471 155.36 145.925 154.133 144.165 151.68C142.405 149.2 141.525 145.6 141.525 140.88C141.525 136.187 142.405 132.613 144.165 130.16C145.925 127.68 148.471 126.44 151.805 126.44C155.138 126.44 157.685 127.68 159.445 130.16C161.205 132.613 162.085 136.187 162.085 140.88C162.085 145.573 161.205 149.16 159.445 151.64C157.685 154.12 155.138 155.36 151.805 155.36ZM151.805 151.32C153.618 151.32 154.938 150.493 155.765 148.84C156.591 147.16 157.005 144.507 157.005 140.88C157.005 137.227 156.591 134.587 155.765 132.96C154.938 131.307 153.618 130.48 151.805 130.48C149.991 130.48 148.671 131.307 147.845 132.96C147.018 134.613 146.605 137.253 146.605 140.88C146.605 144.507 147.018 147.16 147.845 148.84C148.671 150.493 149.991 151.32 151.805 151.32ZM184.789 145.48C185.589 145.48 186.189 145.653 186.589 146C186.989 146.347 187.189 146.84 187.189 147.48C187.189 148.813 186.389 149.48 184.789 149.48H182.749V152.64C182.749 153.467 182.509 154.107 182.029 154.56C181.576 155.013 180.976 155.24 180.229 155.24C179.482 155.24 178.869 155.013 178.389 154.56C177.936 154.107 177.709 153.467 177.709 152.64V149.48H167.229C166.509 149.48 165.949 149.28 165.549 148.88C165.149 148.453 164.949 147.933 164.949 147.32C164.949 146.68 165.162 146.067 165.589 145.48L177.949 127.72C178.216 127.347 178.549 127.067 178.949 126.88C179.349 126.667 179.762 126.56 180.189 126.56C180.882 126.56 181.482 126.787 181.989 127.24C182.496 127.693 182.749 128.333 182.749 129.16V145.48H184.789ZM170.269 145.48H177.709V134.72L170.269 145.48Z" fill="#74B370"/>
</svg>
