<?xml version="1.0" encoding="utf-8"?>
<svg id="master-artboard" viewBox="0 0 522.0408325195312 980" version="1.1" xmlns="http://www.w3.org/2000/svg" x="0px" y="0px" style="enable-background:new 0 0 1400 980;" width="522.0408325195312px" height="980px"><rect id="ee-background" x="0" y="0" width="522.0408325195312" height="980" style="fill: white; fill-opacity: 0; pointer-events: none;"/><defs><filter id="filter0_d" x="0" y="0" width="325" height="591" filterUnits="userSpaceOnUse" color-interpolation-filters="sRGB">
<feFlood flood-opacity="0" result="BackgroundImageFix"/>
<feColorMatrix in="SourceAlpha" type="matrix" values="0 0 0 0 0 0 0 0 0 0 0 0 0 0 0 0 0 0 127 0"/>
<feOffset dx="10" dy="5"/>
<feGaussianBlur stdDeviation="7.5"/>
<feColorMatrix type="matrix" values="0 0 0 0 0.101961 0 0 0 0 0.145098 0 0 0 0 0.211765 0 0 0 0.2 0"/>
<feBlend mode="normal" in2="BackgroundImageFix" result="effect1_dropShadow"/>
<feBlend mode="normal" in="SourceGraphic" in2="effect1_dropShadow" result="shape"/>
</filter></defs><g transform="matrix(1.658206582069397, 0, 0, 1.658206582069397, 5.6435546875, 0.00000465889434053679)"><g filter="url(#filter0_d)">
<path fill-rule="evenodd" clip-rule="evenodd" d="M5 44C5 25.2223 20.2223 10 39 10H266C284.778 10 300 25.2223 300 44V223.866C300 227.661 297.852 231.129 294.454 232.819L290.999 234.538C283.604 238.216 283.604 248.766 290.999 252.445L294.454 254.163C297.852 255.854 300 259.322 300 263.117V537C300 555.778 284.778 571 266 571H39C20.2223 571 5 555.778 5 537V263.117C5 259.322 7.14829 255.854 10.5462 254.163L14.001 252.445C21.396 248.766 21.396 238.216 14.001 234.538L10.5462 232.819C7.14829 231.129 5 227.661 5 223.866V44Z" fill="#7EB87A"/>
</g><path d="M72.055 302.216C70.823 302.216 69.655 302.056 68.551 301.736C67.463 301.4 66.575 300.952 65.887 300.392C65.519 300.12 65.335 299.736 65.335 299.24C65.335 298.904 65.431 298.616 65.623 298.376C65.831 298.12 66.071 297.992 66.343 297.992C66.631 297.992 66.959 298.104 67.327 298.328C68.015 298.824 68.735 299.184 69.487 299.408C70.239 299.632 71.071 299.744 71.983 299.744C73.151 299.744 74.047 299.544 74.671 299.144C75.295 298.728 75.607 298.128 75.607 297.344C75.607 296.736 75.311 296.272 74.719 295.952C74.143 295.616 73.175 295.296 71.815 294.992C70.407 294.688 69.263 294.336 68.383 293.936C67.503 293.536 66.839 293.024 66.391 292.4C65.943 291.776 65.719 290.984 65.719 290.024C65.719 289.032 65.999 288.144 66.559 287.36C67.119 286.576 67.895 285.968 68.887 285.536C69.895 285.088 71.023 284.864 72.271 284.864C74.559 284.864 76.423 285.472 77.863 286.688C78.071 286.864 78.215 287.04 78.295 287.216C78.391 287.376 78.439 287.584 78.439 287.84C78.439 288.176 78.335 288.472 78.127 288.728C77.935 288.968 77.703 289.088 77.431 289.088C77.271 289.088 77.119 289.064 76.975 289.016C76.847 288.968 76.671 288.88 76.447 288.752C75.791 288.272 75.151 287.92 74.527 287.696C73.919 287.456 73.167 287.336 72.271 287.336C71.183 287.336 70.319 287.56 69.679 288.008C69.055 288.44 68.743 289.048 68.743 289.832C68.743 290.488 69.023 290.992 69.583 291.344C70.143 291.696 71.095 292.024 72.439 292.328C73.863 292.648 75.015 293.008 75.895 293.408C76.791 293.792 77.471 294.288 77.935 294.896C78.415 295.504 78.655 296.264 78.655 297.176C78.655 298.168 78.375 299.048 77.815 299.816C77.271 300.568 76.495 301.16 75.487 301.592C74.495 302.008 73.351 302.216 72.055 302.216ZM86.4477 302.192C85.2797 302.192 84.2477 301.944 83.3517 301.448C82.4717 300.952 81.7917 300.248 81.3117 299.336C80.8317 298.424 80.5917 297.36 80.5917 296.144C80.5917 294.928 80.8397 293.856 81.3357 292.928C81.8477 291.984 82.5597 291.256 83.4717 290.744C84.3837 290.232 85.4317 289.976 86.6157 289.976C87.2397 289.976 87.8637 290.064 88.4877 290.24C89.1277 290.416 89.6877 290.656 90.1677 290.96C90.6797 291.296 90.9357 291.72 90.9357 292.232C90.9357 292.584 90.8477 292.872 90.6717 293.096C90.5117 293.304 90.2957 293.408 90.0237 293.408C89.8477 293.408 89.6637 293.368 89.4717 293.288C89.2797 293.208 89.0877 293.112 88.8957 293C88.5437 292.792 88.2077 292.632 87.8877 292.52C87.5677 292.392 87.1997 292.328 86.7837 292.328C85.7917 292.328 85.0237 292.656 84.4797 293.312C83.9517 293.952 83.6877 294.88 83.6877 296.096C83.6877 297.296 83.9517 298.224 84.4797 298.88C85.0237 299.52 85.7917 299.84 86.7837 299.84C87.1837 299.84 87.5357 299.784 87.8397 299.672C88.1597 299.544 88.5117 299.376 88.8957 299.168C89.1357 299.024 89.3437 298.92 89.5197 298.856C89.6957 298.776 89.8717 298.736 90.0477 298.736C90.3037 298.736 90.5197 298.848 90.6957 299.072C90.8717 299.296 90.9597 299.576 90.9597 299.912C90.9597 300.184 90.8957 300.424 90.7677 300.632C90.6557 300.824 90.4637 301 90.1917 301.16C89.6957 301.48 89.1197 301.736 88.4637 301.928C87.8077 302.104 87.1357 302.192 86.4477 302.192ZM98.0464 289.976C99.6784 289.976 100.886 290.384 101.67 291.2C102.47 292 102.87 293.224 102.87 294.872V300.728C102.87 301.16 102.742 301.504 102.486 301.76C102.23 302 101.878 302.12 101.43 302.12C101.014 302.12 100.67 301.992 100.398 301.736C100.142 301.48 100.014 301.144 100.014 300.728V300.2C99.7424 300.824 99.3104 301.312 98.7184 301.664C98.1424 302.016 97.4704 302.192 96.7024 302.192C95.9184 302.192 95.2064 302.032 94.5664 301.712C93.9264 301.392 93.4224 300.952 93.0544 300.392C92.6864 299.832 92.5024 299.208 92.5024 298.52C92.5024 297.656 92.7184 296.976 93.1504 296.48C93.5984 295.984 94.3184 295.624 95.3104 295.4C96.3024 295.176 97.6704 295.064 99.4144 295.064H100.014V294.512C100.014 293.728 99.8464 293.16 99.5104 292.808C99.1744 292.44 98.6304 292.256 97.8784 292.256C97.4144 292.256 96.9424 292.328 96.4624 292.472C95.9824 292.6 95.4144 292.792 94.7584 293.048C94.3424 293.256 94.0384 293.36 93.8464 293.36C93.5584 293.36 93.3184 293.256 93.1264 293.048C92.9504 292.84 92.8624 292.568 92.8624 292.232C92.8624 291.96 92.9264 291.728 93.0544 291.536C93.1984 291.328 93.4304 291.136 93.7504 290.96C94.3104 290.656 94.9744 290.416 95.7424 290.24C96.5264 290.064 97.2944 289.976 98.0464 289.976ZM97.3024 300.032C98.1024 300.032 98.7504 299.768 99.2464 299.24C99.7584 298.696 100.014 298 100.014 297.152V296.648H99.5824C98.5104 296.648 97.6784 296.696 97.0864 296.792C96.4944 296.888 96.0704 297.056 95.8144 297.296C95.5584 297.536 95.4304 297.864 95.4304 298.28C95.4304 298.792 95.6064 299.216 95.9584 299.552C96.3264 299.872 96.7744 300.032 97.3024 300.032ZM112.735 289.976C114.143 289.976 115.191 290.376 115.879 291.176C116.567 291.976 116.911 293.184 116.911 294.8V300.704C116.911 301.152 116.775 301.504 116.503 301.76C116.247 302.016 115.887 302.144 115.423 302.144C114.959 302.144 114.591 302.016 114.319 301.76C114.047 301.504 113.911 301.152 113.911 300.704V294.968C113.911 294.056 113.735 293.392 113.383 292.976C113.047 292.56 112.511 292.352 111.775 292.352C110.911 292.352 110.215 292.624 109.687 293.168C109.175 293.712 108.919 294.44 108.919 295.352V300.704C108.919 301.152 108.783 301.504 108.511 301.76C108.239 302.016 107.871 302.144 107.407 302.144C106.943 302.144 106.575 302.016 106.303 301.76C106.047 301.504 105.919 301.152 105.919 300.704V291.416C105.919 291 106.055 290.664 106.327 290.408C106.599 290.152 106.967 290.024 107.431 290.024C107.847 290.024 108.183 290.152 108.439 290.408C108.711 290.648 108.847 290.968 108.847 291.368V292.016C109.247 291.36 109.783 290.856 110.455 290.504C111.127 290.152 111.887 289.976 112.735 289.976ZM131.562 289.976C133.194 289.976 134.402 290.384 135.186 291.2C135.986 292 136.386 293.224 136.386 294.872V300.728C136.386 301.16 136.258 301.504 136.002 301.76C135.746 302 135.394 302.12 134.946 302.12C134.53 302.12 134.186 301.992 133.914 301.736C133.658 301.48 133.53 301.144 133.53 300.728V300.2C133.258 300.824 132.826 301.312 132.234 301.664C131.658 302.016 130.986 302.192 130.218 302.192C129.434 302.192 128.722 302.032 128.082 301.712C127.442 301.392 126.938 300.952 126.57 300.392C126.202 299.832 126.018 299.208 126.018 298.52C126.018 297.656 126.234 296.976 126.666 296.48C127.114 295.984 127.834 295.624 128.826 295.4C129.818 295.176 131.186 295.064 132.93 295.064H133.53V294.512C133.53 293.728 133.362 293.16 133.026 292.808C132.69 292.44 132.146 292.256 131.394 292.256C130.93 292.256 130.458 292.328 129.978 292.472C129.498 292.6 128.93 292.792 128.274 293.048C127.858 293.256 127.554 293.36 127.362 293.36C127.074 293.36 126.834 293.256 126.642 293.048C126.466 292.84 126.378 292.568 126.378 292.232C126.378 291.96 126.442 291.728 126.57 291.536C126.714 291.328 126.946 291.136 127.266 290.96C127.826 290.656 128.49 290.416 129.258 290.24C130.042 290.064 130.81 289.976 131.562 289.976ZM130.818 300.032C131.618 300.032 132.266 299.768 132.762 299.24C133.274 298.696 133.53 298 133.53 297.152V296.648H133.098C132.026 296.648 131.194 296.696 130.602 296.792C130.01 296.888 129.586 297.056 129.33 297.296C129.074 297.536 128.946 297.864 128.946 298.28C128.946 298.792 129.122 299.216 129.474 299.552C129.842 299.872 130.29 300.032 130.818 300.032ZM145.531 299.912C146.331 299.96 146.731 300.32 146.731 300.992C146.731 301.376 146.571 301.672 146.251 301.88C145.947 302.072 145.507 302.152 144.931 302.12L144.283 302.072C141.595 301.88 140.251 300.44 140.251 297.752V292.52H139.051C138.619 292.52 138.283 292.424 138.043 292.232C137.819 292.04 137.707 291.76 137.707 291.392C137.707 291.024 137.819 290.744 138.043 290.552C138.283 290.36 138.619 290.264 139.051 290.264H140.251V288.056C140.251 287.624 140.387 287.28 140.659 287.024C140.931 286.768 141.299 286.64 141.763 286.64C142.211 286.64 142.571 286.768 142.843 287.024C143.115 287.28 143.251 287.624 143.251 288.056V290.264H145.291C145.723 290.264 146.051 290.36 146.275 290.552C146.515 290.744 146.635 291.024 146.635 291.392C146.635 291.76 146.515 292.04 146.275 292.232C146.051 292.424 145.723 292.52 145.291 292.52H143.251V297.968C143.251 299.152 143.795 299.784 144.883 299.864L145.531 299.912ZM156.298 302.144C155.866 302.144 155.506 302.024 155.218 301.784C154.946 301.528 154.81 301.168 154.81 300.704V286.376C154.81 285.912 154.946 285.56 155.218 285.32C155.506 285.08 155.866 284.96 156.298 284.96C156.73 284.96 157.09 285.08 157.378 285.32C157.666 285.56 157.81 285.912 157.81 286.376V300.704C157.81 301.168 157.666 301.528 157.378 301.784C157.09 302.024 156.73 302.144 156.298 302.144ZM166.256 302.192C165.056 302.192 164 301.944 163.088 301.448C162.192 300.952 161.496 300.24 161 299.312C160.504 298.384 160.256 297.304 160.256 296.072C160.256 294.84 160.504 293.768 161 292.856C161.496 291.928 162.192 291.216 163.088 290.72C164 290.224 165.056 289.976 166.256 289.976C167.456 289.976 168.504 290.224 169.4 290.72C170.312 291.216 171.008 291.928 171.488 292.856C171.984 293.768 172.232 294.84 172.232 296.072C172.232 297.304 171.984 298.384 171.488 299.312C171.008 300.24 170.312 300.952 169.4 301.448C168.504 301.944 167.456 302.192 166.256 302.192ZM166.232 299.864C167.208 299.864 167.952 299.544 168.464 298.904C168.976 298.264 169.232 297.32 169.232 296.072C169.232 294.84 168.976 293.904 168.464 293.264C167.952 292.608 167.216 292.28 166.256 292.28C165.296 292.28 164.552 292.608 164.024 293.264C163.512 293.904 163.256 294.84 163.256 296.072C163.256 297.32 163.512 298.264 164.024 298.904C164.536 299.544 165.272 299.864 166.232 299.864ZM179.916 302.192C178.748 302.192 177.716 301.944 176.82 301.448C175.94 300.952 175.26 300.248 174.78 299.336C174.3 298.424 174.06 297.36 174.06 296.144C174.06 294.928 174.308 293.856 174.804 292.928C175.316 291.984 176.028 291.256 176.94 290.744C177.852 290.232 178.9 289.976 180.084 289.976C180.708 289.976 181.332 290.064 181.956 290.24C182.596 290.416 183.156 290.656 183.636 290.96C184.148 291.296 184.404 291.72 184.404 292.232C184.404 292.584 184.316 292.872 184.14 293.096C183.98 293.304 183.764 293.408 183.492 293.408C183.316 293.408 183.132 293.368 182.94 293.288C182.748 293.208 182.556 293.112 182.364 293C182.012 292.792 181.676 292.632 181.356 292.52C181.036 292.392 180.668 292.328 180.252 292.328C179.26 292.328 178.492 292.656 177.948 293.312C177.42 293.952 177.156 294.88 177.156 296.096C177.156 297.296 177.42 298.224 177.948 298.88C178.492 299.52 179.26 299.84 180.252 299.84C180.652 299.84 181.004 299.784 181.308 299.672C181.628 299.544 181.98 299.376 182.364 299.168C182.604 299.024 182.812 298.92 182.988 298.856C183.164 298.776 183.34 298.736 183.516 298.736C183.772 298.736 183.988 298.848 184.164 299.072C184.34 299.296 184.428 299.576 184.428 299.912C184.428 300.184 184.364 300.424 184.236 300.632C184.124 300.824 183.932 301 183.66 301.16C183.164 301.48 182.588 301.736 181.932 301.928C181.276 302.104 180.604 302.192 179.916 302.192ZM191.515 289.976C193.147 289.976 194.355 290.384 195.139 291.2C195.939 292 196.339 293.224 196.339 294.872V300.728C196.339 301.16 196.211 301.504 195.955 301.76C195.699 302 195.347 302.12 194.899 302.12C194.483 302.12 194.139 301.992 193.867 301.736C193.611 301.48 193.483 301.144 193.483 300.728V300.2C193.211 300.824 192.779 301.312 192.187 301.664C191.611 302.016 190.939 302.192 190.171 302.192C189.387 302.192 188.675 302.032 188.035 301.712C187.395 301.392 186.891 300.952 186.523 300.392C186.155 299.832 185.971 299.208 185.971 298.52C185.971 297.656 186.187 296.976 186.619 296.48C187.067 295.984 187.787 295.624 188.779 295.4C189.771 295.176 191.139 295.064 192.883 295.064H193.483V294.512C193.483 293.728 193.315 293.16 192.979 292.808C192.643 292.44 192.099 292.256 191.347 292.256C190.883 292.256 190.411 292.328 189.931 292.472C189.451 292.6 188.883 292.792 188.227 293.048C187.811 293.256 187.507 293.36 187.315 293.36C187.027 293.36 186.787 293.256 186.595 293.048C186.419 292.84 186.331 292.568 186.331 292.232C186.331 291.96 186.395 291.728 186.523 291.536C186.667 291.328 186.899 291.136 187.219 290.96C187.779 290.656 188.443 290.416 189.211 290.24C189.995 290.064 190.763 289.976 191.515 289.976ZM190.771 300.032C191.571 300.032 192.219 299.768 192.715 299.24C193.227 298.696 193.483 298 193.483 297.152V296.648H193.051C191.979 296.648 191.147 296.696 190.555 296.792C189.963 296.888 189.539 297.056 189.283 297.296C189.027 297.536 188.899 297.864 188.899 298.28C188.899 298.792 189.075 299.216 189.427 299.552C189.795 299.872 190.243 300.032 190.771 300.032ZM205.484 299.912C206.284 299.96 206.684 300.32 206.684 300.992C206.684 301.376 206.524 301.672 206.204 301.88C205.9 302.072 205.46 302.152 204.884 302.12L204.236 302.072C201.548 301.88 200.204 300.44 200.204 297.752V292.52H199.004C198.572 292.52 198.236 292.424 197.996 292.232C197.772 292.04 197.66 291.76 197.66 291.392C197.66 291.024 197.772 290.744 197.996 290.552C198.236 290.36 198.572 290.264 199.004 290.264H200.204V288.056C200.204 287.624 200.34 287.28 200.612 287.024C200.884 286.768 201.252 286.64 201.716 286.64C202.164 286.64 202.524 286.768 202.796 287.024C203.068 287.28 203.204 287.624 203.204 288.056V290.264H205.244C205.676 290.264 206.004 290.36 206.228 290.552C206.468 290.744 206.588 291.024 206.588 291.392C206.588 291.76 206.468 292.04 206.228 292.232C206.004 292.424 205.676 292.52 205.244 292.52H203.204V297.968C203.204 299.152 203.748 299.784 204.836 299.864L205.484 299.912ZM209.736 302.144C209.304 302.144 208.944 302.024 208.656 301.784C208.384 301.528 208.248 301.168 208.248 300.704V291.44C208.248 290.976 208.384 290.624 208.656 290.384C208.944 290.144 209.304 290.024 209.736 290.024C210.168 290.024 210.528 290.144 210.816 290.384C211.104 290.624 211.248 290.976 211.248 291.44V300.704C211.248 301.168 211.104 301.528 210.816 301.784C210.528 302.024 210.168 302.144 209.736 302.144ZM209.736 287.888C209.192 287.888 208.76 287.744 208.44 287.456C208.12 287.152 207.96 286.76 207.96 286.28C207.96 285.8 208.12 285.416 208.44 285.128C208.76 284.84 209.192 284.696 209.736 284.696C210.264 284.696 210.688 284.84 211.008 285.128C211.344 285.416 211.512 285.8 211.512 286.28C211.512 286.76 211.352 287.152 211.032 287.456C210.712 287.744 210.28 287.888 209.736 287.888ZM219.693 302.192C218.493 302.192 217.437 301.944 216.525 301.448C215.629 300.952 214.933 300.24 214.437 299.312C213.941 298.384 213.693 297.304 213.693 296.072C213.693 294.84 213.941 293.768 214.437 292.856C214.933 291.928 215.629 291.216 216.525 290.72C217.437 290.224 218.493 289.976 219.693 289.976C220.893 289.976 221.941 290.224 222.837 290.72C223.749 291.216 224.445 291.928 224.925 292.856C225.421 293.768 225.669 294.84 225.669 296.072C225.669 297.304 225.421 298.384 224.925 299.312C224.445 300.24 223.749 300.952 222.837 301.448C221.941 301.944 220.893 302.192 219.693 302.192ZM219.669 299.864C220.645 299.864 221.389 299.544 221.901 298.904C222.413 298.264 222.669 297.32 222.669 296.072C222.669 294.84 222.413 293.904 221.901 293.264C221.389 292.608 220.653 292.28 219.693 292.28C218.733 292.28 217.989 292.608 217.461 293.264C216.949 293.904 216.693 294.84 216.693 296.072C216.693 297.32 216.949 298.264 217.461 298.904C217.973 299.544 218.709 299.864 219.669 299.864ZM234.962 289.976C236.37 289.976 237.418 290.376 238.106 291.176C238.794 291.976 239.138 293.184 239.138 294.8V300.704C239.138 301.152 239.002 301.504 238.73 301.76C238.474 302.016 238.114 302.144 237.65 302.144C237.186 302.144 236.818 302.016 236.546 301.76C236.274 301.504 236.138 301.152 236.138 300.704V294.968C236.138 294.056 235.962 293.392 235.61 292.976C235.274 292.56 234.738 292.352 234.002 292.352C233.138 292.352 232.442 292.624 231.914 293.168C231.402 293.712 231.146 294.44 231.146 295.352V300.704C231.146 301.152 231.01 301.504 230.738 301.76C230.466 302.016 230.098 302.144 229.634 302.144C229.17 302.144 228.802 302.016 228.53 301.76C228.274 301.504 228.146 301.152 228.146 300.704V291.416C228.146 291 228.282 290.664 228.554 290.408C228.826 290.152 229.194 290.024 229.658 290.024C230.074 290.024 230.41 290.152 230.666 290.408C230.938 290.648 231.074 290.968 231.074 291.368V292.016C231.474 291.36 232.01 290.856 232.682 290.504C233.354 290.152 234.114 289.976 234.962 289.976Z" fill="white"/><path d="M 45 321 H 260 V 529 H 45 V 321 Z" fill="white"/><path fill-rule="evenodd" clip-rule="evenodd" d="M69 341H77H85H93H101H109H117H125V349V357V365V373V381V389V397H117H109H101H93H85H77H69V389V381V373V365V357V349V341ZM117 389V381V373V365V357V349H109H101H93H85H77V357V365V373V381V389H85H93H101H109H117ZM133 341H141V349H133V341ZM157 341H149V349V357H141H133V365V373V381H141V389H133V397H141V389H149V397H157V405H149H141H133V413H141V421H149V429H157V437H149V445H157V453H149H141V445V437V429H133V421H125H117H109H101V413V405H93H85H77H69V413V421H77V429H69V437H77V445H85V437H93V429H101V437V445H109V437V429H117H125V437H117V445H125H133V453H141V461H149V469H141V477H133V485V493V501V509H141V501V493H149H157V485H165V493H173V501V509H181V501V493H189V485V477V469H181V477V485V493H173V485H165V477H173V469H165V477H157V485H149H141V477H149V469H157V461H165H173V453H165V445H173V437H181V445V453H189V461H197H205V469V477V485V493H197V501V509H205H213H221V501H213H205V493H213V485V477H221V485H229V477H221V469H229V461H221V453V445H213V453V461H205V453V445H197H189V437H181V429V421H173V413H181V405H173V397V389V381H165V373H173V365H165V357V349H173V341H165H157ZM165 365V373H157V381H149H141V373H149V365V357H157V365H165ZM165 437H173V429V421H165V429V437ZM165 437H157V445H165V437ZM93 429V421H85V429H93ZM157 397V389H165V397H157ZM181 341H189H197H205H213H221H229H237V349V357V365V373V381V389V397H229H221H213H205H197H189H181V389V381V373V365V357V349V341ZM229 389V381V373V365V357V349H221H213H205H197H189V357V365V373V381V389H197H205H213H221H229ZM85 357H93H101H109V365V373V381H101H93H85V373V365V357ZM197 357H205H213H221V365V373V381H213H205H197V373V365V357ZM117 405H125V413H117V405ZM205 405H197V413V421H189V429H197V437H205H213V429H221H229V437H237V429V421V413V405H229V413V421H221H213V413H221V405H213H205ZM213 421V429H205H197V421H205H213ZM229 445H237V453H229V445ZM77 453H69V461V469V477V485V493V501V509H77H85H93H101H109H117H125V501V493V485V477V469V461V453H117H109H101H93H85H77ZM117 493V501H109H101H93H85H77V493V485V477V469V461H85H93H101H109H117V469V477V485V493ZM85 469H93H101H109V477V485V493H101H93H85V485V477V469ZM237 493H229V501H237V493ZM149 501H157V509H149V501Z" fill="black"/><path d="M47.6533 51C47.344 51 47.0986 50.9147 46.9173 50.744C46.7466 50.5733 46.6613 50.3333 46.6613 50.024V40.696C46.6613 40.3867 46.7466 40.1467 46.9173 39.976C47.0986 39.8053 47.344 39.72 47.6533 39.72H50.8213C52.6666 39.72 54.096 40.216 55.1093 41.208C56.1333 42.1893 56.6453 43.5707 56.6453 45.352C56.6453 47.144 56.1333 48.536 55.1093 49.528C54.096 50.5093 52.6666 51 50.8213 51H47.6533ZM50.6933 49.32C53.2853 49.32 54.5813 47.9973 54.5813 45.352C54.5813 42.7173 53.2853 41.4 50.6933 41.4H48.7253V49.32H50.6933ZM61.9398 42.984C63.0278 42.984 63.8331 43.256 64.3558 43.8C64.8891 44.3333 65.1558 45.1493 65.1558 46.248V50.152C65.1558 50.44 65.0705 50.6693 64.8998 50.84C64.7291 51 64.4945 51.08 64.1958 51.08C63.9185 51.08 63.6891 50.9947 63.5078 50.824C63.3371 50.6533 63.2518 50.4293 63.2518 50.152V49.8C63.0705 50.216 62.7825 50.5413 62.3878 50.776C62.0038 51.0107 61.5558 51.128 61.0438 51.128C60.5211 51.128 60.0465 51.0213 59.6198 50.808C59.1931 50.5947 58.8571 50.3013 58.6118 49.928C58.3665 49.5547 58.2438 49.1387 58.2438 48.68C58.2438 48.104 58.3878 47.6507 58.6758 47.32C58.9745 46.9893 59.4545 46.7493 60.1158 46.6C60.7771 46.4507 61.6891 46.376 62.8518 46.376H63.2518V46.008C63.2518 45.4853 63.1398 45.1067 62.9158 44.872C62.6918 44.6267 62.3291 44.504 61.8278 44.504C61.5185 44.504 61.2038 44.552 60.8838 44.648C60.5638 44.7333 60.1851 44.8613 59.7478 45.032C59.4705 45.1707 59.2678 45.24 59.1398 45.24C58.9478 45.24 58.7878 45.1707 58.6598 45.032C58.5425 44.8933 58.4838 44.712 58.4838 44.488C58.4838 44.3067 58.5265 44.152 58.6118 44.024C58.7078 43.8853 58.8625 43.7573 59.0758 43.64C59.4491 43.4373 59.8918 43.2773 60.4038 43.16C60.9265 43.0427 61.4385 42.984 61.9398 42.984ZM61.4438 49.688C61.9771 49.688 62.4091 49.512 62.7398 49.16C63.0811 48.7973 63.2518 48.3333 63.2518 47.768V47.432H62.9638C62.2491 47.432 61.6945 47.464 61.2998 47.528C60.9051 47.592 60.6225 47.704 60.4518 47.864C60.2811 48.024 60.1958 48.2427 60.1958 48.52C60.1958 48.8613 60.3131 49.144 60.5478 49.368C60.7931 49.5813 61.0918 49.688 61.4438 49.688ZM71.2524 49.608C71.7858 49.64 72.0524 49.88 72.0524 50.328C72.0524 50.584 71.9458 50.7813 71.7324 50.92C71.5298 51.048 71.2364 51.1013 70.8524 51.08L70.4204 51.048C68.6284 50.92 67.7324 49.96 67.7324 48.168V44.68H66.9324C66.6444 44.68 66.4204 44.616 66.2604 44.488C66.1111 44.36 66.0364 44.1733 66.0364 43.928C66.0364 43.6827 66.1111 43.496 66.2604 43.368C66.4204 43.24 66.6444 43.176 66.9324 43.176H67.7324V41.704C67.7324 41.416 67.8231 41.1867 68.0044 41.016C68.1858 40.8453 68.4311 40.76 68.7404 40.76C69.0391 40.76 69.2791 40.8453 69.4604 41.016C69.6418 41.1867 69.7324 41.416 69.7324 41.704V43.176H71.0924C71.3804 43.176 71.5991 43.24 71.7484 43.368C71.9084 43.496 71.9884 43.6827 71.9884 43.928C71.9884 44.1733 71.9084 44.36 71.7484 44.488C71.5991 44.616 71.3804 44.68 71.0924 44.68H69.7324V48.312C69.7324 49.1013 70.0951 49.5227 70.8204 49.576L71.2524 49.608ZM79.2867 48.856C79.468 48.856 79.612 48.9253 79.7187 49.064C79.836 49.2027 79.8947 49.3893 79.8947 49.624C79.8947 49.9547 79.6974 50.232 79.3027 50.456C78.94 50.6587 78.5294 50.824 78.0707 50.952C77.612 51.0693 77.1747 51.128 76.7587 51.128C75.5 51.128 74.5027 50.7653 73.7667 50.04C73.0307 49.3147 72.6627 48.3227 72.6627 47.064C72.6627 46.264 72.8227 45.5547 73.1427 44.936C73.4627 44.3173 73.9107 43.8373 74.4867 43.496C75.0734 43.1547 75.7347 42.984 76.4707 42.984C77.1747 42.984 77.788 43.1387 78.3107 43.448C78.8334 43.7573 79.2387 44.1947 79.5267 44.76C79.8147 45.3253 79.9587 45.992 79.9587 46.76C79.9587 47.2187 79.756 47.448 79.3507 47.448H74.6307C74.6947 48.184 74.9027 48.728 75.2547 49.08C75.6067 49.4213 76.1187 49.592 76.7907 49.592C77.132 49.592 77.4307 49.5493 77.6867 49.464C77.9534 49.3787 78.252 49.2613 78.5827 49.112C78.9027 48.9413 79.1374 48.856 79.2867 48.856ZM76.5187 44.392C75.9747 44.392 75.5374 44.5627 75.2067 44.904C74.8867 45.2453 74.6947 45.736 74.6307 46.376H78.2467C78.2254 45.7253 78.0654 45.2347 77.7667 44.904C77.468 44.5627 77.052 44.392 76.5187 44.392Z" fill="white"/><path d="M49.3183 119.08C48.9983 119.08 48.7423 118.989 48.5503 118.808C48.3689 118.616 48.2783 118.365 48.2783 118.056V109.416H45.3663C44.7263 109.416 44.4062 109.133 44.4062 108.568C44.4062 108.003 44.7263 107.72 45.3663 107.72H53.2543C53.8943 107.72 54.2143 108.003 54.2143 108.568C54.2143 109.133 53.8943 109.416 53.2543 109.416H50.3423V118.056C50.3423 118.365 50.2463 118.616 50.0543 118.808C49.8729 118.989 49.6276 119.08 49.3183 119.08ZM57.0945 119.096C56.8065 119.096 56.5665 119.016 56.3745 118.856C56.1932 118.685 56.1025 118.445 56.1025 118.136V111.96C56.1025 111.651 56.1932 111.416 56.3745 111.256C56.5665 111.096 56.8065 111.016 57.0945 111.016C57.3825 111.016 57.6225 111.096 57.8145 111.256C58.0065 111.416 58.1025 111.651 58.1025 111.96V118.136C58.1025 118.445 58.0065 118.685 57.8145 118.856C57.6225 119.016 57.3825 119.096 57.0945 119.096ZM57.0945 109.592C56.7318 109.592 56.4438 109.496 56.2305 109.304C56.0172 109.101 55.9105 108.84 55.9105 108.52C55.9105 108.2 56.0172 107.944 56.2305 107.752C56.4438 107.56 56.7318 107.464 57.0945 107.464C57.4465 107.464 57.7292 107.56 57.9425 107.752C58.1665 107.944 58.2785 108.2 58.2785 108.52C58.2785 108.84 58.1718 109.101 57.9585 109.304C57.7452 109.496 57.4572 109.592 57.0945 109.592ZM69.461 110.984C70.3143 110.984 70.965 111.24 71.413 111.752C71.8717 112.253 72.101 113.069 72.101 114.2V118.136C72.101 118.445 72.005 118.685 71.813 118.856C71.6317 119.016 71.3917 119.096 71.093 119.096C70.805 119.096 70.565 119.016 70.373 118.856C70.1917 118.685 70.101 118.445 70.101 118.136V114.2C70.101 113.613 69.9943 113.197 69.781 112.952C69.5783 112.696 69.2637 112.568 68.837 112.568C68.3143 112.568 67.8983 112.749 67.589 113.112C67.2797 113.464 67.125 113.949 67.125 114.568V118.136C67.125 118.445 67.029 118.685 66.837 118.856C66.6557 119.016 66.421 119.096 66.133 119.096C65.845 119.096 65.605 119.016 65.413 118.856C65.221 118.685 65.125 118.445 65.125 118.136V114.2C65.125 113.613 65.0183 113.197 64.805 112.952C64.6023 112.696 64.2877 112.568 63.861 112.568C63.3383 112.568 62.9223 112.749 62.613 113.112C62.3143 113.464 62.165 113.949 62.165 114.568V118.136C62.165 118.445 62.069 118.685 61.877 118.856C61.685 119.016 61.445 119.096 61.157 119.096C60.869 119.096 60.629 119.016 60.437 118.856C60.2557 118.685 60.165 118.445 60.165 118.136V111.944C60.165 111.645 60.261 111.416 60.453 111.256C60.645 111.096 60.885 111.016 61.173 111.016C61.4503 111.016 61.6743 111.096 61.845 111.256C62.0263 111.405 62.117 111.624 62.117 111.912V112.296C62.3623 111.869 62.6877 111.544 63.093 111.32C63.509 111.096 63.9837 110.984 64.517 110.984C65.6903 110.984 66.4743 111.475 66.869 112.456C67.1037 112.008 67.4503 111.651 67.909 111.384C68.3677 111.117 68.885 110.984 69.461 110.984ZM80.3258 116.856C80.5071 116.856 80.6511 116.925 80.7578 117.064C80.8751 117.203 80.9338 117.389 80.9338 117.624C80.9338 117.955 80.7364 118.232 80.3418 118.456C79.9791 118.659 79.5684 118.824 79.1098 118.952C78.6511 119.069 78.2138 119.128 77.7977 119.128C76.5391 119.128 75.5418 118.765 74.8058 118.04C74.0698 117.315 73.7018 116.323 73.7018 115.064C73.7018 114.264 73.8618 113.555 74.1818 112.936C74.5018 112.317 74.9498 111.837 75.5258 111.496C76.1124 111.155 76.7738 110.984 77.5098 110.984C78.2138 110.984 78.8271 111.139 79.3498 111.448C79.8724 111.757 80.2778 112.195 80.5658 112.76C80.8538 113.325 80.9978 113.992 80.9978 114.76C80.9978 115.219 80.7951 115.448 80.3898 115.448H75.6698C75.7338 116.184 75.9418 116.728 76.2938 117.08C76.6458 117.421 77.1578 117.592 77.8298 117.592C78.1711 117.592 78.4698 117.549 78.7258 117.464C78.9924 117.379 79.2911 117.261 79.6218 117.112C79.9418 116.941 80.1764 116.856 80.3258 116.856ZM77.5578 112.392C77.0138 112.392 76.5764 112.563 76.2458 112.904C75.9258 113.245 75.7338 113.736 75.6698 114.376H79.2858C79.2644 113.725 79.1044 113.235 78.8058 112.904C78.5071 112.563 78.0911 112.392 77.5578 112.392Z" fill="white"/><path d="M52.042 129.13C52.2473 129.13 52.4013 129.186 52.504 129.298C52.616 129.41 52.672 129.555 52.672 129.732C52.672 129.9 52.6207 130.077 52.518 130.264L47.94 138.72C47.7907 138.981 47.5853 139.112 47.324 139.112C47.1467 139.112 46.9833 139.051 46.834 138.93C46.694 138.799 46.624 138.641 46.624 138.454C46.624 138.342 46.6613 138.211 46.736 138.062L50.95 130.32H46.4C46.176 130.32 46.008 130.269 45.896 130.166C45.784 130.063 45.728 129.919 45.728 129.732C45.728 129.331 45.952 129.13 46.4 129.13H52.042ZM58.7519 133.834C58.4999 133.834 58.2853 133.75 58.1079 133.582C57.9399 133.414 57.8559 133.199 57.8559 132.938C57.8559 132.677 57.9399 132.462 58.1079 132.294C58.2853 132.117 58.4999 132.028 58.7519 132.028C59.0039 132.028 59.2139 132.117 59.3819 132.294C59.5499 132.462 59.6339 132.677 59.6339 132.938C59.6339 133.199 59.5499 133.414 59.3819 133.582C59.2139 133.75 59.0039 133.834 58.7519 133.834ZM58.7519 139.07C58.4999 139.07 58.2853 138.986 58.1079 138.818C57.9399 138.65 57.8559 138.435 57.8559 138.174C57.8559 137.913 57.9399 137.698 58.1079 137.53C58.2853 137.353 58.4999 137.264 58.7519 137.264C59.0039 137.264 59.2139 137.353 59.3819 137.53C59.5499 137.698 59.6339 137.913 59.6339 138.174C59.6339 138.435 59.5499 138.65 59.3819 138.818C59.2139 138.986 59.0039 139.07 58.7519 139.07ZM71.1553 137.81C71.3793 137.81 71.5473 137.861 71.6593 137.964C71.7806 138.067 71.8413 138.211 71.8413 138.398C71.8413 138.799 71.6126 139 71.1553 139H65.7513C65.5459 139 65.3826 138.944 65.2613 138.832C65.1493 138.711 65.0933 138.561 65.0933 138.384C65.0933 138.169 65.1773 137.973 65.3453 137.796L68.6353 134.198C69.0739 133.722 69.3913 133.288 69.5873 132.896C69.7833 132.504 69.8813 132.117 69.8813 131.734C69.8813 131.239 69.7366 130.861 69.4473 130.6C69.1673 130.329 68.7659 130.194 68.2433 130.194C67.4499 130.194 66.6613 130.497 65.8773 131.104C65.7746 131.169 65.6859 131.221 65.6113 131.258C65.5459 131.286 65.4759 131.3 65.4013 131.3C65.2706 131.3 65.1586 131.239 65.0653 131.118C64.9719 130.997 64.9253 130.852 64.9253 130.684C64.9253 130.451 65.0186 130.264 65.2053 130.124C65.5973 129.788 66.0686 129.522 66.6193 129.326C67.1699 129.121 67.7253 129.018 68.2853 129.018C69.2093 129.018 69.9419 129.256 70.4833 129.732C71.0339 130.199 71.3093 130.833 71.3093 131.636C71.3093 132.205 71.1833 132.747 70.9313 133.26C70.6886 133.773 70.2779 134.347 69.6993 134.982L67.0533 137.81H71.1553ZM77.1558 132.756C77.7718 132.756 78.3131 132.887 78.7798 133.148C79.2558 133.409 79.6245 133.778 79.8858 134.254C80.1471 134.73 80.2778 135.276 80.2778 135.892C80.2778 136.517 80.1331 137.073 79.8438 137.558C79.5545 138.043 79.1485 138.421 78.6258 138.692C78.1125 138.963 77.5198 139.098 76.8478 139.098C76.2691 139.098 75.6998 139 75.1398 138.804C74.5891 138.608 74.1271 138.337 73.7538 137.992C73.5671 137.833 73.4738 137.647 73.4738 137.432C73.4738 137.264 73.5205 137.124 73.6138 137.012C73.7071 136.891 73.8191 136.83 73.9498 136.83C74.0338 136.83 74.1085 136.844 74.1738 136.872C74.2485 136.9 74.3325 136.947 74.4258 137.012C74.8085 137.311 75.1911 137.539 75.5738 137.698C75.9658 137.847 76.3765 137.922 76.8058 137.922C77.4591 137.922 77.9678 137.749 78.3318 137.404C78.6958 137.049 78.8778 136.555 78.8778 135.92C78.8778 135.313 78.6911 134.828 78.3178 134.464C77.9538 134.1 77.4638 133.918 76.8478 133.918C76.4465 133.918 76.0871 133.988 75.7698 134.128C75.4525 134.259 75.1538 134.469 74.8738 134.758C74.7338 134.889 74.5658 134.954 74.3698 134.954C74.2111 134.954 74.0758 134.907 73.9638 134.814C73.8611 134.711 73.8098 134.581 73.8098 134.422V129.816C73.8098 129.601 73.8658 129.433 73.9778 129.312C74.0991 129.191 74.2718 129.13 74.4958 129.13H79.3118C79.5265 129.13 79.6945 129.181 79.8158 129.284C79.9371 129.387 79.9978 129.527 79.9978 129.704C79.9978 129.891 79.9371 130.035 79.8158 130.138C79.6945 130.241 79.5265 130.292 79.3118 130.292H75.2378V133.4C75.7511 132.971 76.3905 132.756 77.1558 132.756ZM94.4498 138.16C94.4964 138.272 94.5198 138.365 94.5198 138.44C94.5198 138.617 94.4451 138.767 94.2958 138.888C94.1558 139.009 93.9971 139.07 93.8198 139.07C93.6984 139.07 93.5818 139.037 93.4698 138.972C93.3671 138.897 93.2878 138.795 93.2318 138.664L92.3077 136.564H87.1838L86.2598 138.664C86.2038 138.795 86.1198 138.897 86.0078 138.972C85.8958 139.037 85.7791 139.07 85.6578 139.07C85.4711 139.07 85.3031 139.009 85.1538 138.888C85.0138 138.767 84.9438 138.617 84.9438 138.44C84.9438 138.365 84.9671 138.272 85.0138 138.16L88.9618 129.522C89.0271 129.373 89.1298 129.256 89.2698 129.172C89.4191 129.088 89.5731 129.046 89.7318 129.046C89.8904 129.046 90.0398 129.088 90.1798 129.172C90.3291 129.256 90.4364 129.373 90.5018 129.522L94.4498 138.16ZM87.7018 135.416H91.8038L89.7458 130.782L87.7018 135.416ZM104.787 129.06C104.992 129.06 105.16 129.13 105.291 129.27C105.422 129.401 105.487 129.573 105.487 129.788V138.384C105.487 138.599 105.426 138.767 105.305 138.888C105.193 139.009 105.034 139.07 104.829 139.07C104.633 139.07 104.479 139.009 104.367 138.888C104.255 138.767 104.199 138.599 104.199 138.384V131.874L101.455 137.096C101.278 137.423 101.049 137.586 100.769 137.586C100.489 137.586 100.26 137.423 100.083 137.096L97.325 131.93V138.384C97.325 138.599 97.269 138.767 97.157 138.888C97.045 139.009 96.8863 139.07 96.681 139.07C96.485 139.07 96.3263 139.009 96.205 138.888C96.093 138.757 96.037 138.589 96.037 138.384V129.788C96.037 129.573 96.1023 129.401 96.233 129.27C96.3637 129.13 96.5317 129.06 96.737 129.06C97.0263 129.06 97.2597 129.228 97.437 129.564L100.783 135.962L104.101 129.564C104.278 129.228 104.507 129.06 104.787 129.06Z" fill="white"/><path d="M47.6842 187C47.3749 187 47.1349 186.915 46.9642 186.744C46.7935 186.573 46.7082 186.339 46.7082 186.04V176.664C46.7082 176.355 46.7989 176.109 46.9802 175.928C47.1722 175.736 47.4229 175.64 47.7322 175.64C48.0522 175.64 48.3029 175.736 48.4842 175.928C48.6762 176.109 48.7722 176.355 48.7722 176.664V185.304H53.2682C53.9082 185.304 54.2282 185.587 54.2282 186.152C54.2282 186.717 53.9082 187 53.2682 187H47.6842ZM58.9283 187.128C58.1283 187.128 57.4243 186.963 56.8163 186.632C56.219 186.301 55.755 185.827 55.4243 185.208C55.0936 184.589 54.9283 183.869 54.9283 183.048C54.9283 182.227 55.0936 181.512 55.4243 180.904C55.755 180.285 56.219 179.811 56.8163 179.48C57.4243 179.149 58.1283 178.984 58.9283 178.984C59.7283 178.984 60.427 179.149 61.0243 179.48C61.6323 179.811 62.0963 180.285 62.4163 180.904C62.747 181.512 62.9123 182.227 62.9123 183.048C62.9123 183.869 62.747 184.589 62.4163 185.208C62.0963 185.827 61.6323 186.301 61.0243 186.632C60.427 186.963 59.7283 187.128 58.9283 187.128ZM58.9123 185.576C59.563 185.576 60.059 185.363 60.4003 184.936C60.7416 184.509 60.9123 183.88 60.9123 183.048C60.9123 182.227 60.7416 181.603 60.4003 181.176C60.059 180.739 59.5683 180.52 58.9283 180.52C58.2883 180.52 57.7923 180.739 57.4403 181.176C57.099 181.603 56.9283 182.227 56.9283 183.048C56.9283 183.88 57.099 184.509 57.4403 184.936C57.7816 185.363 58.2723 185.576 58.9123 185.576ZM68.0354 187.128C67.2568 187.128 66.5688 186.963 65.9714 186.632C65.3848 186.301 64.9314 185.832 64.6114 185.224C64.2914 184.616 64.1314 183.907 64.1314 183.096C64.1314 182.285 64.2968 181.571 64.6274 180.952C64.9688 180.323 65.4434 179.837 66.0514 179.496C66.6594 179.155 67.3581 178.984 68.1474 178.984C68.5634 178.984 68.9794 179.043 69.3954 179.16C69.8221 179.277 70.1954 179.437 70.5154 179.64C70.8568 179.864 71.0274 180.147 71.0274 180.488C71.0274 180.723 70.9688 180.915 70.8514 181.064C70.7448 181.203 70.6008 181.272 70.4194 181.272C70.3021 181.272 70.1794 181.245 70.0514 181.192C69.9234 181.139 69.7954 181.075 69.6674 181C69.4328 180.861 69.2088 180.755 68.9954 180.68C68.7821 180.595 68.5368 180.552 68.2594 180.552C67.5981 180.552 67.0861 180.771 66.7234 181.208C66.3714 181.635 66.1954 182.253 66.1954 183.064C66.1954 183.864 66.3714 184.483 66.7234 184.92C67.0861 185.347 67.5981 185.56 68.2594 185.56C68.5261 185.56 68.7608 185.523 68.9634 185.448C69.1768 185.363 69.4114 185.251 69.6674 185.112C69.8274 185.016 69.9661 184.947 70.0834 184.904C70.2008 184.851 70.3181 184.824 70.4354 184.824C70.6061 184.824 70.7501 184.899 70.8674 185.048C70.9848 185.197 71.0434 185.384 71.0434 185.608C71.0434 185.789 71.0008 185.949 70.9154 186.088C70.8408 186.216 70.7128 186.333 70.5314 186.44C70.2008 186.653 69.8168 186.824 69.3794 186.952C68.9421 187.069 68.4941 187.128 68.0354 187.128ZM75.7679 178.984C76.8559 178.984 77.6613 179.256 78.1839 179.8C78.7173 180.333 78.9839 181.149 78.9839 182.248V186.152C78.9839 186.44 78.8986 186.669 78.7279 186.84C78.5573 187 78.3226 187.08 78.0239 187.08C77.7466 187.08 77.5173 186.995 77.3359 186.824C77.1653 186.653 77.0799 186.429 77.0799 186.152V185.8C76.8986 186.216 76.6106 186.541 76.2159 186.776C75.8319 187.011 75.3839 187.128 74.8719 187.128C74.3493 187.128 73.8746 187.021 73.4479 186.808C73.0213 186.595 72.6853 186.301 72.4399 185.928C72.1946 185.555 72.0719 185.139 72.0719 184.68C72.0719 184.104 72.2159 183.651 72.5039 183.32C72.8026 182.989 73.2826 182.749 73.9439 182.6C74.6053 182.451 75.5173 182.376 76.6799 182.376H77.0799V182.008C77.0799 181.485 76.9679 181.107 76.7439 180.872C76.5199 180.627 76.1573 180.504 75.6559 180.504C75.3466 180.504 75.0319 180.552 74.7119 180.648C74.3919 180.733 74.0133 180.861 73.5759 181.032C73.2986 181.171 73.0959 181.24 72.9679 181.24C72.7759 181.24 72.6159 181.171 72.4879 181.032C72.3706 180.893 72.3119 180.712 72.3119 180.488C72.3119 180.307 72.3546 180.152 72.4399 180.024C72.5359 179.885 72.6906 179.757 72.9039 179.64C73.2773 179.437 73.7199 179.277 74.2319 179.16C74.7546 179.043 75.2666 178.984 75.7679 178.984ZM75.2719 185.688C75.8053 185.688 76.2373 185.512 76.5679 185.16C76.9093 184.797 77.0799 184.333 77.0799 183.768V183.432H76.7919C76.0773 183.432 75.5226 183.464 75.1279 183.528C74.7333 183.592 74.4506 183.704 74.2799 183.864C74.1093 184.024 74.0239 184.243 74.0239 184.52C74.0239 184.861 74.1413 185.144 74.3759 185.368C74.6213 185.581 74.9199 185.688 75.2719 185.688ZM85.0806 185.608C85.6139 185.64 85.8806 185.88 85.8806 186.328C85.8806 186.584 85.7739 186.781 85.5606 186.92C85.3579 187.048 85.0646 187.101 84.6806 187.08L84.2486 187.048C82.4566 186.92 81.5606 185.96 81.5606 184.168V180.68H80.7606C80.4726 180.68 80.2486 180.616 80.0886 180.488C79.9392 180.36 79.8646 180.173 79.8646 179.928C79.8646 179.683 79.9392 179.496 80.0886 179.368C80.2486 179.24 80.4726 179.176 80.7606 179.176H81.5606V177.704C81.5606 177.416 81.6512 177.187 81.8326 177.016C82.0139 176.845 82.2592 176.76 82.5686 176.76C82.8672 176.76 83.1072 176.845 83.2886 177.016C83.4699 177.187 83.5606 177.416 83.5606 177.704V179.176H84.9206C85.2086 179.176 85.4272 179.24 85.5766 179.368C85.7366 179.496 85.8166 179.683 85.8166 179.928C85.8166 180.173 85.7366 180.36 85.5766 180.488C85.4272 180.616 85.2086 180.68 84.9206 180.68H83.5606V184.312C83.5606 185.101 83.9232 185.523 84.6486 185.576L85.0806 185.608ZM87.9148 187.096C87.6268 187.096 87.3868 187.016 87.1948 186.856C87.0135 186.685 86.9228 186.445 86.9228 186.136V179.96C86.9228 179.651 87.0135 179.416 87.1948 179.256C87.3868 179.096 87.6268 179.016 87.9148 179.016C88.2028 179.016 88.4428 179.096 88.6348 179.256C88.8268 179.416 88.9228 179.651 88.9228 179.96V186.136C88.9228 186.445 88.8268 186.685 88.6348 186.856C88.4428 187.016 88.2028 187.096 87.9148 187.096ZM87.9148 177.592C87.5521 177.592 87.2641 177.496 87.0508 177.304C86.8375 177.101 86.7308 176.84 86.7308 176.52C86.7308 176.2 86.8375 175.944 87.0508 175.752C87.2641 175.56 87.5521 175.464 87.9148 175.464C88.2668 175.464 88.5495 175.56 88.7628 175.752C88.9868 175.944 89.0988 176.2 89.0988 176.52C89.0988 176.84 88.9921 177.101 88.7788 177.304C88.5655 177.496 88.2775 177.592 87.9148 177.592ZM94.5533 187.128C93.7533 187.128 93.0493 186.963 92.4413 186.632C91.844 186.301 91.38 185.827 91.0493 185.208C90.7186 184.589 90.5533 183.869 90.5533 183.048C90.5533 182.227 90.7186 181.512 91.0493 180.904C91.38 180.285 91.844 179.811 92.4413 179.48C93.0493 179.149 93.7533 178.984 94.5533 178.984C95.3533 178.984 96.052 179.149 96.6493 179.48C97.2573 179.811 97.7213 180.285 98.0413 180.904C98.372 181.512 98.5373 182.227 98.5373 183.048C98.5373 183.869 98.372 184.589 98.0413 185.208C97.7213 185.827 97.2573 186.301 96.6493 186.632C96.052 186.963 95.3533 187.128 94.5533 187.128ZM94.5373 185.576C95.188 185.576 95.684 185.363 96.0253 184.936C96.3666 184.509 96.5373 183.88 96.5373 183.048C96.5373 182.227 96.3666 181.603 96.0253 181.176C95.684 180.739 95.1933 180.52 94.5533 180.52C93.9133 180.52 93.4173 180.739 93.0653 181.176C92.724 181.603 92.5533 182.227 92.5533 183.048C92.5533 183.88 92.724 184.509 93.0653 184.936C93.4066 185.363 93.8973 185.576 94.5373 185.576ZM104.732 178.984C105.671 178.984 106.37 179.251 106.828 179.784C107.287 180.317 107.516 181.123 107.516 182.2V186.136C107.516 186.435 107.426 186.669 107.244 186.84C107.074 187.011 106.834 187.096 106.524 187.096C106.215 187.096 105.97 187.011 105.788 186.84C105.607 186.669 105.516 186.435 105.516 186.136V182.312C105.516 181.704 105.399 181.261 105.164 180.984C104.94 180.707 104.583 180.568 104.092 180.568C103.516 180.568 103.052 180.749 102.7 181.112C102.359 181.475 102.188 181.96 102.188 182.568V186.136C102.188 186.435 102.098 186.669 101.916 186.84C101.735 187.011 101.49 187.096 101.18 187.096C100.871 187.096 100.626 187.011 100.444 186.84C100.274 186.669 100.188 186.435 100.188 186.136V179.944C100.188 179.667 100.279 179.443 100.46 179.272C100.642 179.101 100.887 179.016 101.196 179.016C101.474 179.016 101.698 179.101 101.868 179.272C102.05 179.432 102.14 179.645 102.14 179.912V180.344C102.407 179.907 102.764 179.571 103.212 179.336C103.66 179.101 104.167 178.984 104.732 178.984Z" fill="white"/><path d="M52.406 207.808C52.8633 207.808 53.092 207.999 53.092 208.382C53.092 208.765 52.8633 208.956 52.406 208.956H51.51V210.342C51.51 210.575 51.4447 210.757 51.314 210.888C51.1833 211.009 51.0107 211.07 50.796 211.07C50.5907 211.07 50.4227 211.009 50.292 210.888C50.1613 210.757 50.096 210.575 50.096 210.342V208.956H46.162C45.9567 208.956 45.798 208.9 45.686 208.788C45.574 208.676 45.518 208.531 45.518 208.354C45.518 208.167 45.5787 207.985 45.7 207.808L50.166 201.382C50.3153 201.167 50.5253 201.06 50.796 201.06C50.992 201.06 51.16 201.125 51.3 201.256C51.44 201.377 51.51 201.555 51.51 201.788V207.808H52.406ZM47.072 207.808H50.096V203.44L47.072 207.808ZM59.3865 205.932C59.9652 206.1 60.4132 206.399 60.7305 206.828C61.0479 207.257 61.2065 207.771 61.2065 208.368C61.2065 209.227 60.8892 209.899 60.2545 210.384C59.6292 210.86 58.7425 211.098 57.5945 211.098C56.4465 211.098 55.5552 210.86 54.9205 210.384C54.2952 209.899 53.9825 209.227 53.9825 208.368C53.9825 207.761 54.1412 207.243 54.4585 206.814C54.7852 206.385 55.2379 206.091 55.8165 205.932C55.3219 205.745 54.9299 205.451 54.6405 205.05C54.3605 204.649 54.2205 204.182 54.2205 203.65C54.2205 202.838 54.5192 202.199 55.1165 201.732C55.7139 201.256 56.5399 201.018 57.5945 201.018C58.6492 201.018 59.4752 201.256 60.0725 201.732C60.6699 202.199 60.9685 202.838 60.9685 203.65C60.9685 204.182 60.8239 204.653 60.5345 205.064C60.2545 205.465 59.8719 205.755 59.3865 205.932ZM57.5945 202.18C56.9412 202.18 56.4465 202.32 56.1105 202.6C55.7745 202.871 55.6065 203.263 55.6065 203.776C55.6065 204.308 55.7745 204.714 56.1105 204.994C56.4465 205.274 56.9412 205.414 57.5945 205.414C58.2479 205.414 58.7425 205.274 59.0785 204.994C59.4145 204.714 59.5825 204.308 59.5825 203.776C59.5825 203.263 59.4145 202.871 59.0785 202.6C58.7425 202.32 58.2479 202.18 57.5945 202.18ZM57.5945 209.936C59.0785 209.936 59.8205 209.381 59.8205 208.27C59.8205 207.15 59.0785 206.59 57.5945 206.59C56.1105 206.59 55.3685 207.15 55.3685 208.27C55.3685 209.381 56.1105 209.936 57.5945 209.936ZM79.1445 201.494C79.2005 201.345 79.2845 201.233 79.3965 201.158C79.5085 201.083 79.6345 201.046 79.7745 201.046C79.9518 201.046 80.1058 201.107 80.2365 201.228C80.3765 201.34 80.4465 201.489 80.4465 201.676C80.4465 201.779 80.4278 201.872 80.3905 201.956L77.2965 210.608C77.2311 210.767 77.1285 210.888 76.9885 210.972C76.8485 211.056 76.6945 211.098 76.5265 211.098C76.3678 211.098 76.2185 211.056 76.0785 210.972C75.9385 210.888 75.8405 210.767 75.7845 210.608L73.2365 203.384L70.6325 210.608C70.5765 210.767 70.4785 210.888 70.3385 210.972C70.1985 211.056 70.0491 211.098 69.8905 211.098C69.7225 211.098 69.5685 211.056 69.4285 210.972C69.2978 210.888 69.1998 210.767 69.1345 210.608L66.0405 201.956C66.0031 201.872 65.9845 201.779 65.9845 201.676C65.9845 201.489 66.0545 201.34 66.1945 201.228C66.3345 201.107 66.5025 201.046 66.6985 201.046C66.8385 201.046 66.9645 201.083 67.0765 201.158C67.1978 201.233 67.2865 201.345 67.3425 201.494L69.9325 208.942L72.5645 201.564C72.6205 201.405 72.7091 201.284 72.8305 201.2C72.9611 201.116 73.1011 201.074 73.2505 201.074C73.3998 201.074 73.5351 201.121 73.6565 201.214C73.7778 201.298 73.8711 201.419 73.9365 201.578L76.5125 209.012L79.1445 201.494ZM83.362 211.07C83.1566 211.07 82.984 211.014 82.844 210.902C82.7133 210.79 82.648 210.622 82.648 210.398V204.714C82.648 204.49 82.7133 204.322 82.844 204.21C82.984 204.089 83.1566 204.028 83.362 204.028C83.5673 204.028 83.7353 204.089 83.866 204.21C83.9966 204.322 84.062 204.49 84.062 204.714V210.398C84.062 210.622 83.9966 210.79 83.866 210.902C83.7353 211.014 83.5673 211.07 83.362 211.07ZM83.362 202.656C83.0913 202.656 82.8766 202.581 82.718 202.432C82.5593 202.283 82.48 202.087 82.48 201.844C82.48 201.601 82.5593 201.41 82.718 201.27C82.8766 201.121 83.0913 201.046 83.362 201.046C83.6233 201.046 83.8333 201.121 83.992 201.27C84.16 201.41 84.244 201.601 84.244 201.844C84.244 202.087 84.1646 202.283 84.006 202.432C83.8473 202.581 83.6326 202.656 83.362 202.656ZM91.3866 209.278C91.5173 209.278 91.6246 209.329 91.7086 209.432C91.7926 209.535 91.8346 209.665 91.8346 209.824C91.8346 210.095 91.6666 210.323 91.3306 210.51C91.0039 210.697 90.6446 210.841 90.2526 210.944C89.8699 211.047 89.5013 211.098 89.1466 211.098C88.0639 211.098 87.2099 210.785 86.5846 210.16C85.9593 209.525 85.6466 208.662 85.6466 207.57C85.6466 206.87 85.7819 206.249 86.0526 205.708C86.3326 205.167 86.7199 204.747 87.2146 204.448C87.7186 204.149 88.2879 204 88.9226 204C89.8373 204 90.5606 204.294 91.0926 204.882C91.6246 205.47 91.8906 206.263 91.8906 207.262C91.8906 207.635 91.7226 207.822 91.3866 207.822H87.0606C87.1539 209.269 87.8493 209.992 89.1466 209.992C89.4919 209.992 89.7906 209.945 90.0426 209.852C90.2946 209.759 90.5606 209.637 90.8406 209.488C90.8686 209.469 90.9433 209.432 91.0646 209.376C91.1953 209.311 91.3026 209.278 91.3866 209.278ZM88.9506 205.036C88.4093 205.036 87.9753 205.209 87.6486 205.554C87.3219 205.899 87.1259 206.385 87.0606 207.01H90.6726C90.6446 206.375 90.4813 205.89 90.1826 205.554C89.8933 205.209 89.4826 205.036 88.9506 205.036ZM97.0328 204.028C97.4808 204 97.7048 204.191 97.7048 204.602C97.7048 204.807 97.6534 204.961 97.5508 205.064C97.4481 205.167 97.2708 205.227 97.0188 205.246L96.5988 205.288C96.0108 205.344 95.5721 205.549 95.2828 205.904C95.0028 206.259 94.8628 206.688 94.8628 207.192V210.398C94.8628 210.622 94.7974 210.79 94.6668 210.902C94.5361 211.014 94.3681 211.07 94.1628 211.07C93.9574 211.07 93.7848 211.014 93.6448 210.902C93.5141 210.79 93.4488 210.622 93.4488 210.398V204.7C93.4488 204.485 93.5141 204.322 93.6448 204.21C93.7848 204.089 93.9574 204.028 94.1628 204.028C94.3494 204.028 94.5034 204.089 94.6248 204.21C94.7554 204.322 94.8208 204.481 94.8208 204.686V205.358C95.0074 204.947 95.2781 204.635 95.6328 204.42C95.9874 204.205 96.3888 204.079 96.8368 204.042L97.0328 204.028ZM104.025 201.06C104.24 201.06 104.412 201.121 104.543 201.242C104.674 201.363 104.739 201.527 104.739 201.732V210.384C104.739 210.599 104.674 210.767 104.543 210.888C104.422 211.009 104.254 211.07 104.039 211.07C103.824 211.07 103.652 211.009 103.521 210.888C103.4 210.767 103.339 210.599 103.339 210.384V209.824C103.134 210.235 102.835 210.552 102.443 210.776C102.051 210.991 101.598 211.098 101.085 211.098C100.497 211.098 99.9697 210.949 99.503 210.65C99.0457 210.351 98.6863 209.931 98.425 209.39C98.173 208.849 98.047 208.228 98.047 207.528C98.047 206.819 98.173 206.198 98.425 205.666C98.6863 205.134 99.0457 204.723 99.503 204.434C99.9603 204.145 100.488 204 101.085 204C101.598 204 102.046 204.112 102.429 204.336C102.821 204.551 103.12 204.859 103.325 205.26V201.704C103.325 201.508 103.386 201.354 103.507 201.242C103.638 201.121 103.81 201.06 104.025 201.06ZM101.421 209.978C102.028 209.978 102.499 209.768 102.835 209.348C103.171 208.928 103.339 208.331 103.339 207.556C103.339 206.781 103.171 206.184 102.835 205.764C102.508 205.344 102.037 205.134 101.421 205.134C100.805 205.134 100.324 205.344 99.979 205.764C99.643 206.175 99.475 206.763 99.475 207.528C99.475 208.293 99.6477 208.895 99.993 209.334C100.338 209.763 100.814 209.978 101.421 209.978ZM109.58 204C110.486 204 111.158 204.229 111.596 204.686C112.044 205.143 112.268 205.839 112.268 206.772V210.398C112.268 210.613 112.208 210.781 112.086 210.902C111.965 211.014 111.797 211.07 111.582 211.07C111.377 211.07 111.214 211.009 111.092 210.888C110.971 210.767 110.91 210.603 110.91 210.398V209.88C110.733 210.272 110.467 210.575 110.112 210.79C109.767 210.995 109.361 211.098 108.894 211.098C108.446 211.098 108.036 211.009 107.662 210.832C107.298 210.645 107.009 210.393 106.794 210.076C106.58 209.759 106.472 209.399 106.472 208.998C106.463 208.494 106.589 208.102 106.85 207.822C107.112 207.533 107.536 207.327 108.124 207.206C108.712 207.075 109.529 207.01 110.574 207.01H110.896V206.604C110.896 206.081 110.789 205.703 110.574 205.47C110.36 205.237 110.014 205.12 109.538 205.12C109.212 205.12 108.904 205.162 108.614 205.246C108.325 205.33 108.008 205.451 107.662 205.61C107.41 205.75 107.233 205.82 107.13 205.82C106.99 205.82 106.874 205.769 106.78 205.666C106.696 205.563 106.654 205.433 106.654 205.274C106.654 205.134 106.692 205.013 106.766 204.91C106.85 204.798 106.981 204.691 107.158 204.588C107.485 204.411 107.868 204.271 108.306 204.168C108.745 204.056 109.17 204 109.58 204ZM109.146 210.048C109.66 210.048 110.08 209.875 110.406 209.53C110.733 209.175 110.896 208.723 110.896 208.172V207.808H110.644C109.916 207.808 109.356 207.841 108.964 207.906C108.572 207.971 108.292 208.083 108.124 208.242C107.956 208.391 107.872 208.611 107.872 208.9C107.872 209.236 107.994 209.511 108.236 209.726C108.479 209.941 108.782 210.048 109.146 210.048ZM125.762 210.104C125.846 210.225 125.888 210.356 125.888 210.496C125.888 210.664 125.818 210.809 125.678 210.93C125.547 211.042 125.393 211.098 125.216 211.098C124.955 211.098 124.745 210.981 124.586 210.748L122.71 207.836C122.495 207.5 122.267 207.267 122.024 207.136C121.781 206.996 121.464 206.926 121.072 206.926H119.49V210.342C119.49 210.566 119.425 210.743 119.294 210.874C119.173 211.005 119 211.07 118.776 211.07C118.561 211.07 118.389 211.005 118.258 210.874C118.127 210.743 118.062 210.566 118.062 210.342V201.83C118.062 201.615 118.123 201.447 118.244 201.326C118.375 201.195 118.552 201.13 118.776 201.13H122.262C123.354 201.13 124.185 201.373 124.754 201.858C125.333 202.343 125.622 203.053 125.622 203.986C125.622 204.761 125.403 205.391 124.964 205.876C124.525 206.352 123.9 206.655 123.088 206.786C123.331 206.851 123.55 206.968 123.746 207.136C123.942 207.304 124.133 207.537 124.32 207.836L125.762 210.104ZM122.094 205.764C122.822 205.764 123.359 205.624 123.704 205.344C124.059 205.055 124.236 204.611 124.236 204.014C124.236 203.417 124.063 202.983 123.718 202.712C123.373 202.432 122.831 202.292 122.094 202.292H119.476V205.764H122.094ZM133.146 201.06C133.361 201.06 133.533 201.121 133.664 201.242C133.795 201.363 133.86 201.527 133.86 201.732V210.384C133.86 210.599 133.795 210.767 133.664 210.888C133.543 211.009 133.375 211.07 133.16 211.07C132.945 211.07 132.773 211.009 132.642 210.888C132.521 210.767 132.46 210.599 132.46 210.384V209.824C132.255 210.235 131.956 210.552 131.564 210.776C131.172 210.991 130.719 211.098 130.206 211.098C129.618 211.098 129.091 210.949 128.624 210.65C128.167 210.351 127.807 209.931 127.546 209.39C127.294 208.849 127.168 208.228 127.168 207.528C127.168 206.819 127.294 206.198 127.546 205.666C127.807 205.134 128.167 204.723 128.624 204.434C129.081 204.145 129.609 204 130.206 204C130.719 204 131.167 204.112 131.55 204.336C131.942 204.551 132.241 204.859 132.446 205.26V201.704C132.446 201.508 132.507 201.354 132.628 201.242C132.759 201.121 132.931 201.06 133.146 201.06ZM130.542 209.978C131.149 209.978 131.62 209.768 131.956 209.348C132.292 208.928 132.46 208.331 132.46 207.556C132.46 206.781 132.292 206.184 131.956 205.764C131.629 205.344 131.158 205.134 130.542 205.134C129.926 205.134 129.445 205.344 129.1 205.764C128.764 206.175 128.596 206.763 128.596 207.528C128.596 208.293 128.769 208.895 129.114 209.334C129.459 209.763 129.935 209.978 130.542 209.978ZM152.207 201.494C152.263 201.345 152.347 201.233 152.459 201.158C152.571 201.083 152.697 201.046 152.837 201.046C153.014 201.046 153.168 201.107 153.299 201.228C153.439 201.34 153.509 201.489 153.509 201.676C153.509 201.779 153.49 201.872 153.453 201.956L150.359 210.608C150.294 210.767 150.191 210.888 150.051 210.972C149.911 211.056 149.757 211.098 149.589 211.098C149.43 211.098 149.281 211.056 149.141 210.972C149.001 210.888 148.903 210.767 148.847 210.608L146.299 203.384L143.695 210.608C143.639 210.767 143.541 210.888 143.401 210.972C143.261 211.056 143.112 211.098 142.953 211.098C142.785 211.098 142.631 211.056 142.491 210.972C142.36 210.888 142.262 210.767 142.197 210.608L139.103 201.956C139.066 201.872 139.047 201.779 139.047 201.676C139.047 201.489 139.117 201.34 139.257 201.228C139.397 201.107 139.565 201.046 139.761 201.046C139.901 201.046 140.027 201.083 140.139 201.158C140.26 201.233 140.349 201.345 140.405 201.494L142.995 208.942L145.627 201.564C145.683 201.405 145.772 201.284 145.893 201.2C146.024 201.116 146.164 201.074 146.313 201.074C146.462 201.074 146.598 201.121 146.719 201.214C146.84 201.298 146.934 201.419 146.999 201.578L149.575 209.012L152.207 201.494ZM155.001 209.264C155.281 209.264 155.501 209.367 155.659 209.572C155.827 209.777 155.911 210.081 155.911 210.482C155.911 211.275 155.645 211.961 155.113 212.54C155.001 212.652 154.88 212.708 154.749 212.708C154.628 212.708 154.525 212.666 154.441 212.582C154.357 212.507 154.315 212.414 154.315 212.302C154.315 212.209 154.357 212.111 154.441 212.008C154.703 211.737 154.871 211.415 154.945 211.042C154.712 211.023 154.516 210.935 154.357 210.776C154.208 210.617 154.133 210.417 154.133 210.174C154.133 209.913 154.217 209.698 154.385 209.53C154.553 209.353 154.759 209.264 155.001 209.264ZM164.801 211.112C164.091 211.112 163.415 211.014 162.771 210.818C162.136 210.622 161.627 210.351 161.245 210.006C161.067 209.857 160.979 209.665 160.979 209.432C160.979 209.264 161.025 209.124 161.119 209.012C161.212 208.891 161.324 208.83 161.455 208.83C161.585 208.83 161.744 208.891 161.931 209.012C162.761 209.628 163.709 209.936 164.773 209.936C165.519 209.936 166.093 209.796 166.495 209.516C166.896 209.236 167.097 208.835 167.097 208.312C167.097 207.901 166.91 207.593 166.537 207.388C166.163 207.183 165.566 206.987 164.745 206.8C163.961 206.632 163.317 206.441 162.813 206.226C162.309 206.011 161.912 205.722 161.623 205.358C161.343 204.985 161.203 204.513 161.203 203.944C161.203 203.375 161.357 202.871 161.665 202.432C161.982 201.984 162.421 201.639 162.981 201.396C163.541 201.144 164.18 201.018 164.899 201.018C165.561 201.018 166.173 201.111 166.733 201.298C167.293 201.485 167.769 201.76 168.161 202.124C168.347 202.283 168.441 202.474 168.441 202.698C168.441 202.857 168.389 202.997 168.287 203.118C168.193 203.239 168.081 203.3 167.951 203.3C167.829 203.3 167.675 203.239 167.489 203.118C167.059 202.791 166.653 202.558 166.271 202.418C165.897 202.269 165.445 202.194 164.913 202.194C164.194 202.194 163.634 202.343 163.233 202.642C162.831 202.931 162.631 203.337 162.631 203.86C162.631 204.308 162.808 204.649 163.163 204.882C163.517 205.106 164.087 205.311 164.871 205.498C165.692 205.685 166.355 205.881 166.859 206.086C167.372 206.282 167.778 206.557 168.077 206.912C168.385 207.257 168.539 207.705 168.539 208.256C168.539 208.816 168.38 209.315 168.063 209.754C167.755 210.183 167.316 210.519 166.747 210.762C166.187 210.995 165.538 211.112 164.801 211.112ZM173.018 204C173.923 204 174.595 204.229 175.034 204.686C175.482 205.143 175.706 205.839 175.706 206.772V210.398C175.706 210.613 175.645 210.781 175.524 210.902C175.403 211.014 175.235 211.07 175.02 211.07C174.815 211.07 174.651 211.009 174.53 210.888C174.409 210.767 174.348 210.603 174.348 210.398V209.88C174.171 210.272 173.905 210.575 173.55 210.79C173.205 210.995 172.799 211.098 172.332 211.098C171.884 211.098 171.473 211.009 171.1 210.832C170.736 210.645 170.447 210.393 170.232 210.076C170.017 209.759 169.91 209.399 169.91 208.998C169.901 208.494 170.027 208.102 170.288 207.822C170.549 207.533 170.974 207.327 171.562 207.206C172.15 207.075 172.967 207.01 174.012 207.01H174.334V206.604C174.334 206.081 174.227 205.703 174.012 205.47C173.797 205.237 173.452 205.12 172.976 205.12C172.649 205.12 172.341 205.162 172.052 205.246C171.763 205.33 171.445 205.451 171.1 205.61C170.848 205.75 170.671 205.82 170.568 205.82C170.428 205.82 170.311 205.769 170.218 205.666C170.134 205.563 170.092 205.433 170.092 205.274C170.092 205.134 170.129 205.013 170.204 204.91C170.288 204.798 170.419 204.691 170.596 204.588C170.923 204.411 171.305 204.271 171.744 204.168C172.183 204.056 172.607 204 173.018 204ZM172.584 210.048C173.097 210.048 173.517 209.875 173.844 209.53C174.171 209.175 174.334 208.723 174.334 208.172V207.808H174.082C173.354 207.808 172.794 207.841 172.402 207.906C172.01 207.971 171.73 208.083 171.562 208.242C171.394 208.391 171.31 208.611 171.31 208.9C171.31 209.236 171.431 209.511 171.674 209.726C171.917 209.941 172.22 210.048 172.584 210.048ZM181.322 204C182.955 204 183.772 204.919 183.772 206.758V210.398C183.772 210.613 183.707 210.781 183.576 210.902C183.455 211.014 183.282 211.07 183.058 211.07C182.843 211.07 182.671 211.009 182.54 210.888C182.419 210.767 182.358 210.603 182.358 210.398V206.828C182.358 206.249 182.241 205.825 182.008 205.554C181.784 205.283 181.429 205.148 180.944 205.148C180.375 205.148 179.917 205.325 179.572 205.68C179.227 206.035 179.054 206.511 179.054 207.108V210.398C179.054 210.603 178.989 210.767 178.858 210.888C178.737 211.009 178.569 211.07 178.354 211.07C178.139 211.07 177.967 211.009 177.836 210.888C177.705 210.767 177.64 210.603 177.64 210.398V204.7C177.64 204.504 177.705 204.345 177.836 204.224C177.976 204.093 178.149 204.028 178.354 204.028C178.559 204.028 178.723 204.089 178.844 204.21C178.965 204.331 179.026 204.49 179.026 204.686V205.26C179.25 204.849 179.563 204.537 179.964 204.322C180.365 204.107 180.818 204 181.322 204ZM191.293 201.06C191.507 201.06 191.68 201.121 191.811 201.242C191.941 201.363 192.007 201.527 192.007 201.732V210.384C192.007 210.599 191.941 210.767 191.811 210.888C191.689 211.009 191.521 211.07 191.307 211.07C191.092 211.07 190.919 211.009 190.789 210.888C190.667 210.767 190.607 210.599 190.607 210.384V209.824C190.401 210.235 190.103 210.552 189.711 210.776C189.319 210.991 188.866 211.098 188.353 211.098C187.765 211.098 187.237 210.949 186.771 210.65C186.313 210.351 185.954 209.931 185.693 209.39C185.441 208.849 185.315 208.228 185.315 207.528C185.315 206.819 185.441 206.198 185.693 205.666C185.954 205.134 186.313 204.723 186.771 204.434C187.228 204.145 187.755 204 188.353 204C188.866 204 189.314 204.112 189.697 204.336C190.089 204.551 190.387 204.859 190.593 205.26V201.704C190.593 201.508 190.653 201.354 190.775 201.242C190.905 201.121 191.078 201.06 191.293 201.06ZM188.689 209.978C189.295 209.978 189.767 209.768 190.103 209.348C190.439 208.928 190.607 208.331 190.607 207.556C190.607 206.781 190.439 206.184 190.103 205.764C189.776 205.344 189.305 205.134 188.689 205.134C188.073 205.134 187.592 205.344 187.247 205.764C186.911 206.175 186.743 206.763 186.743 207.528C186.743 208.293 186.915 208.895 187.261 209.334C187.606 209.763 188.082 209.978 188.689 209.978ZM197.515 209.992C197.721 210.011 197.865 210.067 197.949 210.16C198.043 210.244 198.089 210.365 198.089 210.524C198.089 210.711 198.015 210.855 197.865 210.958C197.725 211.051 197.515 211.089 197.235 211.07L196.857 211.042C196.101 210.986 195.537 210.757 195.163 210.356C194.79 209.945 194.603 209.343 194.603 208.55V205.26H193.763C193.353 205.26 193.147 205.078 193.147 204.714C193.147 204.546 193.199 204.415 193.301 204.322C193.413 204.219 193.567 204.168 193.763 204.168H194.603V202.726C194.603 202.511 194.664 202.343 194.785 202.222C194.916 202.101 195.089 202.04 195.303 202.04C195.518 202.04 195.691 202.101 195.821 202.222C195.952 202.343 196.017 202.511 196.017 202.726V204.168H197.403C197.599 204.168 197.749 204.219 197.851 204.322C197.963 204.415 198.019 204.546 198.019 204.714C198.019 204.891 197.963 205.027 197.851 205.12C197.749 205.213 197.599 205.26 197.403 205.26H196.017V208.648C196.017 209.087 196.106 209.409 196.283 209.614C196.47 209.819 196.75 209.936 197.123 209.964L197.515 209.992ZM202.073 211.098C201.401 211.098 200.808 210.953 200.295 210.664C199.791 210.375 199.399 209.964 199.119 209.432C198.848 208.891 198.713 208.265 198.713 207.556C198.713 206.837 198.848 206.212 199.119 205.68C199.399 205.139 199.791 204.723 200.295 204.434C200.808 204.145 201.401 204 202.073 204C202.745 204 203.333 204.145 203.837 204.434C204.35 204.723 204.742 205.139 205.013 205.68C205.293 206.212 205.433 206.837 205.433 207.556C205.433 208.265 205.293 208.891 205.013 209.432C204.742 209.964 204.35 210.375 203.837 210.664C203.333 210.953 202.745 211.098 202.073 211.098ZM202.073 209.978C202.698 209.978 203.174 209.773 203.501 209.362C203.837 208.951 204.005 208.349 204.005 207.556C204.005 206.772 203.837 206.175 203.501 205.764C203.165 205.344 202.689 205.134 202.073 205.134C201.457 205.134 200.981 205.344 200.645 205.764C200.309 206.175 200.141 206.772 200.141 207.556C200.141 208.349 200.304 208.951 200.631 209.362C200.967 209.773 201.448 209.978 202.073 209.978ZM210.689 204C212.323 204 213.139 204.919 213.139 206.758V210.398C213.139 210.613 213.074 210.781 212.943 210.902C212.822 211.014 212.649 211.07 212.425 211.07C212.211 211.07 212.038 211.009 211.907 210.888C211.786 210.767 211.725 210.603 211.725 210.398V206.828C211.725 206.249 211.609 205.825 211.375 205.554C211.151 205.283 210.797 205.148 210.311 205.148C209.742 205.148 209.285 205.325 208.939 205.68C208.594 206.035 208.421 206.511 208.421 207.108V210.398C208.421 210.603 208.356 210.767 208.225 210.888C208.104 211.009 207.936 211.07 207.721 211.07C207.507 211.07 207.334 211.009 207.203 210.888C207.073 210.767 207.007 210.603 207.007 210.398V204.7C207.007 204.504 207.073 204.345 207.203 204.224C207.343 204.093 207.516 204.028 207.721 204.028C207.927 204.028 208.09 204.089 208.211 204.21C208.333 204.331 208.393 204.49 208.393 204.686V205.26C208.617 204.849 208.93 204.537 209.331 204.322C209.733 204.107 210.185 204 210.689 204ZM215.732 209.264C216.012 209.264 216.231 209.367 216.39 209.572C216.558 209.777 216.642 210.081 216.642 210.482C216.642 211.275 216.376 211.961 215.844 212.54C215.732 212.652 215.61 212.708 215.48 212.708C215.358 212.708 215.256 212.666 215.172 212.582C215.088 212.507 215.046 212.414 215.046 212.302C215.046 212.209 215.088 212.111 215.172 212.008C215.433 211.737 215.601 211.415 215.676 211.042C215.442 211.023 215.246 210.935 215.088 210.776C214.938 210.617 214.864 210.417 214.864 210.174C214.864 209.913 214.948 209.698 215.116 209.53C215.284 209.353 215.489 209.264 215.732 209.264ZM45.7 230.07C45.42 230.089 45.2053 230.047 45.056 229.944C44.9067 229.841 44.832 229.687 44.832 229.482C44.832 229.118 45.0327 228.922 45.434 228.894L45.868 228.866C46.3067 228.847 46.6333 228.717 46.848 228.474C47.0627 228.222 47.17 227.83 47.17 227.298V220.788C47.17 220.573 47.2353 220.401 47.366 220.27C47.506 220.13 47.6833 220.06 47.898 220.06C48.122 220.06 48.2993 220.13 48.43 220.27C48.5607 220.401 48.626 220.573 48.626 220.788V227.298C48.626 228.175 48.416 228.843 47.996 229.3C47.5853 229.748 46.9647 229.995 46.134 230.042L45.7 230.07ZM53.7195 230.098C53.0475 230.098 52.4548 229.953 51.9415 229.664C51.4375 229.375 51.0455 228.964 50.7655 228.432C50.4948 227.891 50.3595 227.265 50.3595 226.556C50.3595 225.837 50.4948 225.212 50.7655 224.68C51.0455 224.139 51.4375 223.723 51.9415 223.434C52.4548 223.145 53.0475 223 53.7195 223C54.3915 223 54.9795 223.145 55.4835 223.434C55.9968 223.723 56.3888 224.139 56.6595 224.68C56.9395 225.212 57.0795 225.837 57.0795 226.556C57.0795 227.265 56.9395 227.891 56.6595 228.432C56.3888 228.964 55.9968 229.375 55.4835 229.664C54.9795 229.953 54.3915 230.098 53.7195 230.098ZM53.7195 228.978C54.3448 228.978 54.8208 228.773 55.1475 228.362C55.4835 227.951 55.6515 227.349 55.6515 226.556C55.6515 225.772 55.4835 225.175 55.1475 224.764C54.8115 224.344 54.3355 224.134 53.7195 224.134C53.1035 224.134 52.6275 224.344 52.2915 224.764C51.9555 225.175 51.7875 225.772 51.7875 226.556C51.7875 227.349 51.9508 227.951 52.2775 228.362C52.6135 228.773 53.0942 228.978 53.7195 228.978ZM62.3498 223C63.9738 223 64.7858 223.919 64.7858 225.758V229.398C64.7858 229.603 64.7205 229.767 64.5898 229.888C64.4592 230.009 64.2865 230.07 64.0718 230.07C63.8572 230.07 63.6845 230.009 63.5538 229.888C63.4325 229.767 63.3718 229.603 63.3718 229.398V225.772C63.3718 225.212 63.2552 224.801 63.0218 224.54C62.7978 224.279 62.4432 224.148 61.9578 224.148C61.3885 224.148 60.9312 224.325 60.5858 224.68C60.2405 225.035 60.0678 225.511 60.0678 226.108V229.398C60.0678 229.603 60.0025 229.767 59.8718 229.888C59.7505 230.009 59.5825 230.07 59.3678 230.07C59.1532 230.07 58.9805 230.009 58.8498 229.888C58.7192 229.767 58.6538 229.603 58.6538 229.398V220.732C58.6538 220.527 58.7192 220.363 58.8498 220.242C58.9898 220.121 59.1672 220.06 59.3818 220.06C59.5872 220.06 59.7505 220.121 59.8718 220.242C60.0025 220.354 60.0678 220.508 60.0678 220.704V224.204C60.3012 223.812 60.6138 223.513 61.0058 223.308C61.3978 223.103 61.8458 223 62.3498 223ZM69.5902 223C70.4956 223 71.1676 223.229 71.6062 223.686C72.0542 224.143 72.2782 224.839 72.2782 225.772V229.398C72.2782 229.613 72.2176 229.781 72.0962 229.902C71.9749 230.014 71.8069 230.07 71.5922 230.07C71.3869 230.07 71.2236 230.009 71.1022 229.888C70.9809 229.767 70.9202 229.603 70.9202 229.398V228.88C70.7429 229.272 70.4769 229.575 70.1222 229.79C69.7769 229.995 69.3709 230.098 68.9042 230.098C68.4562 230.098 68.0456 230.009 67.6722 229.832C67.3082 229.645 67.0189 229.393 66.8042 229.076C66.5896 228.759 66.4822 228.399 66.4822 227.998C66.4729 227.494 66.5989 227.102 66.8602 226.822C67.1216 226.533 67.5462 226.327 68.1342 226.206C68.7222 226.075 69.5389 226.01 70.5842 226.01H70.9062V225.604C70.9062 225.081 70.7989 224.703 70.5842 224.47C70.3696 224.237 70.0242 224.12 69.5482 224.12C69.2216 224.12 68.9136 224.162 68.6242 224.246C68.3349 224.33 68.0176 224.451 67.6722 224.61C67.4202 224.75 67.2429 224.82 67.1402 224.82C67.0002 224.82 66.8836 224.769 66.7902 224.666C66.7062 224.563 66.6642 224.433 66.6642 224.274C66.6642 224.134 66.7016 224.013 66.7762 223.91C66.8602 223.798 66.9909 223.691 67.1682 223.588C67.4949 223.411 67.8776 223.271 68.3162 223.168C68.7549 223.056 69.1796 223 69.5902 223ZM69.1562 229.048C69.6696 229.048 70.0896 228.875 70.4162 228.53C70.7429 228.175 70.9062 227.723 70.9062 227.172V226.808H70.6542C69.9262 226.808 69.3662 226.841 68.9742 226.906C68.5822 226.971 68.3022 227.083 68.1342 227.242C67.9662 227.391 67.8822 227.611 67.8822 227.9C67.8822 228.236 68.0036 228.511 68.2462 228.726C68.4889 228.941 68.7922 229.048 69.1562 229.048ZM77.8944 223C79.5278 223 80.3444 223.919 80.3444 225.758V229.398C80.3444 229.613 80.2791 229.781 80.1484 229.902C80.0271 230.014 79.8544 230.07 79.6304 230.07C79.4158 230.07 79.2431 230.009 79.1124 229.888C78.9911 229.767 78.9304 229.603 78.9304 229.398V225.828C78.9304 225.249 78.8138 224.825 78.5804 224.554C78.3564 224.283 78.0018 224.148 77.5164 224.148C76.9471 224.148 76.4898 224.325 76.1444 224.68C75.7991 225.035 75.6264 225.511 75.6264 226.108V229.398C75.6264 229.603 75.5611 229.767 75.4304 229.888C75.3091 230.009 75.1411 230.07 74.9264 230.07C74.7118 230.07 74.5391 230.009 74.4084 229.888C74.2778 229.767 74.2124 229.603 74.2124 229.398V223.7C74.2124 223.504 74.2778 223.345 74.4084 223.224C74.5484 223.093 74.7211 223.028 74.9264 223.028C75.1318 223.028 75.2951 223.089 75.4164 223.21C75.5378 223.331 75.5984 223.49 75.5984 223.686V224.26C75.8224 223.849 76.1351 223.537 76.5364 223.322C76.9378 223.107 77.3904 223 77.8944 223ZM85.9608 223C87.5942 223 88.4108 223.919 88.4108 225.758V229.398C88.4108 229.613 88.3455 229.781 88.2148 229.902C88.0935 230.014 87.9208 230.07 87.6968 230.07C87.4822 230.07 87.3095 230.009 87.1788 229.888C87.0575 229.767 86.9968 229.603 86.9968 229.398V225.828C86.9968 225.249 86.8802 224.825 86.6468 224.554C86.4228 224.283 86.0682 224.148 85.5828 224.148C85.0135 224.148 84.5562 224.325 84.2108 224.68C83.8655 225.035 83.6928 225.511 83.6928 226.108V229.398C83.6928 229.603 83.6275 229.767 83.4968 229.888C83.3755 230.009 83.2075 230.07 82.9928 230.07C82.7782 230.07 82.6055 230.009 82.4748 229.888C82.3442 229.767 82.2788 229.603 82.2788 229.398V223.7C82.2788 223.504 82.3442 223.345 82.4748 223.224C82.6148 223.093 82.7875 223.028 82.9928 223.028C83.1982 223.028 83.3615 223.089 83.4828 223.21C83.6042 223.331 83.6648 223.49 83.6648 223.686V224.26C83.8888 223.849 84.2015 223.537 84.6028 223.322C85.0042 223.107 85.4568 223 85.9608 223ZM95.6932 228.278C95.8239 228.278 95.9312 228.329 96.0152 228.432C96.0992 228.535 96.1412 228.665 96.1412 228.824C96.1412 229.095 95.9732 229.323 95.6372 229.51C95.3106 229.697 94.9512 229.841 94.5592 229.944C94.1766 230.047 93.8079 230.098 93.4532 230.098C92.3706 230.098 91.5166 229.785 90.8912 229.16C90.2659 228.525 89.9532 227.662 89.9532 226.57C89.9532 225.87 90.0886 225.249 90.3592 224.708C90.6392 224.167 91.0266 223.747 91.5212 223.448C92.0252 223.149 92.5946 223 93.2292 223C94.1439 223 94.8672 223.294 95.3992 223.882C95.9312 224.47 96.1972 225.263 96.1972 226.262C96.1972 226.635 96.0292 226.822 95.6932 226.822H91.3672C91.4606 228.269 92.1559 228.992 93.4532 228.992C93.7986 228.992 94.0972 228.945 94.3492 228.852C94.6012 228.759 94.8672 228.637 95.1472 228.488C95.1752 228.469 95.2499 228.432 95.3712 228.376C95.5019 228.311 95.6092 228.278 95.6932 228.278ZM93.2572 224.036C92.7159 224.036 92.2819 224.209 91.9552 224.554C91.6286 224.899 91.4326 225.385 91.3672 226.01H94.9792C94.9512 225.375 94.7879 224.89 94.4892 224.554C94.1999 224.209 93.7892 224.036 93.2572 224.036ZM100.135 230.098C99.1834 230.098 98.4041 229.902 97.7974 229.51C97.6294 229.407 97.5081 229.3 97.4334 229.188C97.3681 229.076 97.3354 228.95 97.3354 228.81C97.3354 228.661 97.3774 228.535 97.4614 228.432C97.5454 228.329 97.6527 228.278 97.7834 228.278C97.9047 228.278 98.0961 228.353 98.3574 228.502C98.6374 228.651 98.9081 228.773 99.1694 228.866C99.4401 228.959 99.7761 229.006 100.177 229.006C100.625 229.006 100.975 228.927 101.227 228.768C101.479 228.609 101.605 228.385 101.605 228.096C101.605 227.909 101.554 227.76 101.451 227.648C101.358 227.536 101.19 227.438 100.947 227.354C100.705 227.261 100.345 227.163 99.8694 227.06C99.0481 226.883 98.4554 226.645 98.0914 226.346C97.7367 226.038 97.5594 225.623 97.5594 225.1C97.5594 224.699 97.6761 224.339 97.9094 224.022C98.1427 223.695 98.4647 223.443 98.8754 223.266C99.2861 223.089 99.7527 223 100.275 223C100.649 223 101.013 223.051 101.367 223.154C101.722 223.247 102.035 223.387 102.305 223.574C102.613 223.779 102.767 224.017 102.767 224.288C102.767 224.437 102.721 224.563 102.627 224.666C102.543 224.769 102.441 224.82 102.319 224.82C102.235 224.82 102.151 224.801 102.067 224.764C101.983 224.727 101.871 224.666 101.731 224.582C101.479 224.433 101.241 224.316 101.017 224.232C100.803 224.148 100.532 224.106 100.205 224.106C99.8134 224.106 99.4961 224.19 99.2534 224.358C99.0201 224.526 98.9034 224.755 98.9034 225.044C98.9034 225.305 99.0107 225.511 99.2254 225.66C99.4494 225.8 99.8647 225.935 100.471 226.066C101.097 226.197 101.587 226.346 101.941 226.514C102.296 226.682 102.548 226.892 102.697 227.144C102.856 227.387 102.935 227.699 102.935 228.082C102.935 228.689 102.679 229.179 102.165 229.552C101.661 229.916 100.985 230.098 100.135 230.098ZM108.177 223C108.775 223 109.302 223.145 109.759 223.434C110.217 223.723 110.571 224.134 110.823 224.666C111.085 225.198 111.215 225.819 111.215 226.528C111.215 227.228 111.085 227.849 110.823 228.39C110.571 228.931 110.212 229.351 109.745 229.65C109.288 229.949 108.765 230.098 108.177 230.098C107.664 230.098 107.211 229.991 106.819 229.776C106.427 229.552 106.129 229.235 105.923 228.824V229.384C105.923 229.589 105.858 229.757 105.727 229.888C105.606 230.009 105.438 230.07 105.223 230.07C105.009 230.07 104.836 230.009 104.705 229.888C104.575 229.757 104.509 229.589 104.509 229.384V220.732C104.509 220.527 104.575 220.363 104.705 220.242C104.845 220.121 105.023 220.06 105.237 220.06C105.443 220.06 105.606 220.121 105.727 220.242C105.858 220.354 105.923 220.508 105.923 220.704V224.288C106.129 223.877 106.427 223.56 106.819 223.336C107.211 223.112 107.664 223 108.177 223ZM107.841 228.978C108.448 228.978 108.919 228.763 109.255 228.334C109.601 227.905 109.773 227.303 109.773 226.528C109.773 225.763 109.605 225.175 109.269 224.764C108.933 224.344 108.457 224.134 107.841 224.134C107.225 224.134 106.749 224.344 106.413 224.764C106.087 225.184 105.923 225.781 105.923 226.556C105.923 227.331 106.087 227.928 106.413 228.348C106.749 228.768 107.225 228.978 107.841 228.978ZM118.073 223.028C118.287 223.028 118.455 223.089 118.577 223.21C118.707 223.331 118.773 223.499 118.773 223.714V229.412C118.773 229.608 118.707 229.767 118.577 229.888C118.446 230.009 118.273 230.07 118.059 230.07C117.863 230.07 117.704 230.014 117.583 229.902C117.461 229.781 117.401 229.622 117.401 229.426V228.894C117.186 229.286 116.887 229.585 116.505 229.79C116.131 229.995 115.711 230.098 115.245 230.098C113.583 230.098 112.753 229.183 112.753 227.354V223.714C112.753 223.499 112.813 223.331 112.935 223.21C113.065 223.089 113.243 223.028 113.467 223.028C113.681 223.028 113.849 223.089 113.971 223.21C114.101 223.331 114.167 223.499 114.167 223.714V227.34C114.167 227.891 114.279 228.297 114.503 228.558C114.727 228.819 115.072 228.95 115.539 228.95C116.089 228.95 116.528 228.773 116.855 228.418C117.191 228.063 117.359 227.592 117.359 227.004V223.714C117.359 223.509 117.424 223.345 117.555 223.224C117.685 223.093 117.858 223.028 118.073 223.028ZM124.335 223.028C124.783 223 125.007 223.191 125.007 223.602C125.007 223.807 124.956 223.961 124.853 224.064C124.751 224.167 124.573 224.227 124.321 224.246L123.901 224.288C123.313 224.344 122.875 224.549 122.585 224.904C122.305 225.259 122.165 225.688 122.165 226.192V229.398C122.165 229.622 122.1 229.79 121.969 229.902C121.839 230.014 121.671 230.07 121.465 230.07C121.26 230.07 121.087 230.014 120.947 229.902C120.817 229.79 120.751 229.622 120.751 229.398V223.7C120.751 223.485 120.817 223.322 120.947 223.21C121.087 223.089 121.26 223.028 121.465 223.028C121.652 223.028 121.806 223.089 121.927 223.21C122.058 223.322 122.123 223.481 122.123 223.686V224.358C122.31 223.947 122.581 223.635 122.935 223.42C123.29 223.205 123.691 223.079 124.139 223.042L124.335 223.028ZM131.398 223.028C131.612 223.028 131.78 223.093 131.902 223.224C132.032 223.345 132.098 223.509 132.098 223.714V229.454C132.098 230.499 131.818 231.288 131.258 231.82C130.707 232.352 129.89 232.618 128.808 232.618C127.8 232.618 126.96 232.427 126.288 232.044C125.942 231.848 125.77 231.615 125.77 231.344C125.77 231.185 125.812 231.055 125.896 230.952C125.989 230.849 126.101 230.798 126.232 230.798C126.353 230.798 126.544 230.868 126.806 231.008C127.142 231.167 127.454 231.288 127.744 231.372C128.033 231.465 128.378 231.512 128.78 231.512C130.068 231.512 130.712 230.863 130.712 229.566V228.488C130.516 228.899 130.217 229.221 129.816 229.454C129.414 229.678 128.948 229.79 128.416 229.79C127.818 229.79 127.286 229.65 126.82 229.37C126.353 229.09 125.989 228.693 125.728 228.18C125.476 227.667 125.35 227.074 125.35 226.402C125.35 225.73 125.48 225.137 125.742 224.624C126.003 224.111 126.362 223.714 126.82 223.434C127.286 223.145 127.818 223 128.416 223C128.938 223 129.396 223.112 129.788 223.336C130.189 223.56 130.492 223.877 130.698 224.288V223.7C130.698 223.495 130.758 223.331 130.88 223.21C131.01 223.089 131.183 223.028 131.398 223.028ZM128.752 228.67C129.358 228.67 129.834 228.469 130.18 228.068C130.525 227.667 130.698 227.111 130.698 226.402C130.698 225.702 130.525 225.151 130.18 224.75C129.844 224.339 129.368 224.134 128.752 224.134C128.136 224.134 127.65 224.335 127.296 224.736C126.95 225.137 126.778 225.693 126.778 226.402C126.778 227.111 126.955 227.667 127.31 228.068C127.664 228.469 128.145 228.67 128.752 228.67ZM134.726 228.264C135.006 228.264 135.225 228.367 135.384 228.572C135.552 228.777 135.636 229.081 135.636 229.482C135.636 230.275 135.37 230.961 134.838 231.54C134.726 231.652 134.605 231.708 134.474 231.708C134.353 231.708 134.25 231.666 134.166 231.582C134.082 231.507 134.04 231.414 134.04 231.302C134.04 231.209 134.082 231.111 134.166 231.008C134.427 230.737 134.595 230.415 134.67 230.042C134.437 230.023 134.241 229.935 134.082 229.776C133.933 229.617 133.858 229.417 133.858 229.174C133.858 228.913 133.942 228.698 134.11 228.53C134.278 228.353 134.483 228.264 134.726 228.264ZM147.157 228.81C147.381 228.81 147.549 228.861 147.661 228.964C147.783 229.067 147.843 229.211 147.843 229.398C147.843 229.799 147.615 230 147.157 230H141.753C141.548 230 141.385 229.944 141.263 229.832C141.151 229.711 141.095 229.561 141.095 229.384C141.095 229.169 141.179 228.973 141.347 228.796L144.637 225.198C145.076 224.722 145.393 224.288 145.589 223.896C145.785 223.504 145.883 223.117 145.883 222.734C145.883 222.239 145.739 221.861 145.449 221.6C145.169 221.329 144.768 221.194 144.245 221.194C143.452 221.194 142.663 221.497 141.879 222.104C141.777 222.169 141.688 222.221 141.613 222.258C141.548 222.286 141.478 222.3 141.403 222.3C141.273 222.3 141.161 222.239 141.067 222.118C140.974 221.997 140.927 221.852 140.927 221.684C140.927 221.451 141.021 221.264 141.207 221.124C141.599 220.788 142.071 220.522 142.621 220.326C143.172 220.121 143.727 220.018 144.287 220.018C145.211 220.018 145.944 220.256 146.485 220.732C147.036 221.199 147.311 221.833 147.311 222.636C147.311 223.205 147.185 223.747 146.933 224.26C146.691 224.773 146.28 225.347 145.701 225.982L143.055 228.81H147.157ZM155.454 228.81C155.678 228.81 155.846 228.861 155.958 228.964C156.07 229.067 156.126 229.211 156.126 229.398C156.126 229.799 155.902 230 155.454 230H150.778C150.32 230 150.092 229.799 150.092 229.398C150.092 229.211 150.148 229.067 150.26 228.964C150.381 228.861 150.554 228.81 150.778 228.81H152.388V221.824L150.946 222.734C150.852 222.79 150.759 222.818 150.666 222.818C150.507 222.818 150.367 222.748 150.246 222.608C150.134 222.468 150.078 222.309 150.078 222.132C150.078 221.917 150.171 221.749 150.358 221.628L152.514 220.256C152.728 220.125 152.934 220.06 153.13 220.06C153.335 220.06 153.503 220.125 153.634 220.256C153.764 220.387 153.83 220.564 153.83 220.788V228.81H155.454ZM160.796 220.018C162.019 220.018 162.957 220.438 163.61 221.278C164.273 222.109 164.604 223.299 164.604 224.848C164.604 225.94 164.45 226.883 164.142 227.676C163.834 228.46 163.391 229.062 162.812 229.482C162.234 229.902 161.548 230.112 160.754 230.112C160.222 230.112 159.69 230.014 159.158 229.818C158.626 229.622 158.174 229.351 157.8 229.006C157.614 228.847 157.52 228.661 157.52 228.446C157.52 228.278 157.567 228.138 157.66 228.026C157.754 227.905 157.866 227.844 157.996 227.844C158.08 227.844 158.155 227.858 158.22 227.886C158.295 227.914 158.379 227.961 158.472 228.026C159.256 228.633 160.003 228.936 160.712 228.936C161.487 228.936 162.089 228.581 162.518 227.872C162.948 227.153 163.162 226.155 163.162 224.876V224.848C162.957 225.324 162.621 225.702 162.154 225.982C161.697 226.253 161.179 226.388 160.6 226.388C160.012 226.388 159.485 226.257 159.018 225.996C158.552 225.725 158.188 225.352 157.926 224.876C157.674 224.4 157.548 223.854 157.548 223.238C157.548 222.622 157.688 222.071 157.968 221.586C158.248 221.091 158.631 220.709 159.116 220.438C159.611 220.158 160.171 220.018 160.796 220.018ZM160.866 225.212C161.454 225.212 161.93 225.03 162.294 224.666C162.668 224.293 162.854 223.807 162.854 223.21C162.854 222.603 162.672 222.118 162.308 221.754C161.944 221.381 161.464 221.194 160.866 221.194C160.288 221.194 159.821 221.381 159.466 221.754C159.121 222.118 158.948 222.603 158.948 223.21C158.948 223.807 159.121 224.293 159.466 224.666C159.821 225.03 160.288 225.212 160.866 225.212ZM170.003 223.742C170.591 223.742 171.118 223.877 171.585 224.148C172.051 224.409 172.411 224.778 172.663 225.254C172.924 225.73 173.055 226.276 173.055 226.892C173.055 227.508 172.915 228.063 172.635 228.558C172.355 229.043 171.967 229.426 171.473 229.706C170.987 229.977 170.432 230.112 169.807 230.112C168.584 230.112 167.641 229.697 166.979 228.866C166.325 228.026 165.999 226.831 165.999 225.282C165.999 224.19 166.153 223.252 166.461 222.468C166.769 221.675 167.212 221.068 167.791 220.648C168.369 220.228 169.055 220.018 169.849 220.018C170.381 220.018 170.913 220.116 171.445 220.312C171.977 220.508 172.429 220.779 172.803 221.124C172.989 221.283 173.083 221.469 173.083 221.684C173.083 221.852 173.036 221.997 172.943 222.118C172.849 222.23 172.737 222.286 172.607 222.286C172.523 222.286 172.443 222.272 172.369 222.244C172.303 222.216 172.224 222.169 172.131 222.104C171.347 221.497 170.6 221.194 169.891 221.194C169.116 221.194 168.514 221.553 168.085 222.272C167.655 222.981 167.441 223.975 167.441 225.254V225.282C167.646 224.806 167.977 224.433 168.435 224.162C168.901 223.882 169.424 223.742 170.003 223.742ZM169.737 228.936C170.315 228.936 170.777 228.754 171.123 228.39C171.477 228.017 171.655 227.527 171.655 226.92C171.655 226.323 171.477 225.842 171.123 225.478C170.777 225.105 170.315 224.918 169.737 224.918C169.149 224.918 168.668 225.105 168.295 225.478C167.931 225.842 167.749 226.323 167.749 226.92C167.749 227.527 167.931 228.017 168.295 228.39C168.659 228.754 169.139 228.936 169.737 228.936Z" fill="white"/><path d="M 50.77451705932617 75.79966735839844 L 49.82451629638672 75.79966735839844 L 49.82451629638672 69.65966796875 C 49.82451629638672 69.15299987792969 49.837852478027344 68.66967010498047 49.86451721191406 68.20967102050781 C 49.78451919555664 68.29633331298828 49.69451904296875 68.38300323486328 49.59451675415039 68.46966552734375 C 49.487850189208984 68.56300354003906 49.021183013916016 68.94633483886719 48.19451904296875 69.61966705322266 L 47.67451858520508 68.94966888427734 L 49.95451736450195 67.18966674804688 L 50.77451705932617 67.18966674804688 L 50.77451705932617 75.79966735839844 ZM 57.67085266113281 75.79966735839844 L 56.72085189819336 75.79966735839844 L 56.72085189819336 69.65966796875 C 56.72085189819336 69.15299987792969 56.734188079833984 68.66967010498047 56.7608528137207 68.20967102050781 C 56.68085479736328 68.29633331298828 56.59085464477539 68.38300323486328 56.49085235595703 68.46966552734375 C 56.384185791015625 68.56300354003906 55.917518615722656 68.94633483886719 55.09085464477539 69.61966705322266 L 54.57085418701172 68.94966888427734 L 56.850852966308594 67.18966674804688 L 57.67085266113281 67.18966674804688 L 57.67085266113281 75.79966735839844 ZM 64.66718292236328 67.18966674804688 L 61.457183837890625 75.79966735839844 L 60.4771842956543 75.79966735839844 L 63.68718719482422 67.18966674804688 L 64.66718292236328 67.18966674804688 ZM 68.99591827392578 75.79966735839844 L 68.0459213256836 75.79966735839844 L 68.0459213256836 69.65966796875 C 68.0459213256836 69.15299987792969 68.05924987792969 68.66967010498047 68.08592224121094 68.20967102050781 C 68.00592041015625 68.29633331298828 67.9159164428711 68.38300323486328 67.81591796875 68.46966552734375 C 67.7092514038086 68.56300354003906 67.24258422851562 68.94633483886719 66.4159164428711 69.61966705322266 L 65.89591979980469 68.94966888427734 L 68.17591857910156 67.18966674804688 L 68.99591827392578 67.18966674804688 L 68.99591827392578 75.79966735839844 ZM 78.3322525024414 73.81966400146484 L 77.06224822998047 73.81966400146484 L 77.06224822998047 75.79966735839844 L 76.12225341796875 75.79966735839844 L 76.12225341796875 73.81966400146484 L 71.9322509765625 73.81966400146484 L 71.9322509765625 72.96966552734375 L 76.02224731445312 67.13966369628906 L 77.06224822998047 67.13966369628906 L 77.06224822998047 72.9296646118164 L 78.3322525024414 72.9296646118164 L 78.3322525024414 73.81966400146484 M 76.12225341796875 72.9296646118164 L 76.12225341796875 70.06966400146484 C 76.12225341796875 69.5096664428711 76.14225006103516 68.87633514404297 76.1822509765625 68.16967010498047 L 76.13224792480469 68.16967010498047 C 75.94558715820312 68.54299926757812 75.7689208984375 68.85299682617188 75.60224914550781 69.09967041015625 L 72.9122543334961 72.9296646118164 L 76.12225341796875 72.9296646118164 ZM 82.88858032226562 67.18966674804688 L 79.67858123779297 75.79966735839844 L 78.6985855102539 75.79966735839844 L 81.90858459472656 67.18966674804688 L 82.88858032226562 67.18966674804688 ZM 89.25730895996094 75.79966735839844 L 83.59730529785156 75.79966735839844 L 83.59730529785156 74.95967102050781 L 85.8673095703125 72.6796646118164 C 86.5539779663086 71.97966766357422 87.00730895996094 71.47966766357422 87.22731018066406 71.1796646118164 C 87.44731140136719 70.88633728027344 87.61397552490234 70.5963363647461 87.72731018066406 70.3096694946289 C 87.83397674560547 70.02967071533203 87.8873062133789 69.72633361816406 87.8873062133789 69.39966583251953 C 87.8873062133789 68.93966674804688 87.74730682373047 68.57633209228516 87.4673080444336 68.3096694946289 C 87.19397735595703 68.03633117675781 86.80731201171875 67.89966583251953 86.30731201171875 67.89966583251953 C 85.9539794921875 67.89966583251953 85.6173095703125 67.95967102050781 85.29730987548828 68.07966613769531 C 84.97731018066406 68.19966888427734 84.62064361572266 68.41300201416016 84.22731018066406 68.71966552734375 L 83.70730590820312 68.0596694946289 C 84.50064086914062 67.39966583251953 85.36397552490234 67.06967163085938 86.29730987548828 67.06967163085938 C 87.11064147949219 67.06967163085938 87.74397277832031 67.27633666992188 88.19731140136719 67.68966674804688 C 88.65731048583984 68.10299682617188 88.8873062133789 68.65966796875 88.8873062133789 69.35966491699219 C 88.8873062133789 69.90633392333984 88.73397827148438 70.44633483886719 88.42730712890625 70.97966766357422 C 88.12064361572266 71.51300048828125 87.54730987548828 72.18633270263672 86.70730590820312 72.99966430664062 L 84.82730865478516 74.84967041015625 L 84.82730865478516 74.88966369628906 L 89.25730895996094 74.88966369628906 L 89.25730895996094 75.79966735839844 ZM 96.20364379882812 71.47966766357422 C 96.20364379882812 72.9729995727539 95.96697235107422 74.08633422851562 95.49363708496094 74.81966400146484 C 95.0269775390625 75.5530014038086 94.31031036376953 75.91967010498047 93.34364318847656 75.91967010498047 C 92.41697692871094 75.91967010498047 91.71363830566406 75.54299926757812 91.233642578125 74.78966522216797 C 90.7469711303711 74.03633117675781 90.5036392211914 72.93299865722656 90.5036392211914 71.47966766357422 C 90.5036392211914 69.97966766357422 90.73697662353516 68.8663330078125 91.20364379882812 68.13966369628906 C 91.6703109741211 67.41300201416016 92.3836441040039 67.04966735839844 93.34364318847656 67.04966735839844 C 94.2769775390625 67.04966735839844 94.98697662353516 67.4296646118164 95.47364044189453 68.18966674804688 C 95.9603042602539 68.94966888427734 96.20364379882812 70.04633331298828 96.20364379882812 71.47966766357422 M 91.49363708496094 71.47966766357422 C 91.49363708496094 72.73300170898438 91.64030456542969 73.64633178710938 91.93363952636719 74.21966552734375 C 92.22697448730469 74.79299926757812 92.69697570800781 75.07966613769531 93.34364318847656 75.07966613769531 C 93.9969711303711 75.07966613769531 94.47030639648438 74.78966522216797 94.76364135742188 74.20967102050781 C 95.05030822753906 73.62966918945312 95.19364166259766 72.71966552734375 95.19364166259766 71.47966766357422 C 95.19364166259766 70.246337890625 95.05030822753906 69.34300231933594 94.76364135742188 68.76966857910156 C 94.47030639648438 68.18966674804688 93.9969711303711 67.89966583251953 93.34364318847656 67.89966583251953 C 92.69697570800781 67.89966583251953 92.22697448730469 68.18299865722656 91.93363952636719 68.74966430664062 C 91.64030456542969 69.31633758544922 91.49363708496094 70.22633361816406 91.49363708496094 71.47966766357422 ZM 103.04997253417969 75.79966735839844 L 97.38996887207031 75.79966735839844 L 97.38996887207031 74.95967102050781 L 99.65997314453125 72.6796646118164 C 100.34664154052734 71.97966766357422 100.79997253417969 71.47966766357422 101.01997375488281 71.1796646118164 C 101.23997497558594 70.88633728027344 101.4066390991211 70.5963363647461 101.51997375488281 70.3096694946289 C 101.62664031982422 70.02967071533203 101.67996978759766 69.72633361816406 101.67996978759766 69.39966583251953 C 101.67996978759766 68.93966674804688 101.53997039794922 68.57633209228516 101.25997161865234 68.3096694946289 C 100.98664093017578 68.03633117675781 100.5999755859375 67.89966583251953 100.0999755859375 67.89966583251953 C 99.74664306640625 67.89966583251953 99.40997314453125 67.95967102050781 99.08997344970703 68.07966613769531 C 98.76997375488281 68.19966888427734 98.4133071899414 68.41300201416016 98.01997375488281 68.71966552734375 L 97.49996948242188 68.0596694946289 C 98.29330444335938 67.39966583251953 99.1566390991211 67.06967163085938 100.08997344970703 67.06967163085938 C 100.90330505371094 67.06967163085938 101.53663635253906 67.27633666992188 101.98997497558594 67.68966674804688 C 102.4499740600586 68.10299682617188 102.67996978759766 68.65966796875 102.67996978759766 69.35966491699219 C 102.67996978759766 69.90633392333984 102.52664184570312 70.44633483886719 102.219970703125 70.97966766357422 C 101.9133071899414 71.51300048828125 101.33997344970703 72.18633270263672 100.49996948242188 72.99966430664062 L 98.6199722290039 74.84967041015625 L 98.6199722290039 74.88966369628906 L 103.04997253417969 74.88966369628906 L 103.04997253417969 75.79966735839844 ZM 107.90630340576172 75.79966735839844 L 106.95630645751953 75.79966735839844 L 106.95630645751953 69.65966796875 C 106.95630645751953 69.15299987792969 106.96963500976562 68.66967010498047 106.99630737304688 68.20967102050781 C 106.91630554199219 68.29633331298828 106.82630157470703 68.38300323486328 106.72630310058594 68.46966552734375 C 106.61963653564453 68.56300354003906 106.15296936035156 68.94633483886719 105.32630157470703 69.61966705322266 L 104.80630493164062 68.94966888427734 L 107.0863037109375 67.18966674804688 L 107.90630340576172 67.18966674804688 L 107.90630340576172 75.79966735839844 Z" transform="matrix(1, 0, 0, 1, 0, 0)" style="fill: rgb(255, 255, 255); white-space: pre; color: rgb(255, 255, 255);"/></g></svg>