<svg width="326" height="467" viewBox="0 0 326 467" fill="none" xmlns="http://www.w3.org/2000/svg">
<path d="M164.222 193.83C185.477 193.83 206.255 200.133 223.928 211.941C241.601 223.75 255.375 240.534 263.509 260.172C271.643 279.809 273.771 301.417 269.625 322.264C265.478 343.11 255.243 362.259 240.213 377.289C225.183 392.319 206.034 402.554 185.188 406.701C164.341 410.847 142.733 408.719 123.096 400.585C103.458 392.451 86.6742 378.677 74.8655 361.004C63.0568 343.331 56.7539 322.553 56.7539 301.298C56.7539 272.795 68.0764 245.461 88.2305 225.306C108.385 205.152 135.72 193.83 164.222 193.83Z" stroke="#7EB87A" stroke-width="29"/>
<path d="M213.477 207.765L214.008 202.559H219.358V203.785H215.134L214.818 206.632C215.33 206.331 215.911 206.18 216.561 206.18C217.512 206.18 218.268 206.496 218.827 207.127C219.386 207.753 219.666 208.602 219.666 209.673C219.666 210.748 219.374 211.597 218.791 212.218C218.213 212.835 217.402 213.143 216.36 213.143C215.437 213.143 214.684 212.888 214.101 212.376C213.518 211.865 213.186 211.157 213.104 210.253H214.359C214.441 210.851 214.653 211.303 214.998 211.609C215.342 211.91 215.796 212.061 216.36 212.061C216.977 212.061 217.46 211.85 217.809 211.43C218.162 211.009 218.339 210.428 218.339 209.687C218.339 208.989 218.148 208.43 217.766 208.009C217.388 207.583 216.884 207.371 216.252 207.371C215.674 207.371 215.22 207.497 214.89 207.751L214.539 208.038L213.477 207.765Z" fill="white"/>
<path d="M251.228 247H249.894V238.158L247.219 239.14V237.936L251.02 236.509H251.228V247ZM261.662 242.547C261.662 244.1 261.396 245.255 260.866 246.01C260.335 246.766 259.506 247.143 258.377 247.143C257.263 247.143 256.439 246.775 255.903 246.039C255.368 245.298 255.091 244.194 255.072 242.726V240.955C255.072 239.42 255.337 238.28 255.867 237.534C256.398 236.788 257.23 236.415 258.363 236.415C259.487 236.415 260.314 236.776 260.844 237.498C261.375 238.215 261.647 239.324 261.662 240.826V242.547ZM260.335 240.732C260.335 239.609 260.177 238.791 259.862 238.28C259.546 237.764 259.047 237.505 258.363 237.505C257.684 237.505 257.189 237.761 256.879 238.273C256.568 238.784 256.408 239.571 256.398 240.632V242.755C256.398 243.883 256.561 244.717 256.886 245.257C257.216 245.793 257.713 246.061 258.377 246.061C259.032 246.061 259.518 245.807 259.833 245.3C260.153 244.794 260.321 243.995 260.335 242.905V240.732Z" fill="white"/>
<path d="M268.228 303H266.894V294.158L264.219 295.14V293.936L268.02 292.509H268.228V303ZM272.724 297.765L273.255 292.559H278.604V293.785H274.381L274.065 296.632C274.577 296.331 275.157 296.18 275.808 296.18C276.759 296.18 277.514 296.496 278.074 297.127C278.633 297.753 278.913 298.602 278.913 299.673C278.913 300.748 278.621 301.597 278.038 302.218C277.459 302.835 276.649 303.143 275.607 303.143C274.684 303.143 273.931 302.888 273.348 302.376C272.765 301.865 272.432 301.157 272.351 300.253H273.606C273.687 300.851 273.9 301.303 274.244 301.609C274.589 301.91 275.043 302.061 275.607 302.061C276.224 302.061 276.706 301.85 277.055 301.43C277.409 301.009 277.586 300.428 277.586 299.687C277.586 298.989 277.395 298.43 277.012 298.009C276.635 297.583 276.13 297.371 275.499 297.371C274.921 297.371 274.467 297.497 274.137 297.751L273.785 298.038L272.724 297.765Z" fill="white"/>
<path d="M257.577 357.366H250.736V356.412L254.35 352.396C254.886 351.789 255.254 351.297 255.454 350.919C255.66 350.537 255.763 350.142 255.763 349.736C255.763 349.191 255.598 348.744 255.268 348.395C254.938 348.046 254.498 347.871 253.949 347.871C253.289 347.871 252.775 348.06 252.407 348.438C252.043 348.811 251.862 349.332 251.862 350.001H250.535C250.535 349.04 250.843 348.263 251.46 347.671C252.082 347.078 252.911 346.781 253.949 346.781C254.919 346.781 255.686 347.037 256.25 347.549C256.815 348.055 257.097 348.732 257.097 349.578C257.097 350.606 256.442 351.83 255.132 353.25L252.335 356.283H257.577V357.366ZM265.53 352.913C265.53 354.466 265.265 355.621 264.734 356.376C264.203 357.132 263.374 357.509 262.246 357.509C261.132 357.509 260.307 357.141 259.772 356.405C259.236 355.664 258.959 354.56 258.94 353.092V351.321C258.94 349.786 259.205 348.646 259.736 347.9C260.266 347.154 261.098 346.781 262.231 346.781C263.355 346.781 264.182 347.142 264.712 347.864C265.243 348.581 265.516 349.69 265.53 351.192V352.913ZM264.203 351.098C264.203 349.975 264.046 349.157 263.73 348.646C263.414 348.13 262.915 347.871 262.231 347.871C261.552 347.871 261.058 348.127 260.747 348.639C260.436 349.15 260.276 349.937 260.266 350.998V353.121C260.266 354.249 260.429 355.083 260.754 355.623C261.084 356.159 261.581 356.427 262.246 356.427C262.901 356.427 263.386 356.173 263.701 355.666C264.022 355.16 264.189 354.361 264.203 353.271V351.098Z" fill="white"/>
<path d="M218.478 395.764H211.636V394.81L215.251 390.794C215.786 390.187 216.154 389.694 216.355 389.317C216.561 388.934 216.663 388.54 216.663 388.134C216.663 387.589 216.498 387.142 216.169 386.793C215.839 386.444 215.399 386.269 214.849 386.269C214.189 386.269 213.675 386.458 213.307 386.836C212.944 387.208 212.762 387.73 212.762 388.399H211.436C211.436 387.438 211.744 386.661 212.361 386.068C212.982 385.475 213.812 385.179 214.849 385.179C215.82 385.179 216.587 385.435 217.151 385.946C217.715 386.453 217.997 387.13 217.997 387.976C217.997 389.004 217.342 390.228 216.032 391.647L213.236 394.681H218.478V395.764ZM220.493 390.529L221.023 385.322H226.373V386.549H222.149L221.834 389.396C222.345 389.095 222.926 388.944 223.576 388.944C224.528 388.944 225.283 389.259 225.842 389.891C226.402 390.517 226.681 391.365 226.681 392.436C226.681 393.512 226.39 394.361 225.807 394.982C225.228 395.599 224.418 395.907 223.376 395.907C222.453 395.907 221.7 395.651 221.117 395.14C220.533 394.628 220.201 393.921 220.12 393.017H221.375C221.456 393.615 221.669 394.067 222.013 394.372C222.357 394.674 222.811 394.824 223.376 394.824C223.992 394.824 224.475 394.614 224.824 394.193C225.178 393.772 225.355 393.192 225.355 392.451C225.355 391.753 225.164 391.193 224.781 390.773C224.403 390.347 223.899 390.134 223.268 390.134C222.69 390.134 222.235 390.261 221.905 390.514L221.554 390.801L220.493 390.529Z" fill="white"/>
<path d="M156.372 405.67H157.369C157.995 405.66 158.487 405.495 158.846 405.175C159.204 404.855 159.384 404.422 159.384 403.877C159.384 402.653 158.774 402.041 157.555 402.041C156.981 402.041 156.522 402.206 156.178 402.536C155.839 402.861 155.669 403.294 155.669 403.834H154.342C154.342 403.007 154.644 402.321 155.246 401.776C155.853 401.226 156.623 400.951 157.555 400.951C158.54 400.951 159.312 401.212 159.871 401.733C160.431 402.254 160.71 402.978 160.71 403.906C160.71 404.36 160.562 404.8 160.266 405.225C159.974 405.651 159.575 405.969 159.068 406.179C159.642 406.361 160.084 406.662 160.395 407.082C160.71 407.503 160.868 408.017 160.868 408.624C160.868 409.561 160.562 410.305 159.95 410.854C159.338 411.404 158.542 411.679 157.562 411.679C156.582 411.679 155.784 411.414 155.167 410.883C154.555 410.352 154.249 409.652 154.249 408.782H155.583C155.583 409.332 155.762 409.772 156.121 410.101C156.479 410.431 156.96 410.596 157.562 410.596C158.203 410.596 158.693 410.429 159.032 410.094C159.372 409.76 159.542 409.279 159.542 408.653C159.542 408.046 159.355 407.58 158.982 407.255C158.609 406.929 158.071 406.762 157.369 406.753H156.372V405.67ZM169.237 407.082C169.237 408.636 168.972 409.791 168.441 410.546C167.91 411.301 167.081 411.679 165.953 411.679C164.839 411.679 164.014 411.311 163.478 410.575C162.943 409.834 162.666 408.729 162.647 407.262V405.49C162.647 403.956 162.912 402.816 163.443 402.07C163.973 401.324 164.805 400.951 165.938 400.951C167.062 400.951 167.889 401.312 168.419 402.034C168.95 402.751 169.223 403.86 169.237 405.361V407.082ZM167.91 405.268C167.91 404.145 167.752 403.327 167.437 402.816C167.121 402.299 166.622 402.041 165.938 402.041C165.259 402.041 164.765 402.297 164.454 402.808C164.143 403.32 163.983 404.106 163.973 405.168V407.29C163.973 408.419 164.136 409.253 164.461 409.793C164.791 410.329 165.288 410.596 165.953 410.596C166.607 410.596 167.093 410.343 167.408 409.836C167.729 409.329 167.896 408.531 167.91 407.441V405.268Z" fill="white"/>
<path d="M103.797 392.134H104.794C105.42 392.124 105.912 391.96 106.271 391.639C106.629 391.319 106.809 390.886 106.809 390.341C106.809 389.117 106.199 388.505 104.98 388.505C104.406 388.505 103.947 388.67 103.603 389C103.264 389.325 103.094 389.758 103.094 390.298H101.767C101.767 389.471 102.069 388.785 102.671 388.24C103.278 387.69 104.048 387.415 104.98 387.415C105.965 387.415 106.737 387.676 107.296 388.197C107.856 388.718 108.135 389.442 108.135 390.37C108.135 390.824 107.987 391.264 107.691 391.689C107.399 392.115 107 392.433 106.493 392.643C107.067 392.825 107.509 393.126 107.82 393.547C108.135 393.967 108.293 394.481 108.293 395.089C108.293 396.026 107.987 396.769 107.375 397.319C106.763 397.869 105.967 398.143 104.987 398.143C104.007 398.143 103.209 397.878 102.592 397.347C101.98 396.817 101.674 396.116 101.674 395.246H103.008C103.008 395.796 103.187 396.236 103.546 396.566C103.904 396.896 104.385 397.061 104.987 397.061C105.628 397.061 106.118 396.893 106.457 396.559C106.797 396.224 106.966 395.743 106.966 395.117C106.966 394.51 106.78 394.044 106.407 393.719C106.034 393.394 105.496 393.226 104.794 393.217H103.797V392.134ZM110.724 392.765L111.255 387.559H116.604V388.785H112.381L112.065 391.632C112.577 391.331 113.157 391.18 113.808 391.18C114.759 391.18 115.514 391.496 116.074 392.127C116.633 392.753 116.913 393.602 116.913 394.673C116.913 395.748 116.621 396.597 116.038 397.218C115.459 397.835 114.649 398.143 113.607 398.143C112.684 398.143 111.931 397.888 111.348 397.376C110.765 396.865 110.432 396.157 110.351 395.253H111.606C111.687 395.851 111.9 396.303 112.244 396.609C112.589 396.91 113.043 397.061 113.607 397.061C114.224 397.061 114.706 396.85 115.055 396.43C115.409 396.009 115.586 395.428 115.586 394.687C115.586 393.989 115.395 393.43 115.012 393.009C114.635 392.583 114.13 392.371 113.499 392.371C112.921 392.371 112.467 392.497 112.137 392.751L111.785 393.038L110.724 392.765Z" fill="white"/>
<path d="M67.4684 351.493H68.9169V352.576H67.4684V355H66.1345V352.576H61.3801V351.794L66.0557 344.559H67.4684V351.493ZM62.886 351.493H66.1345V346.373L65.9768 346.66L62.886 351.493ZM76.6618 350.547C76.6618 352.1 76.3965 353.255 75.8658 354.01C75.3351 354.766 74.5057 355.143 73.3774 355.143C72.2635 355.143 71.4388 354.775 70.9034 354.039C70.3679 353.298 70.0906 352.194 70.0715 350.726V348.955C70.0715 347.42 70.3368 346.28 70.8675 345.534C71.3982 344.788 72.23 344.415 73.3631 344.415C74.4865 344.415 75.3136 344.776 75.8443 345.498C76.3749 346.215 76.6474 347.324 76.6618 348.826V350.547ZM75.3351 348.732C75.3351 347.609 75.1774 346.791 74.8618 346.28C74.5463 345.764 74.0467 345.505 73.3631 345.505C72.6842 345.505 72.1894 345.761 71.8786 346.273C71.5679 346.784 71.4077 347.571 71.3982 348.632V350.755C71.3982 351.883 71.5607 352.717 71.8858 353.257C72.2157 353.793 72.7129 354.061 73.3774 354.061C74.0324 354.061 74.5176 353.807 74.8331 353.3C75.1535 352.794 75.3208 351.995 75.3351 350.905V348.732Z" fill="white"/>
<path d="M54.4684 297.493H55.9169V298.576H54.4684V301H53.1345V298.576H48.3801V297.794L53.0557 290.559H54.4684V297.493ZM49.886 297.493H53.1345V292.373L52.9768 292.66L49.886 297.493ZM57.7241 295.765L58.2547 290.559H63.6044V291.785H59.3806L59.0651 294.632C59.5766 294.331 60.1575 294.18 60.8077 294.18C61.759 294.18 62.5144 294.496 63.0738 295.127C63.6331 295.753 63.9128 296.602 63.9128 297.673C63.9128 298.748 63.6211 299.597 63.0379 300.218C62.4594 300.835 61.6491 301.143 60.6069 301.143C59.6842 301.143 58.9312 300.888 58.348 300.376C57.7647 299.865 57.4324 299.157 57.3512 298.253H58.6061C58.6874 298.851 58.9001 299.303 59.2444 299.609C59.5886 299.91 60.0427 300.061 60.6069 300.061C61.2236 300.061 61.7065 299.85 62.0554 299.43C62.4092 299.009 62.5861 298.428 62.5861 297.687C62.5861 296.989 62.3949 296.43 62.0124 296.009C61.6347 295.583 61.1304 295.371 60.4993 295.371C59.9208 295.371 59.4667 295.497 59.1368 295.751L58.7854 296.038L57.7241 295.765Z" fill="white"/>
<path d="M66.4773 241.765L67.0079 236.559H72.3576V237.785H68.1338L67.8183 240.632C68.3298 240.331 68.9107 240.18 69.5608 240.18C70.5122 240.18 71.2676 240.496 71.8269 241.127C72.3863 241.753 72.666 242.602 72.666 243.673C72.666 244.748 72.3743 245.597 71.7911 246.218C71.2126 246.835 70.4023 247.143 69.3601 247.143C68.4374 247.143 67.6844 246.888 67.1011 246.376C66.5179 245.865 66.1856 245.157 66.1044 244.253H67.3593C67.4406 244.851 67.6533 245.303 67.9975 245.609C68.3418 245.91 68.7959 246.061 69.3601 246.061C69.9768 246.061 70.4596 245.85 70.8086 245.43C71.1624 245.009 71.3393 244.428 71.3393 243.687C71.3393 242.989 71.1481 242.43 70.7656 242.009C70.3879 241.583 69.8836 241.371 69.2525 241.371C68.674 241.371 68.2198 241.497 67.89 241.751L67.5386 242.038L66.4773 241.765ZM80.6618 242.547C80.6618 244.1 80.3965 245.255 79.8658 246.01C79.3351 246.766 78.5057 247.143 77.3774 247.143C76.2635 247.143 75.4388 246.775 74.9034 246.039C74.3679 245.298 74.0906 244.194 74.0715 242.726V240.955C74.0715 239.42 74.3368 238.28 74.8675 237.534C75.3982 236.788 76.23 236.415 77.3631 236.415C78.4865 236.415 79.3136 236.776 79.8443 237.498C80.3749 238.215 80.6474 239.324 80.6618 240.826V242.547ZM79.3351 240.732C79.3351 239.609 79.1774 238.791 78.8618 238.28C78.5463 237.764 78.0467 237.505 77.3631 237.505C76.6842 237.505 76.1894 237.761 75.8786 238.273C75.5679 238.784 75.4077 239.571 75.3982 240.632V242.755C75.3982 243.883 75.5607 244.717 75.8858 245.257C76.2157 245.793 76.7129 246.061 77.3774 246.061C78.0324 246.061 78.5176 245.807 78.8331 245.3C79.1535 244.794 79.3208 243.995 79.3351 242.905V240.732Z" fill="white"/>
<path d="M107.477 204.765L108.008 199.559H113.358V200.785H109.134L108.818 203.632C109.33 203.331 109.911 203.18 110.561 203.18C111.512 203.18 112.268 203.496 112.827 204.127C113.386 204.753 113.666 205.602 113.666 206.673C113.666 207.748 113.374 208.597 112.791 209.218C112.213 209.835 111.402 210.143 110.36 210.143C109.437 210.143 108.684 209.888 108.101 209.376C107.518 208.865 107.186 208.157 107.104 207.253H108.359C108.441 207.851 108.653 208.303 108.998 208.609C109.342 208.91 109.796 209.061 110.36 209.061C110.977 209.061 111.46 208.85 111.809 208.43C112.162 208.009 112.339 207.428 112.339 206.687C112.339 205.989 112.148 205.43 111.766 205.009C111.388 204.583 110.884 204.371 110.252 204.371C109.674 204.371 109.22 204.497 108.89 204.751L108.539 205.038L107.477 204.765ZM115.724 204.765L116.255 199.559H121.604V200.785H117.381L117.065 203.632C117.577 203.331 118.157 203.18 118.808 203.18C119.759 203.18 120.514 203.496 121.074 204.127C121.633 204.753 121.913 205.602 121.913 206.673C121.913 207.748 121.621 208.597 121.038 209.218C120.459 209.835 119.649 210.143 118.607 210.143C117.684 210.143 116.931 209.888 116.348 209.376C115.765 208.865 115.432 208.157 115.351 207.253H116.606C116.687 207.851 116.9 208.303 117.244 208.609C117.589 208.91 118.043 209.061 118.607 209.061C119.224 209.061 119.706 208.85 120.055 208.43C120.409 208.009 120.586 207.428 120.586 206.687C120.586 205.989 120.395 205.43 120.012 205.009C119.635 204.583 119.13 204.371 118.499 204.371C117.921 204.371 117.467 204.497 117.137 204.751L116.785 205.038L115.724 204.765Z" fill="white"/>
<path d="M162.415 194.547C162.415 196.1 162.15 197.255 161.619 198.01C161.088 198.766 160.259 199.143 159.131 199.143C158.017 199.143 157.192 198.775 156.657 198.039C156.121 197.298 155.844 196.194 155.825 194.726V192.955C155.825 191.42 156.09 190.28 156.621 189.534C157.151 188.788 157.983 188.415 159.116 188.415C160.24 188.415 161.067 188.776 161.597 189.498C162.128 190.215 162.401 191.324 162.415 192.826V194.547ZM161.088 192.732C161.088 191.609 160.931 190.791 160.615 190.28C160.299 189.764 159.8 189.505 159.116 189.505C158.437 189.505 157.943 189.761 157.632 190.273C157.321 190.784 157.161 191.571 157.151 192.632V194.755C157.151 195.883 157.314 196.717 157.639 197.257C157.969 197.793 158.466 198.061 159.131 198.061C159.786 198.061 160.271 197.807 160.586 197.3C160.907 196.794 161.074 195.995 161.088 194.905V192.732ZM170.662 194.547C170.662 196.1 170.396 197.255 169.866 198.01C169.335 198.766 168.506 199.143 167.377 199.143C166.263 199.143 165.439 198.775 164.903 198.039C164.368 197.298 164.091 196.194 164.072 194.726V192.955C164.072 191.42 164.337 190.28 164.867 189.534C165.398 188.788 166.23 188.415 167.363 188.415C168.487 188.415 169.314 188.776 169.844 189.498C170.375 190.215 170.647 191.324 170.662 192.826V194.547ZM169.335 192.732C169.335 191.609 169.177 190.791 168.862 190.28C168.546 189.764 168.047 189.505 167.363 189.505C166.684 189.505 166.189 189.761 165.879 190.273C165.568 190.784 165.408 191.571 165.398 192.632V194.755C165.398 195.883 165.561 196.717 165.886 197.257C166.216 197.793 166.713 198.061 167.377 198.061C168.032 198.061 168.518 197.807 168.833 197.3C169.153 196.794 169.321 195.995 169.335 194.905V192.732Z" fill="white"/>
<path d="M159.003 152.4H156.821V137.931L152.444 139.539V137.568L158.663 135.232H159.003V152.4ZM176.558 152.4H165.363V150.839L171.278 144.268C172.154 143.275 172.756 142.469 173.085 141.851C173.421 141.225 173.589 140.579 173.589 139.915C173.589 139.023 173.319 138.291 172.78 137.72C172.24 137.149 171.52 136.864 170.621 136.864C169.541 136.864 168.7 137.173 168.098 137.791C167.503 138.401 167.206 139.253 167.206 140.349H165.035C165.035 138.776 165.539 137.505 166.549 136.535C167.566 135.565 168.923 135.08 170.621 135.08C172.209 135.08 173.464 135.498 174.387 136.335C175.31 137.165 175.772 138.272 175.772 139.656C175.772 141.338 174.7 143.341 172.557 145.664L167.98 150.628H176.558V152.4Z" fill="black"/>
<path d="M238.65 167.45H236.831V155.393L233.183 156.732V155.089L238.366 153.143H238.65V167.45Z" fill="black"/>
<path d="M298.695 221.149H289.366V219.849L294.295 214.372C295.025 213.544 295.527 212.873 295.8 212.358C296.081 211.836 296.221 211.299 296.221 210.744C296.221 210.001 295.996 209.392 295.546 208.916C295.096 208.44 294.497 208.202 293.747 208.202C292.847 208.202 292.146 208.459 291.644 208.974C291.149 209.483 290.901 210.194 290.901 211.106H289.092C289.092 209.796 289.513 208.737 290.354 207.928C291.201 207.12 292.332 206.716 293.747 206.716C295.07 206.716 296.117 207.064 296.886 207.762C297.655 208.453 298.04 209.375 298.04 210.529C298.04 211.931 297.147 213.6 295.36 215.536L291.547 219.673H298.695V221.149Z" fill="black"/>
<path d="M317.424 295.7H318.783C319.637 295.687 320.309 295.462 320.798 295.026C321.287 294.589 321.531 293.999 321.531 293.256C321.531 291.587 320.7 290.752 319.038 290.752C318.255 290.752 317.629 290.977 317.16 291.427C316.697 291.87 316.466 292.46 316.466 293.197H314.657C314.657 292.069 315.067 291.134 315.889 290.39C316.717 289.641 317.766 289.266 319.038 289.266C320.381 289.266 321.433 289.621 322.196 290.332C322.959 291.042 323.34 292.03 323.34 293.295C323.34 293.914 323.138 294.514 322.734 295.094C322.336 295.674 321.792 296.108 321.101 296.395C321.883 296.642 322.486 297.053 322.91 297.627C323.34 298.2 323.555 298.901 323.555 299.729C323.555 301.007 323.138 302.021 322.304 302.77C321.469 303.52 320.384 303.895 319.047 303.895C317.711 303.895 316.622 303.533 315.781 302.809C314.947 302.086 314.53 301.131 314.53 299.944H316.348C316.348 300.694 316.593 301.294 317.082 301.744C317.571 302.193 318.226 302.418 319.047 302.418C319.921 302.418 320.589 302.19 321.052 301.734C321.515 301.277 321.746 300.622 321.746 299.768C321.746 298.94 321.492 298.305 320.984 297.861C320.475 297.418 319.742 297.19 318.783 297.177H317.424V295.7Z" fill="black"/>
<path d="M303.36 370.885H305.335V372.362H303.36V375.667H301.541V372.362H295.058V371.296L301.433 361.429H303.36V370.885ZM297.111 370.885H301.541V363.903L301.326 364.294L297.111 370.885Z" fill="black"/>
<path d="M243.579 425.678L244.303 418.578H251.598V420.251H245.838L245.408 424.133C246.106 423.722 246.898 423.517 247.784 423.517C249.082 423.517 250.112 423.947 250.874 424.808C251.637 425.662 252.019 426.819 252.019 428.279C252.019 429.746 251.621 430.903 250.826 431.751C250.037 432.592 248.932 433.012 247.51 433.012C246.252 433.012 245.225 432.663 244.43 431.966C243.635 431.268 243.182 430.303 243.071 429.071H244.782C244.893 429.886 245.183 430.502 245.652 430.919C246.122 431.33 246.741 431.535 247.51 431.535C248.351 431.535 249.01 431.249 249.486 430.675C249.968 430.101 250.209 429.309 250.209 428.299C250.209 427.347 249.949 426.584 249.427 426.01C248.912 425.43 248.224 425.14 247.364 425.14C246.575 425.14 245.956 425.313 245.506 425.658L245.027 426.05L243.579 425.678Z" fill="black"/>
<path d="M167.207 446.086V447.621H166.874C165.466 447.647 164.345 448.064 163.51 448.873C162.676 449.681 162.193 450.819 162.063 452.286C162.813 451.425 163.836 450.995 165.134 450.995C166.372 450.995 167.36 451.432 168.097 452.305C168.84 453.179 169.211 454.307 169.211 455.689C169.211 457.155 168.81 458.329 168.009 459.209C167.213 460.089 166.144 460.529 164.801 460.529C163.439 460.529 162.334 460.008 161.486 458.965C160.639 457.915 160.215 456.566 160.215 454.916V454.222C160.215 451.601 160.772 449.6 161.887 448.218C163.008 446.829 164.674 446.118 166.884 446.086H167.207ZM164.83 452.501C164.211 452.501 163.641 452.687 163.119 453.058C162.598 453.43 162.236 453.896 162.034 454.457V455.121C162.034 456.295 162.298 457.24 162.826 457.957C163.354 458.674 164.012 459.033 164.801 459.033C165.616 459.033 166.255 458.733 166.718 458.133C167.187 457.534 167.422 456.748 167.422 455.777C167.422 454.799 167.184 454.01 166.708 453.41C166.239 452.804 165.613 452.501 164.83 452.501Z" fill="black"/>
<path d="M84.1137 448.163C94.4369 448.163 102.806 439.794 102.806 429.471C102.806 419.148 94.4369 410.779 84.1137 410.779C73.7904 410.779 65.4218 419.148 65.4218 429.471C65.4218 439.794 73.7904 448.163 84.1137 448.163Z" fill="#EC6D5F"/>
<path d="M88.2434 423.145L82.3467 436.366H80.4497L86.3267 423.614H78.621V422.128H88.2434V423.145Z" fill="white"/>
<path d="M219.868 405.366C226.496 405.366 231.868 399.993 231.868 393.366C231.868 386.739 226.496 381.366 219.868 381.366C213.241 381.366 207.868 386.739 207.868 393.366C207.868 399.993 213.241 405.366 219.868 405.366Z" fill="black"/>
<path d="M218.577 398.366H211.736V397.412L215.35 393.396C215.886 392.789 216.254 392.297 216.454 391.919C216.66 391.537 216.763 391.142 216.763 390.736C216.763 390.191 216.598 389.744 216.268 389.395C215.938 389.046 215.498 388.871 214.949 388.871C214.289 388.871 213.775 389.06 213.407 389.438C213.043 389.811 212.862 390.332 212.862 391.001H211.535C211.535 390.04 211.843 389.263 212.46 388.671C213.082 388.078 213.911 387.781 214.949 387.781C215.919 387.781 216.686 388.037 217.25 388.549C217.815 389.055 218.097 389.732 218.097 390.578C218.097 391.606 217.442 392.83 216.132 394.25L213.335 397.283H218.577V398.366ZM220.592 393.131L221.123 387.925H226.473V389.151H222.249L221.933 391.998C222.445 391.697 223.026 391.546 223.676 391.546C224.627 391.546 225.383 391.862 225.942 392.493C226.501 393.119 226.781 393.968 226.781 395.039C226.781 396.114 226.489 396.963 225.906 397.584C225.328 398.201 224.517 398.509 223.475 398.509C222.552 398.509 221.799 398.254 221.216 397.742C220.633 397.231 220.301 396.523 220.219 395.619H221.474C221.556 396.217 221.768 396.669 222.113 396.975C222.457 397.276 222.911 397.427 223.475 397.427C224.092 397.427 224.575 397.216 224.924 396.795C225.277 396.375 225.454 395.794 225.454 395.053C225.454 394.355 225.263 393.796 224.881 393.375C224.503 392.949 223.999 392.737 223.367 392.737C222.789 392.737 222.335 392.863 222.005 393.117L221.654 393.404L220.592 393.131Z" fill="white"/>
<path d="M28.889 365.145C28.889 365.856 28.6999 366.488 28.3218 367.042C27.9502 367.596 27.445 368.03 26.8061 368.343C27.5493 368.662 28.136 369.128 28.5663 369.741C29.0031 370.354 29.2215 371.048 29.2215 371.824C29.2215 373.056 28.8042 374.037 27.9698 374.768C27.1418 375.498 26.0499 375.863 24.6939 375.863C23.3248 375.863 22.2263 375.498 21.3984 374.768C20.577 374.031 20.1663 373.05 20.1663 371.824C20.1663 371.055 20.3749 370.361 20.7921 369.741C21.2159 369.122 21.7993 368.652 22.5425 368.333C21.9102 368.02 21.4114 367.587 21.0464 367.032C20.6813 366.478 20.4988 365.849 20.4988 365.145C20.4988 363.946 20.8834 362.994 21.6527 362.29C22.4219 361.586 23.4357 361.234 24.6939 361.234C25.9456 361.234 26.956 361.586 27.7253 362.29C28.5011 362.994 28.889 363.946 28.889 365.145ZM27.4124 371.785C27.4124 370.99 27.1581 370.341 26.6496 369.839C26.1477 369.337 25.4892 369.086 24.6743 369.086C23.8594 369.086 23.2042 369.334 22.7088 369.829C22.2198 370.325 21.9754 370.977 21.9754 371.785C21.9754 372.593 22.2133 373.229 22.6892 373.692C23.1716 374.155 23.8399 374.386 24.6939 374.386C25.5414 374.386 26.2063 374.155 26.6888 373.692C27.1712 373.222 27.4124 372.587 27.4124 371.785ZM24.6939 362.72C23.9833 362.72 23.4063 362.942 22.963 363.385C22.5262 363.822 22.3078 364.418 22.3078 365.174C22.3078 365.898 22.523 366.485 22.9532 366.935C23.39 367.378 23.9702 367.6 24.6939 367.6C25.4175 367.6 25.9945 367.378 26.4247 366.935C26.8615 366.485 27.0799 365.898 27.0799 365.174C27.0799 364.451 26.855 363.861 26.4052 363.405C25.9553 362.948 25.3849 362.72 24.6939 362.72Z" fill="black"/>
<path d="M8.11644 297.441C7.73832 297.891 7.28523 298.253 6.75718 298.526C6.23564 298.8 5.66195 298.937 5.0361 298.937C4.21468 298.937 3.49756 298.735 2.88476 298.331C2.27847 297.927 1.80908 297.359 1.4766 296.629C1.14412 295.893 0.977884 295.081 0.977884 294.194C0.977884 293.243 1.15716 292.385 1.51572 291.622C1.8808 290.86 2.39582 290.276 3.06078 289.872C3.72574 289.468 4.50152 289.266 5.38814 289.266C6.79629 289.266 7.90456 289.794 8.71294 290.85C9.52785 291.9 9.9353 293.334 9.9353 295.153V295.681C9.9353 298.451 9.38768 300.476 8.29245 301.753C7.19722 303.025 5.5446 303.677 3.33458 303.709H2.98255V302.184H3.36392C4.85682 302.158 6.00421 301.77 6.80607 301.02C7.60794 300.264 8.04472 299.071 8.11644 297.441ZM5.32947 297.441C5.93575 297.441 6.49315 297.255 7.00165 296.883C7.51667 296.512 7.89152 296.052 8.12621 295.505V294.781C8.12621 293.595 7.8687 292.63 7.35369 291.887C6.83867 291.143 6.18674 290.772 5.39792 290.772C4.60257 290.772 3.96369 291.078 3.48127 291.691C2.99884 292.297 2.75763 293.099 2.75763 294.097C2.75763 295.068 2.98906 295.87 3.45193 296.502C3.92131 297.128 4.54716 297.441 5.32947 297.441Z" fill="black"/>
<path d="M30.4376 221.149H28.6187V209.092L24.9712 210.431V208.789L30.154 206.843H30.4376V221.149ZM44.6658 215.076C44.6658 217.195 44.304 218.77 43.5804 219.8C42.8567 220.83 41.7256 221.345 40.1871 221.345C38.6681 221.345 37.5436 220.843 36.8134 219.839C36.0833 218.828 35.7051 217.322 35.6791 215.321V212.906C35.6791 210.813 36.0409 209.258 36.7645 208.241C37.4882 207.224 38.6225 206.716 40.1676 206.716C41.6996 206.716 42.8274 207.208 43.551 208.192C44.2747 209.17 44.6463 210.682 44.6658 212.729V215.076ZM42.8567 212.602C42.8567 211.07 42.6416 209.956 42.2113 209.258C41.7811 208.554 41.0998 208.202 40.1676 208.202C39.2418 208.202 38.5671 208.551 38.1433 209.248C37.7196 209.946 37.5012 211.018 37.4882 212.465V215.36C37.4882 216.899 37.7098 218.036 38.1531 218.773C38.6029 219.503 39.2809 219.868 40.1871 219.868C41.0802 219.868 41.7419 219.523 42.1722 218.831C42.609 218.14 42.8372 217.052 42.8567 215.565V212.602Z" fill="black"/>
<path d="M81.2932 168.232H79.4743V156.175L75.8268 157.515V155.872L81.0096 153.926H81.2932V168.232ZM92.5389 168.232H90.72V156.175L87.0725 157.515V155.872L92.2553 153.926H92.5389V168.232Z" fill="black"/>
<path d="M143.134 284.795L130.555 313H126.507L139.045 285.797H122.606V282.626H143.134V284.795ZM147.786 310.976C147.786 310.309 147.981 309.753 148.37 309.308C148.774 308.862 149.372 308.64 150.164 308.64C150.957 308.64 151.555 308.862 151.958 309.308C152.376 309.753 152.584 310.309 152.584 310.976C152.584 311.616 152.376 312.152 151.958 312.583C151.555 313.014 150.957 313.229 150.164 313.229C149.372 313.229 148.774 313.014 148.37 312.583C147.981 312.152 147.786 311.616 147.786 310.976ZM147.807 292.556C147.807 291.888 148.002 291.332 148.391 290.887C148.794 290.442 149.393 290.219 150.185 290.219C150.978 290.219 151.576 290.442 151.979 290.887C152.397 291.332 152.605 291.888 152.605 292.556C152.605 293.195 152.397 293.731 151.979 294.162C151.576 294.593 150.978 294.809 150.185 294.809C149.393 294.809 148.794 294.593 148.391 294.162C148.002 293.731 147.807 293.195 147.807 292.556ZM177.764 313H157.862V310.225L168.377 298.543C169.934 296.777 171.005 295.344 171.589 294.245C172.187 293.133 172.486 291.985 172.486 290.803C172.486 289.218 172.006 287.917 171.047 286.902C170.087 285.887 168.808 285.379 167.208 285.379C165.289 285.379 163.794 285.929 162.723 287.027C161.666 288.112 161.138 289.628 161.138 291.575H157.278C157.278 288.78 158.175 286.52 159.969 284.795C161.777 283.071 164.19 282.208 167.208 282.208C170.032 282.208 172.264 282.952 173.905 284.441C175.546 285.915 176.366 287.883 176.366 290.344C176.366 293.335 174.461 296.895 170.65 301.025L162.514 309.85H177.764V313ZM183.626 297.771L185.17 282.626H200.733V286.193H188.445L187.527 294.475C189.016 293.599 190.705 293.161 192.597 293.161C195.364 293.161 197.562 294.079 199.189 295.914C200.816 297.736 201.63 300.205 201.63 303.32C201.63 306.449 200.781 308.918 199.085 310.726C197.402 312.52 195.044 313.417 192.013 313.417C189.328 313.417 187.138 312.673 185.441 311.185C183.744 309.697 182.778 307.639 182.541 305.01H186.192C186.429 306.748 187.048 308.063 188.049 308.953C189.05 309.829 190.372 310.267 192.013 310.267C193.807 310.267 195.211 309.655 196.227 308.431C197.256 307.207 197.77 305.518 197.77 303.362C197.77 301.331 197.214 299.704 196.101 298.48C195.003 297.243 193.536 296.624 191.7 296.624C190.017 296.624 188.696 296.992 187.736 297.729L186.714 298.564L183.626 297.771Z" fill="#EC6D5F"/>
<path d="M159.183 335.27H154.809L153.826 337.995H152.406L156.393 327.554H157.598L161.593 337.995H160.18L159.183 335.27ZM155.225 334.137H158.774L156.996 329.253L155.225 334.137ZM164.777 327.554L168.19 336.073L171.603 327.554H173.389V337.995H172.012V333.929L172.141 329.54L168.713 337.995H167.659L164.239 329.562L164.375 333.929V337.995H162.998V327.554H164.777Z" fill="#4A4A4A"/>
<path d="M56.0755 115.714C65.6614 115.714 73.4323 107.943 73.4323 98.3568C73.4323 88.7709 65.6614 81 56.0755 81C46.4896 81 38.7188 88.7709 38.7188 98.3568C38.7188 107.943 46.4896 115.714 56.0755 115.714Z" fill="black"/>
<path d="M51.4124 102.676C51.263 102.238 51.1084 101.806 50.9484 101.38C50.7884 100.953 50.6337 100.516 50.4844 100.068H45.8124C45.663 100.516 45.5084 100.958 45.3484 101.396C45.199 101.822 45.0497 102.249 44.9004 102.676H42.8044C43.2204 101.492 43.615 100.398 43.9884 99.3955C44.3617 98.3929 44.7244 97.4435 45.0764 96.5475C45.439 95.6515 45.7964 94.7982 46.1484 93.9875C46.5004 93.1769 46.863 92.3769 47.2364 91.5875H49.1404C49.5137 92.3769 49.8764 93.1769 50.2284 93.9875C50.5804 94.7982 50.9324 95.6515 51.2844 96.5475C51.647 97.4435 52.015 98.3929 52.3884 99.3955C52.7724 100.398 53.1724 101.492 53.5884 102.676H51.4124ZM48.1484 93.7315C47.903 94.2969 47.6204 94.9849 47.3004 95.7955C46.991 96.6062 46.6657 97.4862 46.3244 98.4355H49.9724C49.631 97.4862 49.3004 96.6009 48.9804 95.7795C48.6604 94.9582 48.383 94.2755 48.1484 93.7315ZM57.4059 91.5875C57.6405 91.9929 57.9019 92.4889 58.1899 93.0755C58.4779 93.6622 58.7712 94.2809 59.0699 94.9315C59.3685 95.5715 59.6619 96.2275 59.9499 96.8995C60.2485 97.5609 60.5205 98.1742 60.7659 98.7395C61.0112 98.1742 61.2779 97.5609 61.5659 96.8995C61.8539 96.2275 62.1472 95.5715 62.4459 94.9315C62.7445 94.2809 63.0379 93.6622 63.3259 93.0755C63.6139 92.4889 63.8752 91.9929 64.1099 91.5875H65.9339C66.0299 92.3982 66.1205 93.2622 66.2059 94.1795C66.2912 95.0862 66.3659 96.0195 66.4299 96.9795C66.5045 97.9289 66.5685 98.8889 66.6219 99.8595C66.6859 100.82 66.7392 101.758 66.7819 102.676H64.7979C64.7552 101.385 64.7019 100.057 64.6379 98.6915C64.5845 97.3262 64.4992 96.0035 64.3819 94.7235C64.2645 94.9689 64.1259 95.2622 63.9659 95.6035C63.8059 95.9449 63.6352 96.3182 63.4539 96.7235C63.2725 97.1182 63.0859 97.5289 62.8939 97.9555C62.7125 98.3822 62.5312 98.7982 62.3499 99.2035C62.1792 99.5982 62.0192 99.9715 61.8699 100.324C61.7205 100.665 61.5925 100.958 61.4859 101.204H59.9819C59.8752 100.958 59.7472 100.66 59.5979 100.308C59.4485 99.9555 59.2832 99.5822 59.1019 99.1875C58.9312 98.7822 58.7499 98.3662 58.5579 97.9395C58.3765 97.5129 58.1952 97.1022 58.0139 96.7075C57.8325 96.3129 57.6619 95.9449 57.5019 95.6035C57.3419 95.2515 57.2032 94.9582 57.0859 94.7235C56.9685 96.0035 56.8779 97.3262 56.8139 98.6915C56.7605 100.057 56.7125 101.385 56.6699 102.676H54.6859C54.7285 101.758 54.7765 100.809 54.8299 99.8275C54.8939 98.8462 54.9579 97.8755 55.0219 96.9155C55.0965 95.9449 55.1765 95.0062 55.2619 94.0995C55.3472 93.1929 55.4379 92.3555 55.5339 91.5875H57.4059Z" fill="white"/>
<path d="M276.277 91.166C277.888 91.166 279.12 91.4593 279.973 92.046C280.837 92.6326 281.269 93.55 281.269 94.798C281.269 95.4486 281.152 96.0086 280.917 96.478C280.693 96.9366 280.363 97.3153 279.925 97.614C279.488 97.902 278.955 98.1153 278.325 98.254C277.696 98.3926 276.976 98.462 276.165 98.462H275.157V102.366H273.141V91.438C273.611 91.3313 274.128 91.262 274.693 91.23C275.269 91.1873 275.797 91.166 276.277 91.166ZM276.421 92.91C275.909 92.91 275.488 92.926 275.157 92.958V96.734H276.133C277.104 96.734 277.851 96.6006 278.373 96.334C278.896 96.0566 279.157 95.5393 279.157 94.782C279.157 94.4193 279.088 94.1153 278.949 93.87C278.811 93.6246 278.619 93.4326 278.373 93.294C278.128 93.1553 277.835 93.0593 277.493 93.006C277.163 92.942 276.805 92.91 276.421 92.91ZM285.526 91.278C285.761 91.6833 286.022 92.1793 286.31 92.766C286.598 93.3526 286.892 93.9713 287.19 94.622C287.489 95.262 287.782 95.918 288.07 96.59C288.369 97.2513 288.641 97.8646 288.886 98.43C289.132 97.8646 289.398 97.2513 289.686 96.59C289.974 95.918 290.268 95.262 290.566 94.622C290.865 93.9713 291.158 93.3526 291.446 92.766C291.734 92.1793 291.996 91.6833 292.23 91.278H294.054C294.15 92.0886 294.241 92.9526 294.326 93.87C294.412 94.7766 294.486 95.71 294.55 96.67C294.625 97.6193 294.689 98.5793 294.742 99.55C294.806 100.51 294.86 101.449 294.902 102.366H292.918C292.876 101.075 292.822 99.7473 292.758 98.382C292.705 97.0166 292.62 95.694 292.502 94.414C292.385 94.6593 292.246 94.9526 292.086 95.294C291.926 95.6353 291.756 96.0086 291.574 96.414C291.393 96.8086 291.206 97.2193 291.014 97.646C290.833 98.0726 290.652 98.4886 290.47 98.894C290.3 99.2886 290.14 99.662 289.99 100.014C289.841 100.355 289.713 100.649 289.606 100.894H288.102C287.996 100.649 287.868 100.35 287.718 99.998C287.569 99.646 287.404 99.2726 287.222 98.878C287.052 98.4726 286.87 98.0566 286.678 97.63C286.497 97.2033 286.316 96.7926 286.134 96.398C285.953 96.0033 285.782 95.6353 285.622 95.294C285.462 94.942 285.324 94.6486 285.206 94.414C285.089 95.694 284.998 97.0166 284.934 98.382C284.881 99.7473 284.833 101.075 284.79 102.366H282.806C282.849 101.449 282.897 100.499 282.95 99.518C283.014 98.5366 283.078 97.566 283.142 96.606C283.217 95.6353 283.297 94.6966 283.382 93.79C283.468 92.8833 283.558 92.046 283.654 91.278H285.526Z" fill="black"/>
<path d="M96.1519 29.15C95.6685 29.15 95.2769 29.0083 94.9769 28.725C94.6935 28.425 94.5519 28.025 94.5519 27.525V12.9C94.5519 12.4167 94.6852 12.0417 94.9519 11.775C95.2352 11.5083 95.6185 11.375 96.1019 11.375H102.252C104.135 11.375 105.602 11.85 106.652 12.8C107.702 13.7333 108.227 15.05 108.227 16.75C108.227 18.45 107.702 19.775 106.652 20.725C105.602 21.675 104.135 22.15 102.252 22.15H97.7769V27.525C97.7769 28.025 97.6269 28.425 97.3269 28.725C97.0435 29.0083 96.6519 29.15 96.1519 29.15ZM101.852 19.675C104.069 19.675 105.177 18.7083 105.177 16.775C105.177 14.8417 104.069 13.875 101.852 13.875H97.7769V19.675H101.852ZM112.331 29.15C111.881 29.15 111.506 29.025 111.206 28.775C110.922 28.5083 110.781 28.1333 110.781 27.65V18C110.781 17.5167 110.922 17.15 111.206 16.9C111.506 16.65 111.881 16.525 112.331 16.525C112.781 16.525 113.156 16.65 113.456 16.9C113.756 17.15 113.906 17.5167 113.906 18V27.65C113.906 28.1333 113.756 28.5083 113.456 28.775C113.156 29.025 112.781 29.15 112.331 29.15ZM112.331 14.3C111.764 14.3 111.314 14.15 110.981 13.85C110.647 13.5333 110.481 13.125 110.481 12.625C110.481 12.125 110.647 11.725 110.981 11.425C111.314 11.125 111.764 10.975 112.331 10.975C112.881 10.975 113.322 11.125 113.656 11.425C114.006 11.725 114.181 12.125 114.181 12.625C114.181 13.125 114.014 13.5333 113.681 13.85C113.347 14.15 112.897 14.3 112.331 14.3ZM122.553 29.2C121.337 29.2 120.262 28.9417 119.328 28.425C118.412 27.9083 117.703 27.175 117.203 26.225C116.703 25.275 116.453 24.1667 116.453 22.9C116.453 21.6333 116.712 20.5167 117.228 19.55C117.762 18.5667 118.503 17.8083 119.453 17.275C120.403 16.7417 121.495 16.475 122.728 16.475C123.378 16.475 124.028 16.5667 124.678 16.75C125.345 16.9333 125.928 17.1833 126.428 17.5C126.962 17.85 127.228 18.2917 127.228 18.825C127.228 19.1917 127.137 19.4917 126.953 19.725C126.787 19.9417 126.562 20.05 126.278 20.05C126.095 20.05 125.903 20.0083 125.703 19.925C125.503 19.8417 125.303 19.7417 125.103 19.625C124.737 19.4083 124.387 19.2417 124.053 19.125C123.72 18.9917 123.337 18.925 122.903 18.925C121.87 18.925 121.07 19.2667 120.503 19.95C119.953 20.6167 119.678 21.5833 119.678 22.85C119.678 24.1 119.953 25.0667 120.503 25.75C121.07 26.4167 121.87 26.75 122.903 26.75C123.32 26.75 123.687 26.6917 124.003 26.575C124.337 26.4417 124.703 26.2667 125.103 26.05C125.353 25.9 125.57 25.7917 125.753 25.725C125.937 25.6417 126.12 25.6 126.303 25.6C126.57 25.6 126.795 25.7167 126.978 25.95C127.162 26.1833 127.253 26.475 127.253 26.825C127.253 27.1083 127.187 27.3583 127.053 27.575C126.937 27.775 126.737 27.9583 126.453 28.125C125.937 28.4583 125.337 28.725 124.653 28.925C123.97 29.1083 123.27 29.2 122.553 29.2ZM140.21 26.575C140.544 26.8917 140.71 27.25 140.71 27.65C140.71 28.0333 140.569 28.375 140.285 28.675C140.019 28.975 139.702 29.125 139.335 29.125C138.969 29.125 138.627 28.975 138.31 28.675L132.46 23.375V27.65C132.46 28.1333 132.31 28.5 132.01 28.75C131.71 29 131.335 29.125 130.885 29.125C130.435 29.125 130.06 29 129.76 28.75C129.477 28.5 129.335 28.1333 129.335 27.65V12.725C129.335 12.2417 129.477 11.875 129.76 11.625C130.06 11.375 130.435 11.25 130.885 11.25C131.335 11.25 131.71 11.375 132.01 11.625C132.31 11.875 132.46 12.2417 132.46 12.725V22.125L137.81 17C138.11 16.7 138.452 16.55 138.835 16.55C139.219 16.55 139.552 16.6917 139.835 16.975C140.119 17.2583 140.26 17.5917 140.26 17.975C140.26 18.3583 140.102 18.7083 139.785 19.025L135.86 22.675L140.21 26.575ZM165.776 27.075C165.876 27.2917 165.926 27.5083 165.926 27.725C165.926 28.1083 165.768 28.4333 165.451 28.7C165.151 28.9667 164.801 29.1 164.401 29.1C164.134 29.1 163.884 29.0333 163.651 28.9C163.418 28.75 163.234 28.525 163.101 28.225L161.601 24.875H152.801L151.301 28.225C151.168 28.525 150.984 28.75 150.751 28.9C150.518 29.0333 150.259 29.1 149.976 29.1C149.593 29.1 149.243 28.9667 148.926 28.7C148.609 28.4333 148.451 28.1083 148.451 27.725C148.451 27.5083 148.501 27.2917 148.601 27.075L155.501 12.25C155.651 11.9167 155.876 11.6667 156.176 11.5C156.493 11.3167 156.826 11.225 157.176 11.225C157.526 11.225 157.851 11.3167 158.151 11.5C158.468 11.6667 158.701 11.9167 158.851 12.25L165.776 27.075ZM153.901 22.375H160.501L157.201 14.95L153.901 22.375ZM180.918 29.125C180.418 29.125 180.018 28.9833 179.718 28.7C179.434 28.4 179.293 28.0083 179.293 27.525V14.025H174.743C173.743 14.025 173.243 13.5833 173.243 12.7C173.243 11.8167 173.743 11.375 174.743 11.375H187.068C188.068 11.375 188.568 11.8167 188.568 12.7C188.568 13.5833 188.068 14.025 187.068 14.025H182.518V27.525C182.518 28.0083 182.368 28.4 182.068 28.7C181.784 28.9833 181.401 29.125 180.918 29.125ZM193.068 29.15C192.618 29.15 192.243 29.025 191.943 28.775C191.66 28.5083 191.518 28.1333 191.518 27.65V18C191.518 17.5167 191.66 17.15 191.943 16.9C192.243 16.65 192.618 16.525 193.068 16.525C193.518 16.525 193.893 16.65 194.193 16.9C194.493 17.15 194.643 17.5167 194.643 18V27.65C194.643 28.1333 194.493 28.5083 194.193 28.775C193.893 29.025 193.518 29.15 193.068 29.15ZM193.068 14.3C192.501 14.3 192.051 14.15 191.718 13.85C191.385 13.5333 191.218 13.125 191.218 12.625C191.218 12.125 191.385 11.725 191.718 11.425C192.051 11.125 192.501 10.975 193.068 10.975C193.618 10.975 194.06 11.125 194.393 11.425C194.743 11.725 194.918 12.125 194.918 12.625C194.918 13.125 194.751 13.5333 194.418 13.85C194.085 14.15 193.635 14.3 193.068 14.3ZM212.391 16.475C213.724 16.475 214.741 16.875 215.441 17.675C216.157 18.4583 216.516 19.7333 216.516 21.5V27.65C216.516 28.1333 216.366 28.5083 216.066 28.775C215.782 29.025 215.407 29.15 214.941 29.15C214.491 29.15 214.116 29.025 213.816 28.775C213.532 28.5083 213.391 28.1333 213.391 27.65V21.5C213.391 20.5833 213.224 19.9333 212.891 19.55C212.574 19.15 212.082 18.95 211.416 18.95C210.599 18.95 209.949 19.2333 209.466 19.8C208.982 20.35 208.741 21.1083 208.741 22.075V27.65C208.741 28.1333 208.591 28.5083 208.291 28.775C208.007 29.025 207.641 29.15 207.191 29.15C206.741 29.15 206.366 29.025 206.066 28.775C205.766 28.5083 205.616 28.1333 205.616 27.65V21.5C205.616 20.5833 205.449 19.9333 205.116 19.55C204.799 19.15 204.307 18.95 203.641 18.95C202.824 18.95 202.174 19.2333 201.691 19.8C201.224 20.35 200.991 21.1083 200.991 22.075V27.65C200.991 28.1333 200.841 28.5083 200.541 28.775C200.241 29.025 199.866 29.15 199.416 29.15C198.966 29.15 198.591 29.025 198.291 28.775C198.007 28.5083 197.866 28.1333 197.866 27.65V17.975C197.866 17.5083 198.016 17.15 198.316 16.9C198.616 16.65 198.991 16.525 199.441 16.525C199.874 16.525 200.224 16.65 200.491 16.9C200.774 17.1333 200.916 17.475 200.916 17.925V18.525C201.299 17.8583 201.807 17.35 202.441 17C203.091 16.65 203.832 16.475 204.666 16.475C206.499 16.475 207.724 17.2417 208.341 18.775C208.707 18.075 209.249 17.5167 209.966 17.1C210.682 16.6833 211.491 16.475 212.391 16.475ZM229.367 25.65C229.65 25.65 229.875 25.7583 230.042 25.975C230.225 26.1917 230.317 26.4833 230.317 26.85C230.317 27.3667 230.009 27.8 229.392 28.15C228.825 28.4667 228.184 28.725 227.467 28.925C226.75 29.1083 226.067 29.2 225.417 29.2C223.45 29.2 221.892 28.6333 220.742 27.5C219.592 26.3667 219.017 24.8167 219.017 22.85C219.017 21.6 219.267 20.4917 219.767 19.525C220.267 18.5583 220.967 17.8083 221.867 17.275C222.784 16.7417 223.817 16.475 224.967 16.475C226.067 16.475 227.025 16.7167 227.842 17.2C228.659 17.6833 229.292 18.3667 229.742 19.25C230.192 20.1333 230.417 21.175 230.417 22.375C230.417 23.0917 230.1 23.45 229.467 23.45H222.092C222.192 24.6 222.517 25.45 223.067 26C223.617 26.5333 224.417 26.8 225.467 26.8C226 26.8 226.467 26.7333 226.867 26.6C227.284 26.4667 227.75 26.2833 228.267 26.05C228.767 25.7833 229.134 25.65 229.367 25.65ZM225.042 18.675C224.192 18.675 223.509 18.9417 222.992 19.475C222.492 20.0083 222.192 20.775 222.092 21.775H227.742C227.709 20.7583 227.459 19.9917 226.992 19.475C226.525 18.9417 225.875 18.675 225.042 18.675Z" fill="#7EB87A"/>
</svg>
