<svg width="288" height="133" viewBox="0 0 288 133" fill="none" xmlns="http://www.w3.org/2000/svg">
<rect width="288" height="132.644" rx="15" fill="#74B370"/>
<path d="M67.606 112.162C65.866 112.162 64.546 111.712 63.646 110.812C62.746 109.912 62.296 108.598 62.296 106.87V100.372C62.296 100.024 62.398 99.748 62.602 99.544C62.806 99.328 63.082 99.22 63.43 99.22C63.778 99.22 64.054 99.328 64.258 99.544C64.462 99.748 64.564 100.024 64.564 100.372V106.996C64.564 108.088 64.822 108.916 65.338 109.48C65.854 110.032 66.61 110.308 67.606 110.308C68.59 110.308 69.34 110.026 69.856 109.462C70.372 108.898 70.63 108.076 70.63 106.996V100.372C70.63 100.024 70.732 99.748 70.936 99.544C71.14 99.328 71.416 99.22 71.764 99.22C72.112 99.22 72.388 99.328 72.592 99.544C72.796 99.748 72.898 100.024 72.898 100.372V106.87C72.898 108.586 72.448 109.9 71.548 110.812C70.648 111.712 69.334 112.162 67.606 112.162ZM80.4292 102.982C81.1852 102.982 81.8572 103.174 82.4452 103.558C83.0452 103.942 83.5072 104.488 83.8312 105.196C84.1672 105.892 84.3352 106.696 84.3352 107.608C84.3352 108.52 84.1672 109.318 83.8312 110.002C83.5072 110.686 83.0512 111.214 82.4632 111.586C81.8752 111.958 81.1972 112.144 80.4292 112.144C79.8052 112.144 79.2472 112.012 78.7552 111.748C78.2632 111.484 77.8852 111.118 77.6212 110.65V114.322C77.6212 114.634 77.5192 114.88 77.3152 115.06C77.1112 115.24 76.8412 115.33 76.5052 115.33C76.1692 115.33 75.8932 115.234 75.6772 115.042C75.4732 114.85 75.3712 114.598 75.3712 114.286V104.08C75.3712 103.756 75.4672 103.498 75.6592 103.306C75.8632 103.114 76.1332 103.018 76.4692 103.018C76.8052 103.018 77.0752 103.114 77.2792 103.306C77.4832 103.498 77.5852 103.756 77.5852 104.08V104.53C77.8492 104.038 78.2272 103.66 78.7192 103.396C79.2232 103.12 79.7932 102.982 80.4292 102.982ZM79.8352 110.398C80.5432 110.398 81.0952 110.158 81.4912 109.678C81.8872 109.186 82.0852 108.496 82.0852 107.608C82.0852 106.696 81.8872 105.988 81.4912 105.484C81.0952 104.98 80.5432 104.728 79.8352 104.728C79.1152 104.728 78.5572 104.974 78.1612 105.466C77.7772 105.958 77.5852 106.66 77.5852 107.572C77.5852 108.472 77.7772 109.168 78.1612 109.66C78.5572 110.152 79.1152 110.398 79.8352 110.398ZM87.2977 112.108C86.9737 112.108 86.7037 112.018 86.4877 111.838C86.2837 111.646 86.1817 111.376 86.1817 111.028V100.282C86.1817 99.934 86.2837 99.67 86.4877 99.49C86.7037 99.31 86.9737 99.22 87.2977 99.22C87.6217 99.22 87.8917 99.31 88.1077 99.49C88.3237 99.67 88.4317 99.934 88.4317 100.282V111.028C88.4317 111.376 88.3237 111.646 88.1077 111.838C87.8917 112.018 87.6217 112.108 87.2977 112.108ZM94.766 112.144C93.866 112.144 93.074 111.958 92.39 111.586C91.718 111.214 91.196 110.68 90.824 109.984C90.452 109.288 90.266 108.478 90.266 107.554C90.266 106.63 90.452 105.826 90.824 105.142C91.196 104.446 91.718 103.912 92.39 103.54C93.074 103.168 93.866 102.982 94.766 102.982C95.666 102.982 96.452 103.168 97.124 103.54C97.808 103.912 98.33 104.446 98.69 105.142C99.062 105.826 99.248 106.63 99.248 107.554C99.248 108.478 99.062 109.288 98.69 109.984C98.33 110.68 97.808 111.214 97.124 111.586C96.452 111.958 95.666 112.144 94.766 112.144ZM94.748 110.398C95.48 110.398 96.038 110.158 96.422 109.678C96.806 109.198 96.998 108.49 96.998 107.554C96.998 106.63 96.806 105.928 96.422 105.448C96.038 104.956 95.486 104.71 94.766 104.71C94.046 104.71 93.488 104.956 93.092 105.448C92.708 105.928 92.516 106.63 92.516 107.554C92.516 108.49 92.708 109.198 93.092 109.678C93.476 110.158 94.028 110.398 94.748 110.398ZM104.922 102.982C106.146 102.982 107.052 103.288 107.64 103.9C108.24 104.5 108.54 105.418 108.54 106.654V111.046C108.54 111.37 108.444 111.628 108.252 111.82C108.06 112 107.796 112.09 107.46 112.09C107.148 112.09 106.89 111.994 106.686 111.802C106.494 111.61 106.398 111.358 106.398 111.046V110.65C106.194 111.118 105.87 111.484 105.426 111.748C104.994 112.012 104.49 112.144 103.914 112.144C103.326 112.144 102.792 112.024 102.312 111.784C101.832 111.544 101.454 111.214 101.178 110.794C100.902 110.374 100.764 109.906 100.764 109.39C100.764 108.742 100.926 108.232 101.25 107.86C101.586 107.488 102.126 107.218 102.87 107.05C103.614 106.882 104.64 106.798 105.948 106.798H106.398V106.384C106.398 105.796 106.272 105.37 106.02 105.106C105.768 104.83 105.36 104.692 104.796 104.692C104.448 104.692 104.094 104.746 103.734 104.854C103.374 104.95 102.948 105.094 102.456 105.286C102.144 105.442 101.916 105.52 101.772 105.52C101.556 105.52 101.376 105.442 101.232 105.286C101.1 105.13 101.034 104.926 101.034 104.674C101.034 104.47 101.082 104.296 101.178 104.152C101.286 103.996 101.46 103.852 101.7 103.72C102.12 103.492 102.618 103.312 103.194 103.18C103.782 103.048 104.358 102.982 104.922 102.982ZM104.364 110.524C104.964 110.524 105.45 110.326 105.822 109.93C106.206 109.522 106.398 109 106.398 108.364V107.986H106.074C105.27 107.986 104.646 108.022 104.202 108.094C103.758 108.166 103.44 108.292 103.248 108.472C103.056 108.652 102.96 108.898 102.96 109.21C102.96 109.594 103.092 109.912 103.356 110.164C103.632 110.404 103.968 110.524 104.364 110.524ZM118.17 99.22C118.506 99.22 118.782 99.316 118.998 99.508C119.214 99.7 119.322 99.952 119.322 100.264V111.028C119.322 111.352 119.22 111.61 119.016 111.802C118.812 111.994 118.542 112.09 118.206 112.09C117.87 112.09 117.6 111.994 117.396 111.802C117.192 111.61 117.09 111.352 117.09 111.028V110.578C116.826 111.07 116.442 111.454 115.938 111.73C115.446 112.006 114.882 112.144 114.246 112.144C113.49 112.144 112.812 111.952 112.212 111.568C111.624 111.184 111.162 110.644 110.826 109.948C110.502 109.24 110.34 108.43 110.34 107.518C110.34 106.606 110.502 105.808 110.826 105.124C111.162 104.44 111.624 103.912 112.212 103.54C112.8 103.168 113.478 102.982 114.246 102.982C114.882 102.982 115.446 103.114 115.938 103.378C116.43 103.642 116.808 104.014 117.072 104.494V100.228C117.072 99.928 117.168 99.688 117.36 99.508C117.564 99.316 117.834 99.22 118.17 99.22ZM114.84 110.398C115.56 110.398 116.112 110.152 116.496 109.66C116.892 109.168 117.09 108.466 117.09 107.554C117.09 106.642 116.892 105.946 116.496 105.466C116.112 104.974 115.566 104.728 114.858 104.728C114.138 104.728 113.58 104.968 113.184 105.448C112.788 105.928 112.59 106.618 112.59 107.518C112.59 108.43 112.788 109.138 113.184 109.642C113.58 110.146 114.132 110.398 114.84 110.398ZM131.582 102.982C132.338 102.982 133.01 103.174 133.598 103.558C134.198 103.942 134.66 104.488 134.984 105.196C135.32 105.892 135.488 106.696 135.488 107.608C135.488 108.52 135.32 109.318 134.984 110.002C134.66 110.686 134.204 111.214 133.616 111.586C133.028 111.958 132.35 112.144 131.582 112.144C130.958 112.144 130.4 112.012 129.908 111.748C129.416 111.484 129.038 111.118 128.774 110.65V114.322C128.774 114.634 128.672 114.88 128.468 115.06C128.264 115.24 127.994 115.33 127.658 115.33C127.322 115.33 127.046 115.234 126.83 115.042C126.626 114.85 126.524 114.598 126.524 114.286V104.08C126.524 103.756 126.62 103.498 126.812 103.306C127.016 103.114 127.286 103.018 127.622 103.018C127.958 103.018 128.228 103.114 128.432 103.306C128.636 103.498 128.738 103.756 128.738 104.08V104.53C129.002 104.038 129.38 103.66 129.872 103.396C130.376 103.12 130.946 102.982 131.582 102.982ZM130.988 110.398C131.696 110.398 132.248 110.158 132.644 109.678C133.04 109.186 133.238 108.496 133.238 107.608C133.238 106.696 133.04 105.988 132.644 105.484C132.248 104.98 131.696 104.728 130.988 104.728C130.268 104.728 129.71 104.974 129.314 105.466C128.93 105.958 128.738 106.66 128.738 107.572C128.738 108.472 128.93 109.168 129.314 109.66C129.71 110.152 130.268 110.398 130.988 110.398ZM142.248 103.018C142.56 102.994 142.806 103.06 142.986 103.216C143.166 103.372 143.256 103.606 143.256 103.918C143.256 104.242 143.178 104.482 143.022 104.638C142.866 104.794 142.584 104.896 142.176 104.944L141.636 104.998C140.928 105.07 140.406 105.31 140.07 105.718C139.746 106.126 139.584 106.636 139.584 107.248V111.028C139.584 111.376 139.476 111.646 139.26 111.838C139.044 112.018 138.774 112.108 138.45 112.108C138.126 112.108 137.856 112.018 137.64 111.838C137.436 111.646 137.334 111.376 137.334 111.028V104.062C137.334 103.726 137.436 103.468 137.64 103.288C137.856 103.108 138.12 103.018 138.432 103.018C138.744 103.018 138.996 103.108 139.188 103.288C139.38 103.456 139.476 103.702 139.476 104.026V104.746C139.704 104.218 140.04 103.81 140.484 103.522C140.94 103.234 141.444 103.072 141.996 103.036L142.248 103.018ZM151.015 109.588C151.219 109.588 151.381 109.666 151.501 109.822C151.633 109.978 151.699 110.188 151.699 110.452C151.699 110.824 151.477 111.136 151.033 111.388C150.625 111.616 150.163 111.802 149.647 111.946C149.131 112.078 148.639 112.144 148.171 112.144C146.755 112.144 145.633 111.736 144.805 110.92C143.977 110.104 143.563 108.988 143.563 107.572C143.563 106.672 143.743 105.874 144.103 105.178C144.463 104.482 144.967 103.942 145.615 103.558C146.275 103.174 147.019 102.982 147.847 102.982C148.639 102.982 149.329 103.156 149.917 103.504C150.505 103.852 150.961 104.344 151.285 104.98C151.609 105.616 151.771 106.366 151.771 107.23C151.771 107.746 151.543 108.004 151.087 108.004H145.777C145.849 108.832 146.083 109.444 146.479 109.84C146.875 110.224 147.451 110.416 148.207 110.416C148.591 110.416 148.927 110.368 149.215 110.272C149.515 110.176 149.851 110.044 150.223 109.876C150.583 109.684 150.847 109.588 151.015 109.588ZM147.901 104.566C147.289 104.566 146.797 104.758 146.425 105.142C146.065 105.526 145.849 106.078 145.777 106.798H149.845C149.821 106.066 149.641 105.514 149.305 105.142C148.969 104.758 148.501 104.566 147.901 104.566ZM156.797 112.144C155.489 112.144 154.433 111.886 153.629 111.37C153.245 111.142 153.053 110.818 153.053 110.398C153.053 110.158 153.119 109.966 153.251 109.822C153.383 109.666 153.545 109.588 153.737 109.588C153.941 109.588 154.223 109.684 154.583 109.876C154.967 110.056 155.315 110.194 155.627 110.29C155.951 110.386 156.359 110.434 156.851 110.434C157.355 110.434 157.745 110.35 158.021 110.182C158.309 110.014 158.453 109.78 158.453 109.48C158.453 109.276 158.393 109.114 158.273 108.994C158.165 108.874 157.961 108.766 157.661 108.67C157.373 108.562 156.929 108.442 156.329 108.31C155.261 108.094 154.493 107.788 154.025 107.392C153.569 106.996 153.341 106.45 153.341 105.754C153.341 105.226 153.497 104.752 153.809 104.332C154.121 103.9 154.547 103.57 155.087 103.342C155.639 103.102 156.263 102.982 156.959 102.982C157.463 102.982 157.949 103.048 158.417 103.18C158.885 103.3 159.305 103.48 159.677 103.72C160.061 103.96 160.253 104.278 160.253 104.674C160.253 104.914 160.187 105.118 160.055 105.286C159.923 105.442 159.761 105.52 159.569 105.52C159.437 105.52 159.305 105.496 159.173 105.448C159.053 105.388 158.897 105.304 158.705 105.196C158.357 105.016 158.057 104.884 157.805 104.8C157.553 104.704 157.241 104.656 156.869 104.656C156.425 104.656 156.071 104.746 155.807 104.926C155.555 105.106 155.429 105.352 155.429 105.664C155.429 105.964 155.561 106.192 155.825 106.348C156.089 106.504 156.599 106.66 157.355 106.816C158.159 106.984 158.789 107.176 159.245 107.392C159.701 107.608 160.025 107.878 160.217 108.202C160.421 108.526 160.523 108.94 160.523 109.444C160.523 110.26 160.181 110.914 159.497 111.406C158.825 111.898 157.925 112.144 156.797 112.144ZM166.254 112.144C165.378 112.144 164.604 111.958 163.932 111.586C163.272 111.214 162.762 110.686 162.402 110.002C162.042 109.318 161.862 108.52 161.862 107.608C161.862 106.696 162.048 105.892 162.42 105.196C162.804 104.488 163.338 103.942 164.022 103.558C164.706 103.174 165.492 102.982 166.38 102.982C166.848 102.982 167.316 103.048 167.784 103.18C168.264 103.312 168.684 103.492 169.044 103.72C169.428 103.972 169.62 104.29 169.62 104.674C169.62 104.938 169.554 105.154 169.422 105.322C169.302 105.478 169.14 105.556 168.936 105.556C168.804 105.556 168.666 105.526 168.522 105.466C168.378 105.406 168.234 105.334 168.09 105.25C167.826 105.094 167.574 104.974 167.334 104.89C167.094 104.794 166.818 104.746 166.506 104.746C165.762 104.746 165.186 104.992 164.778 105.484C164.382 105.964 164.184 106.66 164.184 107.572C164.184 108.472 164.382 109.168 164.778 109.66C165.186 110.14 165.762 110.38 166.506 110.38C166.806 110.38 167.07 110.338 167.298 110.254C167.538 110.158 167.802 110.032 168.09 109.876C168.27 109.768 168.426 109.69 168.558 109.642C168.69 109.582 168.822 109.552 168.954 109.552C169.146 109.552 169.308 109.636 169.44 109.804C169.572 109.972 169.638 110.182 169.638 110.434C169.638 110.638 169.59 110.818 169.494 110.974C169.41 111.118 169.266 111.25 169.062 111.37C168.69 111.61 168.258 111.802 167.766 111.946C167.274 112.078 166.77 112.144 166.254 112.144ZM176.051 103.018C176.363 102.994 176.609 103.06 176.789 103.216C176.969 103.372 177.059 103.606 177.059 103.918C177.059 104.242 176.981 104.482 176.825 104.638C176.669 104.794 176.387 104.896 175.979 104.944L175.439 104.998C174.731 105.07 174.209 105.31 173.873 105.718C173.549 106.126 173.387 106.636 173.387 107.248V111.028C173.387 111.376 173.279 111.646 173.063 111.838C172.847 112.018 172.577 112.108 172.253 112.108C171.929 112.108 171.659 112.018 171.443 111.838C171.239 111.646 171.137 111.376 171.137 111.028V104.062C171.137 103.726 171.239 103.468 171.443 103.288C171.659 103.108 171.923 103.018 172.235 103.018C172.547 103.018 172.799 103.108 172.991 103.288C173.183 103.456 173.279 103.702 173.279 104.026V104.746C173.507 104.218 173.843 103.81 174.287 103.522C174.743 103.234 175.247 103.072 175.799 103.036L176.051 103.018ZM179.143 112.108C178.819 112.108 178.549 112.018 178.333 111.838C178.129 111.646 178.027 111.376 178.027 111.028V104.08C178.027 103.732 178.129 103.468 178.333 103.288C178.549 103.108 178.819 103.018 179.143 103.018C179.467 103.018 179.737 103.108 179.953 103.288C180.169 103.468 180.277 103.732 180.277 104.08V111.028C180.277 111.376 180.169 111.646 179.953 111.838C179.737 112.018 179.467 112.108 179.143 112.108ZM179.143 101.416C178.735 101.416 178.411 101.308 178.171 101.092C177.931 100.864 177.811 100.57 177.811 100.21C177.811 99.85 177.931 99.562 178.171 99.346C178.411 99.13 178.735 99.022 179.143 99.022C179.539 99.022 179.857 99.13 180.097 99.346C180.349 99.562 180.475 99.85 180.475 100.21C180.475 100.57 180.355 100.864 180.115 101.092C179.875 101.308 179.551 101.416 179.143 101.416ZM187.656 102.982C188.412 102.982 189.084 103.174 189.672 103.558C190.272 103.942 190.734 104.488 191.058 105.196C191.394 105.892 191.562 106.696 191.562 107.608C191.562 108.52 191.394 109.318 191.058 110.002C190.734 110.686 190.278 111.214 189.69 111.586C189.102 111.958 188.424 112.144 187.656 112.144C187.032 112.144 186.474 112.012 185.982 111.748C185.49 111.484 185.112 111.118 184.848 110.65V114.322C184.848 114.634 184.746 114.88 184.542 115.06C184.338 115.24 184.068 115.33 183.732 115.33C183.396 115.33 183.12 115.234 182.904 115.042C182.7 114.85 182.598 114.598 182.598 114.286V104.08C182.598 103.756 182.694 103.498 182.886 103.306C183.09 103.114 183.36 103.018 183.696 103.018C184.032 103.018 184.302 103.114 184.506 103.306C184.71 103.498 184.812 103.756 184.812 104.08V104.53C185.076 104.038 185.454 103.66 185.946 103.396C186.45 103.12 187.02 102.982 187.656 102.982ZM187.062 110.398C187.77 110.398 188.322 110.158 188.718 109.678C189.114 109.186 189.312 108.496 189.312 107.608C189.312 106.696 189.114 105.988 188.718 105.484C188.322 104.98 187.77 104.728 187.062 104.728C186.342 104.728 185.784 104.974 185.388 105.466C185.004 105.958 184.812 106.66 184.812 107.572C184.812 108.472 185.004 109.168 185.388 109.66C185.784 110.152 186.342 110.398 187.062 110.398ZM197.928 110.434C198.528 110.47 198.828 110.74 198.828 111.244C198.828 111.532 198.708 111.754 198.468 111.91C198.24 112.054 197.91 112.114 197.478 112.09L196.992 112.054C194.976 111.91 193.968 110.83 193.968 108.814V104.89H193.068C192.744 104.89 192.492 104.818 192.312 104.674C192.144 104.53 192.06 104.32 192.06 104.044C192.06 103.768 192.144 103.558 192.312 103.414C192.492 103.27 192.744 103.198 193.068 103.198H193.968V101.542C193.968 101.218 194.07 100.96 194.274 100.768C194.478 100.576 194.754 100.48 195.102 100.48C195.438 100.48 195.708 100.576 195.912 100.768C196.116 100.96 196.218 101.218 196.218 101.542V103.198H197.748C198.072 103.198 198.318 103.27 198.486 103.414C198.666 103.558 198.756 103.768 198.756 104.044C198.756 104.32 198.666 104.53 198.486 104.674C198.318 104.818 198.072 104.89 197.748 104.89H196.218V108.976C196.218 109.864 196.626 110.338 197.442 110.398L197.928 110.434ZM201.116 112.108C200.792 112.108 200.522 112.018 200.306 111.838C200.102 111.646 200 111.376 200 111.028V104.08C200 103.732 200.102 103.468 200.306 103.288C200.522 103.108 200.792 103.018 201.116 103.018C201.44 103.018 201.71 103.108 201.926 103.288C202.142 103.468 202.25 103.732 202.25 104.08V111.028C202.25 111.376 202.142 111.646 201.926 111.838C201.71 112.018 201.44 112.108 201.116 112.108ZM201.116 101.416C200.708 101.416 200.384 101.308 200.144 101.092C199.904 100.864 199.784 100.57 199.784 100.21C199.784 99.85 199.904 99.562 200.144 99.346C200.384 99.13 200.708 99.022 201.116 99.022C201.512 99.022 201.83 99.13 202.07 99.346C202.322 99.562 202.448 99.85 202.448 100.21C202.448 100.57 202.328 100.864 202.088 101.092C201.848 101.308 201.524 101.416 201.116 101.416ZM208.584 112.144C207.684 112.144 206.892 111.958 206.208 111.586C205.536 111.214 205.014 110.68 204.642 109.984C204.27 109.288 204.084 108.478 204.084 107.554C204.084 106.63 204.27 105.826 204.642 105.142C205.014 104.446 205.536 103.912 206.208 103.54C206.892 103.168 207.684 102.982 208.584 102.982C209.484 102.982 210.27 103.168 210.942 103.54C211.626 103.912 212.148 104.446 212.508 105.142C212.88 105.826 213.066 106.63 213.066 107.554C213.066 108.478 212.88 109.288 212.508 109.984C212.148 110.68 211.626 111.214 210.942 111.586C210.27 111.958 209.484 112.144 208.584 112.144ZM208.566 110.398C209.298 110.398 209.856 110.158 210.24 109.678C210.624 109.198 210.816 108.49 210.816 107.554C210.816 106.63 210.624 105.928 210.24 105.448C209.856 104.956 209.304 104.71 208.584 104.71C207.864 104.71 207.306 104.956 206.91 105.448C206.526 105.928 206.334 106.63 206.334 107.554C206.334 108.49 206.526 109.198 206.91 109.678C207.294 110.158 207.846 110.398 208.566 110.398ZM220.036 102.982C221.092 102.982 221.878 103.282 222.394 103.882C222.91 104.482 223.168 105.388 223.168 106.6V111.028C223.168 111.364 223.066 111.628 222.862 111.82C222.67 112.012 222.4 112.108 222.052 112.108C221.704 112.108 221.428 112.012 221.224 111.82C221.02 111.628 220.918 111.364 220.918 111.028V106.726C220.918 106.042 220.786 105.544 220.522 105.232C220.27 104.92 219.868 104.764 219.316 104.764C218.668 104.764 218.146 104.968 217.75 105.376C217.366 105.784 217.174 106.33 217.174 107.014V111.028C217.174 111.364 217.072 111.628 216.868 111.82C216.664 112.012 216.388 112.108 216.04 112.108C215.692 112.108 215.416 112.012 215.212 111.82C215.02 111.628 214.924 111.364 214.924 111.028V104.062C214.924 103.75 215.026 103.498 215.23 103.306C215.434 103.114 215.71 103.018 216.058 103.018C216.37 103.018 216.622 103.114 216.814 103.306C217.018 103.486 217.12 103.726 217.12 104.026V104.512C217.42 104.02 217.822 103.642 218.326 103.378C218.83 103.114 219.4 102.982 220.036 102.982Z" fill="white"/>
<circle cx="144" cy="54.0567" r="31.3438" fill="white"/>
<rect x="131.846" y="52.7638" width="24.3075" height="2.5859" rx="1.29295" fill="#74B370"/>
<rect width="24.3075" height="2.5859" rx="1.29295" transform="matrix(0 -1 -1 0 145.293 66.2104)" fill="#74B370"/>
</svg>
